<?xml version="1.0" encoding="UTF-8" standalone="no"?>
<!-- Created with Inkscape (http://www.inkscape.org/) -->

<svg
   xmlns:dc="http://purl.org/dc/elements/1.1/"
   xmlns:cc="http://creativecommons.org/ns#"
   xmlns:rdf="http://www.w3.org/1999/02/22-rdf-syntax-ns#"
   xmlns:svg="http://www.w3.org/2000/svg"
   xmlns="http://www.w3.org/2000/svg"
   xmlns:sodipodi="http://sodipodi.sourceforge.net/DTD/sodipodi-0.dtd"
   xmlns:inkscape="http://www.inkscape.org/namespaces/inkscape"
   width="55.384499mm"
   height="53.90485mm"
   viewBox="0 0 55.384499 53.90485"
   version="1.1"
   id="svg8"
   sodipodi:docname="frog.svg"
   inkscape:version="0.92.2 (5c3e80d, 2017-08-06)"
   inkscape:export-filename="C:\git\cd\clearlydefined\branding\frog.png"
   inkscape:export-xdpi="96"
   inkscape:export-ydpi="96">
  <defs
     id="defs2" />
  <sodipodi:namedview
     id="base"
     pagecolor="#ffffff"
     bordercolor="#666666"
     borderopacity="1.0"
     inkscape:pageopacity="0.0"
     inkscape:pageshadow="2"
     inkscape:zoom="5.6"
     inkscape:cx="116.30496"
     inkscape:cy="103.0928"
     inkscape:document-units="mm"
     inkscape:current-layer="layer1"
     showgrid="false"
     inkscape:window-width="2560"
     inkscape:window-height="1387"
     inkscape:window-x="-8"
     inkscape:window-y="-8"
     inkscape:window-maximized="1"
     fit-margin-top="0"
     fit-margin-left="0"
     fit-margin-right="0"
     fit-margin-bottom="0" />
  <metadata
     id="metadata5">
    <rdf:RDF>
      <cc:Work
         rdf:about="">
        <dc:format>image/svg+xml</dc:format>
        <dc:type
           rdf:resource="http://purl.org/dc/dcmitype/StillImage" />
        <dc:title></dc:title>
      </cc:Work>
    </rdf:RDF>
  </metadata>
  <g
     inkscape:label="Layer 1"
     inkscape:groupmode="layer"
     id="layer1"
     transform="translate(-0.43426768,-0.59682435)">
    <path
       style="fill:#000001;fill-opacity:1;stroke:#000000;stroke-width:0.26458332px;stroke-linecap:butt;stroke-linejoin:miter;stroke-opacity:1"
       d="m 41.189186,0.73278208 c -0.152064,-0.00415 -0.301773,-2.646e-4 -0.442865,0.00826 -0.75126,0.046101 -1.317892,0.35186142 -2.031402,0.65939192 -0.627927,0.2706397 -2.186731,1.0936582 -2.76417,1.4598602 -1.269318,0.746688 -2.401562,1.696849 -3.250966,2.5616 -0.888751,0.93708 -3.71599,3.936622 -2.891813,5.5464308 -1.298268,0.59295 -1.637615,1.172218 -2.678906,1.721858 -1.977796,1.043969 -1.663898,1.814412 -2.638599,3.172934 l -1.168921,1.135848 c 0,0 -0.598047,-2.16349 -1.129647,-2.539381 -0.52722,-0.372819 -1.260817,-0.571267 -1.889807,-0.425296 -0.90566,0.21018 -1.398214,1.234302 -2.172994,1.748213 -1.55023,1.028261 -3.460552,1.484683 -4.913912,2.645833 -0.50582,0.40412 -0.932712,0.98701 -1.369942,1.464511 -1.18096,1.289691 -2.4974189,2.324114 -3.5439689,3.779613 -0.55195,0.76763 -1.553898,1.136676 -2.456698,1.417487 -1.13148,0.351977 -2.361683,0.197003 -3.543453,0.283702 -0.47225,0.0346 -1.079084,-0.23717 -1.41748453,0.09405 -0.3841599,0.37601 -0.4038134,1.13737 -0.1415933,1.606622 0.2404998,0.430389 0.83031683,0.640955 1.32291683,0.661458 0.42369,0.0176 0.764133,-0.396325 1.181323,-0.472324 0.77485,-0.14125 1.57927,0.133424 2.36213,0.04703 0.72517,-0.08 1.397918,-0.472864 2.125968,-0.519864 0.14232,-0.009 0.366897,-0.08256 0.425297,0.04754 0.37937,0.845148 -0.925693,1.63889 -1.606103,2.267561 -0.63283,0.584711 -1.499773,0.851628 -2.221053,1.322917 -0.34024,0.22231 -0.858138,0.32531 -0.992188,0.709001 -0.15127,0.432959 0.03123,1.023096 0.378272,1.322917 0.36069,0.31161 0.975144,0.366188 1.417484,0.188618 0.28075,-0.112709 0.338641,-0.509923 0.566891,-0.708485 0.44221,-0.38467 1.024072,-0.572958 1.512052,-0.897617 0.50613,-0.336741 1.00703,-0.686406 1.46451,-1.086758 0.59506,-0.520758 0.979096,-1.288039 1.6536459,-1.70067 0.18273,-0.111789 0.446616,-0.322916 0.613916,-0.189135 0.16038,0.128228 0.04267,0.429186 -0.04703,0.613915 -0.23361,0.481299 -0.349391,1.240504 -0.563716,1.621975 -0.280486,0.499227 -0.691689,0.707587 -0.9628056,1.211959 -0.2163734,0.40253 -0.091653,0.859993 0.222726,1.19166 0.3697975,0.390133 1.7077876,0.03166 1.8376136,-0.467672 0.255112,-0.981206 0.181661,-2.251535 0.68988,-2.797245 0.66078,-0.586041 1.106686,-0.880371 1.422136,-1.705321 0.42363,-1.107871 0.07107,-2.467708 0.661458,-3.496429 0.47787,-0.83266 1.292161,-1.509146 2.173511,-1.889808 0.712649,-0.466309 1.760125,-0.69719 2.596224,-0.152961 -0.333413,0.434211 -0.430977,0.723773 -0.972551,1.179772 -1.644061,0.639752 -2.713402,2.0471 -2.568835,3.697449 -0.05986,0.893871 -1.000533,2.333151 -1.167371,3.146062 -0.155278,0.75659 0.02776,1.616493 0.128158,2.382282 0.1783,1.360062 0.133861,2.876376 0.897619,4.015777 0.673846,1.005261 1.83085,1.689114 2.976563,2.078943 1.611961,0.54847 3.406496,0.386831 5.102531,0.236161 2.12352,-0.18865 4.209989,-0.756536 6.236828,-1.417484 0.945673,-0.308382 1.652074,-0.940519 2.645834,-0.89762 2.064408,0.0891 4.771804,-0.345278 6.142261,-0.425296 0.537856,0.580509 0.07711,1.636135 -0.23668,2.362644 -0.380661,0.881351 -1.057148,1.695125 -1.889805,2.172994 -1.028721,0.590391 -2.388045,0.237829 -3.495912,0.661458 -0.824954,0.315452 -1.115751,0.829362 -1.819903,1.372023 -1.118064,0.512374 -2.409649,0.538874 -3.212347,1.269162 -0.137896,0.125457 -0.857806,1.468329 -0.467672,1.838129 0.33167,0.31438 0.789133,0.438578 1.191658,0.22221 0.504376,-0.271121 0.72565,-0.682506 1.070736,-1.139468 0.322413,-0.426939 1.760948,-0.791189 2.292366,-0.916222 0.236697,-0.05506 0.494626,-0.201785 0.614433,-0.04703 0.133775,0.167299 -0.07736,0.431702 -0.189135,0.614434 -0.412635,0.67455 -1.180433,1.058585 -1.701189,1.653646 -0.400349,0.457478 -0.7495,0.958379 -1.086238,1.464508 -0.324659,0.487982 -0.51346,1.069843 -0.898137,1.512054 -0.198555,0.228249 -0.595778,0.286139 -0.708483,0.566889 -0.177576,0.442341 -0.122473,1.056796 0.189135,1.417486 0.299819,0.347039 0.889963,0.529024 1.322917,0.377754 0.383691,-0.134051 0.486168,-0.651947 0.708484,-0.992187 0.471289,-0.721281 0.738211,-1.587707 1.322916,-2.220537 0.62867,-0.680411 1.422933,-1.985989 2.268079,-1.606619 0.130109,0.0584 0.05623,0.282977 0.04703,0.425297 -0.04705,0.728048 -0.439867,1.400796 -0.519865,2.125966 -0.08636,0.78286 0.188743,1.587797 0.04754,2.362647 -0.07602,0.41719 -0.489946,0.757635 -0.472323,1.181325 0.02049,0.492599 0.231073,1.082416 0.661459,1.322917 0.469253,0.262218 1.230096,0.242049 1.606104,-0.14211 0.331221,-0.338403 0.05994,-0.945235 0.09457,-1.417487 0.08666,-1.18177 -0.06823,-2.411971 0.283705,-3.543451 0.280807,-0.902801 0.649335,-1.904749 1.416965,-2.456698 1.455508,-1.046552 2.490439,-2.362494 3.780131,-3.543454 0.477494,-0.437229 1.060387,-0.86464 1.464511,-1.370459 1.161156,-1.453359 1.617576,-3.363164 2.645834,-4.913395 0.513908,-0.774779 1.538036,-1.267852 1.748213,-2.17351 0.145973,-0.628991 -0.0525,-1.362588 -0.425297,-1.889807 -0.375888,-0.531601 -1.081793,-0.727964 -1.653645,-1.039212 -0.884989,-0.481682 -4.5768,-0.322038 -1.748214,-2.126485 2.740327,-1.748132 5.347682,-4.864706 6.047693,-6.377906 0.338801,1.04735 1.321612,1.735286 1.822111,2.166276 1.216409,1.047459 3.510979,-0.09456 3.941879,-0.51263 0.972979,-0.899922 0.980993,-3.828955 1.086755,-5.150075 0.230454,-2.87871 0.176717,-4.048094 -0.189139,-6.850743 -0.315343,-2.415723 -0.520165,-3.2294168 -1.416965,-5.2916668 -0.393327,-0.90447 -0.998429,-2.202241 -1.937351,-2.504242 -1.031454,-0.331769 -2.103937,-0.403439 -2.881995,0.378273 l -0.809252,1.264523 c -0.381201,-0.606481 -0.546933,-1.112407 -0.994772,-1.602486 -0.296349,-0.404133 -1.063593,-0.913628 -1.597835,-1.150319 -0.437938,-0.194029 -1.995987,-0.273404 -3.320727,-0.194304 0.228899,-0.39624 0.732055,-0.767057 0.721918,-1.436087 C 43.115416,1.8516415 42.830952,1.3700443 42.460943,1.0883027 42.123549,0.83139758 41.645383,0.74519628 41.189186,0.73276888 Z M 27.415868,30.317021 c 0.400007,-0.01849 0.84271,0.111573 1.107426,0.395328 0.297142,0.318508 0.473168,0.883142 0.283704,1.275373 -0.26654,0.551789 -1.042731,0.755568 -1.653646,0.803569 -0.37747,0.02964 -0.819023,-0.063 -1.086756,-0.330729 -0.267729,-0.267732 -0.45576,-0.729367 -0.330729,-1.086755 0.201955,-0.577271 0.907489,-0.944031 1.511536,-1.039731 0.05475,-0.0087 0.111321,-0.01442 0.168465,-0.01707 z"
       id="path840-4"
       inkscape:connector-curvature="0"
       inkscape:export-xdpi="96"
       inkscape:export-ydpi="96"
       sodipodi:nodetypes="ccccccscccccscsccccccccccccccccccccssssccccccccccscscccsccsccscccccccccccccccccccsscccccsccccsccccccccccccccccccccc" />
  </g>
</svg>
