<svg xmlns="http://www.w3.org/2000/svg" viewBox="0 0 16 16"><title>Logo_color</title><path d="M13.6,8.732c.246-.034.5-.045.751-.067a.192.192,0,0,0,.19-.169c.012-.135.023-.281.023-.416,0-.236-.011-.46-.023-.7a.156.156,0,0,0-.156-.169c-.113-.011-.213-.011-.314-.022-.225-.023-.438-.045-.651-.079a.235.235,0,0,1-.224-.236c-.011-.3-.022-.6-.011-.9,0-.169.09-.225.269-.236a6.854,6.854,0,0,0,.695-.034c.213-.033.359-.112.359-.281l-1.4-.82c-.012.259-.023.506-.045.764-.023.191-.112.259-.292.247a.786.786,0,0,1-.168,0,2.994,2.994,0,0,1-.549-.134.506.506,0,0,1-.191-.214,1.388,1.388,0,0,1-.089-.708.277.277,0,0,1,.246-.27l.359-.033c.157-.011.325-.011.482-.023.1-.011.2-.067.2-.18q0-.438-.034-.876c-.022-.247-.134-.337-.381-.337-.056,0-.123-.011-.179-.011-.236,0-.471.011-.707.022-.033,0-.089.034-.089.068-.023.123-.034.236-.045.359-.023.214-.034.427-.067.629-.012.1-.045.214-.18.225a2.949,2.949,0,0,1-.448.011,1.286,1.286,0,0,1-.4-.123.6.6,0,0,1-.291-.517c-.011-.236-.034-.461-.056-.686.134-.011.246-.022.358-.033l-.37-.438c-.011.089-.033.191-.044.28a.119.119,0,0,1-.135.113c-.325,0-.661.011-.986-.011-.236-.012-.281-.079-.3-.315-.023-.258-.045-.506-.067-.764-.023-.2-.112-.292-.314-.292H7.549c-.179.011-.269.078-.291.258-.034.315-.068.629-.09.955-.011.113-.067.158-.157.158l-.953.033c-.3.023-.347-.033-.358.337a3.578,3.578,0,0,1-.079.7.381.381,0,0,1-.336.348C5.139,4.159,5,4.2,4.859,4.2a3.584,3.584,0,0,1-.494-.045.157.157,0,0,1-.089-.113c-.023-.18-.023-.371-.045-.55S4.2,3.17,4.175,3.013a.186.186,0,0,0-.2-.169c-.246,0-.5-.011-.762.011-.236.023-.325.113-.348.349-.022.269-.011.528-.011.786a.169.169,0,0,0,.157.191c.168.023.348.056.516.068.145.011.291,0,.437.022.2.022.247.09.247.292s-.023.438-.045.652a.479.479,0,0,1-.415.438c-.269.034-.538.068-.807.079-.135,0-.157.056-.157.168-.011.349-.011.708-.034,1.057-.011.191-.022,1.865-.022,2,.011.337.022.674.022,1.011,0,.18-.011.18-.179.191-.123.011-.258,0-.393.011a3.715,3.715,0,0,0-.493.056c-.2.034-.28.135-.291.349v.55c0,.27.1.382.37.416a2.389,2.389,0,0,0,.9,0,.141.141,0,0,0,.079-.1c.022-.2.034-.393.045-.6s.022-.427.033-.651c.18,0,.707.022.841.045a.513.513,0,0,1,.426.415,3.351,3.351,0,0,1,.045.675.226.226,0,0,1-.179.224,2.151,2.151,0,0,1-.292.045c-.2.012-.415.023-.616.045s-.225.079-.225.27c.012.236.023.472.023.708,0,.27.09.382.359.4s.538.023.807.034a.206.206,0,0,0,.235-.213v-.236c.023-.214.034-.416.056-.618a.256.256,0,0,1,.236-.248,1.366,1.366,0,0,1,.639.045.444.444,0,0,1,.358.27,1.713,1.713,0,0,1,.09.82c-.011.068-.124.29-.18.3-.314.034-.487.067-.8.078-.145,0-.156-.088-.156.059.011.28-.109.491-.1.761.022.224.021.29.234.312a4.724,4.724,0,0,0,.683.02c.067-.012.161-.011.195-.079a.749.749,0,0,0,.078-.312c.023-.2.156-.387.179-.589s.089-.292.3-.292c.258,0,.527.022.785.045a.371.371,0,0,1,.325.348l.067.854a.135.135,0,0,0,.124.135c.134.011.258.034.392.034.235,0,.471-.012.706-.023.135,0,.191-.056.2-.191.022-.247.045-.506.079-.753a.389.389,0,0,1,.3-.371,6.972,6.972,0,0,1,.83-.022c.168.011.235.1.258.27.022.258.751-.382.515-.394-.123-.011-.28-.022-.314-.191a.785.785,0,0,1,.617-1.022c.258-.045.572.011.605.393.012.214.023.427.034.641.011.168.078.247.247.236.291-.012.594-.034.9-.034a.4.4,0,0,0,.337-.292c.022-.158.022-.3.033-.461s0-.348.012-.517A.194.194,0,0,0,12.9,11.6h-.281a1.587,1.587,0,0,1-.605-.123c-.09-.045-.135-.09-.135-.18a1.4,1.4,0,0,1,0-.371.8.8,0,0,1,.157-.382.985.985,0,0,1,.808-.213.224.224,0,0,1,.19.191,2.013,2.013,0,0,1,.034.37v.529c0,.1.089.224.168.224.28-.011.56-.022.841-.045s.414-.1.426-.3a7.775,7.775,0,0,0,0-.877c-.012-.168-.09-.224-.258-.235-.213-.023-.426-.023-.639-.034-.3-.023-.381-.1-.4-.4a3.755,3.755,0,0,1,.012-.618A.39.39,0,0,1,13.6,8.732Z" fill="#0064b5"/><path d="M11.116,6.056l-.011,3.5L8.1,11.3,5.112,9.531l.011-3.508L8.13,4.291Z" fill="#fff"/><g opacity="0.8"><path d="M2.761,5.511a.326.326,0,0,1-.281.172,8.5,8.5,0,0,1-.919-.076A.206.206,0,0,1,1.4,5.4c-.011-.213-.022-.438-.022-.651A.383.383,0,0,1,1.8,4.337c.225-.011.449-.011.662-.011.168,0,.246.078.269.247A8.64,8.64,0,0,1,2.761,5.511Z" fill="#38a038"/></g><g opacity="0.8"><path d="M5.014,1.361c.135.011.269.022.4.022a.2.2,0,0,1,.2.158A6.087,6.087,0,0,1,5.7,2.51a.275.275,0,0,1-.225.265c-.229,0-.459-.012-.7-.021a.714.714,0,0,1-.3-.079.234.234,0,0,1-.146-.247c0-.225.011-.449.023-.663a.368.368,0,0,1,.392-.382c.079-.011.168-.011.269-.022Z" fill="#38a038"/></g><g opacity="0.8"><path d="M14.622,8.866a.112.112,0,0,1,.067-.09,3.411,3.411,0,0,1,.471-.045,3.855,3.855,0,0,1,.471.045.308.308,0,0,1,.314.281,1.505,1.505,0,0,1-.045.831.267.267,0,0,1-.168.146,7.924,7.924,0,0,1-.9.045.222.222,0,0,1-.213-.247C14.611,9.675,14.611,9.034,14.622,8.866Z" fill="#38a038"/></g><g opacity="0.8"><path d="M15.271,5.81h.269c.269.011.359.067.4.337a1.261,1.261,0,0,1-.045.787c-.034.056-.09.135-.146.146a2.175,2.175,0,0,1-.93.045c-.168-.034-.2-.079-.2-.259V6.125c0-.236.045-.281.269-.315.034,0,.056-.011.09-.011a2.574,2.574,0,0,1,.291.011Z" fill="#38a038"/></g><g opacity="0.8"><path d="M9.431,16c-.134-.011-.258-.022-.392-.045a.249.249,0,0,1-.224-.225,8.175,8.175,0,0,1-.068-.91.184.184,0,0,1,.225-.191c.269.011.538-.011.807,0,.246.023.325.112.314.371a4.593,4.593,0,0,1-.023.562c-.022.3-.168.427-.471.427A.921.921,0,0,0,9.431,16Z" fill="#38a038"/></g><g opacity="0.8"><path d="M7.156,15.2c-.011.146-.011.292-.033.438a.38.38,0,0,1-.382.348,3.853,3.853,0,0,1-.5,0,.36.36,0,0,1-.392-.393c-.012-.157-.023-.326-.023-.483a1.293,1.293,0,0,1,.079-.349c.044-.123.168-.112.269-.123.235-.011.482-.011.728-.011a.254.254,0,0,1,.258.258,2.784,2.784,0,0,1,0,.3C7.145,15.2,7.156,15.2,7.156,15.2Z" fill="#38a038"/></g><g opacity="0.8"><path d="M14.509,13.867V14.1c-.011.236-.089.371-.325.393a3.619,3.619,0,0,1-.784-.045c-.057-.011-.157-.1-.157-.157a4.885,4.885,0,0,1-.045-.809c.011-.225.112-.281.336-.292a5.552,5.552,0,0,1,.6.022.377.377,0,0,1,.359.393A2.04,2.04,0,0,1,14.509,13.867Z" fill="#38a038"/></g><g opacity="0.8"><path d="M15.318,4.147H15.06c-.213-.012-.336-.079-.348-.293a3.592,3.592,0,0,1,.023-.775.282.282,0,0,1,.291-.236c.213,0,.437,0,.65.011a.246.246,0,0,1,.258.225,1.78,1.78,0,0,1,0,.843.261.261,0,0,1-.246.213,1.994,1.994,0,0,1-.37.012Z" fill="#38a038"/></g><g opacity="0.8"><path d="M2.705,13.854c-.011.123-.011.236-.033.359-.056.225-.135.292-.359.3a4.211,4.211,0,0,1-.527,0,.372.372,0,0,1-.392-.416c-.012-.157,0-.326,0-.483a.375.375,0,0,1,.381-.394,4.57,4.57,0,0,1,.549,0,.378.378,0,0,1,.381.4A1.534,1.534,0,0,0,2.705,13.854Z" fill="#38a038"/></g><g opacity="0.8"><path d="M2.693,2.024a1.849,1.849,0,0,1,0,.258.392.392,0,0,1-.414.4H1.808a.381.381,0,0,1-.4-.394,4.038,4.038,0,0,1,0-.516A.384.384,0,0,1,1.8,1.383a3.7,3.7,0,0,1,.494,0,.389.389,0,0,1,.4.427A1.266,1.266,0,0,1,2.693,2.024Z" fill="#38a038"/></g><g opacity="0.8"><path d="M12.369,15.99h-.247a.347.347,0,0,1-.381-.359,4.474,4.474,0,0,1,.045-.775.2.2,0,0,1,.146-.135,5,5,0,0,1,.717-.023c.258.011.37.146.381.4v.46a.4.4,0,0,1-.426.427Z" fill="#38a038"/></g><g opacity="0.8"><path d="M.025,9.417V9.024c0-.124.045-.214.168-.214A4.461,4.461,0,0,1,.855,8.8c.347.023.37.056.37.405,0,.236-.012.472-.034.708-.011.112-.078.157-.191.168-.235.011-.482.023-.717.011C.07,10.08.014,10.013.014,9.8V9.608A1.178,1.178,0,0,0,.025,9.417Z" fill="#38a038"/></g><g opacity="0.8"><path d="M9.42,0h.359c.2,0,.292.056.3.258a5.575,5.575,0,0,1-.034.753c-.011.124-.112.18-.28.191a7.144,7.144,0,0,1-.717,0A.213.213,0,0,1,8.8.978,2.194,2.194,0,0,1,8.826.124C8.849.034,8.9,0,9.006,0Z" fill="#38a038"/></g><g opacity="0.8"><path d="M.026,6.461V6.034c0-.113.044-.191.157-.2a1.564,1.564,0,0,1,.908.057.211.211,0,0,1,.112.146c.011.269.033.539.022.809-.011.191-.09.258-.269.269-.213.012-.426.012-.639.012s-.28-.079-.28-.293C.026,6.708.026,6.584.026,6.461Z" fill="#38a038"/></g><g opacity="0.8"><path d="M6.472,0h.4C7.021,0,7.1.045,7.1.191c.011.281,0,.562-.012.843-.011.135-.145.168-.246.168a6.4,6.4,0,0,1-.807-.022.2.2,0,0,1-.146-.113A1.756,1.756,0,0,1,5.844.135C5.855.034,5.923,0,6.023,0Z" fill="#38a038"/></g><g opacity="0.8"><path d="M.025,12.372v-.4c0-.1.034-.157.123-.18a1.392,1.392,0,0,1,.908.034.214.214,0,0,1,.124.168,6.438,6.438,0,0,1,0,.8.307.307,0,0,1-.157.2,1.5,1.5,0,0,1-.863.034.186.186,0,0,1-.146-.2C.025,12.665.025,12.518.025,12.372Z" fill="#38a038"/></g><g opacity="0.8"><path d="M12.38,0h.358c.191,0,.258.022.269.213a4.211,4.211,0,0,1-.022.753.235.235,0,0,1-.247.214,4.885,4.885,0,0,1-.7,0c-.2-.011-.3-.146-.3-.393-.011-.169,0-.338,0-.506.011-.214.078-.27.291-.27C12.144,0,12.256,0,12.38,0Z" fill="#38a038"/></g><g opacity="0.7"><g opacity="0.7"><path d="M8.613,2.314h.336c.169,0,.236.022.247.191a3.723,3.723,0,0,1-.022.7.225.225,0,0,1-.236.2,4.131,4.131,0,0,1-.639,0c-.19-.011-.28-.135-.28-.371V2.561c.011-.2.067-.247.269-.247Z" fill="#00b294"/></g><g opacity="0.7"><path d="M5.922,3.405h.336c.169,0,.236.023.247.191a3.723,3.723,0,0,1-.022.7.224.224,0,0,1-.236.2,4.01,4.01,0,0,1-.639,0c-.19-.011-.28-.135-.28-.371V3.653c.011-.2.067-.248.269-.248Z" fill="#00b294"/></g><g opacity="0.7"><path d="M3.584,6.314h.337c.168,0,.235.023.246.191a3.64,3.64,0,0,1-.022.7.224.224,0,0,1-.236.2,4.131,4.131,0,0,1-.639,0c-.19-.011-.28-.135-.28-.371V6.561c.011-.2.067-.247.269-.247Z" fill="#00b294"/></g><g opacity="0.7"><path d="M3.685,8.762h.336c.169,0,.236.022.247.191a3.723,3.723,0,0,1-.022.7.225.225,0,0,1-.236.2,4.131,4.131,0,0,1-.639,0c-.19-.011-.28-.135-.28-.371V9.009c.011-.2.067-.247.269-.247Z" fill="#00b294"/></g><g opacity="0.7"><path d="M5.922,10.811h.336c.169,0,.236.022.247.191a3.715,3.715,0,0,1-.022.7.225.225,0,0,1-.236.2,4.131,4.131,0,0,1-.639,0c-.19-.012-.28-.135-.28-.371v-.472c.011-.2.067-.247.269-.247Z" fill="#00b294"/></g><g opacity="0.7"><path d="M7.391,11.968h.336c.168,0,.235.022.246.191a3.632,3.632,0,0,1-.022.7.224.224,0,0,1-.235.2,4.131,4.131,0,0,1-.639,0c-.191-.012-.281-.135-.281-.371v-.472c.012-.2.068-.247.269-.247Z" fill="#00b294"/></g><g opacity="0.7"><path d="M10.363,10.731H10.7c.168,0,.235.023.246.191a3.64,3.64,0,0,1-.022.7.224.224,0,0,1-.235.2,4.01,4.01,0,0,1-.639,0c-.191-.011-.281-.135-.281-.371v-.472c.012-.2.068-.247.269-.247Z" fill="#00b294"/></g><g opacity="0.7"><path d="M12.323,7.124h.336c.168,0,.236.023.247.191a3.641,3.641,0,0,1-.023.7.223.223,0,0,1-.235.2,3.9,3.9,0,0,1-.639,0c-.191-.011-.28-.134-.28-.37V7.372c.011-.2.067-.248.269-.248Z" fill="#00b294"/></g><g opacity="0.7"><path d="M11.337,3.686h.336c.168,0,.236.023.247.191a3.641,3.641,0,0,1-.023.7.223.223,0,0,1-.235.2,3.9,3.9,0,0,1-.639,0c-.191-.011-.28-.135-.28-.371V3.934c.011-.2.067-.248.269-.248Z" fill="#00b294"/></g><g opacity="0.7"><path d="M12.705,9.124h.336c.168,0,.235.023.247.192a3.634,3.634,0,0,1-.023.7.223.223,0,0,1-.235.2,3.9,3.9,0,0,1-.639,0c-.191-.011-.281-.134-.281-.37V9.372c.012-.2.068-.248.269-.248Z" fill="#00b294"/></g></g><path d="M4.287,3.989a.288.288,0,0,1-.3.27,6.964,6.964,0,0,1-.83,0c-.246-.023-.358-.191-.369-.5a5.943,5.943,0,0,1,.011-.64c.011-.27.089-.337.347-.337.135-.012.269-.012.415-.012H4c.224,0,.314.034.325.27A5.325,5.325,0,0,1,4.287,3.989Zm7.027-2.6h-.437c-.135,0-.28,0-.415.012-.258,0-.336.067-.347.337a5.944,5.944,0,0,0-.012.64c.012.3.124.472.37.495a6.964,6.964,0,0,0,.83,0,.288.288,0,0,0,.3-.27,5.325,5.325,0,0,0,.033-.944C11.628,1.427,11.538,1.393,11.314,1.393Zm-.025,11.65h-.437c-.135,0-.28,0-.415.011-.258,0-.336.068-.347.337a5.962,5.962,0,0,0-.012.641c.012.3.124.472.37.494a6.76,6.76,0,0,0,.83,0,.288.288,0,0,0,.3-.27,5.313,5.313,0,0,0,.033-.943C11.6,13.077,11.513,13.043,11.289,13.043Zm-5.814.037H5.038c-.146,0-.28,0-.415.011-.257,0-.336.068-.347.338a5.943,5.943,0,0,0-.011.64c.011.3.123.472.37.494a6.551,6.551,0,0,0,.829,0,.288.288,0,0,0,.3-.269A5.328,5.328,0,0,0,5.8,13.35C5.789,13.114,5.7,13.08,5.475,13.08ZM2.548,7.213H2.111c-.135,0-.281,0-.415.012-.258,0-.336.067-.348.337a6.213,6.213,0,0,0-.011.64c.011.3.123.472.37.495a6.964,6.964,0,0,0,.83,0,.287.287,0,0,0,.3-.27,5.325,5.325,0,0,0,.034-.944C2.862,7.247,2.772,7.213,2.548,7.213Zm11.983-2.65c-.011-.236-.1-.27-.325-.27h-.437c-.146,0-.28,0-.415.011-.257,0-.336.068-.347.337A5.962,5.962,0,0,0,13,5.282c.011.3.123.472.37.494a6.743,6.743,0,0,0,.829,0,.288.288,0,0,0,.3-.27A5.313,5.313,0,0,0,14.531,4.563Z" fill="#5ecff1"/></svg>