<svg xmlns="http://www.w3.org/2000/svg" viewBox="0 0 275 164"><title>FullLogo_color_h_dark</title><rect x="0.03" y="0.051" width="274.939" height="163.898" fill="#282828"/><path d="M76.94,90.044a8.4,8.4,0,0,1-3.213-3.139,8.715,8.715,0,0,1-1.154-4.5,8.823,8.823,0,0,1,1.154-4.5,8.393,8.393,0,0,1,3.213-3.138,9.529,9.529,0,0,1,4.615-1.115,9.033,9.033,0,0,1,3.543.66,7.111,7.111,0,0,1,2.76,1.859L86.7,77.325A6.913,6.913,0,0,0,81.6,75.26a7.5,7.5,0,0,0-3.708.95,7.133,7.133,0,0,0-2.637,2.56A7.241,7.241,0,0,0,74.3,82.4a7.128,7.128,0,0,0,.947,3.634,6.564,6.564,0,0,0,2.637,2.56,7.5,7.5,0,0,0,3.708.95A6.913,6.913,0,0,0,86.7,87.483l1.154,1.157a7.693,7.693,0,0,1-2.76,1.9,9.033,9.033,0,0,1-3.543.661A9.921,9.921,0,0,1,76.94,90.044Z" fill="#fff"/><path d="M91.362,72.746h1.772V91.039H91.4V72.746Z" fill="#fff"/><path d="M109.238,85.088H98.4a4.5,4.5,0,0,0,1.566,3.263,5.149,5.149,0,0,0,3.543,1.239,5.758,5.758,0,0,0,2.224-.413,4.423,4.423,0,0,0,1.731-1.281l.988,1.115a5.461,5.461,0,0,1-2.142,1.57,7.732,7.732,0,0,1-6.386-.331A6.233,6.233,0,0,1,97.538,87.9a6.675,6.675,0,0,1-.865-3.386,6.974,6.974,0,0,1,.824-3.386,6.2,6.2,0,0,1,2.266-2.354,6.016,6.016,0,0,1,3.213-.826,6.411,6.411,0,0,1,3.213.826,5.989,5.989,0,0,1,2.225,2.313,7.137,7.137,0,0,1,.824,3.427ZM99.845,80.67A4.775,4.775,0,0,0,98.4,83.808h9.187a4.762,4.762,0,0,0-1.442-3.138,4.448,4.448,0,0,0-3.172-1.2A4.313,4.313,0,0,0,99.845,80.67Z" fill="#fff"/><path d="M120.856,79.23a4.877,4.877,0,0,1,1.359,3.757V91.04h-1.689V89.017a4.266,4.266,0,0,1-1.73,1.569,6.027,6.027,0,0,1-2.719.578,5.322,5.322,0,0,1-3.461-1.033,3.329,3.329,0,0,1-1.277-2.725,3.282,3.282,0,0,1,1.2-2.643,5.867,5.867,0,0,1,3.79-.991h4.12v-.785a3.369,3.369,0,0,0-.948-2.56,3.842,3.842,0,0,0-2.719-.867,6.392,6.392,0,0,0-2.348.413,6.814,6.814,0,0,0-1.937,1.115l-.782-1.322a6.475,6.475,0,0,1,2.348-1.28,9.577,9.577,0,0,1,2.884-.454A5.036,5.036,0,0,1,120.856,79.23ZM118.919,89.1a4.066,4.066,0,0,0,1.566-1.941V85.052h-4.038c-2.224,0-3.337.785-3.337,2.313a2.084,2.084,0,0,0,.866,1.775,3.733,3.733,0,0,0,2.389.661A5,5,0,0,0,118.919,89.1Z" fill="#fff"/><path d="M130.453,78.605a6.118,6.118,0,0,1,3.008-.661v1.694l-.412-.042a4.212,4.212,0,0,0-3.213,1.239,4.94,4.94,0,0,0-1.154,3.51v6.607h-1.73V77.986h1.689v2.519A4.724,4.724,0,0,1,130.453,78.605Z" fill="#fff"/><path d="M136.634,72.746h1.731V91.039h-1.731Z" fill="#fff"/><path d="M154.107,78.073l-6.468,14.536a6.556,6.556,0,0,1-1.812,2.6,4.175,4.175,0,0,1-2.472.743,4.777,4.777,0,0,1-1.731-.289,4.465,4.465,0,0,1-1.4-.867l.824-1.322a3.2,3.2,0,0,0,2.348.991,2.413,2.413,0,0,0,1.524-.5,4.027,4.027,0,0,0,1.154-1.693l.576-1.239-5.767-12.925H142.7l4.862,11.025,4.861-11.025h1.689Z" fill="#fff"/><path d="M156.456,73.779H164a10.981,10.981,0,0,1,4.9,1.073,8.055,8.055,0,0,1,4.532,7.557,8.791,8.791,0,0,1-1.195,4.543,7.648,7.648,0,0,1-3.337,3.014A10.981,10.981,0,0,1,164,91.04h-7.539Zm7.375,14.535a7.094,7.094,0,0,0,3.336-.743,5.372,5.372,0,0,0,2.225-2.065,5.965,5.965,0,0,0,.783-3.1,5.864,5.864,0,0,0-.783-3.1,5.142,5.142,0,0,0-2.225-2.065,7.106,7.106,0,0,0-3.336-.743h-4.162v11.81Z" fill="#fff"/><path d="M188.755,85.419h-10.3a3.681,3.681,0,0,0,1.4,2.312,4.569,4.569,0,0,0,2.843.867,4.87,4.87,0,0,0,3.584-1.445l1.648,1.9a5.547,5.547,0,0,1-2.225,1.61,8.009,8.009,0,0,1-3.049.537,8.187,8.187,0,0,1-3.831-.867,6.232,6.232,0,0,1-2.554-2.395,6.611,6.611,0,0,1-.907-3.469A6.99,6.99,0,0,1,176.231,81a6.164,6.164,0,0,1,2.43-2.395,7,7,0,0,1,3.5-.867,6.682,6.682,0,0,1,3.419.867A5.97,5.97,0,0,1,187.931,81a7.193,7.193,0,0,1,.865,3.551A7.806,7.806,0,0,1,188.755,85.419Zm-9.064-4.378a3.484,3.484,0,0,0-1.236,2.313h7.457a3.619,3.619,0,0,0-1.195-2.313,3.72,3.72,0,0,0-2.513-.867A3.648,3.648,0,0,0,179.691,81.041Z" fill="#fff"/><path d="M195.138,77.157v.785h3.626v2.477h-3.5V91.032h-3.09V80.419h-2.184V77.942h2.184v-.826a4.526,4.526,0,0,1,1.236-3.345,4.67,4.67,0,0,1,3.46-1.239,4.784,4.784,0,0,1,2.761.7l-.865,2.313a2.833,2.833,0,0,0-1.69-.537C195.8,75.051,195.138,75.753,195.138,77.157Zm7.828-2.023a1.8,1.8,0,0,1,0-2.643,1.86,1.86,0,0,1,1.4-.537,2,2,0,0,1,1.4.5,1.631,1.631,0,0,1,.577,1.28,1.835,1.835,0,0,1-.536,1.362,1.856,1.856,0,0,1-1.4.537A1.73,1.73,0,0,1,202.966,75.134Zm-.165,2.725h3.09V91.032H202.8Z" fill="#fff"/><path d="M221.339,79.14a5.716,5.716,0,0,1,1.483,4.3v7.557h-3.09V83.848a3.711,3.711,0,0,0-.824-2.6,3.009,3.009,0,0,0-2.307-.867,3.5,3.5,0,0,0-2.678,1.032,4.072,4.072,0,0,0-.989,2.932v6.649h-3.089V77.819h2.925v1.693a4.357,4.357,0,0,1,1.936-1.363,6.608,6.608,0,0,1,2.595-.454A5.55,5.55,0,0,1,221.339,79.14Z" fill="#fff"/><path d="M239.174,85.419h-10.3a3.685,3.685,0,0,0,1.4,2.312,4.569,4.569,0,0,0,2.843.867,4.868,4.868,0,0,0,3.584-1.445l1.648,1.9a5.54,5.54,0,0,1-2.225,1.61,8.007,8.007,0,0,1-3.048.537,8.194,8.194,0,0,1-3.832-.867,6.232,6.232,0,0,1-2.554-2.395,6.611,6.611,0,0,1-.906-3.469A6.99,6.99,0,0,1,226.65,81a6.164,6.164,0,0,1,2.43-2.395,7,7,0,0,1,3.5-.867,6.688,6.688,0,0,1,3.42.867A5.974,5.974,0,0,1,238.35,81a7.193,7.193,0,0,1,.865,3.551A7.806,7.806,0,0,1,239.174,85.419Zm-9.105-4.378a3.484,3.484,0,0,0-1.236,2.313h7.457a3.619,3.619,0,0,0-1.195-2.313,3.72,3.72,0,0,0-2.513-.867A3.8,3.8,0,0,0,230.069,81.041Z" fill="#fff"/><path d="M255.043,72.744V91.038h-2.966V89.3a4.949,4.949,0,0,1-1.9,1.4,5.99,5.99,0,0,1-2.472.455,7.224,7.224,0,0,1-3.419-.826,6.349,6.349,0,0,1-2.39-2.4,7.079,7.079,0,0,1-.865-3.551,6.925,6.925,0,0,1,.865-3.51,5.72,5.72,0,0,1,2.39-2.354,6.661,6.661,0,0,1,3.419-.826,6.474,6.474,0,0,1,2.389.455,4.926,4.926,0,0,1,1.854,1.321V72.7h3.09ZM250.1,88.064a3.625,3.625,0,0,0,1.4-1.445,4.641,4.641,0,0,0,.536-2.189,4.308,4.308,0,0,0-.536-2.188,3.625,3.625,0,0,0-1.4-1.445,4.19,4.19,0,0,0-3.955,0,3.629,3.629,0,0,0-1.4,1.445,4.639,4.639,0,0,0-.536,2.188,4.309,4.309,0,0,0,.536,2.189,3.629,3.629,0,0,0,1.4,1.445,3.9,3.9,0,0,0,1.978.5A4.125,4.125,0,0,0,250.1,88.064Z" fill="#fff"/><path d="M51.542,66.363c-.336.034-.673.068-1.076.1.067.675.134,1.349.168,2.057a1.784,1.784,0,0,0,.875,1.55,3.84,3.84,0,0,0,1.21.371,9.127,9.127,0,0,0,1.345-.033c.4-.034.505-.371.539-.675.1-.606.134-1.247.2-1.887.034-.371.068-.708.135-1.079,0-.1.168-.2.269-.2.706-.034,1.412-.068,2.119-.068.168,0,.37.034.538.034.74,0,1.076.27,1.143,1.011q.1,1.315.1,2.63c0,.337-.3.5-.605.539-.471.034-.975.034-1.446.067-.37.034-.707.068-1.077.1a.831.831,0,0,0-.739.81,4.171,4.171,0,0,0,.269,2.123,1.517,1.517,0,0,0,.571.641,9.078,9.078,0,0,0,1.648.4,2.507,2.507,0,0,0,.505,0c.538.034.807-.168.874-.741.067-.776.1-1.517.135-2.293l4.2,2.461c0,.506-.438.742-1.077.843-.672.1-1.379.067-2.085.1-.538.034-.807.2-.807.708-.034.91,0,1.787.034,2.7a.7.7,0,0,0,.672.708c.639.1,1.278.168,1.951.236.3.033.6.033.942.067a.468.468,0,0,1,.47.506c.034.708.068,1.382.068,2.09,0,.4-.034.843-.068,1.247a.578.578,0,0,1-.571.506c-.74.067-1.514.1-2.254.2a1.172,1.172,0,0,0-1.177,1.18,11.369,11.369,0,0,0-.033,1.854c.067.91.3,1.146,1.21,1.213.639.034,1.278.034,1.917.1.505.033.74.2.774.707a22.847,22.847,0,0,1,0,2.63c-.034.607-.437.843-1.278.91s-1.682.1-2.522.135c-.236,0-.5-.371-.5-.674V90.668a6.149,6.149,0,0,0-.1-1.112.676.676,0,0,0-.571-.573,2.949,2.949,0,0,0-2.422.64,2.368,2.368,0,0,0-.471,1.146,4.148,4.148,0,0,0,0,1.113c0,.27.135.4.4.539a4.727,4.727,0,0,0,1.816.371h.841a.58.58,0,0,1,.639.674c-.034.506-.034,1.045-.034,1.551-.034.472-.034.91-.1,1.382a1.188,1.188,0,0,1-1.009.876c-.908,0-1.816.068-2.69.1-.5.033-.707-.2-.74-.708q-.051-.961-.1-1.922c-.1-1.146-1.043-1.314-1.816-1.18-1.783.3-2.085,1.854-1.85,3.068.1.506.572.539.942.573.706.034-1.48,1.955-1.547,1.18-.067-.506-.269-.775-.774-.809a20.465,20.465,0,0,0-2.488.067,1.169,1.169,0,0,0-.908,1.113c-.1.741-.169,1.517-.236,2.258-.033.405-.2.573-.605.573-.707.034-1.413.068-2.119.068-.4,0-.774-.068-1.177-.1a.406.406,0,0,1-.37-.405c-.067-.843-.135-1.719-.2-2.562a1.117,1.117,0,0,0-.975-1.045c-.774-.067-1.581-.135-2.354-.135-.639,0-.841.236-.908.877-.068.607-.468,1.161-.536,1.768a2.255,2.255,0,0,1-.234.936c-.1.2-.384.2-.585.235a14.048,14.048,0,0,1-2.05-.059c-.639-.067-.635-.263-.7-.937-.034-.809.326-1.441.293-2.283,0-.439.031-.176.468-.176.942-.034,1.459-.133,2.4-.234.168-.034.507-.7.541-.9a5.129,5.129,0,0,0-.269-2.461,1.335,1.335,0,0,0-1.076-.809,4.1,4.1,0,0,0-1.917-.135.766.766,0,0,0-.706.742c-.068.607-.1,1.213-.169,1.854v.708a.62.62,0,0,1-.706.64c-.807-.033-1.614-.033-2.421-.1s-1.076-.4-1.076-1.213c0-.708-.034-1.416-.068-2.124,0-.573.1-.775.673-.809.605-.068,1.244-.1,1.85-.135a6.751,6.751,0,0,0,.874-.135.682.682,0,0,0,.538-.674,10.108,10.108,0,0,0-.134-2.023,1.54,1.54,0,0,0-1.278-1.247c-.4-.067-1.985-.135-2.523-.135-.033.674-.067,1.315-.1,1.955-.033.607-.067,1.18-.134,1.787a.427.427,0,0,1-.236.3,7.2,7.2,0,0,1-2.69,0c-.807-.1-1.11-.438-1.11-1.247V89.724c.034-.64.269-.943.875-1.045a10.5,10.5,0,0,1,1.479-.168c.4-.034.807,0,1.177-.034.505-.034.539-.034.539-.573,0-1.011-.034-2.023-.068-3.034,0-.4.034-5.427.068-6,.067-1.045.067-2.124.1-3.169,0-.337.068-.506.471-.506.807-.033,1.615-.134,2.422-.236a1.435,1.435,0,0,0,1.244-1.314c.067-.641.1-1.315.135-1.955,0-.607-.135-.81-.74-.877-.437-.067-.875-.034-1.312-.067-.5-.034-1.043-.135-1.547-.2a.506.506,0,0,1-.471-.573c0-.775-.033-1.55.034-2.359.067-.708.336-.978,1.042-1.045.774-.068,1.547-.034,2.287-.034a.558.558,0,0,1,.606.506c.067.471.134.943.168,1.449.067.539.067,1.112.134,1.652a.463.463,0,0,0,.269.337,10.571,10.571,0,0,0,1.48.135c.437,0,.841-.135,1.278-.169A1.147,1.147,0,0,0,36.778,69.4a10.713,10.713,0,0,0,.235-2.09c.034-1.112.169-.944,1.077-1.011l2.858-.1c.269,0,.438-.135.471-.472.067-.978.168-1.922.269-2.865.068-.54.337-.742.875-.776h2.32c.606,0,.875.27.942.877.067.775.134,1.517.2,2.292.067.708.2.91.908.944.975.067,1.984.034,2.959.034a.356.356,0,0,0,.4-.338c.033-.269.1-.573.134-.842" fill="#0064b5"/><g opacity="0.8"><path d="M28.2,74.532a.972.972,0,0,1-.841.516A25.532,25.532,0,0,1,24.6,74.82a.617.617,0,0,1-.471-.607c-.034-.64-.067-1.314-.067-1.955A1.15,1.15,0,0,1,25.3,71.011c.673-.034,1.345-.034,1.984-.034.5,0,.74.236.808.742A26.436,26.436,0,0,1,28.2,74.532Z" fill="#38a038"/></g><g opacity="0.8"><path d="M34.957,62.082c.4.034.807.068,1.211.068a.614.614,0,0,1,.605.472,18.3,18.3,0,0,1,.241,2.909.822.822,0,0,1-.673.793c-.687-.011-1.379-.036-2.09-.062a2.134,2.134,0,0,1-.908-.236.7.7,0,0,1-.437-.741c0-.675.033-1.349.067-1.989A1.1,1.1,0,0,1,34.15,62.15c.235-.034.505-.034.807-.068Z" fill="#38a038"/></g><g opacity="0.8"><path d="M63.781,84.6a.336.336,0,0,1,.2-.27,10.054,10.054,0,0,1,1.412-.135,11.409,11.409,0,0,1,1.413.135.923.923,0,0,1,.941.843,4.493,4.493,0,0,1-.134,2.494.8.8,0,0,1-.5.438,23.756,23.756,0,0,1-2.69.135.667.667,0,0,1-.639-.741C63.747,87.025,63.747,85.1,63.781,84.6Z" fill="#38a038"/></g><g opacity="0.8"><path d="M65.729,75.43h.807c.807.034,1.076.2,1.211,1.012a3.779,3.779,0,0,1-.135,2.359c-.1.169-.269.405-.437.438a6.473,6.473,0,0,1-2.792.135c-.5-.1-.6-.236-.6-.775V76.374c0-.708.135-.843.807-.944.1,0,.168-.033.269-.033a7.756,7.756,0,0,1,.875.033Z" fill="#38a038"/></g><g opacity="0.8"><path d="M48.208,106c-.4-.034-.773-.067-1.177-.135a.751.751,0,0,1-.672-.674,24.818,24.818,0,0,1-.2-2.731.551.551,0,0,1,.673-.573c.807.034,1.614-.033,2.421,0,.74.068.975.337.942,1.113a13.965,13.965,0,0,1-.068,1.685c-.067.91-.5,1.281-1.412,1.281A2.7,2.7,0,0,0,48.208,106Z" fill="#38a038"/></g><g opacity="0.8"><path d="M41.383,103.611c-.033.438-.033.876-.1,1.315a1.14,1.14,0,0,1-1.144,1.045,11.574,11.574,0,0,1-1.513,0,1.08,1.08,0,0,1-1.177-1.18c-.034-.472-.068-.978-.068-1.45a3.9,3.9,0,0,1,.236-1.045c.134-.371.5-.337.807-.371.706-.033,1.446-.033,2.186-.033a.762.762,0,0,1,.773.775,8.125,8.125,0,0,1,0,.91C41.35,103.611,41.383,103.611,41.383,103.611Z" fill="#38a038"/></g><g opacity="0.8"><path d="M63.443,99.6v.708c-.034.708-.269,1.113-.975,1.18a11.024,11.024,0,0,1-2.355-.135c-.168-.033-.47-.3-.47-.472a14.637,14.637,0,0,1-.135-2.427c.034-.674.336-.843,1.009-.876a16.453,16.453,0,0,1,1.816.067,1.13,1.13,0,0,1,1.076,1.18A5.919,5.919,0,0,1,63.443,99.6Z" fill="#38a038"/></g><g opacity="0.8"><path d="M65.868,70.44H65.1c-.639-.034-1.009-.236-1.043-.877a10.781,10.781,0,0,1,.067-2.326.848.848,0,0,1,.875-.707c.639,0,1.311,0,1.95.033a.74.74,0,0,1,.774.674,5.366,5.366,0,0,1,0,2.529.789.789,0,0,1-.74.64,6.061,6.061,0,0,1-1.11.034Z" fill="#38a038"/></g><g opacity="0.8"><path d="M28.031,99.561c-.034.371-.034.708-.1,1.079-.168.674-.4.876-1.076.91a12.262,12.262,0,0,1-1.581,0A1.116,1.116,0,0,1,24.1,100.3c-.034-.472,0-.978,0-1.45a1.124,1.124,0,0,1,1.143-1.18,13.726,13.726,0,0,1,1.648,0,1.133,1.133,0,0,1,1.144,1.214A4.454,4.454,0,0,0,28.031,99.561Z" fill="#38a038"/></g><g opacity="0.8"><path d="M28,64.071a6.067,6.067,0,0,1,0,.775,1.175,1.175,0,0,1-1.244,1.214H25.338a1.141,1.141,0,0,1-1.211-1.18,12.146,12.146,0,0,1,0-1.55A1.151,1.151,0,0,1,25.3,62.15a10.747,10.747,0,0,1,1.48,0A1.168,1.168,0,0,1,28,63.431,4.117,4.117,0,0,1,28,64.071Z" fill="#38a038"/></g><g opacity="0.8"><path d="M57.021,105.971h-.74a1.043,1.043,0,0,1-1.143-1.078,13.545,13.545,0,0,1,.134-2.326.592.592,0,0,1,.438-.4,15.165,15.165,0,0,1,2.152-.067c.774.033,1.11.438,1.144,1.213v1.382a1.185,1.185,0,0,1-1.278,1.281Z" fill="#38a038"/></g><g opacity="0.8"><path d="M19.99,86.252v-1.18c0-.371.135-.641.505-.641a13.084,13.084,0,0,1,1.984-.033c1.043.067,1.11.168,1.11,1.213q0,1.062-.1,2.124c-.034.337-.235.472-.572.506-.706.033-1.446.067-2.152.033-.639-.033-.807-.236-.807-.876v-.573A3.547,3.547,0,0,0,19.99,86.252Z" fill="#38a038"/></g><g opacity="0.8"><path d="M48.176,58h1.076c.606,0,.875.169.909.775a17.08,17.08,0,0,1-.1,2.259c-.034.371-.337.539-.841.573-.706.034-1.413.034-2.153,0a.639.639,0,0,1-.739-.674,6.562,6.562,0,0,1,.067-2.562c.067-.27.235-.371.538-.371Z" fill="#38a038"/></g><g opacity="0.8"><path d="M19.992,77.382V76.1c0-.337.134-.573.471-.607a4.691,4.691,0,0,1,2.724.169.635.635,0,0,1,.336.438c.034.809.1,1.618.067,2.427-.033.573-.269.775-.807.809-.639.034-1.278.034-1.917.034s-.84-.236-.84-.877C19.992,78.124,19.992,77.753,19.992,77.382Z" fill="#38a038"/></g><g opacity="0.8"><path d="M39.331,58h1.21c.438,0,.673.135.673.573.034.843,0,1.686-.034,2.528-.033.405-.437.506-.74.506a19.385,19.385,0,0,1-2.421-.067.611.611,0,0,1-.437-.338,5.27,5.27,0,0,1-.135-2.8c.034-.3.236-.405.538-.405Z" fill="#38a038"/></g><g opacity="0.8"><path d="M19.99,95.117V93.9c0-.3.1-.472.37-.54a4.2,4.2,0,0,1,2.724.1.648.648,0,0,1,.37.506,18.731,18.731,0,0,1,0,2.393.928.928,0,0,1-.47.607,4.513,4.513,0,0,1-2.59.1.557.557,0,0,1-.437-.606C19.99,95.994,19.99,95.555,19.99,95.117Z" fill="#38a038"/></g><g opacity="0.8"><path d="M57.054,58H58.13c.572,0,.774.067.807.64A12.642,12.642,0,0,1,58.87,60.9a.705.705,0,0,1-.74.641,14.509,14.509,0,0,1-2.085,0c-.605-.034-.908-.439-.908-1.18-.034-.506,0-1.012,0-1.517.034-.641.236-.809.875-.809A10.326,10.326,0,0,1,57.054,58Z" fill="#38a038"/></g><g opacity="0.7"><g opacity="0.7"><path d="M45.754,64.942h1.009c.505,0,.706.067.74.573a11,11,0,0,1-.067,2.09.672.672,0,0,1-.707.607,12.256,12.256,0,0,1-1.916,0c-.572-.034-.841-.405-.841-1.113V65.683c.033-.607.2-.741.807-.741Z" fill="#00b294"/></g><g opacity="0.7"><path d="M37.681,68.216H38.69c.505,0,.706.067.74.573a11,11,0,0,1-.067,2.09.671.671,0,0,1-.706.607,12.268,12.268,0,0,1-1.917,0c-.572-.034-.841-.405-.841-1.113V68.958c.033-.607.2-.742.807-.742Z" fill="#00b294"/></g><g opacity="0.7"><path d="M30.668,76.942h1.009c.5,0,.706.068.74.573a10.915,10.915,0,0,1-.068,2.09.671.671,0,0,1-.706.607,12.147,12.147,0,0,1-1.917,0c-.572-.034-.841-.4-.841-1.112V77.684c.034-.607.2-.742.808-.742Z" fill="#00b294"/></g><g opacity="0.7"><path d="M30.97,84.286h1.009c.505,0,.706.067.74.573a11,11,0,0,1-.067,2.09.672.672,0,0,1-.707.607,12.268,12.268,0,0,1-1.917,0c-.571-.034-.84-.405-.84-1.113V85.027c.033-.606.2-.741.807-.741Z" fill="#00b294"/></g><g opacity="0.7"><path d="M37.681,90.432H38.69c.505,0,.706.068.74.573a11,11,0,0,1-.067,2.09.671.671,0,0,1-.706.607,12.147,12.147,0,0,1-1.917,0c-.572-.034-.841-.4-.841-1.112V91.174c.033-.607.2-.742.807-.742Z" fill="#00b294"/></g><g opacity="0.7"><path d="M42.087,93.9H43.1c.5,0,.706.068.739.573a10.913,10.913,0,0,1-.067,2.09.671.671,0,0,1-.706.607,12.147,12.147,0,0,1-1.917,0c-.572-.034-.841-.4-.841-1.112V94.645c.034-.607.2-.742.807-.742Z" fill="#00b294"/></g><g opacity="0.7"><path d="M51,90.193h1.009c.5,0,.706.068.739.573a10.921,10.921,0,0,1-.067,2.091.671.671,0,0,1-.706.606,12.029,12.029,0,0,1-1.917,0c-.572-.033-.841-.4-.841-1.112V90.935c.034-.607.2-.742.807-.742Z" fill="#00b294"/></g><g opacity="0.7"><path d="M56.884,79.373h1.008c.5,0,.707.068.74.573a10.913,10.913,0,0,1-.067,2.09.671.671,0,0,1-.706.607,12.147,12.147,0,0,1-1.917,0c-.572-.034-.841-.4-.841-1.112V80.115c.034-.607.2-.742.807-.742Z" fill="#00b294"/></g><g opacity="0.7"><path d="M53.926,69.059h1.008c.505,0,.707.067.74.573a10.913,10.913,0,0,1-.067,2.09.671.671,0,0,1-.706.607,12.147,12.147,0,0,1-1.917,0c-.572-.034-.841-.4-.841-1.113V69.8c.034-.607.2-.742.807-.742Z" fill="#00b294"/></g><g opacity="0.7"><path d="M58.029,85.373h1.009c.5,0,.706.068.739.574a10.913,10.913,0,0,1-.067,2.09.671.671,0,0,1-.706.606,12.029,12.029,0,0,1-1.917,0c-.572-.033-.841-.4-.841-1.112V86.115c.034-.607.2-.742.807-.742Z" fill="#00b294"/></g></g><path d="M30.589,66.326H31.9c.672,0,.941.1.975.809a15.975,15.975,0,0,1-.1,2.832.863.863,0,0,1-.908.809,20.667,20.667,0,0,1-2.489,0c-.74-.068-1.076-.573-1.11-1.484a18.381,18.381,0,0,1,.034-1.921c.034-.809.269-1.011,1.043-1.011C29.748,66.326,30.152,66.326,30.589,66.326Z" fill="#5ecff1"/><path d="M52.545,62.18h1.312c.673,0,.942.1.975.81a15.873,15.873,0,0,1-.1,2.831.862.862,0,0,1-.908.809,20.246,20.246,0,0,1-2.488,0c-.74-.067-1.076-.573-1.11-1.483a18.129,18.129,0,0,1,.034-1.922c.033-.809.269-1.011,1.042-1.011C51.705,62.18,52.142,62.18,52.545,62.18Z" fill="#5ecff1"/><path d="M52.471,97.129h1.311c.673,0,.942.1.976.809a15.964,15.964,0,0,1-.1,2.831.863.863,0,0,1-.908.809,20.262,20.262,0,0,1-2.489,0c-.74-.067-1.076-.573-1.11-1.483a18.381,18.381,0,0,1,.034-1.921c.034-.809.269-1.012,1.042-1.012C51.63,97.129,52.067,97.129,52.471,97.129Z" fill="#5ecff1"/><path d="M35.029,97.241h1.312c.673,0,.942.1.975.809a15.873,15.873,0,0,1-.1,2.831.862.862,0,0,1-.908.809,20.246,20.246,0,0,1-2.488,0c-.74-.067-1.077-.573-1.11-1.483a18.38,18.38,0,0,1,.033-1.921c.034-.809.27-1.012,1.043-1.012C34.189,97.241,34.592,97.241,35.029,97.241Z" fill="#5ecff1"/><path d="M26.247,79.64h1.311c.673,0,.942.1.976.809a15.975,15.975,0,0,1-.1,2.832.863.863,0,0,1-.908.809,20.463,20.463,0,0,1-2.489,0c-.74-.067-1.076-.573-1.11-1.483a18.4,18.4,0,0,1,.034-1.922c.034-.809.269-1.011,1.042-1.011C25.406,79.64,25.843,79.64,26.247,79.64Z" fill="#5ecff1"/><path d="M53.23,86.657l-9.021,5.229-8.957-5.294.032-10.522,9.021-5.2,8.957,5.293Z" fill="#fff"/><path d="M61.223,70.879h1.311c.673,0,.942.1.975.809a15.96,15.96,0,0,1-.1,2.831.864.864,0,0,1-.909.81,20.651,20.651,0,0,1-2.488,0c-.74-.068-1.076-.574-1.11-1.484a18.111,18.111,0,0,1,.034-1.921c.033-.809.269-1.011,1.042-1.011C60.382,70.879,60.785,70.879,61.223,70.879Z" fill="#5ecff1"/></svg>