<svg xmlns="http://www.w3.org/2000/svg" viewBox="0 0 275 164"><title>FullSub_Licensed_inverse_v</title><rect width="275" height="164" fill="#38a038"/><path d="M55.31,125.027a7.4,7.4,0,0,1-2.882-2.805,8.229,8.229,0,0,1,0-8.03,7.381,7.381,0,0,1,2.892-2.8,8.478,8.478,0,0,1,4.136-1.012,8.571,8.571,0,0,1,3.168.572,6.569,6.569,0,0,1,2.464,1.672l-1.033,1.034a6.133,6.133,0,0,0-4.555-1.826,6.692,6.692,0,0,0-3.321.836,6.1,6.1,0,0,0-2.344,2.288,6.682,6.682,0,0,0,0,6.512,6.1,6.1,0,0,0,2.344,2.288,6.692,6.692,0,0,0,3.321.836,6.053,6.053,0,0,0,4.555-1.848l1.033,1.034a6.653,6.653,0,0,1-2.475,1.683,8.521,8.521,0,0,1-3.178.583A8.4,8.4,0,0,1,55.31,125.027Z" fill="#fff"/><path d="M68.234,109.583H69.8v16.324H68.234Z" fill="#fff"/><path d="M84.228,120.605h-9.68a4.136,4.136,0,0,0,1.386,2.915,4.6,4.6,0,0,0,3.168,1.111,4.991,4.991,0,0,0,1.98-.385,4.316,4.316,0,0,0,1.562-1.133l.879,1.012a4.95,4.95,0,0,1-1.924,1.408,6.508,6.508,0,0,1-2.541.484,6.419,6.419,0,0,1-3.158-.76,5.46,5.46,0,0,1-2.144-2.1,5.983,5.983,0,0,1-.771-3.036,6.2,6.2,0,0,1,.738-3.036A5.334,5.334,0,0,1,75.747,115a5.654,5.654,0,0,1,2.893-.748,5.6,5.6,0,0,1,2.881.748,5.291,5.291,0,0,1,2,2.079,6.251,6.251,0,0,1,.727,3.047Zm-8.393-3.949a4.186,4.186,0,0,0-1.287,2.783h8.206a4.2,4.2,0,0,0-1.287-2.783,4.249,4.249,0,0,0-5.632,0Z" fill="#fff"/><path d="M94.634,115.38a4.381,4.381,0,0,1,1.21,3.355v7.172h-1.5v-1.8A3.568,3.568,0,0,1,92.8,125.51a5.426,5.426,0,0,1-2.432.507,4.757,4.757,0,0,1-3.08-.925,3.178,3.178,0,0,1-.076-4.817,5.221,5.221,0,0,1,3.4-.9h3.674v-.7a2.964,2.964,0,0,0-.836-2.277A3.453,3.453,0,0,0,91,115.611a6.206,6.206,0,0,0-2.112.363,5.322,5.322,0,0,0-1.739,1l-.7-1.166a6.233,6.233,0,0,1,2.113-1.155,8.2,8.2,0,0,1,2.595-.407A4.9,4.9,0,0,1,94.634,115.38Zm-1.76,8.8a3.606,3.606,0,0,0,1.407-1.749v-1.892h-3.63q-2.968,0-2.969,2.068a1.892,1.892,0,0,0,.769,1.595,3.506,3.506,0,0,0,2.156.583A4.115,4.115,0,0,0,92.874,124.18Z" fill="#fff"/><path d="M103.226,114.841a5.564,5.564,0,0,1,2.694-.594v1.518l-.374-.022a3.691,3.691,0,0,0-2.859,1.122,4.462,4.462,0,0,0-1.035,3.145v5.9H100.09V114.335h1.5V116.6A3.78,3.78,0,0,1,103.226,114.841Z" fill="#fff"/><path d="M108.735,109.583H110.3v16.324h-1.563Z" fill="#fff"/><path d="M124.378,114.335l-5.786,12.958a5.543,5.543,0,0,1-1.628,2.31,3.646,3.646,0,0,1-2.223.682,4.532,4.532,0,0,1-1.561-.264,3.369,3.369,0,0,1-1.254-.792l.725-1.166a2.885,2.885,0,0,0,2.113.88,2.119,2.119,0,0,0,1.352-.44,3.983,3.983,0,0,0,1.045-1.5l.507-1.123-5.17-11.549h1.628l4.355,9.834,4.357-9.834Z" fill="#fff"/><path d="M126.468,110.507h2.859v12.98h8.053v2.42H126.468Z" fill="#fff"/><path d="M139.513,111.75a1.622,1.622,0,0,1,0-2.354,1.771,1.771,0,0,1,1.255-.473,1.817,1.817,0,0,1,1.253.451,1.453,1.453,0,0,1,.506,1.133,1.659,1.659,0,0,1-.495,1.221,1.713,1.713,0,0,1-1.264.5A1.771,1.771,0,0,1,139.513,111.75Zm-.132,2.409h2.75v11.748h-2.75Z" fill="#fff"/><path d="M147.851,125.291a5.645,5.645,0,0,1-2.266-2.145,6.339,6.339,0,0,1,0-6.215,5.689,5.689,0,0,1,2.255-2.134,6.869,6.869,0,0,1,3.289-.77,6.332,6.332,0,0,1,3.047.7,4.58,4.58,0,0,1,1.969,2.024l-2.113,1.232a3.359,3.359,0,0,0-1.264-1.221,3.692,3.692,0,0,0-4.213.594,4.053,4.053,0,0,0-.011,5.346,3.706,3.706,0,0,0,4.224.593,3.342,3.342,0,0,0,1.264-1.22l2.113,1.232a4.765,4.765,0,0,1-1.992,2.035,6.2,6.2,0,0,1-3.024.715A6.887,6.887,0,0,1,147.851,125.291Z" fill="#fff"/><path d="M169.345,120.913h-9.218a3.2,3.2,0,0,0,1.265,2.057,4.146,4.146,0,0,0,2.541.759,4.284,4.284,0,0,0,3.19-1.276l1.474,1.694a4.961,4.961,0,0,1-2,1.43,7.933,7.933,0,0,1-6.138-.286,5.543,5.543,0,0,1-2.277-2.145,6.061,6.061,0,0,1-.8-3.113,6.155,6.155,0,0,1,.781-3.091,5.538,5.538,0,0,1,2.167-2.145,6.325,6.325,0,0,1,3.124-.77,6.164,6.164,0,0,1,3.069.759,5.38,5.38,0,0,1,2.112,2.134,6.471,6.471,0,0,1,.759,3.179Q169.389,120.386,169.345,120.913Zm-8.129-3.906a3.288,3.288,0,0,0-1.111,2.08h6.666a3.212,3.212,0,0,0-3.322-2.86A3.319,3.319,0,0,0,161.216,117.007Z" fill="#fff"/><path d="M182.259,115.325a5.12,5.12,0,0,1,1.342,3.849v6.733h-2.75v-6.38a3.3,3.3,0,0,0-.726-2.321,2.685,2.685,0,0,0-2.068-.782,3.177,3.177,0,0,0-2.4.914,3.642,3.642,0,0,0-.88,2.628v5.941h-2.75V114.159h2.618v1.517a4.3,4.3,0,0,1,1.716-1.231,6.192,6.192,0,0,1,2.332-.418A4.912,4.912,0,0,1,182.259,115.325Z" fill="#fff"/><path d="M187.935,125.687a7,7,0,0,1-2.178-.946l1.055-2.09a6.8,6.8,0,0,0,1.9.847,7.894,7.894,0,0,0,2.189.319q2.463,0,2.464-1.3a.867.867,0,0,0-.627-.858,10.8,10.8,0,0,0-2.013-.462,16.477,16.477,0,0,1-2.365-.506,3.623,3.623,0,0,1-1.584-1,2.793,2.793,0,0,1-.671-1.991,3.129,3.129,0,0,1,1.4-2.673,6.36,6.36,0,0,1,3.773-1,10.966,10.966,0,0,1,2.42.274,6.818,6.818,0,0,1,1.98.738l-1.056,2.09a6.523,6.523,0,0,0-3.366-.88,3.73,3.73,0,0,0-1.837.363,1.083,1.083,0,0,0-.627.957.957.957,0,0,0,.671.935,10.65,10.65,0,0,0,2.079.517,16.22,16.22,0,0,1,2.31.506,3.619,3.619,0,0,1,1.551.968,2.7,2.7,0,0,1,.649,1.936,3.064,3.064,0,0,1-1.43,2.64,6.746,6.746,0,0,1-3.894.99A10.526,10.526,0,0,1,187.935,125.687Z" fill="#fff"/><path d="M209.429,120.913h-9.218a3.2,3.2,0,0,0,1.265,2.057,4.146,4.146,0,0,0,2.541.759,4.284,4.284,0,0,0,3.19-1.276l1.474,1.694a4.961,4.961,0,0,1-2,1.43,7.933,7.933,0,0,1-6.138-.286,5.543,5.543,0,0,1-2.277-2.145,6.061,6.061,0,0,1-.8-3.113,6.155,6.155,0,0,1,.781-3.091,5.538,5.538,0,0,1,2.167-2.145,6.325,6.325,0,0,1,3.124-.77,6.164,6.164,0,0,1,3.069.759,5.38,5.38,0,0,1,2.112,2.134,6.471,6.471,0,0,1,.759,3.179Q209.473,120.386,209.429,120.913Zm-8.129-3.906a3.288,3.288,0,0,0-1.111,2.08h6.666a3.212,3.212,0,0,0-3.322-2.86A3.319,3.319,0,0,0,201.3,117.007Z" fill="#fff"/><path d="M223.618,109.583v16.324h-2.639v-1.518a4.254,4.254,0,0,1-1.683,1.254,5.682,5.682,0,0,1-2.211.418,6.2,6.2,0,0,1-3.048-.748,5.376,5.376,0,0,1-2.122-2.123,6.834,6.834,0,0,1,0-6.3,5.394,5.394,0,0,1,2.122-2.112,6.189,6.189,0,0,1,3.048-.748,5.592,5.592,0,0,1,2.134.4,4.287,4.287,0,0,1,1.649,1.188v-6.028ZM219.2,123.256a3.24,3.24,0,0,0,1.254-1.288,4.285,4.285,0,0,0,0-3.871,3.25,3.25,0,0,0-1.254-1.287,3.744,3.744,0,0,0-3.563,0,3.257,3.257,0,0,0-1.254,1.287,4.285,4.285,0,0,0,0,3.871,3.247,3.247,0,0,0,1.254,1.288,3.744,3.744,0,0,0,3.563,0Z" fill="#fff"/><path d="M112.074,56.142a34.064,34.064,0,0,0,3.677.3,1.294,1.294,0,0,0,1.121-.688,35.083,35.083,0,0,0-.134-3.751c-.09-.674-.4-.989-1.076-.989-.852,0-1.749,0-2.646.045a1.533,1.533,0,0,0-1.659,1.663c0,.854.045,1.753.09,2.607A.822.822,0,0,0,112.074,56.142Z" fill="#fff"/><path d="M123.734,44.417a2.847,2.847,0,0,0,1.211.314c.948.034,1.871.068,2.787.083a1.1,1.1,0,0,0,.9-1.057,24.544,24.544,0,0,0-.321-3.88.822.822,0,0,0-.807-.629c-.538,0-1.076-.045-1.614-.09-.4.045-.763.045-1.077.09a1.473,1.473,0,0,0-1.569,1.528c-.045.854-.09,1.753-.09,2.652A.939.939,0,0,0,123.734,44.417Z" fill="#fff"/><path d="M168.354,68.819a15.263,15.263,0,0,0-1.884-.18,13.343,13.343,0,0,0-1.883.18.448.448,0,0,0-.269.36c-.045.674-.045,3.236,0,3.865a.89.89,0,0,0,.852.989,31.9,31.9,0,0,0,3.587-.18,1.077,1.077,0,0,0,.673-.584,5.993,5.993,0,0,0,.179-3.326A1.232,1.232,0,0,0,168.354,68.819Z" fill="#fff"/><path d="M167.992,56.955h-1.077a10.093,10.093,0,0,0-1.166-.045c-.134,0-.224.045-.358.045-.9.135-1.076.315-1.076,1.259V61.18c0,.72.134.9.807,1.034a8.649,8.649,0,0,0,3.722-.18c.224-.045.448-.359.583-.584a5.041,5.041,0,0,0,.179-3.146C169.426,57.225,169.068,57,167.992,56.955Z" fill="#fff"/><path d="M144.945,92.232c-1.076-.045-2.152.045-3.229,0a.732.732,0,0,0-.9.764,33.009,33.009,0,0,0,.269,3.64,1,1,0,0,0,.9.9c.539.09,1.032.135,1.57.18a3.612,3.612,0,0,1,.673-.045c1.21,0,1.793-.494,1.883-1.708a18.762,18.762,0,0,0,.09-2.247C146.245,92.681,145.931,92.322,144.945,92.232Z" fill="#fff"/><path d="M133.424,92.237c-.987,0-1.973,0-2.915.045-.4.045-.9,0-1.076.5a5.184,5.184,0,0,0-.314,1.393c0,.629.045,1.3.09,1.933a1.44,1.44,0,0,0,1.569,1.573,15.1,15.1,0,0,0,2.018,0,1.517,1.517,0,0,0,1.524-1.393c.09-.585.09-1.169.135-1.753,0,0-.045,0,0-.045a10.925,10.925,0,0,0,0-1.214A1.016,1.016,0,0,0,133.424,92.237Z" fill="#fff"/><path d="M162.388,86.575a22.022,22.022,0,0,0-2.422-.089c-.9.044-1.3.269-1.345,1.168a19.51,19.51,0,0,0,.18,3.236c0,.225.4.585.627.63a14.78,14.78,0,0,0,3.139.179c.942-.09,1.256-.629,1.3-1.573v-.944a7.935,7.935,0,0,0-.045-1.033A1.508,1.508,0,0,0,162.388,86.575Z" fill="#fff"/><path d="M166.07,50.3H167.1a8.141,8.141,0,0,0,1.48-.045,1.054,1.054,0,0,0,.987-.854,7.154,7.154,0,0,0,0-3.371.987.987,0,0,0-1.032-.9c-.852-.045-1.749-.045-2.6-.045a1.13,1.13,0,0,0-1.166.944,14.369,14.369,0,0,0-.089,3.1C164.725,49.987,165.218,50.257,166.07,50.3Z" fill="#fff"/><path d="M115.127,86.613a17.89,17.89,0,0,0-2.2,0,1.5,1.5,0,0,0-1.525,1.573c0,.629-.045,1.3,0,1.933a1.488,1.488,0,0,0,1.569,1.663,16.471,16.471,0,0,0,2.108,0c.9-.045,1.211-.315,1.435-1.214.09-.494.09-.944.134-1.438a6.122,6.122,0,0,1,0-.9A1.51,1.51,0,0,0,115.127,86.613Z" fill="#fff"/><path d="M113.061,44.462h1.883a1.568,1.568,0,0,0,1.66-1.618,8.1,8.1,0,0,0,0-1.034,5.5,5.5,0,0,0,0-.854,1.557,1.557,0,0,0-1.615-1.708,14.43,14.43,0,0,0-1.973,0,1.534,1.534,0,0,0-1.569,1.573,15.856,15.856,0,0,0,0,2.068A1.52,1.52,0,0,0,113.061,44.462Z" fill="#fff"/><path d="M156.426,92.508a20.167,20.167,0,0,0-2.869.09.785.785,0,0,0-.583.539,17.943,17.943,0,0,0-.18,3.1,1.392,1.392,0,0,0,1.525,1.438h1.928a1.58,1.58,0,0,0,1.7-1.708V94.126C157.906,93.092,157.458,92.553,156.426,92.508Z" fill="#fff"/><path d="M109.249,68.912a17.4,17.4,0,0,0-2.645.045c-.494,0-.673.359-.673.854v1.573a4.616,4.616,0,0,1-.045.764v.764c0,.854.224,1.124,1.076,1.169.942.045,1.928,0,2.87-.045.449-.045.718-.225.762-.674q.135-1.416.135-2.832C110.729,69.137,110.639,69,109.249,68.912Z" fill="#fff"/><path d="M142.032,38.524c.987.045,1.929.045,2.87,0,.673-.045,1.076-.269,1.121-.764a22.478,22.478,0,0,0,.135-3.011c-.045-.809-.4-1.034-1.211-1.034h-3.094c-.4,0-.628.135-.717.495a8.751,8.751,0,0,0-.09,3.415A.853.853,0,0,0,142.032,38.524Z" fill="#fff"/><path d="M110.193,57.265a6.262,6.262,0,0,0-3.632-.224c-.449.045-.628.359-.628.809v1.708c0,.494,0,.989.045,1.483,0,.854.269,1.169,1.121,1.169s1.7,0,2.556-.045c.717-.045,1.031-.315,1.076-1.079.045-1.079-.045-2.158-.09-3.236A.849.849,0,0,0,110.193,57.265Z" fill="#fff"/><path d="M129.969,38.435a25.986,25.986,0,0,0,3.229.089c.4,0,.941-.134.986-.674.045-1.123.09-2.247.045-3.371,0-.584-.314-.764-.9-.764h-3.408c-.4,0-.672.135-.717.539a7.023,7.023,0,0,0,.179,3.731A.818.818,0,0,0,129.969,38.435Z" fill="#fff"/><path d="M110.056,81a5.594,5.594,0,0,0-3.632-.135c-.359.09-.493.315-.493.72v1.618c0,.584,0,1.168-.045,1.8a.744.744,0,0,0,.583.809,6.03,6.03,0,0,0,3.453-.135,1.24,1.24,0,0,0,.628-.809,25.558,25.558,0,0,0,0-3.192A.864.864,0,0,0,110.056,81Z" fill="#fff"/><path d="M154,38.435a19.394,19.394,0,0,0,2.78,0,.942.942,0,0,0,.987-.854,16.95,16.95,0,0,0,.089-3.012c-.045-.764-.314-.854-1.076-.854h-1.435a13.886,13.886,0,0,0-1.39.045c-.852,0-1.121.225-1.166,1.079,0,.674-.045,1.348,0,2.022C152.793,37.85,153.2,38.39,154,38.435Z" fill="#fff"/><path d="M160.182,69.1c1-.137,2.049-.183,3.051-.274a.784.784,0,0,0,.774-.685c.045-.547.091-1.141.091-1.688,0-.959-.046-1.872-.091-2.83a.635.635,0,0,0-.638-.685c-.455-.046-.865-.046-1.275-.091-.91-.092-1.775-.183-2.641-.32a.952.952,0,0,1-.91-.958c-.046-1.233-.092-2.419-.046-3.652a.787.787,0,0,1,.572-.865,1.418,1.418,0,0,0,.149.041,27.455,27.455,0,0,0,3.37,0,1.169,1.169,0,0,0,1.23-1.1c0-.047.006-.095.011-.142a.877.877,0,0,0,.041-.175l-.026-.015a20.511,20.511,0,0,0,.11-3.5c-.045-.958-.41-1.095-1.32-1.095h-1.776c-.592,0-1.139,0-1.685.045-1.048,0-1.366.274-1.412,1.369a24.833,24.833,0,0,0-.045,2.6,3.437,3.437,0,0,0,.141.883.94.94,0,0,1-1.045.489,3.464,3.464,0,0,1-.683,0,12.262,12.262,0,0,1-2.231-.548,2.056,2.056,0,0,1-.774-.867,5.655,5.655,0,0,1-.364-2.876,1.124,1.124,0,0,1,1-1.095c.5-.046.957-.091,1.457-.137.638-.046,1.321-.046,1.959-.091.409-.046.819-.274.819-.731q0-1.779-.136-3.56c-.091-1-.547-1.369-1.549-1.369-.227,0-.5-.046-.728-.046-.956,0-1.913.046-2.869.092-.137,0-.364.136-.364.273-.091.5-.137.959-.182,1.461-.092.867-.137,1.734-.274,2.556-.045.411-.182.867-.728.913a12.341,12.341,0,0,1-1.822.046,5.269,5.269,0,0,1-1.639-.5,2.415,2.415,0,0,1-1.184-2.1c-.045-.959-.136-1.871-.228-2.784.154-.013.288-.026.429-.039.207.135,5.3-.148,5.347-.832a21.669,21.669,0,0,0,.137-3.834c-.046-.959-.41-1.1-1.321-1.1h-1.776c-.546,0-1.138,0-1.685.046-1.047,0-1.366.274-1.411,1.369a24.824,24.824,0,0,0-.046,2.6,3.576,3.576,0,0,0,.125.846c-.008.053-.02.11-.026.162a.481.481,0,0,1-.547.456c-1.32,0-2.686.046-4.007-.046-.956-.045-1.138-.319-1.229-1.278-.091-1.049-.182-2.053-.274-3.1-.091-.822-.455-1.187-1.275-1.187h-3.142c-.728.046-1.092.32-1.184,1.05-.136,1.278-.273,2.556-.364,3.879-.045.457-.273.639-.637.639l-3.871.137c-1.229.092-1.411-.137-1.457,1.37a14.578,14.578,0,0,1-.319,2.83,1.554,1.554,0,0,1-1.366,1.415c-.592.045-1.138.228-1.73.228a14.267,14.267,0,0,1-2-.183.627.627,0,0,1-.364-.456c0-.017,0-.034,0-.051a1.044,1.044,0,0,0,.048-.183A21.571,21.571,0,0,0,122.477,46c-.046-.958-.41-1.095-1.321-1.095H119.38c-.592,0-1.138,0-1.685.046-1.047,0-1.366.274-1.411,1.369a24.824,24.824,0,0,0-.046,2.6c.046,1.232.5,1.917,1.5,2.008a23.6,23.6,0,0,0,2.805.017,4.761,4.761,0,0,1,.475.034c.82.091,1,.365,1,1.186-.046.868-.091,1.78-.182,2.648a1.946,1.946,0,0,1-1.685,1.78c-1.093.137-2.186.273-3.279.319-.546,0-.637.228-.637.685-.046,1.415-.046,2.875-.137,4.29-.009.159-.019.578-.028,1.135a2.444,2.444,0,0,0-.8-.091H113.5c-.546,0-1.138,0-1.685.045-1.047,0-1.366.274-1.411,1.369a24.564,24.564,0,0,0-.046,2.6c.046,1.232.5,1.917,1.5,2.008a27.439,27.439,0,0,0,3.369,0,1.286,1.286,0,0,0,.788-.263c0,.687-.007,1.188-.007,1.32.045,1.369.091,2.738.091,4.108,0,.73-.046.73-.729.775-.5.046-1.047,0-1.593.046a14.2,14.2,0,0,0-2,.228c-.82.137-1.138.548-1.184,1.415v2.237c0,1.095.41,1.552,1.5,1.689a9.807,9.807,0,0,0,3.643,0,.582.582,0,0,0,.318-.411c.091-.822.137-1.6.183-2.419.045-.868.091-1.735.136-2.648.729,0,2.869.092,3.415.183a2.083,2.083,0,0,1,1.731,1.689,13.631,13.631,0,0,1,.182,2.738.922.922,0,0,1-.729.913,9.3,9.3,0,0,1-1.184.183c-.819.045-1.684.091-2.5.182-.774.046-.911.32-.911,1.1.046.958.091,1.917.091,2.875,0,1.1.364,1.552,1.457,1.643s2.186.092,3.279.137a.839.839,0,0,0,.956-.867v-.958c.091-.868.137-1.689.228-2.511a1.036,1.036,0,0,1,.956-1,5.541,5.541,0,0,1,2.6.183A1.809,1.809,0,0,1,127.4,82.61a6.941,6.941,0,0,1,.364,3.332,3.118,3.118,0,0,1-.376.825c-.07,0-.138,0-.216,0h-1.776c-.592,0-1.138,0-1.684.046-1.048,0-1.366.274-1.412,1.369a24.824,24.824,0,0,0-.046,2.6c.046,1.232.5,1.917,1.5,2.008a27.655,27.655,0,0,0,3.37,0,1.168,1.168,0,0,0,1.229-1.1,21.574,21.574,0,0,0,.137-3.834,2.555,2.555,0,0,0-.031-.3c.166-.391.472-.562,1.078-.562,1.047,0,2.14.091,3.188.182a1.513,1.513,0,0,1,1.32,1.415c.091,1.142.182,2.328.273,3.469a.549.549,0,0,0,.5.548c.547.046,1.048.137,1.594.137.956,0,1.913-.046,2.869-.091.546,0,.774-.229.82-.776.091-1,.182-2.054.318-3.058a1.583,1.583,0,0,1,1.23-1.507,27.672,27.672,0,0,1,3.369-.091.95.95,0,0,1,.911.59c-.006.071-.014.136-.018.215a24.833,24.833,0,0,0-.045,2.6c.045,1.232.5,1.917,1.5,2.008a27.439,27.439,0,0,0,3.369,0,1.168,1.168,0,0,0,1.23-1.095,21.668,21.668,0,0,0,.136-3.834c-.045-.959-.409-1.1-1.32-1.1h-1.776c-.434,0-.893.014-1.339.037a.876.876,0,0,1-.784-.705c-.318-1.643.091-3.743,2.5-4.153,1.047-.183,2.322.045,2.459,1.6l.136,2.6c.046.684.319,1,1,.958,1.184-.045,2.414-.137,3.643-.137A1.61,1.61,0,0,0,158,85.623c.091-.639.091-1.233.137-1.872,0-.684,0-1.415.045-2.1a.785.785,0,0,0-.865-.913h-1.138a6.409,6.409,0,0,1-2.459-.5c-.364-.183-.547-.365-.547-.731a5.584,5.584,0,0,1,0-1.506,3.21,3.21,0,0,1,.638-1.552,3.993,3.993,0,0,1,3.279-.867.918.918,0,0,1,.774.776A8.427,8.427,0,0,1,158,77.863v2.145c0,.411.364.913.683.913,1.139-.045,2.277-.091,3.415-.182s1.685-.411,1.731-1.233a31.088,31.088,0,0,0,0-3.56c-.046-.684-.364-.913-1.048-.958-.865-.092-1.73-.092-2.595-.137-1.23-.091-1.548-.411-1.639-1.643a15.374,15.374,0,0,1,.045-2.511A1.585,1.585,0,0,1,160.182,69.1ZM146.159,80.378l-8.342-5.6-8.307,5.609V66.528a10.506,10.506,0,0,0,16.649-.01ZM137.83,67.4a8.507,8.507,0,0,1-8.507-8.507h0a8.289,8.289,0,0,1,1.576-4.921,8.715,8.715,0,0,1,.628-.778,8.573,8.573,0,0,1,.892-.865,8.48,8.48,0,0,1,5.411-1.943h0a8.57,8.57,0,0,1,1.715.173A8.508,8.508,0,0,1,137.83,67.4Z" fill="#fff"/></svg>