<svg xmlns="http://www.w3.org/2000/svg" viewBox="0 0 275 164"><title>FullSub_Accessible_inverse_v</title><rect width="275" height="164" fill="#0064b5"/><path d="M107.457,56.39a34.227,34.227,0,0,0,3.7.3A1.3,1.3,0,0,0,112.284,56a34.984,34.984,0,0,0-.136-3.773c-.09-.678-.406-.995-1.082-.995-.857,0-1.76,0-2.662.045a1.543,1.543,0,0,0-1.669,1.673c0,.859.045,1.764.09,2.623A.829.829,0,0,0,107.457,56.39Z" fill="#fff"/><path d="M119.187,44.594a2.866,2.866,0,0,0,1.218.317c.953.034,1.881.068,2.8.083a1.1,1.1,0,0,0,.9-1.063,24.685,24.685,0,0,0-.323-3.9.826.826,0,0,0-.812-.633c-.541,0-1.083-.046-1.624-.091-.406.045-.767.045-1.083.091a1.482,1.482,0,0,0-1.579,1.537c-.045.859-.09,1.763-.09,2.668A.943.943,0,0,0,119.187,44.594Z" fill="#fff"/><path d="M164.074,69.143a15.406,15.406,0,0,0-1.9-.181,13.485,13.485,0,0,0-1.894.181.448.448,0,0,0-.271.362c-.045.678-.045,3.255,0,3.888a.9.9,0,0,0,.857,1,32.07,32.07,0,0,0,3.609-.181,1.077,1.077,0,0,0,.676-.588,6.026,6.026,0,0,0,.181-3.346A1.239,1.239,0,0,0,164.074,69.143Z" fill="#fff"/><path d="M163.709,57.208h-1.082a10.223,10.223,0,0,0-1.173-.045c-.135,0-.226.045-.361.045-.9.136-1.083.317-1.083,1.266v2.985c0,.723.136.9.812,1.04a8.718,8.718,0,0,0,3.744-.181c.226-.046.452-.362.587-.588a5.065,5.065,0,0,0,.18-3.165C165.153,57.479,164.792,57.253,163.709,57.208Z" fill="#fff"/><path d="M140.525,92.7c-1.083-.045-2.166.045-3.248,0a.738.738,0,0,0-.9.769,33.409,33.409,0,0,0,.271,3.662,1.009,1.009,0,0,0,.9.9c.542.091,1.038.136,1.579.181a3.659,3.659,0,0,1,.677-.045c1.218,0,1.8-.5,1.9-1.718a19,19,0,0,0,.09-2.261C141.833,93.148,141.517,92.786,140.525,92.7Z" fill="#fff"/><path d="M128.934,92.7c-.992,0-1.985,0-2.932.045-.406.045-.9,0-1.083.5a5.257,5.257,0,0,0-.315,1.4c0,.633.045,1.311.09,1.944a1.449,1.449,0,0,0,1.579,1.583,15.279,15.279,0,0,0,2.03,0,1.526,1.526,0,0,0,1.533-1.4c.091-.588.091-1.175.136-1.763,0,0-.045,0,0-.045a11.052,11.052,0,0,0,0-1.221A1.022,1.022,0,0,0,128.934,92.7Z" fill="#fff"/><path d="M158.072,87.006a21.8,21.8,0,0,0-2.436-.091c-.9.046-1.308.272-1.353,1.176a19.762,19.762,0,0,0,.18,3.256c0,.226.406.587.632.633a14.886,14.886,0,0,0,3.158.181c.947-.091,1.263-.634,1.308-1.583v-.95a8.05,8.05,0,0,0-.045-1.04A1.516,1.516,0,0,0,158.072,87.006Z" fill="#fff"/><path d="M161.776,50.515h1.038a8.139,8.139,0,0,0,1.488-.046,1.058,1.058,0,0,0,.993-.859,7.186,7.186,0,0,0,0-3.391.992.992,0,0,0-1.038-.9c-.857-.046-1.759-.046-2.616-.046a1.138,1.138,0,0,0-1.173.95,14.481,14.481,0,0,0-.09,3.12C160.423,50.2,160.919,50.469,161.776,50.515Z" fill="#fff"/><path d="M110.527,87.043a18.1,18.1,0,0,0-2.21,0,1.508,1.508,0,0,0-1.534,1.583c0,.633-.045,1.311,0,1.944a1.5,1.5,0,0,0,1.579,1.673,16.3,16.3,0,0,0,2.12,0c.9-.045,1.218-.316,1.444-1.22.09-.5.09-.95.135-1.447a6.067,6.067,0,0,1,0-.9A1.52,1.52,0,0,0,110.527,87.043Z" fill="#fff"/><path d="M108.449,44.64h1.895a1.577,1.577,0,0,0,1.669-1.628,8.012,8.012,0,0,0,0-1.04,5.44,5.44,0,0,0,0-.859,1.566,1.566,0,0,0-1.624-1.718,14.289,14.289,0,0,0-1.985,0,1.543,1.543,0,0,0-1.579,1.582,16.041,16.041,0,0,0,0,2.08A1.531,1.531,0,0,0,108.449,44.64Z" fill="#fff"/><path d="M152.075,92.974a20.421,20.421,0,0,0-2.887.09.793.793,0,0,0-.587.543,18.15,18.15,0,0,0-.18,3.12,1.4,1.4,0,0,0,1.534,1.447h1.939a1.59,1.59,0,0,0,1.715-1.718V94.6C153.564,93.562,153.113,93.019,152.075,92.974Z" fill="#fff"/><path d="M104.615,69.236a17.5,17.5,0,0,0-2.662.046c-.5,0-.676.361-.676.859v1.582a4.574,4.574,0,0,1-.046.769v.769c0,.859.226,1.13,1.083,1.175.947.046,1.94,0,2.887-.045.451-.045.722-.226.767-.678q.135-1.425.135-2.849C106.1,69.463,106.013,69.327,104.615,69.236Z" fill="#fff"/><path d="M137.594,38.667c.993.045,1.94.045,2.888,0,.676-.046,1.082-.272,1.127-.769a22.755,22.755,0,0,0,.136-3.029c-.046-.814-.406-1.04-1.218-1.04h-3.113c-.406,0-.632.135-.722.5a8.819,8.819,0,0,0-.09,3.436A.859.859,0,0,0,137.594,38.667Z" fill="#fff"/><path d="M105.564,57.52a6.3,6.3,0,0,0-3.654-.226c-.451.045-.631.362-.631.814v1.718c0,.5,0,.995.045,1.492,0,.859.27,1.176,1.127,1.176s1.715,0,2.572-.045c.721-.046,1.037-.317,1.082-1.086.045-1.085-.045-2.17-.09-3.255A.856.856,0,0,0,105.564,57.52Z" fill="#fff"/><path d="M125.459,38.576a25.907,25.907,0,0,0,3.248.091c.406,0,.947-.136.992-.679.045-1.13.09-2.26.045-3.391,0-.588-.316-.768-.9-.768h-3.428c-.406,0-.677.135-.722.542a7.064,7.064,0,0,0,.18,3.753A.823.823,0,0,0,125.459,38.576Z" fill="#fff"/><path d="M105.427,81.4a5.62,5.62,0,0,0-3.654-.135c-.361.09-.5.316-.5.723v1.628c0,.588,0,1.175-.046,1.809a.748.748,0,0,0,.587.813,6.047,6.047,0,0,0,3.473-.135,1.246,1.246,0,0,0,.632-.814,25.48,25.48,0,0,0,0-3.211A.871.871,0,0,0,105.427,81.4Z" fill="#fff"/><path d="M149.638,38.576a19.2,19.2,0,0,0,2.8,0,.946.946,0,0,0,.992-.859,16.956,16.956,0,0,0,.09-3.029c-.045-.769-.315-.859-1.082-.859h-1.444c-.5,0-.947,0-1.4.045-.857,0-1.128.226-1.173,1.085,0,.678-.045,1.356,0,2.035C148.42,37.988,148.826,38.531,149.638,38.576Z" fill="#fff"/><path d="M133.367,54.54V77.5a11.481,11.481,0,1,0,0-22.961Z" fill="#fff"/><path d="M155.853,69.425c1.008-.137,2.061-.183,3.069-.275a.787.787,0,0,0,.779-.689c.046-.551.091-1.148.091-1.7,0-.964-.045-1.882-.091-2.847a.638.638,0,0,0-.641-.688c-.459-.046-.871-.046-1.283-.092-.916-.092-1.787-.184-2.657-.322a.958.958,0,0,1-.916-.964c-.046-1.24-.092-2.433-.046-3.673a.791.791,0,0,1,.576-.87c.054.009.092.036.15.041a27.765,27.765,0,0,0,3.389,0,1.175,1.175,0,0,0,1.237-1.1c0-.048.007-.095.012-.143a.887.887,0,0,0,.041-.176l-.026-.015a20.654,20.654,0,0,0,.111-3.523c-.046-.964-.413-1.1-1.329-1.1h-1.786c-.6,0-1.146,0-1.695.046-1.054,0-1.375.275-1.42,1.377a24.862,24.862,0,0,0-.046,2.618,3.439,3.439,0,0,0,.142.888.945.945,0,0,1-1.051.491,3.429,3.429,0,0,1-.687,0,12.31,12.31,0,0,1-2.245-.55,2.084,2.084,0,0,1-.779-.873,5.7,5.7,0,0,1-.366-2.893,1.132,1.132,0,0,1,1.008-1.1c.5-.046.962-.092,1.466-.137.641-.046,1.328-.046,1.969-.092.413-.046.825-.276.825-.735q0-1.791-.137-3.581c-.092-1.011-.55-1.378-1.558-1.378-.229,0-.5-.046-.733-.046-.962,0-1.924.046-2.886.092-.137,0-.366.138-.366.275-.092.506-.138.965-.184,1.47-.091.872-.137,1.745-.274,2.571-.046.413-.184.873-.733.918a12.352,12.352,0,0,1-1.833.046,5.252,5.252,0,0,1-1.649-.505,2.43,2.43,0,0,1-1.191-2.112c-.046-.964-.137-1.882-.229-2.8l.431-.039c.208.137,5.333-.148,5.379-.837a21.739,21.739,0,0,0,.138-3.857c-.046-.964-.413-1.1-1.329-1.1h-1.786c-.55,0-1.146,0-1.695.046-1.054,0-1.375.275-1.42,1.377a24.862,24.862,0,0,0-.046,2.618,3.621,3.621,0,0,0,.125.851c-.008.053-.019.11-.026.163a.484.484,0,0,1-.55.459c-1.328,0-2.7.046-4.031-.046-.962-.046-1.145-.322-1.237-1.286-.091-1.056-.183-2.066-.275-3.122-.091-.827-.458-1.194-1.282-1.194h-3.161c-.733.046-1.1.321-1.191,1.056-.138,1.286-.275,2.571-.367,3.9-.045.459-.274.643-.641.643l-3.894.138c-1.237.091-1.42-.138-1.466,1.377a14.666,14.666,0,0,1-.32,2.847,1.563,1.563,0,0,1-1.375,1.423c-.595.046-1.145.23-1.74.23a14.274,14.274,0,0,1-2.016-.184.631.631,0,0,1-.366-.459c0-.016,0-.034,0-.05a1.016,1.016,0,0,0,.049-.184,21.742,21.742,0,0,0,.138-3.857c-.046-.965-.413-1.1-1.329-1.1h-1.786c-.6,0-1.146,0-1.7.045-1.054,0-1.375.276-1.42,1.378a24.843,24.843,0,0,0-.046,2.617c.046,1.24.5,1.929,1.511,2.021a23.887,23.887,0,0,0,2.822.017c.159.009.319.009.478.033.825.092,1.008.368,1.008,1.194-.046.873-.092,1.791-.183,2.664a1.955,1.955,0,0,1-1.695,1.79c-1.1.138-2.2.276-3.3.322-.549,0-.641.229-.641.688-.046,1.424-.046,2.893-.137,4.317-.01.159-.019.58-.028,1.142a2.445,2.445,0,0,0-.8-.093h-1.786c-.55,0-1.145,0-1.695.046-1.054,0-1.374.276-1.42,1.377a24.862,24.862,0,0,0-.046,2.618c.046,1.24.5,1.928,1.512,2.02a27.782,27.782,0,0,0,3.39,0,1.293,1.293,0,0,0,.792-.265c0,.691-.007,1.195-.007,1.328.046,1.377.092,2.755.092,4.132,0,.735-.046.735-.733.781-.5.046-1.054,0-1.6.046a14.353,14.353,0,0,0-2.015.229c-.825.138-1.146.551-1.191,1.424v2.25c0,1.1.412,1.561,1.511,1.7a9.861,9.861,0,0,0,3.665,0,.586.586,0,0,0,.321-.414c.091-.826.137-1.607.183-2.433.046-.873.092-1.745.137-2.663.733,0,2.886.092,3.436.183a2.1,2.1,0,0,1,1.741,1.7,13.727,13.727,0,0,1,.183,2.755.93.93,0,0,1-.733.919,9.409,9.409,0,0,1-1.191.183c-.824.046-1.695.092-2.519.184-.779.046-.917.321-.917,1.1.046.964.092,1.928.092,2.893,0,1.1.366,1.561,1.466,1.653s2.2.091,3.3.137a.844.844,0,0,0,.962-.872v-.964c.092-.873.138-1.7.229-2.526a1.044,1.044,0,0,1,.962-1.01,5.578,5.578,0,0,1,2.611.184,1.82,1.82,0,0,1,1.466,1.1,6.985,6.985,0,0,1,.367,3.352,3.193,3.193,0,0,1-.379.83c-.07,0-.139,0-.217,0h-1.786c-.6,0-1.145,0-1.7.046-1.054,0-1.374.275-1.42,1.377a24.843,24.843,0,0,0-.046,2.617c.046,1.24.5,1.929,1.512,2.021a28.189,28.189,0,0,0,3.39,0,1.175,1.175,0,0,0,1.236-1.1,21.742,21.742,0,0,0,.138-3.857,2.772,2.772,0,0,0-.031-.305c.167-.395.475-.566,1.084-.566,1.054,0,2.153.092,3.207.184a1.519,1.519,0,0,1,1.328,1.423c.092,1.148.184,2.342.275,3.49a.552.552,0,0,0,.5.551c.55.046,1.054.137,1.6.137.962,0,1.924-.046,2.886-.091.55,0,.779-.23.825-.781.092-1.01.183-2.066.321-3.077a1.59,1.59,0,0,1,1.236-1.515,28.023,28.023,0,0,1,3.39-.092.956.956,0,0,1,.917.594c-.007.071-.015.137-.018.217a24.838,24.838,0,0,0-.046,2.617c.046,1.24.5,1.928,1.512,2.02a27.782,27.782,0,0,0,3.39,0A1.176,1.176,0,0,0,147.59,92a21.738,21.738,0,0,0,.137-3.857c-.046-.964-.412-1.1-1.329-1.1h-1.786c-.437,0-.9.014-1.347.037a.879.879,0,0,1-.788-.709c-.321-1.653.091-3.765,2.519-4.179,1.054-.183,2.336.046,2.474,1.607q.069,1.31.137,2.618c.046.688.321,1.01,1.008.964,1.191-.046,2.428-.138,3.665-.138a1.621,1.621,0,0,0,1.374-1.194c.092-.642.092-1.239.138-1.882,0-.689,0-1.424.045-2.112a.79.79,0,0,0-.87-.919h-1.145a6.427,6.427,0,0,1-2.474-.5c-.366-.184-.55-.367-.55-.735a5.61,5.61,0,0,1,0-1.515,3.22,3.22,0,0,1,.642-1.561,4.011,4.011,0,0,1,3.3-.872.924.924,0,0,1,.779.78,8.528,8.528,0,0,1,.137,1.515V80.4c0,.413.366.918.687.918,1.145-.046,2.291-.092,3.436-.184s1.7-.413,1.741-1.24a31.456,31.456,0,0,0,0-3.581c-.046-.689-.367-.918-1.054-.964-.87-.092-1.741-.092-2.611-.138-1.237-.092-1.558-.413-1.649-1.653a15.434,15.434,0,0,1,.046-2.525A1.6,1.6,0,0,1,155.853,69.425ZM133.367,80.378A14.358,14.358,0,1,1,147.725,66.02,14.357,14.357,0,0,1,133.367,80.378Z" fill="#fff"/><path d="M45.63,124.914a7.409,7.409,0,0,1-2.882-2.805,8.229,8.229,0,0,1,0-8.03,7.375,7.375,0,0,1,2.892-2.8,8.468,8.468,0,0,1,4.136-1.013,8.572,8.572,0,0,1,3.168.573,6.567,6.567,0,0,1,2.464,1.671l-1.033,1.035a6.134,6.134,0,0,0-4.555-1.827,6.7,6.7,0,0,0-3.321.836,6.114,6.114,0,0,0-2.344,2.288,6.682,6.682,0,0,0,0,6.512,6.086,6.086,0,0,0,2.344,2.288,6.682,6.682,0,0,0,3.321.836,6.053,6.053,0,0,0,4.555-1.847l1.033,1.034a6.651,6.651,0,0,1-2.475,1.682,8.5,8.5,0,0,1-3.178.583A8.408,8.408,0,0,1,45.63,124.914Z" fill="#fff"/><path d="M58.554,109.469h1.563v16.325H58.554Z" fill="#fff"/><path d="M74.548,120.492h-9.68a4.136,4.136,0,0,0,1.386,2.915,4.6,4.6,0,0,0,3.168,1.11,4.987,4.987,0,0,0,1.98-.385A4.3,4.3,0,0,0,72.964,123l.88,1.011a4.963,4.963,0,0,1-1.925,1.409,6.5,6.5,0,0,1-2.541.484,6.419,6.419,0,0,1-3.158-.76,5.467,5.467,0,0,1-2.144-2.1,5.987,5.987,0,0,1-.771-3.037,6.21,6.21,0,0,1,.738-3.036,5.341,5.341,0,0,1,2.024-2.09,5.947,5.947,0,0,1,5.775,0,5.308,5.308,0,0,1,2,2.08,6.258,6.258,0,0,1,.726,3.046Zm-8.393-3.949a4.182,4.182,0,0,0-1.287,2.783h8.206a4.2,4.2,0,0,0-1.287-2.783,4.246,4.246,0,0,0-5.632,0Z" fill="#fff"/><path d="M84.954,115.266a4.383,4.383,0,0,1,1.21,3.356v7.172h-1.5v-1.8a3.58,3.58,0,0,1-1.551,1.407,5.426,5.426,0,0,1-2.432.507,4.762,4.762,0,0,1-3.08-.925,3.178,3.178,0,0,1-.076-4.817,5.215,5.215,0,0,1,3.4-.9H84.6v-.7a2.96,2.96,0,0,0-.836-2.276,3.449,3.449,0,0,0-2.441-.781,6.206,6.206,0,0,0-2.112.363,5.3,5.3,0,0,0-1.739,1l-.7-1.166a6.233,6.233,0,0,1,2.113-1.155,8.2,8.2,0,0,1,2.595-.408A4.9,4.9,0,0,1,84.954,115.266Zm-1.76,8.8a3.606,3.606,0,0,0,1.407-1.749v-1.893h-3.63q-2.969,0-2.969,2.069a1.892,1.892,0,0,0,.769,1.594,3.506,3.506,0,0,0,2.156.583A4.123,4.123,0,0,0,83.194,124.067Z" fill="#fff"/><path d="M93.546,114.727a5.576,5.576,0,0,1,2.694-.594v1.519l-.374-.023a3.688,3.688,0,0,0-2.859,1.123,4.461,4.461,0,0,0-1.035,3.145v5.9H90.41V114.221h1.5v2.267A3.787,3.787,0,0,1,93.546,114.727Z" fill="#fff"/><path d="M99.055,109.469h1.563v16.325H99.055Z" fill="#fff"/><path d="M114.7,114.221l-5.786,12.958a5.547,5.547,0,0,1-1.628,2.311,3.643,3.643,0,0,1-2.223.681,4.532,4.532,0,0,1-1.561-.263,3.381,3.381,0,0,1-1.254-.792l.725-1.166a2.885,2.885,0,0,0,2.113.88,2.12,2.12,0,0,0,1.352-.441,3.983,3.983,0,0,0,1.045-1.5l.507-1.122-5.17-11.55h1.628l4.356,9.834,4.356-9.834Z" fill="#fff"/><path d="M126.776,122.229h-7.7l-1.519,3.565h-2.948l6.931-15.4h2.816l6.952,15.4h-2.992Zm-.946-2.243-2.9-6.733-2.882,6.733Z" fill="#fff"/><path d="M135,125.177a5.634,5.634,0,0,1-2.265-2.144,5.991,5.991,0,0,1-.815-3.113,5.932,5.932,0,0,1,.815-3.1,5.7,5.7,0,0,1,2.254-2.135,6.872,6.872,0,0,1,3.289-.769,6.329,6.329,0,0,1,3.047.7,4.567,4.567,0,0,1,1.969,2.023l-2.112,1.233a3.347,3.347,0,0,0-1.265-1.221,3.692,3.692,0,0,0-4.213.594,4.053,4.053,0,0,0-.01,5.345,3.707,3.707,0,0,0,4.223.594,3.34,3.34,0,0,0,1.265-1.221L143.3,123.2a4.762,4.762,0,0,1-1.991,2.035,6.2,6.2,0,0,1-3.025.715A6.881,6.881,0,0,1,135,125.177Z" fill="#fff"/><path d="M147.61,125.177a5.636,5.636,0,0,1-2.266-2.144,5.991,5.991,0,0,1-.814-3.113,5.931,5.931,0,0,1,.814-3.1,5.7,5.7,0,0,1,2.255-2.135,6.872,6.872,0,0,1,3.289-.769,6.332,6.332,0,0,1,3.047.7,4.572,4.572,0,0,1,1.969,2.023l-2.113,1.233a3.352,3.352,0,0,0-1.264-1.221,3.692,3.692,0,0,0-4.213.594,4.051,4.051,0,0,0-.011,5.345,3.709,3.709,0,0,0,4.224.594,3.344,3.344,0,0,0,1.264-1.221L155.9,123.2a4.77,4.77,0,0,1-1.992,2.035,6.2,6.2,0,0,1-3.024.715A6.876,6.876,0,0,1,147.61,125.177Z" fill="#fff"/><path d="M169.1,120.8h-9.218a3.2,3.2,0,0,0,1.265,2.058,4.146,4.146,0,0,0,2.541.759,4.281,4.281,0,0,0,3.19-1.277l1.474,1.7a4.959,4.959,0,0,1-2,1.429,7.921,7.921,0,0,1-6.138-.286,5.535,5.535,0,0,1-2.277-2.144,6.061,6.061,0,0,1-.8-3.113,6.155,6.155,0,0,1,.781-3.091,5.547,5.547,0,0,1,2.167-2.146,6.325,6.325,0,0,1,3.124-.769,6.174,6.174,0,0,1,3.069.758,5.38,5.38,0,0,1,2.112,2.134,6.475,6.475,0,0,1,.759,3.18C169.148,120.176,169.133,120.448,169.1,120.8Zm-8.129-3.905a3.282,3.282,0,0,0-1.11,2.079h6.666a3.214,3.214,0,0,0-3.323-2.859A3.319,3.319,0,0,0,160.975,116.894Z" fill="#fff"/><path d="M172.623,125.574a7.03,7.03,0,0,1-2.177-.946l1.055-2.09a6.813,6.813,0,0,0,1.9.846,7.89,7.89,0,0,0,2.189.32q2.463,0,2.464-1.3a.869.869,0,0,0-.627-.859,10.81,10.81,0,0,0-2.014-.461,16.429,16.429,0,0,1-2.364-.506,3.635,3.635,0,0,1-1.584-1,2.8,2.8,0,0,1-.671-1.992,3.127,3.127,0,0,1,1.4-2.672,6.36,6.36,0,0,1,3.773-1,10.914,10.914,0,0,1,2.42.274,6.829,6.829,0,0,1,1.979.737l-1.055,2.09a6.523,6.523,0,0,0-3.366-.88,3.718,3.718,0,0,0-1.837.364,1.082,1.082,0,0,0-.627.957.954.954,0,0,0,.671.934,10.564,10.564,0,0,0,2.079.518,15.9,15.9,0,0,1,2.309.506,3.621,3.621,0,0,1,1.552.967,2.7,2.7,0,0,1,.648,1.937,3.064,3.064,0,0,1-1.429,2.64,6.747,6.747,0,0,1-3.9.99A10.532,10.532,0,0,1,172.623,125.574Z" fill="#fff"/><path d="M183.953,125.574a7.03,7.03,0,0,1-2.177-.946l1.055-2.09a6.813,6.813,0,0,0,1.9.846,7.89,7.89,0,0,0,2.189.32q2.463,0,2.464-1.3a.869.869,0,0,0-.627-.859,10.81,10.81,0,0,0-2.014-.461,16.46,16.46,0,0,1-2.364-.506,3.635,3.635,0,0,1-1.584-1,2.8,2.8,0,0,1-.671-1.992,3.127,3.127,0,0,1,1.4-2.672,6.36,6.36,0,0,1,3.773-1,10.914,10.914,0,0,1,2.42.274,6.848,6.848,0,0,1,1.98.737l-1.056,2.09a6.523,6.523,0,0,0-3.366-.88,3.718,3.718,0,0,0-1.837.364,1.082,1.082,0,0,0-.627.957.954.954,0,0,0,.671.934,10.564,10.564,0,0,0,2.079.518,15.9,15.9,0,0,1,2.309.506,3.615,3.615,0,0,1,1.552.967,2.7,2.7,0,0,1,.649,1.937,3.065,3.065,0,0,1-1.43,2.64,6.747,6.747,0,0,1-3.895.99A10.537,10.537,0,0,1,183.953,125.574Z" fill="#fff"/><path d="M194.579,111.636a1.621,1.621,0,0,1,0-2.353,1.767,1.767,0,0,1,1.255-.474,1.826,1.826,0,0,1,1.254.451,1.456,1.456,0,0,1,.506,1.133,1.66,1.66,0,0,1-.5,1.222,1.714,1.714,0,0,1-1.265.5A1.767,1.767,0,0,1,194.579,111.636Zm-.131,2.409h2.75v11.749h-2.75Z" fill="#fff"/><path d="M210.386,114.662a5.4,5.4,0,0,1,2.123,2.112,6.282,6.282,0,0,1,.771,3.146,6.345,6.345,0,0,1-.771,3.157,5.379,5.379,0,0,1-2.123,2.123,6.239,6.239,0,0,1-3.068.748,5.689,5.689,0,0,1-2.211-.418,4.236,4.236,0,0,1-1.684-1.254v1.518h-2.618V109.469h2.75v6.006a4.64,4.64,0,0,1,1.661-1.166,5.443,5.443,0,0,1,2.1-.395A6.229,6.229,0,0,1,210.386,114.662Zm-.88,7.92a4.107,4.107,0,0,0,0-5.325,3.328,3.328,0,0,0-2.5-1.011,3.533,3.533,0,0,0-1.782.451,3.257,3.257,0,0,0-1.254,1.287,4.285,4.285,0,0,0,0,3.871,3.251,3.251,0,0,0,1.254,1.287,3.533,3.533,0,0,0,1.782.451A3.325,3.325,0,0,0,209.506,122.582Z" fill="#fff"/><path d="M215.9,109.469h2.75v16.325H215.9Z" fill="#fff"/><path d="M233.254,120.8h-9.218a3.2,3.2,0,0,0,1.265,2.058,4.148,4.148,0,0,0,2.541.759,4.28,4.28,0,0,0,3.19-1.277l1.474,1.7a4.946,4.946,0,0,1-2,1.429,7.921,7.921,0,0,1-6.138-.286,5.535,5.535,0,0,1-2.277-2.144,6.061,6.061,0,0,1-.8-3.113,6.145,6.145,0,0,1,.782-3.091,5.54,5.54,0,0,1,2.167-2.146,6.319,6.319,0,0,1,3.124-.769,6.17,6.17,0,0,1,3.068.758,5.38,5.38,0,0,1,2.112,2.134,6.475,6.475,0,0,1,.759,3.18C233.3,120.176,233.283,120.448,233.254,120.8Zm-8.129-3.905a3.291,3.291,0,0,0-1.11,2.079h6.666a3.248,3.248,0,0,0-1.078-2.067,3.281,3.281,0,0,0-2.244-.792A3.323,3.323,0,0,0,225.125,116.894Z" fill="#fff"/></svg>