<svg xmlns="http://www.w3.org/2000/svg" viewBox="0 0 275 164"><title>FullSub_Accessible_inverse_h</title><rect x="0.03" y="0.051" width="274.939" height="163.898" fill="#0064b5"/><path d="M11.143,74.82a25.566,25.566,0,0,0,2.758.228.972.972,0,0,0,.841-.516,26.176,26.176,0,0,0-.1-2.813c-.067-.506-.3-.742-.807-.742-.639,0-1.312,0-1.984.034a1.15,1.15,0,0,0-1.245,1.247c0,.641.034,1.315.068,1.955A.616.616,0,0,0,11.143,74.82Z" fill="#fff"/><path d="M19.888,66.026a2.137,2.137,0,0,0,.908.236c.711.026,1.4.051,2.09.062a.822.822,0,0,0,.673-.793,18.312,18.312,0,0,0-.24-2.909.615.615,0,0,0-.606-.472c-.4,0-.807-.034-1.21-.068-.3.034-.572.034-.807.068A1.105,1.105,0,0,0,19.518,63.3c-.033.64-.067,1.314-.067,1.989A.7.7,0,0,0,19.888,66.026Z" fill="#fff"/><path d="M53.353,84.328a11.389,11.389,0,0,0-1.412-.135,9.934,9.934,0,0,0-1.413.135.336.336,0,0,0-.2.27c-.033.5-.033,2.427,0,2.9a.667.667,0,0,0,.639.741,23.773,23.773,0,0,0,2.691-.135.8.8,0,0,0,.5-.438,4.493,4.493,0,0,0,.135-2.494A.925.925,0,0,0,53.353,84.328Z" fill="#fff"/><path d="M53.081,75.43h-.807A7.5,7.5,0,0,0,51.4,75.4c-.1,0-.168.034-.269.034-.673.1-.807.236-.807.944V78.6c0,.539.1.674.605.775a6.468,6.468,0,0,0,2.791-.135c.169-.033.337-.269.438-.438a3.775,3.775,0,0,0,.134-2.36C54.158,75.632,53.889,75.464,53.081,75.43Z" fill="#fff"/><path d="M35.8,101.887c-.807-.033-1.614.034-2.421,0a.551.551,0,0,0-.673.573,24.818,24.818,0,0,0,.2,2.731.753.753,0,0,0,.673.674c.4.068.773.1,1.177.135a2.687,2.687,0,0,1,.5-.034c.908,0,1.346-.371,1.413-1.281A14.172,14.172,0,0,0,36.738,103C36.772,102.224,36.536,101.955,35.8,101.887Z" fill="#fff"/><path d="M27.155,101.892c-.739,0-1.479,0-2.186.033-.3.034-.672,0-.807.371a3.937,3.937,0,0,0-.235,1.045c0,.472.034.978.067,1.45a1.081,1.081,0,0,0,1.177,1.18,11.589,11.589,0,0,0,1.514,0,1.139,1.139,0,0,0,1.143-1.045c.067-.439.067-.877.1-1.315,0,0-.034,0,0-.034a8.125,8.125,0,0,0,0-.91A.762.762,0,0,0,27.155,101.892Z" fill="#fff"/><path d="M48.879,97.645a16.462,16.462,0,0,0-1.816-.067c-.673.033-.976.2-1.009.876a14.636,14.636,0,0,0,.134,2.427c0,.169.3.439.471.472a11.019,11.019,0,0,0,2.354.135c.706-.067.942-.472.975-1.18V99.6a6.1,6.1,0,0,0-.033-.775A1.131,1.131,0,0,0,48.879,97.645Z" fill="#fff"/><path d="M51.64,70.44h.774a6.047,6.047,0,0,0,1.109-.034.79.79,0,0,0,.74-.64,5.353,5.353,0,0,0,0-2.529.739.739,0,0,0-.773-.674c-.639-.033-1.312-.033-1.951-.033a.846.846,0,0,0-.874.707,10.718,10.718,0,0,0-.067,2.326C50.631,70.2,51,70.406,51.64,70.44Z" fill="#fff"/><path d="M13.433,97.673a13.323,13.323,0,0,0-1.648,0,1.125,1.125,0,0,0-1.144,1.18c0,.472-.033.978,0,1.45a1.116,1.116,0,0,0,1.178,1.247,12.247,12.247,0,0,0,1.58,0c.673-.034.908-.236,1.076-.91.068-.371.068-.708.1-1.079a4.588,4.588,0,0,1,0-.674A1.133,1.133,0,0,0,13.433,97.673Z" fill="#fff"/><path d="M11.884,66.06H13.3a1.175,1.175,0,0,0,1.244-1.214,5.888,5.888,0,0,0,0-.775,4,4,0,0,0,0-.64,1.167,1.167,0,0,0-1.21-1.281,10.747,10.747,0,0,0-1.48,0,1.15,1.15,0,0,0-1.177,1.179,11.8,11.8,0,0,0,0,1.551A1.14,1.14,0,0,0,11.884,66.06Z" fill="#fff"/><path d="M44.408,102.1a15.179,15.179,0,0,0-2.153.067.59.59,0,0,0-.437.4,13.546,13.546,0,0,0-.135,2.326,1.044,1.044,0,0,0,1.144,1.078h1.446a1.185,1.185,0,0,0,1.278-1.281v-1.382C45.517,102.533,45.181,102.128,44.408,102.1Z" fill="#fff"/><path d="M9.025,84.4a13.1,13.1,0,0,0-1.985.033c-.37,0-.5.27-.5.641v1.18a3.444,3.444,0,0,1-.034.573V87.4c0,.64.168.843.807.876.707.034,1.447,0,2.153-.033.336-.034.538-.169.572-.506q.1-1.062.1-2.124C10.134,84.566,10.067,84.465,9.025,84.4Z" fill="#fff"/><path d="M33.612,61.607c.74.034,1.446.034,2.152,0,.5-.034.807-.2.841-.573a16.911,16.911,0,0,0,.1-2.259c-.034-.606-.3-.775-.908-.775H33.477c-.3,0-.47.1-.538.371a6.581,6.581,0,0,0-.067,2.562A.64.64,0,0,0,33.612,61.607Z" fill="#fff"/><path d="M9.732,75.663a4.69,4.69,0,0,0-2.724-.169c-.336.034-.471.27-.471.607v1.281c0,.371,0,.742.034,1.112,0,.641.2.877.841.877s1.278,0,1.917-.034c.538-.034.773-.236.807-.809.034-.809-.034-1.618-.067-2.427A.633.633,0,0,0,9.732,75.663Z" fill="#fff"/><path d="M24.564,61.54a19.406,19.406,0,0,0,2.422.067c.3,0,.706-.1.74-.506.033-.842.067-1.685.033-2.528,0-.438-.235-.573-.672-.573H24.531c-.3,0-.5.1-.538.4a5.263,5.263,0,0,0,.134,2.8A.615.615,0,0,0,24.564,61.54Z" fill="#fff"/><path d="M9.63,93.465a4.189,4.189,0,0,0-2.724-.1c-.269.068-.37.236-.37.54v1.213c0,.438,0,.877-.034,1.349a.558.558,0,0,0,.437.606,4.513,4.513,0,0,0,2.59-.1A.926.926,0,0,0,10,96.364a18.916,18.916,0,0,0,0-2.393A.65.65,0,0,0,9.63,93.465Z" fill="#fff"/><path d="M42.591,61.54a14.509,14.509,0,0,0,2.085,0,.706.706,0,0,0,.74-.641,12.736,12.736,0,0,0,.067-2.259c-.034-.573-.235-.64-.807-.64H43.6a10.346,10.346,0,0,0-1.043.034c-.639,0-.841.168-.874.809,0,.5-.034,1.011,0,1.517C41.683,61.1,41.985,61.506,42.591,61.54Z" fill="#fff"/><path d="M30.461,73.441V90.559a8.559,8.559,0,1,0,0-17.118Z" fill="#fff"/><path d="M47.224,84.538c.751-.1,1.537-.136,2.288-.2a.587.587,0,0,0,.581-.513c.034-.411.068-.856.068-1.267,0-.719-.034-1.4-.068-2.122a.476.476,0,0,0-.478-.514c-.342-.034-.649-.034-.956-.068-.684-.069-1.332-.137-1.981-.24A.714.714,0,0,1,46,78.89c-.034-.924-.069-1.814-.034-2.738a.589.589,0,0,1,.429-.649c.04.007.068.027.111.031a20.9,20.9,0,0,0,2.528,0,.876.876,0,0,0,.922-.822c0-.035.005-.071.008-.107a.611.611,0,0,0,.031-.131l-.019-.011a15.378,15.378,0,0,0,.082-2.626c-.034-.719-.307-.822-.99-.822H47.731c-.444,0-.854,0-1.264.034-.785,0-1.024.206-1.058,1.027a18.415,18.415,0,0,0-.035,1.951,2.575,2.575,0,0,0,.107.663.706.706,0,0,1-.784.366,2.576,2.576,0,0,1-.512,0,9.179,9.179,0,0,1-1.674-.411,1.53,1.53,0,0,1-.58-.65,4.248,4.248,0,0,1-.274-2.157.844.844,0,0,1,.752-.821c.375-.034.717-.069,1.093-.1.478-.034.99-.034,1.468-.068.308-.035.615-.206.615-.548q0-1.335-.1-2.67c-.068-.753-.409-1.027-1.161-1.027-.171,0-.375-.034-.546-.034-.717,0-1.435.034-2.152.068-.1,0-.273.1-.273.2-.068.377-.1.719-.137,1.1-.068.65-.1,1.3-.2,1.917-.034.308-.136.65-.546.684a9.148,9.148,0,0,1-1.366.035,3.927,3.927,0,0,1-1.229-.377,1.81,1.81,0,0,1-.888-1.575c-.035-.718-.1-1.4-.171-2.088.115-.009.215-.019.321-.029.155.1,3.976-.11,4.01-.624a16.175,16.175,0,0,0,.1-2.875c-.034-.719-.308-.822-.991-.822H38.919c-.409,0-.853,0-1.263.034-.786,0-1.025.206-1.059,1.027a18.685,18.685,0,0,0-.034,1.951,2.711,2.711,0,0,0,.093.635c-.006.04-.014.082-.019.121a.361.361,0,0,1-.41.343c-.99,0-2.015.034-3-.035-.717-.034-.854-.239-.922-.958-.069-.787-.137-1.54-.2-2.328-.069-.616-.342-.89-.957-.89H28.782c-.546.034-.82.24-.888.788-.1.958-.2,1.916-.273,2.909-.034.343-.2.479-.478.479-.957.035-1.947.069-2.9.1-.922.069-1.059-.1-1.093,1.027a10.975,10.975,0,0,1-.239,2.123,1.167,1.167,0,0,1-1.025,1.061c-.444.034-.853.171-1.3.171a10.721,10.721,0,0,1-1.5-.137.468.468,0,0,1-.273-.342c0-.013,0-.026,0-.038a.982.982,0,0,0,.036-.137,16.186,16.186,0,0,0,.1-2.876c-.034-.719-.307-.821-.99-.821H16.623c-.444,0-.854,0-1.264.034-.785,0-1.024.2-1.058,1.027a18.41,18.41,0,0,0-.035,1.951c.035.924.376,1.438,1.127,1.506a17.758,17.758,0,0,0,2.1.013c.119.007.237.007.356.025.615.069.752.274.752.89-.034.651-.069,1.335-.137,1.986A1.457,1.457,0,0,1,17.2,75.159c-.82.1-1.64.2-2.459.239-.41,0-.479.172-.479.514-.034,1.061-.034,2.157-.1,3.218-.007.119-.014.433-.021.851a1.831,1.831,0,0,0-.6-.069H12.213c-.409,0-.853,0-1.263.034-.786,0-1.025.206-1.059,1.027a18.7,18.7,0,0,0-.034,1.952c.034.924.376,1.437,1.127,1.506a20.885,20.885,0,0,0,2.527,0,.962.962,0,0,0,.591-.2c0,.516-.005.891-.005.99.034,1.027.068,2.054.068,3.081,0,.548-.034.548-.547.582-.375.034-.785,0-1.2.034a10.71,10.71,0,0,0-1.5.171c-.614.1-.853.411-.887,1.062V91.83c0,.822.307,1.164,1.127,1.267a7.338,7.338,0,0,0,2.732,0,.439.439,0,0,0,.239-.309c.068-.616.1-1.2.136-1.814.035-.65.069-1.3.1-1.985.546,0,2.151.068,2.561.137a1.563,1.563,0,0,1,1.3,1.266,10.2,10.2,0,0,1,.137,2.054.693.693,0,0,1-.547.685,6.914,6.914,0,0,1-.888.137c-.614.034-1.263.068-1.878.137-.581.034-.683.239-.683.821.034.719.068,1.438.068,2.157,0,.821.273,1.164,1.093,1.232s1.639.069,2.459.1a.629.629,0,0,0,.717-.65v-.719c.068-.651.1-1.267.171-1.883a.777.777,0,0,1,.717-.753,4.159,4.159,0,0,1,1.947.137,1.357,1.357,0,0,1,1.093.821,5.211,5.211,0,0,1,.273,2.5,2.381,2.381,0,0,1-.282.619c-.053,0-.1,0-.162,0H21.132c-.444,0-.854,0-1.264.034-.785,0-1.024.206-1.058,1.027a18.429,18.429,0,0,0-.034,1.952c.034.924.375,1.437,1.127,1.506a20.885,20.885,0,0,0,2.527,0,.876.876,0,0,0,.922-.822,16.175,16.175,0,0,0,.1-2.875,2.039,2.039,0,0,0-.023-.228c.125-.293.354-.421.809-.421.785,0,1.605.068,2.39.136a1.135,1.135,0,0,1,.991,1.062c.068.856.137,1.745.205,2.6a.41.41,0,0,0,.375.411c.41.034.786.1,1.2.1.717,0,1.434-.034,2.151-.069.41,0,.581-.171.615-.582.068-.753.137-1.54.239-2.293a1.186,1.186,0,0,1,.922-1.13,20.724,20.724,0,0,1,2.528-.068.711.711,0,0,1,.683.442c0,.053-.011.1-.014.162a18.68,18.68,0,0,0-.034,1.951c.034.924.376,1.438,1.127,1.506a20.683,20.683,0,0,0,2.527,0,.877.877,0,0,0,.923-.821,16.281,16.281,0,0,0,.1-2.876c-.034-.719-.307-.821-.99-.821H38.844c-.326,0-.67.01-1,.027a.656.656,0,0,1-.588-.529c-.239-1.232.068-2.807,1.878-3.115.786-.137,1.742.034,1.844,1.2q.051.977.1,1.951c.034.514.239.754.751.719.888-.034,1.81-.1,2.732-.1a1.21,1.21,0,0,0,1.025-.89c.068-.48.068-.925.1-1.4,0-.513,0-1.061.034-1.575a.588.588,0,0,0-.648-.684h-.854a4.789,4.789,0,0,1-1.844-.377c-.274-.137-.41-.274-.41-.548a4.144,4.144,0,0,1,0-1.129,2.4,2.4,0,0,1,.478-1.164A3,3,0,0,1,44.9,89.4a.689.689,0,0,1,.58.582,6.258,6.258,0,0,1,.1,1.13V92.72c0,.308.273.685.512.685.854-.035,1.708-.069,2.562-.137s1.263-.308,1.3-.925a23.09,23.09,0,0,0,0-2.67c-.034-.513-.273-.684-.785-.719-.649-.068-1.3-.068-1.947-.1-.922-.069-1.161-.308-1.229-1.233a11.6,11.6,0,0,1,.034-1.882A1.19,1.19,0,0,1,47.224,84.538ZM30.461,92.7A10.7,10.7,0,1,1,41.164,82,10.7,10.7,0,0,1,30.461,92.7Z" fill="#fff"/><path d="M63.768,90.428a8.08,8.08,0,0,1-3.145-3.06,8.991,8.991,0,0,1,0-8.76,8.069,8.069,0,0,1,3.156-3.06,9.237,9.237,0,0,1,4.512-1.1,9.344,9.344,0,0,1,3.456.624,7.179,7.179,0,0,1,2.689,1.824L73.308,78.02a6.7,6.7,0,0,0-4.969-1.992,7.3,7.3,0,0,0-3.623.912,6.667,6.667,0,0,0-2.557,2.5,7.3,7.3,0,0,0,0,7.1,6.667,6.667,0,0,0,2.557,2.5,7.3,7.3,0,0,0,3.623.912,6.6,6.6,0,0,0,4.969-2.016l1.128,1.128a7.27,7.27,0,0,1-2.7,1.836,9.287,9.287,0,0,1-3.468.635A9.168,9.168,0,0,1,63.768,90.428Z" fill="#fff"/><path d="M77.867,73.58h1.7V91.388h-1.7Z" fill="#fff"/><path d="M95.316,85.6H84.755a4.517,4.517,0,0,0,1.513,3.18A5.017,5.017,0,0,0,89.724,90a5.444,5.444,0,0,0,2.159-.42,4.71,4.71,0,0,0,1.7-1.236l.96,1.1a5.416,5.416,0,0,1-2.1,1.536,7.1,7.1,0,0,1-2.772.528,7,7,0,0,1-3.443-.828,5.963,5.963,0,0,1-2.34-2.292,6.525,6.525,0,0,1-.841-3.312,6.755,6.755,0,0,1,.8-3.312,5.815,5.815,0,0,1,2.208-2.28,6.169,6.169,0,0,1,3.156-.816,6.106,6.106,0,0,1,3.143.816,5.778,5.778,0,0,1,2.184,2.268,6.829,6.829,0,0,1,.792,3.324ZM86.159,81.3a4.574,4.574,0,0,0-1.4,3.036h8.952A4.578,4.578,0,0,0,92.3,81.3a4.637,4.637,0,0,0-6.145,0Z" fill="#fff"/><path d="M106.667,79.9a4.776,4.776,0,0,1,1.32,3.66v7.824h-1.631V89.42a3.915,3.915,0,0,1-1.693,1.536,5.922,5.922,0,0,1-2.652.552A5.188,5.188,0,0,1,98.652,90.5a3.466,3.466,0,0,1-.084-5.256,5.693,5.693,0,0,1,3.708-.984h4.007v-.769a3.236,3.236,0,0,0-.912-2.483,3.771,3.771,0,0,0-2.664-.852,6.772,6.772,0,0,0-2.3.4,5.806,5.806,0,0,0-1.9,1.092l-.768-1.272a6.81,6.81,0,0,1,2.3-1.26,8.97,8.97,0,0,1,2.832-.444A5.344,5.344,0,0,1,106.667,79.9Zm-1.92,9.6a3.941,3.941,0,0,0,1.536-1.908V85.531h-3.96q-3.24,0-3.24,2.257a2.062,2.062,0,0,0,.84,1.74,3.825,3.825,0,0,0,2.353.636A4.479,4.479,0,0,0,104.747,89.5Z" fill="#fff"/><path d="M116.039,79.316a6.08,6.08,0,0,1,2.941-.648v1.655l-.409-.023a4.032,4.032,0,0,0-3.12,1.224,4.876,4.876,0,0,0-1.128,3.432v6.432h-1.7V78.764h1.632v2.472A4.134,4.134,0,0,1,116.039,79.316Z" fill="#fff"/><path d="M122.051,73.58h1.7V91.388h-1.7Z" fill="#fff"/><path d="M139.116,78.764,132.8,92.9a6.023,6.023,0,0,1-1.775,2.52,3.978,3.978,0,0,1-2.425.744,4.949,4.949,0,0,1-1.7-.288,3.7,3.7,0,0,1-1.367-.864l.792-1.273a3.137,3.137,0,0,0,2.3.96,2.313,2.313,0,0,0,1.475-.479,4.368,4.368,0,0,0,1.141-1.632l.552-1.224-5.64-12.6h1.775l4.752,10.727,4.752-10.727Z" fill="#fff"/><path d="M152.292,87.5h-8.4l-1.656,3.888h-3.216l7.561-16.8h3.071l7.584,16.8h-3.264Zm-1.033-2.448-3.168-7.344-3.144,7.344Z" fill="#fff"/><path d="M161.267,90.716a6.162,6.162,0,0,1-2.472-2.34,6.915,6.915,0,0,1,0-6.78,6.207,6.207,0,0,1,2.46-2.328,7.491,7.491,0,0,1,3.587-.84,6.917,6.917,0,0,1,3.325.768,4.983,4.983,0,0,1,2.148,2.208l-2.305,1.344a3.657,3.657,0,0,0-1.379-1.332,4.027,4.027,0,0,0-4.6.648,4.418,4.418,0,0,0-.012,5.832,4.046,4.046,0,0,0,4.608.648,3.657,3.657,0,0,0,1.379-1.332l2.305,1.344a5.2,5.2,0,0,1-2.172,2.22,6.778,6.778,0,0,1-3.3.78A7.5,7.5,0,0,1,161.267,90.716Z" fill="#fff"/><path d="M175.019,90.716a6.162,6.162,0,0,1-2.472-2.34,6.915,6.915,0,0,1,0-6.78,6.207,6.207,0,0,1,2.46-2.328,7.491,7.491,0,0,1,3.587-.84,6.919,6.919,0,0,1,3.325.768,4.983,4.983,0,0,1,2.148,2.208l-2.305,1.344a3.652,3.652,0,0,0-1.38-1.332,4.026,4.026,0,0,0-4.595.648,4.418,4.418,0,0,0-.012,5.832,4.045,4.045,0,0,0,4.607.648,3.652,3.652,0,0,0,1.38-1.332l2.305,1.344a5.2,5.2,0,0,1-2.172,2.22,6.778,6.778,0,0,1-3.3.78A7.5,7.5,0,0,1,175.019,90.716Z" fill="#fff"/><path d="M198.466,85.94H188.411a3.486,3.486,0,0,0,1.38,2.244,4.523,4.523,0,0,0,2.772.828,4.673,4.673,0,0,0,3.48-1.392l1.608,1.848a5.421,5.421,0,0,1-2.185,1.56,8.652,8.652,0,0,1-6.7-.312,6.05,6.05,0,0,1-2.484-2.34,6.608,6.608,0,0,1-.876-3.4,6.716,6.716,0,0,1,.851-3.372,6.059,6.059,0,0,1,2.365-2.34,6.892,6.892,0,0,1,3.408-.84,6.718,6.718,0,0,1,3.347.828,5.867,5.867,0,0,1,2.305,2.328,7.059,7.059,0,0,1,.827,3.468C198.514,85.26,198.5,85.556,198.466,85.94ZM189.6,81.68a3.588,3.588,0,0,0-1.212,2.268h7.273a3.5,3.5,0,0,0-3.624-3.12A3.626,3.626,0,0,0,189.6,81.68Z" fill="#fff"/><path d="M202.306,91.148a7.645,7.645,0,0,1-2.376-1.033l1.153-2.279a7.365,7.365,0,0,0,2.076.924,8.614,8.614,0,0,0,2.388.348q2.688,0,2.687-1.416a.945.945,0,0,0-.684-.936,11.81,11.81,0,0,0-2.2-.5,17.7,17.7,0,0,1-2.58-.553,3.94,3.94,0,0,1-1.727-1.091,3.046,3.046,0,0,1-.733-2.172,3.413,3.413,0,0,1,1.525-2.916,6.932,6.932,0,0,1,4.116-1.092,11.863,11.863,0,0,1,2.639.3,7.449,7.449,0,0,1,2.161.8L209.6,81.812a7.106,7.106,0,0,0-3.672-.96,4.07,4.07,0,0,0-2,.4,1.18,1.18,0,0,0-.683,1.044,1.041,1.041,0,0,0,.731,1.02,11.647,11.647,0,0,0,2.269.564,17.513,17.513,0,0,1,2.519.552,3.957,3.957,0,0,1,1.693,1.056,2.948,2.948,0,0,1,.708,2.112,3.343,3.343,0,0,1-1.561,2.88,7.356,7.356,0,0,1-4.248,1.08A11.48,11.48,0,0,1,202.306,91.148Z" fill="#fff"/><path d="M214.667,91.148a7.624,7.624,0,0,1-2.376-1.033l1.152-2.279a7.378,7.378,0,0,0,2.076.924,8.625,8.625,0,0,0,2.388.348q2.688,0,2.687-1.416a.945.945,0,0,0-.683-.936,11.83,11.83,0,0,0-2.2-.5,17.714,17.714,0,0,1-2.581-.553,3.94,3.94,0,0,1-1.727-1.091,3.05,3.05,0,0,1-.733-2.172A3.413,3.413,0,0,1,214.2,79.52a6.936,6.936,0,0,1,4.116-1.092,11.879,11.879,0,0,1,2.64.3,7.442,7.442,0,0,1,2.16.8l-1.152,2.281a7.108,7.108,0,0,0-3.672-.96,4.07,4.07,0,0,0-2,.4,1.181,1.181,0,0,0-.684,1.044,1.041,1.041,0,0,0,.732,1.02,11.633,11.633,0,0,0,2.268.564,17.531,17.531,0,0,1,2.52.552,3.96,3.96,0,0,1,1.692,1.056,2.944,2.944,0,0,1,.708,2.112,3.342,3.342,0,0,1-1.56,2.88,7.356,7.356,0,0,1-4.248,1.08A11.469,11.469,0,0,1,214.667,91.148Z" fill="#fff"/><path d="M226.259,75.944a1.769,1.769,0,0,1,0-2.568,1.928,1.928,0,0,1,1.369-.516,1.985,1.985,0,0,1,1.367.492,1.587,1.587,0,0,1,.553,1.236,1.812,1.812,0,0,1-.541,1.332,1.868,1.868,0,0,1-1.379.54A1.928,1.928,0,0,1,226.259,75.944Zm-.144,2.628h3V91.388h-3Z" fill="#fff"/><path d="M243.5,79.244a5.891,5.891,0,0,1,2.316,2.3,7.456,7.456,0,0,1,0,6.876,5.854,5.854,0,0,1-2.316,2.315,6.8,6.8,0,0,1-3.348.817,6.193,6.193,0,0,1-2.412-.456,4.627,4.627,0,0,1-1.836-1.368v1.656H233.05V73.58h3v6.552a5.053,5.053,0,0,1,1.813-1.272,5.934,5.934,0,0,1,2.292-.432A6.806,6.806,0,0,1,243.5,79.244Zm-.96,8.64a4.482,4.482,0,0,0,0-5.808,3.626,3.626,0,0,0-2.724-1.1,3.856,3.856,0,0,0-1.944.492,3.549,3.549,0,0,0-1.368,1.4,4.677,4.677,0,0,0,0,4.224,3.549,3.549,0,0,0,1.368,1.4,3.856,3.856,0,0,0,1.944.492A3.626,3.626,0,0,0,242.543,87.884Z" fill="#fff"/><path d="M249.514,73.58h3V91.388h-3Z" fill="#fff"/><path d="M268.45,85.94H258.394a3.486,3.486,0,0,0,1.38,2.244,4.524,4.524,0,0,0,2.773.828,4.671,4.671,0,0,0,3.479-1.392l1.608,1.848a5.418,5.418,0,0,1-2.184,1.56,8.652,8.652,0,0,1-6.695-.312,6.046,6.046,0,0,1-2.485-2.34,6.608,6.608,0,0,1-.876-3.4,6.706,6.706,0,0,1,.852-3.372,6.05,6.05,0,0,1,2.364-2.34,6.9,6.9,0,0,1,3.408-.84,6.724,6.724,0,0,1,3.348.828,5.873,5.873,0,0,1,2.305,2.328,7.07,7.07,0,0,1,.827,3.468Q268.5,85.364,268.45,85.94Zm-8.868-4.26a3.584,3.584,0,0,0-1.212,2.268h7.272a3.5,3.5,0,0,0-3.624-3.12A3.624,3.624,0,0,0,259.582,81.68Z" fill="#fff"/></svg>