<?xml version="1.0" encoding="UTF-8" standalone="no"?>
<svg
   xmlns:dc="http://purl.org/dc/elements/1.1/"
   xmlns:cc="http://creativecommons.org/ns#"
   xmlns:rdf="http://www.w3.org/1999/02/22-rdf-syntax-ns#"
   xmlns:svg="http://www.w3.org/2000/svg"
   xmlns="http://www.w3.org/2000/svg"
   xmlns:sodipodi="http://sodipodi.sourceforge.net/DTD/sodipodi-0.dtd"
   xmlns:inkscape="http://www.inkscape.org/namespaces/inkscape"
   viewBox="0 0 16 16"
   version="1.1"
   id="svg1059"
   sodipodi:docname="ClearlyDefined_Logo_color_transparent.svg"
   inkscape:version="0.92.2 (5c3e80d, 2017-08-06)">
  <metadata
     id="metadata1065">
    <rdf:RDF>
      <cc:Work
         rdf:about="">
        <dc:format>image/svg+xml</dc:format>
        <dc:type
           rdf:resource="http://purl.org/dc/dcmitype/StillImage" />
        <dc:title>Logo_color</dc:title>
      </cc:Work>
    </rdf:RDF>
  </metadata>
  <defs
     id="defs1063" />
  <sodipodi:namedview
     pagecolor="#ffffff"
     bordercolor="#666666"
     borderopacity="1"
     objecttolerance="10"
     gridtolerance="10"
     guidetolerance="10"
     inkscape:pageopacity="0"
     inkscape:pageshadow="2"
     inkscape:window-width="2560"
     inkscape:window-height="1387"
     id="namedview1061"
     showgrid="false"
     inkscape:zoom="76.125"
     inkscape:cx="8"
     inkscape:cy="8"
     inkscape:window-x="-8"
     inkscape:window-y="0"
     inkscape:window-maximized="1"
     inkscape:current-layer="svg1059" />
  <title
     id="title941">Logo_color</title>
  <path
     d="M 7.5488281 1.3554688 C 7.3698281 1.3664687 7.2798125 1.4332812 7.2578125 1.6132812 C 7.2238125 1.9282812 7.1899688 2.2423594 7.1679688 2.5683594 C 7.1569687 2.6813594 7.1017188 2.7265625 7.0117188 2.7265625 L 6.0585938 2.7597656 C 5.7585938 2.7827656 5.7102187 2.7276563 5.6992188 3.0976562 A 3.578 3.578 0 0 1 5.6210938 3.796875 A 0.381 0.381 0 0 1 5.2851562 4.1445312 C 5.1391563 4.1585313 5.000375 4.1992187 4.859375 4.1992188 A 3.584 3.584 0 0 1 4.3652344 4.1542969 A 0.157 0.157 0 0 1 4.2753906 4.0429688 C 4.2523906 3.8629687 4.2524688 3.6711875 4.2304688 3.4921875 C 4.2084687 3.3131875 4.2007813 3.1706719 4.1757812 3.0136719 A 0.186 0.186 0 0 0 3.9746094 2.84375 C 3.7286094 2.84375 3.4748906 2.8334688 3.2128906 2.8554688 C 2.9768906 2.8784688 2.8882344 2.967125 2.8652344 3.203125 C 2.8432344 3.472125 2.8535156 3.7322344 2.8535156 3.9902344 A 0.169 0.169 0 0 0 3.0117188 4.1816406 C 3.1797188 4.2046406 3.3593438 4.2360469 3.5273438 4.2480469 C 3.6723438 4.2590469 3.8188437 4.2494844 3.9648438 4.2714844 C 4.1648438 4.2934844 4.2109375 4.3605 4.2109375 4.5625 C 4.2109375 4.7645 4.1880156 5.0008438 4.1660156 5.2148438 A 0.479 0.479 0 0 1 3.7519531 5.6523438 C 3.4829531 5.6863437 3.2123594 5.7214219 2.9433594 5.7324219 C 2.8083594 5.7324219 2.7871094 5.7883906 2.7871094 5.9003906 C 2.7761094 6.2493906 2.7769063 6.6080313 2.7539062 6.9570312 C 2.7429062 7.1480312 2.7304687 8.8220313 2.7304688 8.9570312 C 2.7414688 9.2940312 2.7539063 9.63175 2.7539062 9.96875 C 2.7539062 10.14875 2.7422187 10.147203 2.5742188 10.158203 C 2.4512187 10.169203 2.3166406 10.158922 2.1816406 10.169922 A 3.715 3.715 0 0 0 1.6875 10.226562 C 1.4875 10.260563 1.4074844 10.360219 1.3964844 10.574219 L 1.3964844 11.125 C 1.3964844 11.395 1.4975781 11.507016 1.7675781 11.541016 A 2.389 2.389 0 0 0 2.6679688 11.541016 A 0.141 0.141 0 0 0 2.7460938 11.441406 C 2.7680937 11.241406 2.7800156 11.048797 2.7910156 10.841797 C 2.8020156 10.634797 2.8132188 10.413453 2.8242188 10.189453 C 3.0042188 10.189453 3.5300625 10.211375 3.6640625 10.234375 A 0.513 0.513 0 0 1 4.0917969 10.650391 A 3.351 3.351 0 0 1 4.1367188 11.324219 A 0.226 0.226 0 0 1 3.9570312 11.548828 A 2.151 2.151 0 0 1 3.6640625 11.59375 C 3.4640625 11.60575 3.2498281 11.616672 3.0488281 11.638672 C 2.8478281 11.660672 2.8242188 11.717203 2.8242188 11.908203 C 2.8362188 12.144203 2.8476563 12.381187 2.8476562 12.617188 C 2.8476562 12.887187 2.9360781 12.999578 3.2050781 13.017578 C 3.4740781 13.035578 3.7446719 13.039781 4.0136719 13.050781 A 0.206 0.206 0 0 0 4.2480469 12.837891 L 4.2480469 12.601562 C 4.2710469 12.387562 4.2826875 12.186375 4.3046875 11.984375 A 0.256 0.256 0 0 1 4.5390625 11.736328 A 1.366 1.366 0 0 1 5.1796875 11.78125 A 0.444 0.444 0 0 1 5.5371094 12.050781 A 1.713 1.713 0 0 1 5.6269531 12.871094 C 5.6159531 12.939094 5.5032656 13.161875 5.4472656 13.171875 C 5.1332656 13.205875 4.9594844 13.237047 4.6464844 13.248047 C 4.5014844 13.248047 4.4902344 13.161594 4.4902344 13.308594 C 4.5012344 13.588594 4.381625 13.798359 4.390625 14.068359 C 4.412625 14.292359 4.412 14.358859 4.625 14.380859 A 4.724 4.724 0 0 0 5.3085938 14.400391 C 5.3755938 14.388391 5.4699062 14.390266 5.5039062 14.322266 A 0.749 0.749 0 0 0 5.5800781 14.009766 C 5.6030781 13.809766 5.7367656 13.623875 5.7597656 13.421875 C 5.7827656 13.219875 5.8495469 13.128906 6.0605469 13.128906 C 6.3185469 13.128906 6.5877031 13.150828 6.8457031 13.173828 A 0.371 0.371 0 0 1 7.1699219 13.521484 L 7.2363281 14.376953 A 0.135 0.135 0 0 0 7.3613281 14.511719 C 7.4953281 14.522719 7.6199062 14.544922 7.7539062 14.544922 C 7.9889063 14.544922 8.2239844 14.532484 8.4589844 14.521484 C 8.5939844 14.521484 8.6492031 14.465078 8.6582031 14.330078 C 8.6802031 14.083078 8.7042812 13.825125 8.7382812 13.578125 A 0.389 0.389 0 0 1 9.0371094 13.207031 A 6.972 6.972 0 0 1 9.8671875 13.185547 C 10.035187 13.196547 10.103953 13.285078 10.126953 13.455078 C 10.148953 13.713078 10.876625 13.072547 10.640625 13.060547 C 10.517625 13.049547 10.360172 13.038141 10.326172 12.869141 A 0.785 0.785 0 0 1 10.943359 11.847656 C 11.201359 11.802656 11.515828 11.858234 11.548828 12.240234 C 11.560828 12.454234 11.571031 12.668812 11.582031 12.882812 C 11.593031 13.050812 11.661078 13.128187 11.830078 13.117188 C 12.121078 13.105187 12.424469 13.083984 12.730469 13.083984 A 0.4 0.4 0 0 0 13.066406 12.792969 C 13.088406 12.634969 13.088609 12.491078 13.099609 12.330078 C 13.110609 12.169078 13.099328 11.983453 13.111328 11.814453 A 0.194 0.194 0 0 0 12.900391 11.599609 L 12.619141 11.599609 A 1.587 1.587 0 0 1 12.013672 11.476562 C 11.923672 11.431563 11.878906 11.386875 11.878906 11.296875 A 1.4 1.4 0 0 1 11.878906 10.925781 A 0.8 0.8 0 0 1 12.035156 10.544922 A 0.985 0.985 0 0 1 12.84375 10.330078 A 0.224 0.224 0 0 1 13.033203 10.521484 A 2.013 2.013 0 0 1 13.068359 10.892578 L 13.068359 11.421875 C 13.068359 11.521875 13.157328 11.644531 13.236328 11.644531 C 13.516328 11.633531 13.795172 11.622609 14.076172 11.599609 C 14.357172 11.576609 14.491906 11.500781 14.503906 11.300781 A 7.775 7.775 0 0 0 14.503906 10.423828 C 14.491906 10.255828 14.412141 10.1985 14.244141 10.1875 C 14.031141 10.1645 13.818469 10.165297 13.605469 10.154297 C 13.305469 10.131297 13.224078 10.053906 13.205078 9.7539062 A 3.755 3.755 0 0 1 13.21875 9.1367188 A 0.39 0.39 0 0 1 13.599609 8.7324219 C 13.845609 8.6984219 14.100562 8.6860625 14.351562 8.6640625 A 0.192 0.192 0 0 0 14.541016 8.4960938 C 14.553016 8.3610938 14.564453 8.2150781 14.564453 8.0800781 C 14.564453 7.8440781 14.553016 7.6208594 14.541016 7.3808594 A 0.156 0.156 0 0 0 14.384766 7.2109375 C 14.271766 7.1999375 14.171313 7.2004531 14.070312 7.1894531 C 13.845313 7.1664531 13.632922 7.143375 13.419922 7.109375 A 0.235 0.235 0 0 1 13.195312 6.8730469 C 13.184313 6.5730469 13.174547 6.2746094 13.185547 5.9746094 C 13.185547 5.8056094 13.274125 5.7492812 13.453125 5.7382812 A 6.854 6.854 0 0 0 14.148438 5.703125 C 14.361437 5.670125 14.507812 5.5928281 14.507812 5.4238281 L 13.107422 4.6035156 C 13.095422 4.8625156 13.0845 5.1091875 13.0625 5.3671875 C 13.0395 5.5581875 12.951484 5.6252813 12.771484 5.6132812 A 0.786 0.786 0 0 1 12.603516 5.6132812 A 2.994 2.994 0 0 1 12.054688 5.4804688 A 0.506 0.506 0 0 1 11.863281 5.265625 A 1.388 1.388 0 0 1 11.773438 4.5585938 A 0.277 0.277 0 0 1 12.019531 4.2871094 L 12.378906 4.2558594 C 12.535906 4.2448594 12.704328 4.2444219 12.861328 4.2324219 C 12.961328 4.2214219 13.060547 4.1657344 13.060547 4.0527344 C 13.060547 3.7607344 13.05001 3.4677812 13.027344 3.1757812 C 13.005344 2.9287813 12.893484 2.8398438 12.646484 2.8398438 C 12.590484 2.8398438 12.522797 2.828125 12.466797 2.828125 C 12.230797 2.828125 11.995766 2.8386094 11.759766 2.8496094 C 11.726766 2.8496094 11.671875 2.8839688 11.671875 2.9179688 C 11.648875 3.0409688 11.637953 3.1543437 11.626953 3.2773438 C 11.603953 3.4913437 11.591594 3.70425 11.558594 3.90625 C 11.546594 4.00625 11.513906 4.1198594 11.378906 4.1308594 A 2.949 2.949 0 0 1 10.931641 4.1425781 A 1.286 1.286 0 0 1 10.53125 4.0195312 A 0.6 0.6 0 0 1 10.240234 3.5019531 C 10.229234 3.2659531 10.205594 3.0414062 10.183594 2.8164062 C 10.317594 2.8054062 10.430969 2.7942031 10.542969 2.7832031 L 10.171875 2.3457031 C 10.160875 2.4347031 10.139906 2.536 10.128906 2.625 A 0.119 0.119 0 0 1 9.9921875 2.7382812 C 9.6671875 2.7382812 9.3328125 2.7485625 9.0078125 2.7265625 C 8.7718125 2.7145625 8.7260312 2.6481094 8.7070312 2.4121094 C 8.6840313 2.1541094 8.662625 1.9064375 8.640625 1.6484375 C 8.617625 1.4484375 8.5281719 1.3554688 8.3261719 1.3554688 L 7.5488281 1.3554688 z M 8.1308594 4.2910156 L 11.115234 6.0566406 L 11.105469 9.5566406 L 8.0996094 11.300781 L 5.1113281 9.53125 L 5.1230469 6.0234375 L 8.1308594 4.2910156 z "
     id="path943"
     style="fill:#0064b5;fill-opacity:1" />
  <g
     opacity="0.8"
     id="g949">
    <path
       d="M2.761,5.511a.326.326,0,0,1-.281.172,8.5,8.5,0,0,1-.919-.076A.206.206,0,0,1,1.4,5.4c-.011-.213-.022-.438-.022-.651A.383.383,0,0,1,1.8,4.337c.225-.011.449-.011.662-.011.168,0,.246.078.269.247A8.64,8.64,0,0,1,2.761,5.511Z"
       fill="#38a038"
       id="path947" />
  </g>
  <g
     opacity="0.8"
     id="g953">
    <path
       d="M5.014,1.361c.135.011.269.022.4.022a.2.2,0,0,1,.2.158A6.087,6.087,0,0,1,5.7,2.51a.275.275,0,0,1-.225.265c-.229,0-.459-.012-.7-.021a.714.714,0,0,1-.3-.079.234.234,0,0,1-.146-.247c0-.225.011-.449.023-.663a.368.368,0,0,1,.392-.382c.079-.011.168-.011.269-.022Z"
       fill="#38a038"
       id="path951" />
  </g>
  <g
     opacity="0.8"
     id="g957">
    <path
       d="M14.622,8.866a.112.112,0,0,1,.067-.09,3.411,3.411,0,0,1,.471-.045,3.855,3.855,0,0,1,.471.045.308.308,0,0,1,.314.281,1.505,1.505,0,0,1-.045.831.267.267,0,0,1-.168.146,7.924,7.924,0,0,1-.9.045.222.222,0,0,1-.213-.247C14.611,9.675,14.611,9.034,14.622,8.866Z"
       fill="#38a038"
       id="path955" />
  </g>
  <g
     opacity="0.8"
     id="g961">
    <path
       d="M15.271,5.81h.269c.269.011.359.067.4.337a1.261,1.261,0,0,1-.045.787c-.034.056-.09.135-.146.146a2.175,2.175,0,0,1-.93.045c-.168-.034-.2-.079-.2-.259V6.125c0-.236.045-.281.269-.315.034,0,.056-.011.09-.011a2.574,2.574,0,0,1,.291.011Z"
       fill="#38a038"
       id="path959" />
  </g>
  <g
     opacity="0.8"
     id="g965">
    <path
       d="M9.431,16c-.134-.011-.258-.022-.392-.045a.249.249,0,0,1-.224-.225,8.175,8.175,0,0,1-.068-.91.184.184,0,0,1,.225-.191c.269.011.538-.011.807,0,.246.023.325.112.314.371a4.593,4.593,0,0,1-.023.562c-.022.3-.168.427-.471.427A.921.921,0,0,0,9.431,16Z"
       fill="#38a038"
       id="path963" />
  </g>
  <g
     opacity="0.8"
     id="g969">
    <path
       d="M7.156,15.2c-.011.146-.011.292-.033.438a.38.38,0,0,1-.382.348,3.853,3.853,0,0,1-.5,0,.36.36,0,0,1-.392-.393c-.012-.157-.023-.326-.023-.483a1.293,1.293,0,0,1,.079-.349c.044-.123.168-.112.269-.123.235-.011.482-.011.728-.011a.254.254,0,0,1,.258.258,2.784,2.784,0,0,1,0,.3C7.145,15.2,7.156,15.2,7.156,15.2Z"
       fill="#38a038"
       id="path967" />
  </g>
  <g
     opacity="0.8"
     id="g973">
    <path
       d="M14.509,13.867V14.1c-.011.236-.089.371-.325.393a3.619,3.619,0,0,1-.784-.045c-.057-.011-.157-.1-.157-.157a4.885,4.885,0,0,1-.045-.809c.011-.225.112-.281.336-.292a5.552,5.552,0,0,1,.6.022.377.377,0,0,1,.359.393A2.04,2.04,0,0,1,14.509,13.867Z"
       fill="#38a038"
       id="path971" />
  </g>
  <g
     opacity="0.8"
     id="g977">
    <path
       d="M15.318,4.147H15.06c-.213-.012-.336-.079-.348-.293a3.592,3.592,0,0,1,.023-.775.282.282,0,0,1,.291-.236c.213,0,.437,0,.65.011a.246.246,0,0,1,.258.225,1.78,1.78,0,0,1,0,.843.261.261,0,0,1-.246.213,1.994,1.994,0,0,1-.37.012Z"
       fill="#38a038"
       id="path975" />
  </g>
  <g
     opacity="0.8"
     id="g981">
    <path
       d="M2.705,13.854c-.011.123-.011.236-.033.359-.056.225-.135.292-.359.3a4.211,4.211,0,0,1-.527,0,.372.372,0,0,1-.392-.416c-.012-.157,0-.326,0-.483a.375.375,0,0,1,.381-.394,4.57,4.57,0,0,1,.549,0,.378.378,0,0,1,.381.4A1.534,1.534,0,0,0,2.705,13.854Z"
       fill="#38a038"
       id="path979" />
  </g>
  <g
     opacity="0.8"
     id="g985">
    <path
       d="M2.693,2.024a1.849,1.849,0,0,1,0,.258.392.392,0,0,1-.414.4H1.808a.381.381,0,0,1-.4-.394,4.038,4.038,0,0,1,0-.516A.384.384,0,0,1,1.8,1.383a3.7,3.7,0,0,1,.494,0,.389.389,0,0,1,.4.427A1.266,1.266,0,0,1,2.693,2.024Z"
       fill="#38a038"
       id="path983" />
  </g>
  <g
     opacity="0.8"
     id="g989">
    <path
       d="M12.369,15.99h-.247a.347.347,0,0,1-.381-.359,4.474,4.474,0,0,1,.045-.775.2.2,0,0,1,.146-.135,5,5,0,0,1,.717-.023c.258.011.37.146.381.4v.46a.4.4,0,0,1-.426.427Z"
       fill="#38a038"
       id="path987" />
  </g>
  <g
     opacity="0.8"
     id="g993">
    <path
       d="M.025,9.417V9.024c0-.124.045-.214.168-.214A4.461,4.461,0,0,1,.855,8.8c.347.023.37.056.37.405,0,.236-.012.472-.034.708-.011.112-.078.157-.191.168-.235.011-.482.023-.717.011C.07,10.08.014,10.013.014,9.8V9.608A1.178,1.178,0,0,0,.025,9.417Z"
       fill="#38a038"
       id="path991" />
  </g>
  <g
     opacity="0.8"
     id="g997">
    <path
       d="M9.42,0h.359c.2,0,.292.056.3.258a5.575,5.575,0,0,1-.034.753c-.011.124-.112.18-.28.191a7.144,7.144,0,0,1-.717,0A.213.213,0,0,1,8.8.978,2.194,2.194,0,0,1,8.826.124C8.849.034,8.9,0,9.006,0Z"
       fill="#38a038"
       id="path995" />
  </g>
  <g
     opacity="0.8"
     id="g1001">
    <path
       d="M.026,6.461V6.034c0-.113.044-.191.157-.2a1.564,1.564,0,0,1,.908.057.211.211,0,0,1,.112.146c.011.269.033.539.022.809-.011.191-.09.258-.269.269-.213.012-.426.012-.639.012s-.28-.079-.28-.293C.026,6.708.026,6.584.026,6.461Z"
       fill="#38a038"
       id="path999" />
  </g>
  <g
     opacity="0.8"
     id="g1005">
    <path
       d="M6.472,0h.4C7.021,0,7.1.045,7.1.191c.011.281,0,.562-.012.843-.011.135-.145.168-.246.168a6.4,6.4,0,0,1-.807-.022.2.2,0,0,1-.146-.113A1.756,1.756,0,0,1,5.844.135C5.855.034,5.923,0,6.023,0Z"
       fill="#38a038"
       id="path1003" />
  </g>
  <g
     opacity="0.8"
     id="g1009">
    <path
       d="M.025,12.372v-.4c0-.1.034-.157.123-.18a1.392,1.392,0,0,1,.908.034.214.214,0,0,1,.124.168,6.438,6.438,0,0,1,0,.8.307.307,0,0,1-.157.2,1.5,1.5,0,0,1-.863.034.186.186,0,0,1-.146-.2C.025,12.665.025,12.518.025,12.372Z"
       fill="#38a038"
       id="path1007" />
  </g>
  <g
     opacity="0.8"
     id="g1013">
    <path
       d="M12.38,0h.358c.191,0,.258.022.269.213a4.211,4.211,0,0,1-.022.753.235.235,0,0,1-.247.214,4.885,4.885,0,0,1-.7,0c-.2-.011-.3-.146-.3-.393-.011-.169,0-.338,0-.506.011-.214.078-.27.291-.27C12.144,0,12.256,0,12.38,0Z"
       fill="#38a038"
       id="path1011" />
  </g>
  <g
     opacity="0.7"
     id="g1055">
    <g
       opacity="0.7"
       id="g1017">
      <path
         d="M8.613,2.314h.336c.169,0,.236.022.247.191a3.723,3.723,0,0,1-.022.7.225.225,0,0,1-.236.2,4.131,4.131,0,0,1-.639,0c-.19-.011-.28-.135-.28-.371V2.561c.011-.2.067-.247.269-.247Z"
         fill="#00b294"
         id="path1015" />
    </g>
    <g
       opacity="0.7"
       id="g1021">
      <path
         d="M5.922,3.405h.336c.169,0,.236.023.247.191a3.723,3.723,0,0,1-.022.7.224.224,0,0,1-.236.2,4.01,4.01,0,0,1-.639,0c-.19-.011-.28-.135-.28-.371V3.653c.011-.2.067-.248.269-.248Z"
         fill="#00b294"
         id="path1019" />
    </g>
    <g
       opacity="0.7"
       id="g1025">
      <path
         d="M3.584,6.314h.337c.168,0,.235.023.246.191a3.64,3.64,0,0,1-.022.7.224.224,0,0,1-.236.2,4.131,4.131,0,0,1-.639,0c-.19-.011-.28-.135-.28-.371V6.561c.011-.2.067-.247.269-.247Z"
         fill="#00b294"
         id="path1023" />
    </g>
    <g
       opacity="0.7"
       id="g1029">
      <path
         d="M3.685,8.762h.336c.169,0,.236.022.247.191a3.723,3.723,0,0,1-.022.7.225.225,0,0,1-.236.2,4.131,4.131,0,0,1-.639,0c-.19-.011-.28-.135-.28-.371V9.009c.011-.2.067-.247.269-.247Z"
         fill="#00b294"
         id="path1027" />
    </g>
    <g
       opacity="0.7"
       id="g1033">
      <path
         d="M5.922,10.811h.336c.169,0,.236.022.247.191a3.715,3.715,0,0,1-.022.7.225.225,0,0,1-.236.2,4.131,4.131,0,0,1-.639,0c-.19-.012-.28-.135-.28-.371v-.472c.011-.2.067-.247.269-.247Z"
         fill="#00b294"
         id="path1031" />
    </g>
    <g
       opacity="0.7"
       id="g1037">
      <path
         d="M7.391,11.968h.336c.168,0,.235.022.246.191a3.632,3.632,0,0,1-.022.7.224.224,0,0,1-.235.2,4.131,4.131,0,0,1-.639,0c-.191-.012-.281-.135-.281-.371v-.472c.012-.2.068-.247.269-.247Z"
         fill="#00b294"
         id="path1035" />
    </g>
    <g
       opacity="0.7"
       id="g1041">
      <path
         d="M10.363,10.731H10.7c.168,0,.235.023.246.191a3.64,3.64,0,0,1-.022.7.224.224,0,0,1-.235.2,4.01,4.01,0,0,1-.639,0c-.191-.011-.281-.135-.281-.371v-.472c.012-.2.068-.247.269-.247Z"
         fill="#00b294"
         id="path1039" />
    </g>
    <g
       opacity="0.7"
       id="g1045">
      <path
         d="M12.323,7.124h.336c.168,0,.236.023.247.191a3.641,3.641,0,0,1-.023.7.223.223,0,0,1-.235.2,3.9,3.9,0,0,1-.639,0c-.191-.011-.28-.134-.28-.37V7.372c.011-.2.067-.248.269-.248Z"
         fill="#00b294"
         id="path1043" />
    </g>
    <g
       opacity="0.7"
       id="g1049">
      <path
         d="M11.337,3.686h.336c.168,0,.236.023.247.191a3.641,3.641,0,0,1-.023.7.223.223,0,0,1-.235.2,3.9,3.9,0,0,1-.639,0c-.191-.011-.28-.135-.28-.371V3.934c.011-.2.067-.248.269-.248Z"
         fill="#00b294"
         id="path1047" />
    </g>
    <g
       opacity="0.7"
       id="g1053">
      <path
         d="M12.705,9.124h.336c.168,0,.235.023.247.192a3.634,3.634,0,0,1-.023.7.223.223,0,0,1-.235.2,3.9,3.9,0,0,1-.639,0c-.191-.011-.281-.134-.281-.37V9.372c.012-.2.068-.248.269-.248Z"
         fill="#00b294"
         id="path1051" />
    </g>
  </g>
  <path
     d="M4.287,3.989a.288.288,0,0,1-.3.27,6.964,6.964,0,0,1-.83,0c-.246-.023-.358-.191-.369-.5a5.943,5.943,0,0,1,.011-.64c.011-.27.089-.337.347-.337.135-.012.269-.012.415-.012H4c.224,0,.314.034.325.27A5.325,5.325,0,0,1,4.287,3.989Zm7.027-2.6h-.437c-.135,0-.28,0-.415.012-.258,0-.336.067-.347.337a5.944,5.944,0,0,0-.012.64c.012.3.124.472.37.495a6.964,6.964,0,0,0,.83,0,.288.288,0,0,0,.3-.27,5.325,5.325,0,0,0,.033-.944C11.628,1.427,11.538,1.393,11.314,1.393Zm-.025,11.65h-.437c-.135,0-.28,0-.415.011-.258,0-.336.068-.347.337a5.962,5.962,0,0,0-.012.641c.012.3.124.472.37.494a6.76,6.76,0,0,0,.83,0,.288.288,0,0,0,.3-.27,5.313,5.313,0,0,0,.033-.943C11.6,13.077,11.513,13.043,11.289,13.043Zm-5.814.037H5.038c-.146,0-.28,0-.415.011-.257,0-.336.068-.347.338a5.943,5.943,0,0,0-.011.64c.011.3.123.472.37.494a6.551,6.551,0,0,0,.829,0,.288.288,0,0,0,.3-.269A5.328,5.328,0,0,0,5.8,13.35C5.789,13.114,5.7,13.08,5.475,13.08ZM2.548,7.213H2.111c-.135,0-.281,0-.415.012-.258,0-.336.067-.348.337a6.213,6.213,0,0,0-.011.64c.011.3.123.472.37.495a6.964,6.964,0,0,0,.83,0,.287.287,0,0,0,.3-.27,5.325,5.325,0,0,0,.034-.944C2.862,7.247,2.772,7.213,2.548,7.213Zm11.983-2.65c-.011-.236-.1-.27-.325-.27h-.437c-.146,0-.28,0-.415.011-.257,0-.336.068-.347.337A5.962,5.962,0,0,0,13,5.282c.011.3.123.472.37.494a6.743,6.743,0,0,0,.829,0,.288.288,0,0,0,.3-.27A5.313,5.313,0,0,0,14.531,4.563Z"
     fill="#5ecff1"
     id="path1057" />
</svg>
