<svg xmlns="http://www.w3.org/2000/svg" viewBox="0 0 16 16"><title>Logo_mono</title><path d="M14.388,7.215c-.113-.011-.213-.011-.314-.022-.225-.023-.438-.045-.651-.079a.235.235,0,0,1-.224-.236c-.011-.3-.022-.6-.011-.9,0-.121,0-.213.178-.2.269.016.549.011.829,0a.288.288,0,0,0,.3-.27,8.938,8.938,0,0,0,.033-.943c-.011-.236-.1-.27-.325-.27h-.437c-.146,0-.28,0-.415.011-.257,0-.336.068-.347.337A5.962,5.962,0,0,0,13,5.282a.808.808,0,0,0,.035.217c-.045.093-.194.139-.426.12a1.987,1.987,0,0,1-.549-.134.506.506,0,0,1-.191-.214,1.388,1.388,0,0,1-.089-.708.277.277,0,0,1,.246-.27l.359-.033c.157-.011.325-.011.482-.023.1-.011.2-.067.2-.18q0-.438-.034-.876c-.022-.247-.134-.337-.381-.337-.056,0-.123-.011-.179-.011-.236,0-.471.011-.707.022-.033,0-.089.034-.089.068-.023.123-.034.236-.045.359-.023.214-.034.427-.067.629-.012.1-.045.214-.18.225a2.949,2.949,0,0,1-.448.011,1.286,1.286,0,0,1-.4-.123.6.6,0,0,1-.291-.517c-.011-.22-.038-.43-.052-.64,0-.069.064-.075.1-.055a.4.4,0,0,0,.184.065,6.964,6.964,0,0,0,.83,0,.287.287,0,0,0,.3-.27,5.232,5.232,0,0,0,.034-.944c-.011-.236-.1-.27-.325-.27h-.437c-.135,0-.28,0-.415.012-.258,0-.336.067-.347.337a5.944,5.944,0,0,0-.012.64c0,.079.026.236.025.248a.119.119,0,0,1-.135.113c-.325,0-.661.011-.986-.011-.236-.012-.281-.079-.3-.315-.023-.258-.045-.506-.067-.764-.023-.2-.112-.292-.314-.292H7.549c-.179.011-.269.078-.291.258-.034.315-.068.629-.09.955-.011.113-.067.158-.157.158l-.953.033c-.3.023-.347-.033-.358.337a3.578,3.578,0,0,1-.079.7.381.381,0,0,1-.336.348C5.139,4.159,5,4.2,4.859,4.2a3.584,3.584,0,0,1-.494-.045.157.157,0,0,1-.089-.113V4.034a.331.331,0,0,0,.012-.045,5.325,5.325,0,0,0,.033-.944c-.011-.236-.1-.27-.325-.27H3.558c-.146,0-.28,0-.415.011-.258,0-.336.068-.347.338a5.944,5.944,0,0,0-.012.64c.012.3.124.472.37.5a6.114,6.114,0,0,0,.691,0,1.15,1.15,0,0,1,.117.008c.2.022.247.09.247.292s-.023.438-.045.652a.479.479,0,0,1-.415.438c-.269.034-.538.068-.807.079-.135,0-.157.056-.157.168-.011.349-.011.708-.034,1.057,0,.039.011.256-.2.256H2.111c-.135,0-.281,0-.415.012-.258,0-.337.067-.348.337a6.213,6.213,0,0,0-.011.64c.011.3.123.472.37.495a6.964,6.964,0,0,0,.83,0c.217,0,.192.227.192.26.011.337.022.674.022,1.011,0,.18-.011.18-.179.191-.124.011-.258,0-.393.011a3.715,3.715,0,0,0-.493.056c-.2.034-.28.135-.291.349v.55c0,.27.1.382.37.416a2.389,2.389,0,0,0,.9,0,.141.141,0,0,0,.079-.1c.022-.2.034-.393.045-.6s.022-.427.033-.651c.18,0,.707.022.841.045a.513.513,0,0,1,.426.415,3.351,3.351,0,0,1,.045.675.226.226,0,0,1-.179.224,2.151,2.151,0,0,1-.292.045c-.2.012-.415.023-.616.045s-.225.079-.225.27c.012.236.023.472.023.708,0,.27.09.382.359.4s.538.023.807.034a.206.206,0,0,0,.235-.213v-.236c.023-.214.034-.416.056-.618a.256.256,0,0,1,.236-.248,1.366,1.366,0,0,1,.639.045.444.444,0,0,1,.358.27,1.713,1.713,0,0,1,.09.82.738.738,0,0,1-.093.2h-.49c-.146,0-.28,0-.415.011-.257,0-.336.068-.347.337a5.962,5.962,0,0,0-.011.641c.011.3.123.472.37.494a6.551,6.551,0,0,0,.829,0,.288.288,0,0,0,.3-.269A5.328,5.328,0,0,0,5.8,13.35a.547.547,0,0,0-.007-.075c.041-.1.116-.138.265-.138.258,0,.527.022.785.045a.371.371,0,0,1,.325.348l.067.854a.135.135,0,0,0,.124.135c.134.011.257.034.392.034.235,0,.471-.012.706-.023.135,0,.191-.056.2-.191.022-.247.045-.506.079-.753a.389.389,0,0,1,.3-.371,6.967,6.967,0,0,1,.83-.022.235.235,0,0,1,.224.145.455.455,0,0,0,0,.053,5.962,5.962,0,0,0-.012.641c.012.3.124.472.37.494a6.76,6.76,0,0,0,.83,0,.288.288,0,0,0,.3-.27,5.313,5.313,0,0,0,.033-.943c-.011-.236-.1-.27-.325-.27h-.437c-.107,0-.22,0-.33.009a.216.216,0,0,1-.193-.174.785.785,0,0,1,.617-1.022c.258-.045.572.011.605.393l.034.641c.011.168.078.247.247.235.291-.011.594-.033.9-.033a.4.4,0,0,0,.337-.292c.022-.158.022-.3.033-.461s0-.348.012-.517A.194.194,0,0,0,12.9,11.6h-.281a1.587,1.587,0,0,1-.605-.123c-.09-.045-.135-.09-.135-.18a1.4,1.4,0,0,1,0-.371.8.8,0,0,1,.157-.382.985.985,0,0,1,.808-.213.224.224,0,0,1,.19.191,2.013,2.013,0,0,1,.034.37v.529c0,.1.089.224.168.224.28-.011.56-.022.841-.045s.414-.1.426-.3a7.775,7.775,0,0,0,0-.877c-.012-.168-.09-.224-.258-.235-.213-.023-.426-.023-.639-.034-.3-.023-.381-.1-.4-.4a3.868,3.868,0,0,1,.011-.618.391.391,0,0,1,.393-.393c.246-.034.5-.045.751-.067a.192.192,0,0,0,.19-.169c.012-.135.023-.281.023-.416,0-.236-.011-.46-.023-.7A.156.156,0,0,0,14.388,7.215ZM11.105,9.552,8.1,11.3,5.112,9.531l.011-3.508L8.13,4.291l2.986,1.765ZM1.4,5.4c-.011-.213-.022-.438-.022-.651A.383.383,0,0,1,1.8,4.337c.225-.011.449-.011.662-.011.168,0,.246.078.269.247a8.9,8.9,0,0,1,.033.938.324.324,0,0,1-.28.172,8.5,8.5,0,0,1-.919-.076A.207.207,0,0,1,1.4,5.4ZM4.33,2.428c0-.225.011-.449.023-.663a.368.368,0,0,1,.392-.382c.078-.011.168-.011.269-.022.135.011.269.022.4.022a.2.2,0,0,1,.2.157,6.111,6.111,0,0,1,.081.97.275.275,0,0,1-.225.265c-.229,0-.459-.012-.7-.021a.714.714,0,0,1-.3-.079A.234.234,0,0,1,4.33,2.428ZM15.945,9.057a1.505,1.505,0,0,1-.045.831.267.267,0,0,1-.168.146,7.924,7.924,0,0,1-.9.045.222.222,0,0,1-.213-.247c-.011-.157-.011-.8,0-.966a.112.112,0,0,1,.067-.09,3.263,3.263,0,0,1,.471-.045,3.876,3.876,0,0,1,.471.045A.308.308,0,0,1,15.945,9.057Zm0-2.91a1.261,1.261,0,0,1-.045.787c-.034.056-.09.135-.146.146a2.175,2.175,0,0,1-.93.045c-.168-.034-.2-.079-.2-.259V6.125c0-.236.045-.281.269-.315h.65C15.809,5.821,15.9,5.877,15.944,6.147ZM10.093,15a4.593,4.593,0,0,1-.023.562c-.022.3-.168.427-.471.427A.921.921,0,0,0,9.431,16c-.134-.011-.258-.023-.392-.045a.249.249,0,0,1-.224-.225,8.175,8.175,0,0,1-.068-.91.184.184,0,0,1,.224-.191c.27.011.539-.011.808,0C10.025,14.652,10.1,14.741,10.093,15Zm-2.937-.111a2.784,2.784,0,0,1,0,.3c-.011.012,0,.012,0,.012-.011.146-.011.292-.033.438a.38.38,0,0,1-.382.348,3.853,3.853,0,0,1-.5,0,.36.36,0,0,1-.392-.393c-.012-.157-.023-.326-.023-.483a1.293,1.293,0,0,1,.079-.349c.044-.123.168-.112.269-.123.235-.011.482-.011.728-.011A.254.254,0,0,1,7.156,14.889ZM14.5,13.608a2.04,2.04,0,0,1,.011.259V14.1c-.011.236-.089.371-.325.393a3.7,3.7,0,0,1-.785-.045c-.056-.011-.156-.1-.156-.157a4.885,4.885,0,0,1-.045-.809c.011-.225.112-.281.336-.292a5.552,5.552,0,0,1,.6.022A.376.376,0,0,1,14.5,13.608Zm.214-9.754a3.592,3.592,0,0,1,.023-.775.282.282,0,0,1,.291-.236c.213,0,.437,0,.65.011a.246.246,0,0,1,.258.225,1.78,1.78,0,0,1,0,.843.262.262,0,0,1-.246.213,1.994,1.994,0,0,1-.37.012H15.06C14.847,4.135,14.724,4.068,14.712,3.854ZM2.705,13.629a1.534,1.534,0,0,0,0,.225c-.011.123-.011.236-.033.359-.056.225-.135.292-.359.3a4.211,4.211,0,0,1-.527,0,.372.372,0,0,1-.392-.416c-.012-.157,0-.326,0-.483a.375.375,0,0,1,.381-.394,4.57,4.57,0,0,1,.549,0A.378.378,0,0,1,2.705,13.629ZM1.4,2.293a4.054,4.054,0,0,1,0-.517A.384.384,0,0,1,1.8,1.383a3.7,3.7,0,0,1,.494,0,.389.389,0,0,1,.4.427,1.266,1.266,0,0,1,0,.214,1.849,1.849,0,0,1,0,.258.392.392,0,0,1-.414.4H1.808A.381.381,0,0,1,1.4,2.293ZM13.03,15.1v.46a.4.4,0,0,1-.426.427h-.482a.347.347,0,0,1-.381-.359,4.474,4.474,0,0,1,.045-.775.194.194,0,0,1,.146-.135,5,5,0,0,1,.717-.023C12.907,14.709,13.019,14.844,13.03,15.1ZM1.225,9.2c0,.236-.012.472-.034.708-.011.112-.078.157-.191.168-.235.011-.482.023-.717.011C.07,10.08.014,10.013.014,9.8V9.608a1.178,1.178,0,0,0,.011-.191V9.024c0-.124.045-.214.168-.214A4.459,4.459,0,0,1,.855,8.8C1.2,8.822,1.225,8.855,1.225,9.2ZM8.8.978A2.193,2.193,0,0,1,8.826.124C8.849.034,8.9,0,9.006,0h.773c.2,0,.292.056.3.258a5.575,5.575,0,0,1-.034.753c-.011.124-.112.18-.28.191a7.163,7.163,0,0,1-.718,0A.213.213,0,0,1,8.8.978ZM1.2,6.034c.011.269.033.539.022.809-.011.191-.09.258-.269.269-.213.012-.426.012-.639.012s-.28-.079-.28-.293c-.011-.123-.011-.247-.011-.37V6.034c0-.113.044-.191.157-.2a1.564,1.564,0,0,1,.908.057A.211.211,0,0,1,1.2,6.034ZM5.889,1.067A1.756,1.756,0,0,1,5.844.135C5.855.034,5.923,0,6.023,0h.852C7.021,0,7.1.045,7.1.191c.011.281,0,.562-.012.843-.011.135-.145.168-.246.168a6.4,6.4,0,0,1-.807-.022A.2.2,0,0,1,5.889,1.067ZM1.18,11.99a6.438,6.438,0,0,1,0,.8.307.307,0,0,1-.157.2,1.5,1.5,0,0,1-.863.034.186.186,0,0,1-.146-.2c.011-.158.011-.3.011-.45v-.4c0-.1.034-.158.123-.18a1.4,1.4,0,0,1,.909.034A.215.215,0,0,1,1.18,11.99ZM11.741.787c-.012-.169,0-.338,0-.506.011-.214.078-.27.291-.27C12.144,0,12.256,0,12.38,0h.358c.191,0,.258.022.27.213a4.212,4.212,0,0,1-.023.753.235.235,0,0,1-.247.214,4.885,4.885,0,0,1-.7,0C11.842,1.169,11.741,1.034,11.741.787Z" fill="#282828"/></svg>