<svg xmlns="http://www.w3.org/2000/svg" viewBox="0 0 275 164"><title>FullLogo_mono_h</title><path d="M76.94,90.044a8.4,8.4,0,0,1-3.213-3.139,8.715,8.715,0,0,1-1.154-4.5,8.823,8.823,0,0,1,1.154-4.5,8.393,8.393,0,0,1,3.213-3.138,9.529,9.529,0,0,1,4.615-1.115,9.033,9.033,0,0,1,3.543.66,7.111,7.111,0,0,1,2.76,1.859L86.7,77.325A6.913,6.913,0,0,0,81.6,75.26a7.5,7.5,0,0,0-3.708.95,7.133,7.133,0,0,0-2.637,2.56A7.241,7.241,0,0,0,74.3,82.4a7.128,7.128,0,0,0,.947,3.634,6.564,6.564,0,0,0,2.637,2.56,7.5,7.5,0,0,0,3.708.95A6.913,6.913,0,0,0,86.7,87.483l1.154,1.157a7.693,7.693,0,0,1-2.76,1.9,9.033,9.033,0,0,1-3.543.661A9.921,9.921,0,0,1,76.94,90.044Z" fill="#282828"/><path d="M91.362,72.746h1.772V91.039H91.4V72.746Z" fill="#282828"/><path d="M109.238,85.088H98.4a4.5,4.5,0,0,0,1.566,3.263,5.149,5.149,0,0,0,3.543,1.239,5.758,5.758,0,0,0,2.224-.413,4.423,4.423,0,0,0,1.731-1.281l.988,1.115a5.468,5.468,0,0,1-2.142,1.57,7.732,7.732,0,0,1-6.386-.331A6.233,6.233,0,0,1,97.538,87.9a6.675,6.675,0,0,1-.865-3.386,6.974,6.974,0,0,1,.824-3.386,6.2,6.2,0,0,1,2.266-2.354,6.016,6.016,0,0,1,3.213-.826,6.411,6.411,0,0,1,3.213.826,6,6,0,0,1,2.225,2.313,7.137,7.137,0,0,1,.824,3.427ZM99.845,80.67A4.775,4.775,0,0,0,98.4,83.808h9.187a4.762,4.762,0,0,0-1.442-3.138,4.448,4.448,0,0,0-3.172-1.2A4.313,4.313,0,0,0,99.845,80.67Z" fill="#282828"/><path d="M120.856,79.23a4.877,4.877,0,0,1,1.359,3.757V91.04h-1.689V89.017a4.266,4.266,0,0,1-1.73,1.569,6.027,6.027,0,0,1-2.719.578,5.322,5.322,0,0,1-3.461-1.033,3.329,3.329,0,0,1-1.277-2.725,3.282,3.282,0,0,1,1.2-2.643,5.867,5.867,0,0,1,3.79-.991h4.12v-.785a3.369,3.369,0,0,0-.948-2.56,3.842,3.842,0,0,0-2.719-.867,6.392,6.392,0,0,0-2.348.413,6.814,6.814,0,0,0-1.937,1.115l-.782-1.322a6.475,6.475,0,0,1,2.348-1.28,9.577,9.577,0,0,1,2.884-.454A5.036,5.036,0,0,1,120.856,79.23ZM118.919,89.1a4.066,4.066,0,0,0,1.566-1.941V85.052h-4.038c-2.224,0-3.337.785-3.337,2.313a2.084,2.084,0,0,0,.866,1.775,3.733,3.733,0,0,0,2.389.661A5,5,0,0,0,118.919,89.1Z" fill="#282828"/><path d="M130.453,78.605a6.118,6.118,0,0,1,3.008-.661v1.694l-.412-.042a4.216,4.216,0,0,0-3.214,1.239,4.944,4.944,0,0,0-1.153,3.51v6.607h-1.73V77.986h1.689v2.519A4.724,4.724,0,0,1,130.453,78.605Z" fill="#282828"/><path d="M136.634,72.746h1.731V91.039h-1.731Z" fill="#282828"/><path d="M154.107,78.073l-6.468,14.536a6.556,6.556,0,0,1-1.812,2.6,4.175,4.175,0,0,1-2.472.743,4.777,4.777,0,0,1-1.731-.289,4.465,4.465,0,0,1-1.4-.867l.824-1.322a3.2,3.2,0,0,0,2.348.991,2.413,2.413,0,0,0,1.524-.5,4.027,4.027,0,0,0,1.154-1.693l.576-1.239-5.767-12.925H142.7l4.862,11.025,4.861-11.025h1.689Z" fill="#282828"/><path d="M156.456,73.779H164a10.981,10.981,0,0,1,4.9,1.073,8.055,8.055,0,0,1,4.532,7.557,8.791,8.791,0,0,1-1.195,4.543,7.648,7.648,0,0,1-3.337,3.014A10.981,10.981,0,0,1,164,91.04h-7.539Zm7.374,14.535a7.1,7.1,0,0,0,3.337-.743,5.372,5.372,0,0,0,2.225-2.065,5.965,5.965,0,0,0,.783-3.1,5.864,5.864,0,0,0-.783-3.1,5.142,5.142,0,0,0-2.225-2.065,7.107,7.107,0,0,0-3.337-.743h-4.161v11.81Z" fill="#282828"/><path d="M188.755,85.419h-10.3a3.681,3.681,0,0,0,1.4,2.312,4.569,4.569,0,0,0,2.843.867,4.87,4.87,0,0,0,3.584-1.445l1.648,1.9a5.547,5.547,0,0,1-2.225,1.61,8.009,8.009,0,0,1-3.049.537,8.187,8.187,0,0,1-3.831-.867,6.232,6.232,0,0,1-2.554-2.395,6.611,6.611,0,0,1-.907-3.469A7,7,0,0,1,176.23,81a6.173,6.173,0,0,1,2.431-2.395,7,7,0,0,1,3.5-.867,6.682,6.682,0,0,1,3.419.867A5.97,5.97,0,0,1,187.931,81a7.193,7.193,0,0,1,.865,3.551A7.806,7.806,0,0,1,188.755,85.419Zm-9.064-4.378a3.484,3.484,0,0,0-1.236,2.313h7.457a3.619,3.619,0,0,0-1.195-2.313,3.72,3.72,0,0,0-2.513-.867A3.648,3.648,0,0,0,179.691,81.041Z" fill="#282828"/><path d="M195.138,77.157v.785h3.626v2.477h-3.5V91.032h-3.09V80.419h-2.184V77.942h2.184v-.826a4.526,4.526,0,0,1,1.236-3.345,4.67,4.67,0,0,1,3.46-1.239,4.784,4.784,0,0,1,2.761.7l-.865,2.313a2.833,2.833,0,0,0-1.69-.537C195.8,75.051,195.138,75.753,195.138,77.157Zm7.828-2.023a1.8,1.8,0,0,1,0-2.643,1.86,1.86,0,0,1,1.4-.537,2,2,0,0,1,1.4.5,1.631,1.631,0,0,1,.577,1.28,1.835,1.835,0,0,1-.536,1.362,1.856,1.856,0,0,1-1.4.537A1.73,1.73,0,0,1,202.966,75.134Zm-.165,2.725h3.09V91.032H202.8Z" fill="#282828"/><path d="M221.339,79.14a5.716,5.716,0,0,1,1.483,4.3v7.557h-3.09V83.848a3.711,3.711,0,0,0-.824-2.6,3.009,3.009,0,0,0-2.307-.867,3.5,3.5,0,0,0-2.678,1.032,4.072,4.072,0,0,0-.989,2.932v6.649h-3.089V77.819h2.925v1.693a4.357,4.357,0,0,1,1.936-1.363,6.608,6.608,0,0,1,2.595-.454A5.55,5.55,0,0,1,221.339,79.14Z" fill="#282828"/><path d="M239.174,85.419h-10.3a3.685,3.685,0,0,0,1.4,2.312,4.569,4.569,0,0,0,2.843.867,4.868,4.868,0,0,0,3.584-1.445l1.648,1.9a5.54,5.54,0,0,1-2.225,1.61,8.007,8.007,0,0,1-3.048.537,8.191,8.191,0,0,1-3.832-.867,6.232,6.232,0,0,1-2.554-2.395,6.611,6.611,0,0,1-.906-3.469A6.99,6.99,0,0,1,226.65,81a6.164,6.164,0,0,1,2.43-2.395,7,7,0,0,1,3.5-.867,6.688,6.688,0,0,1,3.42.867A5.974,5.974,0,0,1,238.35,81a7.193,7.193,0,0,1,.865,3.551A7.806,7.806,0,0,1,239.174,85.419Zm-9.105-4.378a3.484,3.484,0,0,0-1.236,2.313h7.457a3.619,3.619,0,0,0-1.195-2.313,3.72,3.72,0,0,0-2.513-.867A3.8,3.8,0,0,0,230.069,81.041Z" fill="#282828"/><path d="M255.043,72.744V91.038h-2.966V89.3a4.949,4.949,0,0,1-1.9,1.4,5.99,5.99,0,0,1-2.472.455,7.224,7.224,0,0,1-3.419-.826,6.349,6.349,0,0,1-2.39-2.4,7.079,7.079,0,0,1-.865-3.551,6.925,6.925,0,0,1,.865-3.51,5.72,5.72,0,0,1,2.39-2.354,6.661,6.661,0,0,1,3.419-.826,6.474,6.474,0,0,1,2.389.455,4.926,4.926,0,0,1,1.854,1.321V72.7h3.09ZM250.1,88.064a3.631,3.631,0,0,0,1.4-1.445,4.641,4.641,0,0,0,.536-2.189,4.308,4.308,0,0,0-.536-2.188,3.625,3.625,0,0,0-1.4-1.445,4.19,4.19,0,0,0-3.955,0,3.629,3.629,0,0,0-1.4,1.445,4.639,4.639,0,0,0-.536,2.188,4.309,4.309,0,0,0,.536,2.189,3.635,3.635,0,0,0,1.4,1.445,3.9,3.9,0,0,0,1.978.5A4.125,4.125,0,0,0,250.1,88.064Z" fill="#282828"/><path d="M63.078,79.645c-.337-.034-.639-.034-.942-.067-.673-.068-1.312-.135-1.951-.236a.7.7,0,0,1-.672-.708c-.034-.91-.068-1.787-.034-2.7A.581.581,0,0,1,59.9,75.3a.883.883,0,0,0,.11.03,20.246,20.246,0,0,0,2.488,0,.864.864,0,0,0,.909-.809c0-.035,0-.07.008-.105a.641.641,0,0,0,.031-.129l-.02-.011a15.112,15.112,0,0,0,.081-2.586c-.033-.708-.3-.809-.975-.809H61.223c-.438,0-.841,0-1.245.033-.773,0-1.009.2-1.042,1.012a18.111,18.111,0,0,0-.034,1.921,2.536,2.536,0,0,0,.1.652.693.693,0,0,1-.771.361,2.507,2.507,0,0,1-.505,0,9.057,9.057,0,0,1-1.648-.4,1.517,1.517,0,0,1-.571-.641,4.171,4.171,0,0,1-.269-2.123.831.831,0,0,1,.739-.81c.37-.033.707-.067,1.077-.1.47-.033.975-.033,1.446-.067.3-.034.605-.2.605-.539q0-1.315-.1-2.63c-.067-.741-.4-1.011-1.143-1.011-.168,0-.37-.034-.538-.034-.707,0-1.413.034-2.119.068-.1,0-.269.1-.269.2-.067.371-.1.708-.135,1.079-.067.64-.1,1.281-.2,1.887-.034.3-.135.641-.539.675a9.127,9.127,0,0,1-1.345.033,3.84,3.84,0,0,1-1.21-.371,1.784,1.784,0,0,1-.875-1.55c-.034-.708-.1-1.382-.168-2.057.113-.009.212-.019.316-.028a1.172,1.172,0,0,0,.553.194,20.246,20.246,0,0,0,2.488,0,.862.862,0,0,0,.908-.809,15.873,15.873,0,0,0,.1-2.831c-.033-.708-.3-.81-.975-.81H52.545c-.4,0-.84,0-1.244.034-.773,0-1.009.2-1.042,1.011a18.129,18.129,0,0,0-.034,1.922,2.633,2.633,0,0,0,.092.625c-.006.039-.014.081-.019.119a.356.356,0,0,1-.4.338c-.975,0-1.984.033-2.959-.034-.707-.034-.841-.236-.908-.944-.068-.775-.135-1.517-.2-2.292-.067-.607-.337-.877-.942-.877h-2.32c-.538.034-.807.236-.875.775-.1.944-.2,1.888-.269,2.866-.033.337-.2.472-.471.472l-2.858.1c-.908.067-1.043-.1-1.077,1.011a10.713,10.713,0,0,1-.235,2.09,1.147,1.147,0,0,1-1.009,1.045c-.437.034-.841.169-1.278.169a10.571,10.571,0,0,1-1.48-.135.463.463,0,0,1-.269-.337l0-.037a.744.744,0,0,0,.036-.135,15.975,15.975,0,0,0,.1-2.832c-.034-.708-.3-.809-.975-.809H30.589c-.437,0-.841,0-1.244.034-.774,0-1.009.2-1.043,1.011a18.381,18.381,0,0,0-.034,1.921c.034.911.37,1.416,1.11,1.484a17.432,17.432,0,0,0,2.072.012c.117.007.234.007.351.025.605.067.74.27.74.877-.034.64-.068,1.314-.135,1.955a1.435,1.435,0,0,1-1.244,1.314c-.807.1-1.615.2-2.422.236-.4,0-.471.169-.471.506-.033,1.045-.033,2.124-.1,3.169-.006.117-.013.426-.02.838a1.81,1.81,0,0,0-.59-.068H26.247c-.4,0-.841,0-1.245.034-.773,0-1.009.2-1.042,1.011a18.4,18.4,0,0,0-.034,1.922c.034.91.37,1.416,1.11,1.483a20.463,20.463,0,0,0,2.489,0,.956.956,0,0,0,.582-.194c0,.507-.006.877-.006.974.034,1.011.067,2.023.067,3.034,0,.539-.033.539-.538.573-.37.034-.773,0-1.177.034a10.5,10.5,0,0,0-1.479.168c-.606.1-.841.405-.875,1.045v1.652c0,.809.3,1.146,1.11,1.247a7.2,7.2,0,0,0,2.69,0,.427.427,0,0,0,.236-.3c.067-.607.1-1.18.134-1.787.034-.64.068-1.281.1-1.955.538,0,2.119.068,2.523.135a1.54,1.54,0,0,1,1.278,1.247,10.108,10.108,0,0,1,.134,2.023.682.682,0,0,1-.538.674,6.751,6.751,0,0,1-.874.135c-.606.034-1.245.067-1.85.135-.572.034-.673.236-.673.809.034.708.068,1.416.068,2.124,0,.809.269,1.146,1.076,1.213s1.614.068,2.421.1a.62.62,0,0,0,.706-.64v-.708c.068-.641.1-1.247.169-1.854a.766.766,0,0,1,.706-.742,4.1,4.1,0,0,1,1.917.135,1.335,1.335,0,0,1,1.076.809,5.129,5.129,0,0,1,.269,2.461,2.328,2.328,0,0,1-.278.609c-.051,0-.1,0-.159,0H35.029c-.437,0-.84,0-1.244.033-.773,0-1.009.2-1.043,1.012a18.38,18.38,0,0,0-.033,1.921c.033.91.37,1.416,1.11,1.483a20.246,20.246,0,0,0,2.488,0,.862.862,0,0,0,.908-.809,15.873,15.873,0,0,0,.1-2.831,2.207,2.207,0,0,0-.022-.224c.122-.29.348-.416.8-.416.773,0,1.58.068,2.354.135a1.117,1.117,0,0,1,.975,1.045c.067.843.135,1.719.2,2.562a.406.406,0,0,0,.37.405c.4.033.773.1,1.177.1.706,0,1.412-.034,2.119-.068.4,0,.571-.168.605-.573.067-.741.135-1.517.236-2.258a1.169,1.169,0,0,1,.908-1.113,20.465,20.465,0,0,1,2.488-.067.7.7,0,0,1,.673.435c-.005.053-.011.1-.013.16a18.381,18.381,0,0,0-.034,1.921c.034.91.37,1.416,1.11,1.483a20.262,20.262,0,0,0,2.489,0,.863.863,0,0,0,.908-.809,15.964,15.964,0,0,0,.1-2.831c-.034-.708-.3-.809-.976-.809H52.471c-.321,0-.659.009-.989.026a.645.645,0,0,1-.579-.52c-.235-1.214.067-2.764,1.85-3.068.773-.135,1.715.034,1.816,1.18l.1,1.922c.033.505.235.741.74.708.874-.034,1.782-.1,2.69-.1a1.189,1.189,0,0,0,1.009-.876c.067-.472.067-.91.1-1.382,0-.506,0-1.045.034-1.551a.58.58,0,0,0-.639-.674h-.841a4.727,4.727,0,0,1-1.816-.371c-.269-.135-.4-.269-.4-.539a4.148,4.148,0,0,1,0-1.113,2.368,2.368,0,0,1,.471-1.146,2.948,2.948,0,0,1,2.422-.64.676.676,0,0,1,.571.573,6.241,6.241,0,0,1,.1,1.112v1.585c0,.3.269.674.5.674.84-.034,1.681-.068,2.522-.135s1.244-.3,1.278-.91a22.847,22.847,0,0,0,0-2.63c-.034-.5-.269-.674-.774-.707-.639-.068-1.278-.068-1.917-.1-.908-.067-1.143-.3-1.21-1.213a11.369,11.369,0,0,1,.033-1.854,1.172,1.172,0,0,1,1.177-1.18c.74-.1,1.514-.135,2.254-.2a.578.578,0,0,0,.571-.506c.034-.405.068-.843.068-1.247,0-.708-.034-1.382-.068-2.09A.468.468,0,0,0,63.078,79.645ZM53.23,86.657l-9.021,5.229-8.957-5.294.032-10.522,9.021-5.2,8.957,5.294Z" fill="#282828"/><path d="M24.6,74.82a25.532,25.532,0,0,0,2.757.228.972.972,0,0,0,.841-.516,26.436,26.436,0,0,0-.1-2.813c-.068-.506-.3-.742-.808-.742-.639,0-1.311,0-1.984.034a1.149,1.149,0,0,0-1.244,1.247c0,.641.033,1.315.067,1.955A.617.617,0,0,0,24.6,74.82Z" fill="#282828"/><path d="M33.343,66.026a2.134,2.134,0,0,0,.908.236c.711.026,1.4.051,2.09.062a.822.822,0,0,0,.673-.793,18.3,18.3,0,0,0-.241-2.909.614.614,0,0,0-.605-.472c-.4,0-.807-.034-1.211-.068-.3.034-.572.034-.807.068A1.1,1.1,0,0,0,32.973,63.3c-.034.64-.067,1.314-.067,1.989A.7.7,0,0,0,33.343,66.026Z" fill="#282828"/><path d="M66.808,84.328a11.409,11.409,0,0,0-1.413-.135,9.906,9.906,0,0,0-1.412.135.336.336,0,0,0-.2.27c-.034.5-.034,2.427,0,2.9a.667.667,0,0,0,.639.741,23.756,23.756,0,0,0,2.69-.135.8.8,0,0,0,.5-.438,4.493,4.493,0,0,0,.134-2.494A.923.923,0,0,0,66.808,84.328Z" fill="#282828"/><path d="M66.536,75.43h-.807a7.529,7.529,0,0,0-.875-.034c-.1,0-.168.034-.269.034-.672.1-.807.236-.807.944V78.6c0,.539.1.674.6.775a6.473,6.473,0,0,0,2.792-.135c.168-.033.336-.269.437-.438a3.782,3.782,0,0,0,.135-2.36C67.612,75.632,67.343,75.464,66.536,75.43Z" fill="#282828"/><path d="M49.251,101.887c-.807-.033-1.614.034-2.422,0a.55.55,0,0,0-.672.573,24.818,24.818,0,0,0,.2,2.731.751.751,0,0,0,.672.674c.4.068.774.1,1.177.135a2.7,2.7,0,0,1,.505-.034c.908,0,1.345-.371,1.412-1.281A13.965,13.965,0,0,0,50.193,103C50.226,102.224,49.991,101.955,49.251,101.887Z" fill="#282828"/><path d="M40.61,101.892c-.74,0-1.48,0-2.186.033-.3.034-.673,0-.807.371a3.9,3.9,0,0,0-.236,1.045c0,.472.034.978.068,1.45a1.08,1.08,0,0,0,1.177,1.18,11.574,11.574,0,0,0,1.513,0,1.14,1.14,0,0,0,1.144-1.045c.067-.439.067-.877.1-1.315,0,0-.033,0,0-.034a8.125,8.125,0,0,0,0-.91A.762.762,0,0,0,40.61,101.892Z" fill="#282828"/><path d="M62.333,97.645a16.453,16.453,0,0,0-1.816-.067c-.673.033-.975.2-1.009.876a14.637,14.637,0,0,0,.135,2.427c0,.169.3.439.47.472a11.024,11.024,0,0,0,2.355.135c.706-.067.941-.472.975-1.18V99.6a5.919,5.919,0,0,0-.034-.775A1.13,1.13,0,0,0,62.333,97.645Z" fill="#282828"/><path d="M65.1,70.44h.773a6.061,6.061,0,0,0,1.11-.034.79.79,0,0,0,.74-.64,5.366,5.366,0,0,0,0-2.529.74.74,0,0,0-.774-.674c-.639-.033-1.311-.033-1.95-.033a.847.847,0,0,0-.875.707,10.781,10.781,0,0,0-.067,2.326C64.086,70.2,64.456,70.406,65.1,70.44Z" fill="#282828"/><path d="M26.887,97.673a13.323,13.323,0,0,0-1.648,0,1.123,1.123,0,0,0-1.143,1.18c0,.472-.034.978,0,1.45a1.116,1.116,0,0,0,1.177,1.247,12.262,12.262,0,0,0,1.581,0c.672-.034.908-.236,1.076-.91.067-.371.067-.708.1-1.079a4.454,4.454,0,0,1,0-.674A1.133,1.133,0,0,0,26.887,97.673Z" fill="#282828"/><path d="M25.338,66.06h1.413A1.175,1.175,0,0,0,28,64.846a6.067,6.067,0,0,0,0-.775,4.117,4.117,0,0,0,0-.64,1.168,1.168,0,0,0-1.211-1.281,10.747,10.747,0,0,0-1.48,0,1.15,1.15,0,0,0-1.177,1.179,12.162,12.162,0,0,0,0,1.551A1.141,1.141,0,0,0,25.338,66.06Z" fill="#282828"/><path d="M57.862,102.1a15.165,15.165,0,0,0-2.152.067.59.59,0,0,0-.438.4,13.545,13.545,0,0,0-.134,2.326,1.043,1.043,0,0,0,1.143,1.078h1.447a1.185,1.185,0,0,0,1.278-1.281v-1.382C58.972,102.533,58.636,102.128,57.862,102.1Z" fill="#282828"/><path d="M22.479,84.4a13.084,13.084,0,0,0-1.984.033c-.37,0-.505.27-.505.641v1.18a3.547,3.547,0,0,1-.033.573V87.4c0,.64.168.843.807.876.706.034,1.446,0,2.152-.033.337-.034.538-.169.572-.506q.1-1.062.1-2.124C23.589,84.566,23.522,84.465,22.479,84.4Z" fill="#282828"/><path d="M47.066,61.607c.74.034,1.447.034,2.153,0,.5-.034.807-.2.841-.573a16.91,16.91,0,0,0,.1-2.259c-.033-.606-.3-.775-.908-.775h-2.32c-.3,0-.471.1-.538.371a6.562,6.562,0,0,0-.067,2.562A.639.639,0,0,0,47.066,61.607Z" fill="#282828"/><path d="M23.187,75.663a4.691,4.691,0,0,0-2.724-.169c-.337.034-.471.27-.471.607v1.281c0,.371,0,.742.034,1.112,0,.641.2.877.84.877s1.278,0,1.917-.034c.538-.034.774-.236.807-.809.034-.809-.033-1.618-.067-2.427A.635.635,0,0,0,23.187,75.663Z" fill="#282828"/><path d="M38.019,61.54a19.385,19.385,0,0,0,2.421.067c.3,0,.707-.1.74-.506.034-.842.068-1.685.034-2.528,0-.438-.236-.573-.673-.573H37.985c-.3,0-.5.1-.538.4a5.274,5.274,0,0,0,.135,2.8A.611.611,0,0,0,38.019,61.54Z" fill="#282828"/><path d="M23.084,93.465a4.189,4.189,0,0,0-2.724-.1c-.269.068-.37.236-.37.54v1.213c0,.438,0,.877-.033,1.349a.557.557,0,0,0,.437.606,4.513,4.513,0,0,0,2.59-.1.928.928,0,0,0,.47-.607,18.731,18.731,0,0,0,0-2.393A.648.648,0,0,0,23.084,93.465Z" fill="#282828"/><path d="M56.045,61.54a14.509,14.509,0,0,0,2.085,0,.705.705,0,0,0,.74-.641,12.642,12.642,0,0,0,.067-2.259C58.9,58.067,58.7,58,58.13,58H57.054a10.326,10.326,0,0,0-1.042.034c-.639,0-.841.168-.875.809,0,.5-.034,1.011,0,1.517C55.137,61.1,55.44,61.506,56.045,61.54Z" fill="#282828"/></svg>