<svg xmlns="http://www.w3.org/2000/svg" viewBox="0 0 275 164"><title>FullSub_Described_white_h</title><rect x="0.03" y="0.051" width="274.939" height="163.898" fill="#282828"/><path d="M66.681,90.632a8.087,8.087,0,0,1-3.145-3.06,8.986,8.986,0,0,1,0-8.761,8.074,8.074,0,0,1,3.156-3.059,9.238,9.238,0,0,1,4.512-1.1,9.347,9.347,0,0,1,3.456.624A7.181,7.181,0,0,1,77.349,77.1l-1.128,1.128a6.693,6.693,0,0,0-4.969-1.993,7.3,7.3,0,0,0-3.623.913,6.66,6.66,0,0,0-2.557,2.5,7.289,7.289,0,0,0,0,7.1,6.66,6.66,0,0,0,2.557,2.5,7.3,7.3,0,0,0,3.623.911,6.606,6.606,0,0,0,4.969-2.015l1.128,1.128a7.277,7.277,0,0,1-2.7,1.836,9.3,9.3,0,0,1-3.467.635A9.163,9.163,0,0,1,66.681,90.632Z" fill="#fff"/><path d="M80.78,73.784h1.7V91.592h-1.7Z" fill="#fff"/><path d="M98.228,85.808H87.668a4.513,4.513,0,0,0,1.513,3.18A5.017,5.017,0,0,0,92.637,90.2a5.444,5.444,0,0,0,2.159-.42,4.718,4.718,0,0,0,1.7-1.236l.96,1.1a5.408,5.408,0,0,1-2.1,1.537,7.1,7.1,0,0,1-2.772.528,7.009,7.009,0,0,1-3.444-.828,5.96,5.96,0,0,1-2.339-2.292,6.525,6.525,0,0,1-.841-3.312,6.766,6.766,0,0,1,.8-3.312,5.831,5.831,0,0,1,2.208-2.281,6.175,6.175,0,0,1,3.157-.815,6.105,6.105,0,0,1,3.143.815,5.787,5.787,0,0,1,2.184,2.269,6.829,6.829,0,0,1,.792,3.324ZM89.072,81.5a4.572,4.572,0,0,0-1.4,3.036H96.62a4.575,4.575,0,0,0-1.4-3.036,4.637,4.637,0,0,0-6.145,0Z" fill="#fff"/><path d="M109.58,80.107a4.78,4.78,0,0,1,1.32,3.661v7.824h-1.632V89.624a3.907,3.907,0,0,1-1.692,1.536,5.922,5.922,0,0,1-2.652.552,5.191,5.191,0,0,1-3.36-1.008,3.468,3.468,0,0,1-.084-5.256,5.7,5.7,0,0,1,3.708-.984H109.2V83.7a3.238,3.238,0,0,0-.912-2.483,3.766,3.766,0,0,0-2.664-.853,6.773,6.773,0,0,0-2.3.4,5.788,5.788,0,0,0-1.9,1.092l-.768-1.272a6.82,6.82,0,0,1,2.3-1.261,8.965,8.965,0,0,1,2.832-.443A5.35,5.35,0,0,1,109.58,80.107Zm-1.92,9.6A3.941,3.941,0,0,0,109.2,87.8V85.735h-3.96q-3.24,0-3.24,2.257a2.06,2.06,0,0,0,.84,1.739,3.815,3.815,0,0,0,2.352.637A4.491,4.491,0,0,0,107.66,89.708Z" fill="#fff"/><path d="M118.952,79.519a6.087,6.087,0,0,1,2.94-.647v1.655l-.408-.023a4.035,4.035,0,0,0-3.12,1.223,4.879,4.879,0,0,0-1.128,3.433v6.432h-1.7V78.968h1.632v2.471A4.139,4.139,0,0,1,118.952,79.519Z" fill="#fff"/><path d="M124.964,73.784h1.7V91.592h-1.7Z" fill="#fff"/><path d="M142.029,78.968,135.716,93.1a6.03,6.03,0,0,1-1.775,2.521,3.98,3.98,0,0,1-2.425.744,4.972,4.972,0,0,1-1.7-.288,3.688,3.688,0,0,1-1.367-.864l.792-1.273a3.135,3.135,0,0,0,2.3.96,2.314,2.314,0,0,0,1.476-.479,4.377,4.377,0,0,0,1.141-1.632l.551-1.225-5.639-12.6h1.775L135.6,89.7l4.752-10.727Z" fill="#fff"/><path d="M144.308,74.792h7.344a10.536,10.536,0,0,1,4.776,1.044,7.727,7.727,0,0,1,3.24,2.952,8.994,8.994,0,0,1,0,8.808,7.727,7.727,0,0,1-3.24,2.952,10.536,10.536,0,0,1-4.776,1.044h-7.344Zm7.2,14.16a7.127,7.127,0,0,0,3.252-.708,5.062,5.062,0,0,0,2.16-2.017,6.472,6.472,0,0,0,0-6.071,5.065,5.065,0,0,0-2.16-2.016,7.127,7.127,0,0,0-3.252-.708h-4.08v11.52Z" fill="#fff"/><path d="M175.843,86.144H165.787a3.486,3.486,0,0,0,1.38,2.244,4.533,4.533,0,0,0,2.773.828,4.671,4.671,0,0,0,3.479-1.392l1.609,1.848a5.41,5.41,0,0,1-2.185,1.559,8.645,8.645,0,0,1-6.695-.311,6.052,6.052,0,0,1-2.485-2.34,6.608,6.608,0,0,1-.876-3.4,6.72,6.72,0,0,1,.852-3.373A6.048,6.048,0,0,1,166,79.472a6.9,6.9,0,0,1,3.409-.84,6.718,6.718,0,0,1,3.347.828,5.867,5.867,0,0,1,2.305,2.328,7.059,7.059,0,0,1,.827,3.468Q175.891,85.568,175.843,86.144Zm-8.868-4.26a3.589,3.589,0,0,0-1.212,2.267h7.273a3.5,3.5,0,0,0-3.624-3.119A3.621,3.621,0,0,0,166.975,81.884Z" fill="#fff"/><path d="M179.683,91.352a7.645,7.645,0,0,1-2.376-1.033l1.152-2.279a7.413,7.413,0,0,0,2.077.924,8.611,8.611,0,0,0,2.387.347q2.688,0,2.688-1.416a.946.946,0,0,0-.684-.935,11.81,11.81,0,0,0-2.2-.5,17.667,17.667,0,0,1-2.58-.553,3.942,3.942,0,0,1-1.728-1.092,3.046,3.046,0,0,1-.732-2.171,3.414,3.414,0,0,1,1.524-2.916,6.936,6.936,0,0,1,4.116-1.092,11.82,11.82,0,0,1,2.64.3,7.4,7.4,0,0,1,2.16.8l-1.152,2.281a7.108,7.108,0,0,0-3.672-.96,4.059,4.059,0,0,0-2,.4,1.179,1.179,0,0,0-.683,1.044,1.042,1.042,0,0,0,.731,1.02,11.627,11.627,0,0,0,2.269.564,17.513,17.513,0,0,1,2.519.552,3.952,3.952,0,0,1,1.692,1.055,2.948,2.948,0,0,1,.708,2.113,3.342,3.342,0,0,1-1.56,2.88,7.363,7.363,0,0,1-4.248,1.08A11.474,11.474,0,0,1,179.683,91.352Z" fill="#fff"/><path d="M193.436,90.92a6.164,6.164,0,0,1-2.473-2.34,6.922,6.922,0,0,1,0-6.78,6.214,6.214,0,0,1,2.46-2.328,7.5,7.5,0,0,1,3.588-.84,6.924,6.924,0,0,1,3.324.767,5,5,0,0,1,2.149,2.208l-2.305,1.345a3.652,3.652,0,0,0-1.38-1.332,4.027,4.027,0,0,0-4.6.648,4.42,4.42,0,0,0-.011,5.832,4.049,4.049,0,0,0,4.607.648,3.652,3.652,0,0,0,1.38-1.332l2.305,1.344a5.191,5.191,0,0,1-2.172,2.219,6.768,6.768,0,0,1-3.3.781A7.51,7.51,0,0,1,193.436,90.92Z" fill="#fff"/><path d="M212.491,78.632v2.856a3.731,3.731,0,0,0-.7-.072,3.62,3.62,0,0,0-2.736,1.02,4.068,4.068,0,0,0-.984,2.94v6.216h-3V78.775h2.856v1.872Q209.227,78.633,212.491,78.632Z" fill="#fff"/><path d="M215.18,76.147a1.766,1.766,0,0,1,0-2.567,1.924,1.924,0,0,1,1.368-.517,1.981,1.981,0,0,1,1.367.493,1.583,1.583,0,0,1,.553,1.236,1.815,1.815,0,0,1-.54,1.332,1.873,1.873,0,0,1-1.38.54A1.92,1.92,0,0,1,215.18,76.147Zm-.144,2.628h3V91.592h-3Z" fill="#fff"/><path d="M232.423,79.448a5.887,5.887,0,0,1,2.317,2.3,6.871,6.871,0,0,1,.839,3.432,6.941,6.941,0,0,1-.839,3.444,5.857,5.857,0,0,1-2.317,2.315,6.789,6.789,0,0,1-3.347.817,6.22,6.22,0,0,1-2.413-.456,4.631,4.631,0,0,1-1.835-1.368v1.656h-2.857V73.784h3v6.552a5.047,5.047,0,0,1,1.813-1.273,5.933,5.933,0,0,1,2.292-.431A6.8,6.8,0,0,1,232.423,79.448Zm-.96,8.64a4.479,4.479,0,0,0,0-5.808,3.625,3.625,0,0,0-2.723-1.1,3.859,3.859,0,0,0-1.945.492,3.556,3.556,0,0,0-1.368,1.4,4.677,4.677,0,0,0,0,4.224,3.556,3.556,0,0,0,1.368,1.4,3.859,3.859,0,0,0,1.945.491A3.625,3.625,0,0,0,231.463,88.088Z" fill="#fff"/><path d="M250.435,86.144H240.379a3.486,3.486,0,0,0,1.38,2.244,4.531,4.531,0,0,0,2.773.828,4.671,4.671,0,0,0,3.479-1.392l1.609,1.848a5.416,5.416,0,0,1-2.185,1.559,8.645,8.645,0,0,1-6.695-.311,6.046,6.046,0,0,1-2.485-2.34,6.608,6.608,0,0,1-.876-3.4,6.71,6.71,0,0,1,.852-3.373,6.048,6.048,0,0,1,2.364-2.339,6.9,6.9,0,0,1,3.408-.84,6.722,6.722,0,0,1,3.348.828,5.873,5.873,0,0,1,2.305,2.328,7.07,7.07,0,0,1,.827,3.468Q250.483,85.568,250.435,86.144Zm-8.868-4.26a3.584,3.584,0,0,0-1.212,2.267h7.272A3.5,3.5,0,0,0,244,81.032,3.619,3.619,0,0,0,241.567,81.884Z" fill="#fff"/><path d="M265.914,73.784V91.592h-2.879V89.936A4.649,4.649,0,0,1,261.2,91.3a6.222,6.222,0,0,1-2.412.456,6.744,6.744,0,0,1-3.324-.817,5.848,5.848,0,0,1-2.316-2.315,6.92,6.92,0,0,1-.84-3.444,6.851,6.851,0,0,1,.84-3.432,5.878,5.878,0,0,1,2.316-2.3,6.754,6.754,0,0,1,3.324-.816,6.092,6.092,0,0,1,2.328.431,4.7,4.7,0,0,1,1.8,1.3V73.784ZM261.091,88.7a3.562,3.562,0,0,0,1.368-1.4,4.677,4.677,0,0,0,0-4.224,3.562,3.562,0,0,0-1.368-1.4,4.087,4.087,0,0,0-3.888,0,3.556,3.556,0,0,0-1.368,1.4,4.669,4.669,0,0,0,0,4.224,3.556,3.556,0,0,0,1.368,1.4,4.094,4.094,0,0,0,3.888,0Z" fill="#fff"/><path d="M13.727,74.82a25.532,25.532,0,0,0,2.757.228.972.972,0,0,0,.841-.516,26.176,26.176,0,0,0-.1-2.813c-.067-.506-.3-.742-.807-.742-.639,0-1.311,0-1.984.034a1.149,1.149,0,0,0-1.244,1.247c0,.641.033,1.315.067,1.955A.617.617,0,0,0,13.727,74.82Z" fill="#fff"/><path d="M22.472,66.026a2.134,2.134,0,0,0,.908.236c.711.026,1.4.051,2.09.062a.822.822,0,0,0,.673-.793,18.3,18.3,0,0,0-.241-2.909.615.615,0,0,0-.605-.472c-.4,0-.807-.034-1.211-.068-.3.034-.572.034-.807.068A1.1,1.1,0,0,0,22.1,63.3c-.034.64-.068,1.314-.068,1.989A.7.7,0,0,0,22.472,66.026Z" fill="#fff"/><path d="M55.936,84.328a11.369,11.369,0,0,0-1.412-.135,9.934,9.934,0,0,0-1.413.135.335.335,0,0,0-.2.27c-.034.5-.034,2.427,0,2.9a.667.667,0,0,0,.639.741,23.756,23.756,0,0,0,2.69-.135.8.8,0,0,0,.5-.438,4.493,4.493,0,0,0,.135-2.494A.924.924,0,0,0,55.936,84.328Z" fill="#fff"/><path d="M55.665,75.43h-.807a7.529,7.529,0,0,0-.875-.034c-.1,0-.168.034-.269.034-.673.1-.807.236-.807.944V78.6c0,.539.1.674.605.775a6.473,6.473,0,0,0,2.792-.135c.168-.033.336-.269.437-.438a3.775,3.775,0,0,0,.134-2.36C56.741,75.632,56.472,75.464,55.665,75.43Z" fill="#fff"/><path d="M38.38,101.887c-.807-.033-1.615.034-2.422,0a.55.55,0,0,0-.672.573,25.064,25.064,0,0,0,.2,2.731.753.753,0,0,0,.673.674c.4.068.774.1,1.177.135a2.692,2.692,0,0,1,.5-.034c.908,0,1.345-.371,1.412-1.281A14.172,14.172,0,0,0,39.321,103C39.355,102.224,39.12,101.955,38.38,101.887Z" fill="#fff"/><path d="M29.739,101.892c-.74,0-1.48,0-2.186.033-.3.034-.673,0-.807.371a3.9,3.9,0,0,0-.236,1.045c0,.472.034.978.067,1.45a1.081,1.081,0,0,0,1.178,1.18,11.574,11.574,0,0,0,1.513,0,1.139,1.139,0,0,0,1.143-1.045c.068-.439.068-.877.1-1.315,0,0-.033,0,0-.034a8.125,8.125,0,0,0,0-.91A.762.762,0,0,0,29.739,101.892Z" fill="#fff"/><path d="M51.462,97.645a16.453,16.453,0,0,0-1.816-.067c-.673.033-.975.2-1.009.876a14.745,14.745,0,0,0,.134,2.427c0,.169.3.439.471.472a11.019,11.019,0,0,0,2.354.135c.707-.067.942-.472.976-1.18V99.6a5.919,5.919,0,0,0-.034-.775A1.13,1.13,0,0,0,51.462,97.645Z" fill="#fff"/><path d="M54.223,70.44H55a6.061,6.061,0,0,0,1.11-.034.791.791,0,0,0,.74-.64,5.366,5.366,0,0,0,0-2.529.74.74,0,0,0-.774-.674c-.639-.033-1.311-.033-1.95-.033a.847.847,0,0,0-.875.707,10.781,10.781,0,0,0-.067,2.326C53.214,70.2,53.584,70.406,54.223,70.44Z" fill="#fff"/><path d="M16.016,97.673a13.323,13.323,0,0,0-1.648,0,1.123,1.123,0,0,0-1.143,1.18c0,.472-.034.978,0,1.45A1.116,1.116,0,0,0,14.4,101.55a12.247,12.247,0,0,0,1.58,0c.673-.034.908-.236,1.077-.91.067-.371.067-.708.1-1.079a4.454,4.454,0,0,1,0-.674A1.134,1.134,0,0,0,16.016,97.673Z" fill="#fff"/><path d="M14.467,66.06h1.412a1.176,1.176,0,0,0,1.245-1.214,6.067,6.067,0,0,0,0-.775,4.117,4.117,0,0,0,0-.64,1.168,1.168,0,0,0-1.211-1.281,10.747,10.747,0,0,0-1.48,0,1.15,1.15,0,0,0-1.177,1.179,11.8,11.8,0,0,0,0,1.551A1.141,1.141,0,0,0,14.467,66.06Z" fill="#fff"/><path d="M46.991,102.1a15.184,15.184,0,0,0-2.153.067.59.59,0,0,0-.437.4,13.445,13.445,0,0,0-.134,2.326,1.043,1.043,0,0,0,1.143,1.078h1.446a1.184,1.184,0,0,0,1.278-1.281v-1.382C48.1,102.533,47.764,102.128,46.991,102.1Z" fill="#fff"/><path d="M11.608,84.4a13.084,13.084,0,0,0-1.984.033c-.37,0-.505.27-.505.641v1.18a3.547,3.547,0,0,1-.033.573V87.4c0,.64.168.843.807.876.706.034,1.446,0,2.152-.033.336-.034.538-.169.572-.506q.1-1.062.1-2.124C12.718,84.566,12.65,84.465,11.608,84.4Z" fill="#fff"/><path d="M36.2,61.607c.74.034,1.446.034,2.153,0,.5-.034.807-.2.84-.573a16.746,16.746,0,0,0,.1-2.259c-.033-.606-.3-.775-.908-.775h-2.32c-.3,0-.471.1-.538.371a6.562,6.562,0,0,0-.068,2.562A.64.64,0,0,0,36.2,61.607Z" fill="#fff"/><path d="M12.316,75.663a4.691,4.691,0,0,0-2.724-.169c-.337.034-.471.27-.471.607v1.281c0,.371,0,.742.033,1.112,0,.641.2.877.841.877s1.278,0,1.917-.034c.538-.034.774-.236.807-.809.034-.809-.033-1.618-.067-2.427A.635.635,0,0,0,12.316,75.663Z" fill="#fff"/><path d="M27.148,61.54a19.385,19.385,0,0,0,2.421.067c.3,0,.706-.1.74-.506.034-.842.067-1.685.034-2.528,0-.438-.236-.573-.673-.573H27.114c-.3,0-.5.1-.538.4a5.274,5.274,0,0,0,.135,2.8A.611.611,0,0,0,27.148,61.54Z" fill="#fff"/><path d="M12.213,93.465a4.189,4.189,0,0,0-2.724-.1c-.269.068-.37.236-.37.54v1.213c0,.438,0,.877-.033,1.349a.557.557,0,0,0,.437.606,4.509,4.509,0,0,0,2.589-.1.926.926,0,0,0,.471-.607,18.916,18.916,0,0,0,0-2.393A.65.65,0,0,0,12.213,93.465Z" fill="#fff"/><path d="M45.174,61.54a14.51,14.51,0,0,0,2.085,0A.706.706,0,0,0,48,60.9a12.736,12.736,0,0,0,.067-2.259c-.033-.573-.235-.64-.807-.64H46.183a10.356,10.356,0,0,0-1.043.034c-.639,0-.84.168-.874.809,0,.5-.034,1.011,0,1.517C44.266,61.1,44.569,61.506,45.174,61.54Z" fill="#fff"/><path d="M49.807,84.538c.752-.1,1.537-.136,2.289-.2a.586.586,0,0,0,.58-.513c.034-.411.069-.856.069-1.267,0-.719-.035-1.4-.069-2.122a.476.476,0,0,0-.478-.514c-.341-.034-.649-.034-.956-.068-.683-.069-1.332-.137-1.981-.24a.714.714,0,0,1-.683-.719c-.034-.924-.068-1.814-.034-2.738a.59.59,0,0,1,.429-.649c.04.007.069.027.112.031a20.885,20.885,0,0,0,2.527,0,.876.876,0,0,0,.922-.822c0-.035.005-.071.009-.107a.677.677,0,0,0,.031-.131l-.02-.011a15.378,15.378,0,0,0,.083-2.626c-.035-.719-.308-.822-.991-.822H50.314c-.444,0-.854,0-1.263.034-.786,0-1.025.206-1.059,1.027a18.685,18.685,0,0,0-.034,1.951,2.578,2.578,0,0,0,.106.663.705.705,0,0,1-.784.366,2.576,2.576,0,0,1-.512,0,9.179,9.179,0,0,1-1.674-.411,1.536,1.536,0,0,1-.58-.65,4.236,4.236,0,0,1-.273-2.157.843.843,0,0,1,.751-.821c.376-.034.717-.069,1.093-.1.478-.034.99-.034,1.468-.068.308-.035.615-.206.615-.548q0-1.335-.1-2.67C48,66.875,47.656,66.6,46.9,66.6c-.17,0-.375-.034-.546-.034-.717,0-1.434.034-2.152.068-.1,0-.273.1-.273.2-.068.377-.1.719-.136,1.1-.069.65-.1,1.3-.2,1.917-.034.308-.137.65-.547.684a9.148,9.148,0,0,1-1.366.035,3.927,3.927,0,0,1-1.229-.377,1.81,1.81,0,0,1-.888-1.575c-.034-.718-.1-1.4-.171-2.088.115-.009.216-.019.321-.029.156.1,3.976-.11,4.011-.624a16.27,16.27,0,0,0,.1-2.875c-.034-.719-.307-.822-.99-.822H41.5c-.41,0-.854,0-1.264.034-.785,0-1.024.206-1.059,1.027a18.685,18.685,0,0,0-.034,1.951,2.656,2.656,0,0,0,.094.635c-.006.04-.015.082-.02.121a.36.36,0,0,1-.41.343c-.99,0-2.014.034-3.005-.035-.717-.034-.854-.239-.922-.958-.068-.787-.137-1.54-.205-2.328-.068-.616-.342-.89-.956-.89H31.365c-.546.034-.819.24-.888.788-.1.958-.205,1.916-.273,2.909-.034.343-.205.479-.478.479-.956.035-1.947.069-2.9.1-.922.069-1.059-.1-1.093,1.027a10.9,10.9,0,0,1-.239,2.123,1.166,1.166,0,0,1-1.024,1.061c-.444.034-.854.171-1.3.171a10.721,10.721,0,0,1-1.5-.137.47.47,0,0,1-.273-.342l0-.038a.86.86,0,0,0,.036-.137,16.187,16.187,0,0,0,.1-2.876c-.035-.719-.308-.821-.991-.821H19.206c-.444,0-.854,0-1.263.034-.786,0-1.025.2-1.059,1.027A18.68,18.68,0,0,0,16.85,69.4c.034.924.375,1.438,1.127,1.506a17.739,17.739,0,0,0,2.1.013c.119.007.238.007.357.025.614.069.751.274.751.89-.034.651-.068,1.335-.137,1.986a1.457,1.457,0,0,1-1.263,1.335c-.82.1-1.64.2-2.459.239-.41,0-.478.172-.478.514-.034,1.061-.034,2.157-.1,3.218-.007.119-.014.433-.02.851a1.838,1.838,0,0,0-.6-.069H14.8c-.41,0-.854,0-1.264.034-.785,0-1.024.206-1.059,1.027a18.7,18.7,0,0,0-.034,1.952c.034.924.376,1.437,1.127,1.506a20.886,20.886,0,0,0,2.527,0,.962.962,0,0,0,.591-.2c0,.516,0,.891,0,.99.034,1.027.068,2.054.068,3.081,0,.548-.034.548-.546.582-.376.034-.786,0-1.2.034a10.679,10.679,0,0,0-1.5.171c-.615.1-.854.411-.888,1.062V91.83c0,.822.307,1.164,1.127,1.267a7.359,7.359,0,0,0,2.732,0,.439.439,0,0,0,.239-.309c.068-.616.1-1.2.137-1.814.034-.65.068-1.3.1-1.985.547,0,2.152.068,2.562.137a1.561,1.561,0,0,1,1.3,1.266,10.191,10.191,0,0,1,.137,2.054.693.693,0,0,1-.546.685,7.152,7.152,0,0,1-.888.137c-.615.034-1.264.068-1.879.137-.58.034-.683.239-.683.821.034.719.068,1.438.068,2.157,0,.821.274,1.164,1.093,1.232s1.64.069,2.459.1a.629.629,0,0,0,.717-.65v-.719c.069-.651.1-1.267.171-1.883a.777.777,0,0,1,.717-.753,4.159,4.159,0,0,1,1.947.137,1.357,1.357,0,0,1,1.093.821,5.187,5.187,0,0,1,.273,2.5,2.348,2.348,0,0,1-.282.619c-.052,0-.1,0-.162,0H23.715c-.444,0-.853,0-1.263.034-.786,0-1.025.206-1.059,1.027a18.7,18.7,0,0,0-.034,1.952c.034.924.376,1.437,1.127,1.506a20.885,20.885,0,0,0,2.527,0,.876.876,0,0,0,.922-.822,16.175,16.175,0,0,0,.1-2.875,2.039,2.039,0,0,0-.023-.228c.124-.293.354-.421.808-.421.786,0,1.605.068,2.391.136a1.135,1.135,0,0,1,.99,1.062c.068.855.137,1.745.2,2.6a.411.411,0,0,0,.376.411c.41.034.785.1,1.2.1.717,0,1.434-.034,2.152-.069.409,0,.58-.171.614-.582.069-.753.137-1.54.239-2.293a1.187,1.187,0,0,1,.923-1.13,20.7,20.7,0,0,1,2.527-.068.711.711,0,0,1,.683.442c-.005.053-.011.1-.013.162a18.41,18.41,0,0,0-.035,1.951c.035.924.376,1.438,1.127,1.506a20.7,20.7,0,0,0,2.528,0,.876.876,0,0,0,.922-.821,16.186,16.186,0,0,0,.1-2.876c-.034-.719-.307-.822-.99-.822H41.427c-.326,0-.669.011-1,.028a.656.656,0,0,1-.588-.529c-.239-1.232.068-2.807,1.878-3.115.786-.137,1.742.034,1.845,1.2l.1,1.951c.034.514.239.754.751.719.888-.034,1.81-.1,2.733-.1a1.208,1.208,0,0,0,1.024-.89c.068-.48.068-.925.1-1.4,0-.513,0-1.061.034-1.575a.589.589,0,0,0-.649-.684H46.8a4.789,4.789,0,0,1-1.844-.377c-.273-.137-.41-.274-.41-.548a4.185,4.185,0,0,1,0-1.129,2.406,2.406,0,0,1,.478-1.164,3,3,0,0,1,2.459-.651.69.69,0,0,1,.581.582,6.349,6.349,0,0,1,.1,1.13V92.72c0,.308.273.685.512.685.854-.035,1.708-.069,2.562-.137s1.263-.308,1.3-.925a23.316,23.316,0,0,0,0-2.67c-.035-.513-.274-.684-.786-.719-.649-.068-1.3-.068-1.947-.1-.922-.069-1.161-.308-1.229-1.233a11.6,11.6,0,0,1,.034-1.882A1.189,1.189,0,0,1,49.807,84.538ZM35.218,70.356l5.7,5.7L32.676,84.3l-5.842-5.843Zm-11.793,21,2.2-11.393,9.161,9.161Zm12.713-3.6-2.309-2.309,8.242-8.243,2.452,2.452Z" fill="#fff"/></svg>