<svg xmlns="http://www.w3.org/2000/svg" viewBox="0 0 275 164"><title>FullSub_Licensed_white_h</title><rect x="0.03" y="0.051" width="274.939" height="163.898" fill="#282828"/><path d="M74.477,90.8a8.082,8.082,0,0,1-3.144-3.059,8.986,8.986,0,0,1,0-8.761,8.069,8.069,0,0,1,3.156-3.06A9.237,9.237,0,0,1,79,74.818a9.347,9.347,0,0,1,3.456.624,7.167,7.167,0,0,1,2.688,1.824l-1.127,1.128A6.7,6.7,0,0,0,79.049,76.4a7.308,7.308,0,0,0-3.623.912,6.667,6.667,0,0,0-2.557,2.5,7.291,7.291,0,0,0,0,7.105,6.674,6.674,0,0,0,2.557,2.5,7.307,7.307,0,0,0,3.623.911,6.6,6.6,0,0,0,4.969-2.016l1.127,1.128a7.254,7.254,0,0,1-2.7,1.836,9.28,9.28,0,0,1-3.468.636A9.158,9.158,0,0,1,74.477,90.8Z" fill="#fff"/><path d="M88.577,73.955h1.7V91.762h-1.7Z" fill="#fff"/><path d="M106.025,85.978H95.465a4.514,4.514,0,0,0,1.512,3.181,5.026,5.026,0,0,0,3.457,1.212,5.465,5.465,0,0,0,2.159-.42,4.721,4.721,0,0,0,1.7-1.237l.96,1.1a5.4,5.4,0,0,1-2.1,1.536,7.084,7.084,0,0,1-2.772.528,7.009,7.009,0,0,1-3.444-.828,5.956,5.956,0,0,1-2.34-2.292,6.531,6.531,0,0,1-.84-3.311,6.769,6.769,0,0,1,.8-3.313,5.828,5.828,0,0,1,2.208-2.28,6.175,6.175,0,0,1,3.157-.815,6.108,6.108,0,0,1,3.143.815,5.787,5.787,0,0,1,2.184,2.269,6.826,6.826,0,0,1,.792,3.324Zm-9.156-4.307a4.572,4.572,0,0,0-1.4,3.036h8.952a4.575,4.575,0,0,0-1.4-3.036,4.634,4.634,0,0,0-6.145,0Z" fill="#fff"/><path d="M117.377,80.278a4.778,4.778,0,0,1,1.32,3.66v7.824h-1.632V89.8a3.907,3.907,0,0,1-1.692,1.536,5.922,5.922,0,0,1-2.652.551,5.189,5.189,0,0,1-3.36-1.007,3.468,3.468,0,0,1-.084-5.256,5.7,5.7,0,0,1,3.708-.985h4.008v-.768a3.242,3.242,0,0,0-.912-2.484,3.771,3.771,0,0,0-2.664-.852,6.8,6.8,0,0,0-2.3.4,5.806,5.806,0,0,0-1.9,1.092l-.768-1.271a6.82,6.82,0,0,1,2.3-1.261,8.965,8.965,0,0,1,2.832-.443A5.35,5.35,0,0,1,117.377,80.278Zm-1.92,9.6a3.954,3.954,0,0,0,1.536-1.909V85.906h-3.96q-3.24,0-3.24,2.257a2.061,2.061,0,0,0,.84,1.739,3.813,3.813,0,0,0,2.352.637A4.493,4.493,0,0,0,115.457,89.879Z" fill="#fff"/><path d="M126.749,79.69a6.08,6.08,0,0,1,2.941-.647V80.7l-.408-.024a4.035,4.035,0,0,0-3.12,1.224,4.878,4.878,0,0,0-1.129,3.433v6.431h-1.7V79.138h1.632V81.61A4.139,4.139,0,0,1,126.749,79.69Z" fill="#fff"/><path d="M132.761,73.955h1.7V91.762h-1.7Z" fill="#fff"/><path d="M149.826,79.138l-6.313,14.136a6.036,6.036,0,0,1-1.775,2.521,3.98,3.98,0,0,1-2.425.744,4.972,4.972,0,0,1-1.7-.288,3.7,3.7,0,0,1-1.367-.865l.792-1.272a3.135,3.135,0,0,0,2.3.96,2.309,2.309,0,0,0,1.476-.48,4.372,4.372,0,0,0,1.141-1.631l.551-1.225-5.639-12.6h1.775l4.752,10.728,4.752-10.728Z" fill="#fff"/><path d="M152.1,74.963h3.12v14.16h8.784v2.639H152.1Z" fill="#fff"/><path d="M166.337,76.318a1.768,1.768,0,0,1,0-2.567,1.928,1.928,0,0,1,1.369-.517,1.987,1.987,0,0,1,1.367.492,1.586,1.586,0,0,1,.552,1.237,1.813,1.813,0,0,1-.54,1.332,1.872,1.872,0,0,1-1.379.54A1.924,1.924,0,0,1,166.337,76.318Zm-.144,2.628h3V91.762h-3Z" fill="#fff"/><path d="M175.433,91.09a6.155,6.155,0,0,1-2.473-2.339,6.923,6.923,0,0,1,0-6.781,6.221,6.221,0,0,1,2.46-2.328,7.506,7.506,0,0,1,3.588-.84,6.912,6.912,0,0,1,3.324.768,4.99,4.99,0,0,1,2.149,2.208l-2.305,1.345a3.652,3.652,0,0,0-1.38-1.332,4.023,4.023,0,0,0-4.595.647,4.418,4.418,0,0,0-.012,5.832,4.048,4.048,0,0,0,4.607.649,3.66,3.66,0,0,0,1.38-1.332l2.305,1.343a5.193,5.193,0,0,1-2.172,2.22,6.767,6.767,0,0,1-3.3.78A7.5,7.5,0,0,1,175.433,91.09Z" fill="#fff"/><path d="M198.88,86.314H188.825a3.478,3.478,0,0,0,1.38,2.244,4.521,4.521,0,0,0,2.772.828A4.674,4.674,0,0,0,196.456,88l1.609,1.847a5.412,5.412,0,0,1-2.185,1.56,8.652,8.652,0,0,1-6.695-.312,6.041,6.041,0,0,1-2.484-2.339,6.609,6.609,0,0,1-.876-3.4,6.716,6.716,0,0,1,.851-3.372,6.07,6.07,0,0,1,2.364-2.34,6.909,6.909,0,0,1,3.409-.84,6.718,6.718,0,0,1,3.347.829,5.86,5.86,0,0,1,2.305,2.328,7.058,7.058,0,0,1,.827,3.467C198.928,85.634,198.913,85.93,198.88,86.314Zm-8.868-4.26a3.594,3.594,0,0,0-1.212,2.268h7.273a3.541,3.541,0,0,0-1.176-2.256,3.577,3.577,0,0,0-2.448-.863A3.626,3.626,0,0,0,190.012,82.054Z" fill="#fff"/><path d="M212.968,80.218a5.588,5.588,0,0,1,1.464,4.2v7.343h-3V84.8a3.6,3.6,0,0,0-.792-2.532,2.93,2.93,0,0,0-2.256-.851,3.465,3.465,0,0,0-2.616,1,3.969,3.969,0,0,0-.96,2.867v6.48h-3V78.946h2.856V80.6a4.687,4.687,0,0,1,1.873-1.344,6.753,6.753,0,0,1,2.544-.456A5.353,5.353,0,0,1,212.968,80.218Z" fill="#fff"/><path d="M219.16,91.522a7.6,7.6,0,0,1-2.376-1.032l1.152-2.279a7.406,7.406,0,0,0,2.076.923,8.588,8.588,0,0,0,2.388.348q2.688,0,2.687-1.416a.944.944,0,0,0-.683-.935,11.825,11.825,0,0,0-2.2-.5,17.83,17.83,0,0,1-2.58-.553,3.933,3.933,0,0,1-1.727-1.092,3.047,3.047,0,0,1-.733-2.172,3.414,3.414,0,0,1,1.525-2.916,6.941,6.941,0,0,1,4.116-1.092,11.879,11.879,0,0,1,2.64.3,7.413,7.413,0,0,1,2.16.8l-1.152,2.28a7.118,7.118,0,0,0-3.672-.96,4.058,4.058,0,0,0-2,.4,1.179,1.179,0,0,0-.684,1.044,1.04,1.04,0,0,0,.732,1.019,11.619,11.619,0,0,0,2.268.565,17.546,17.546,0,0,1,2.52.551,3.96,3.96,0,0,1,1.692,1.056,2.944,2.944,0,0,1,.708,2.112,3.34,3.34,0,0,1-1.56,2.88,7.361,7.361,0,0,1-4.249,1.08A11.426,11.426,0,0,1,219.16,91.522Z" fill="#fff"/><path d="M242.608,86.314H232.552a3.486,3.486,0,0,0,1.38,2.244,4.524,4.524,0,0,0,2.773.828A4.674,4.674,0,0,0,240.184,88l1.608,1.847a5.408,5.408,0,0,1-2.184,1.56,8.652,8.652,0,0,1-6.695-.312,6.037,6.037,0,0,1-2.485-2.339,6.609,6.609,0,0,1-.876-3.4,6.706,6.706,0,0,1,.852-3.372,6.057,6.057,0,0,1,2.364-2.34,6.908,6.908,0,0,1,3.408-.84,6.725,6.725,0,0,1,3.348.829,5.867,5.867,0,0,1,2.305,2.328,7.068,7.068,0,0,1,.827,3.467Q242.656,85.738,242.608,86.314Zm-8.868-4.26a3.589,3.589,0,0,0-1.212,2.268H239.8a3.537,3.537,0,0,0-1.176-2.256,3.576,3.576,0,0,0-2.448-.863A3.623,3.623,0,0,0,233.74,82.054Z" fill="#fff"/><path d="M258.087,73.955V91.762h-2.88V90.106a4.629,4.629,0,0,1-1.835,1.368,6.2,6.2,0,0,1-2.413.456,6.742,6.742,0,0,1-3.323-.816A5.85,5.85,0,0,1,245.32,88.8a7.456,7.456,0,0,1,0-6.876,5.876,5.876,0,0,1,2.316-2.3,6.753,6.753,0,0,1,3.323-.817,6.1,6.1,0,0,1,2.329.432,4.69,4.69,0,0,1,1.8,1.3V73.955Zm-4.823,14.916a3.558,3.558,0,0,0,1.368-1.405,4.675,4.675,0,0,0,0-4.223,3.556,3.556,0,0,0-1.368-1.4,4.081,4.081,0,0,0-3.889,0,3.553,3.553,0,0,0-1.367,1.4,4.667,4.667,0,0,0,0,4.223,3.556,3.556,0,0,0,1.367,1.405,4.1,4.1,0,0,0,3.889,0Z" fill="#fff"/><path d="M21.554,74.82a25.532,25.532,0,0,0,2.757.228.972.972,0,0,0,.841-.516,26.176,26.176,0,0,0-.1-2.813c-.067-.506-.3-.742-.807-.742-.639,0-1.311,0-1.984.034a1.149,1.149,0,0,0-1.244,1.247c0,.641.033,1.315.067,1.955A.617.617,0,0,0,21.554,74.82Z" fill="#fff"/><path d="M30.3,66.026a2.134,2.134,0,0,0,.908.236c.711.026,1.4.051,2.09.062a.822.822,0,0,0,.673-.793,18.3,18.3,0,0,0-.241-2.909.614.614,0,0,0-.6-.472c-.4,0-.807-.034-1.211-.068-.3.034-.572.034-.807.068A1.1,1.1,0,0,0,29.929,63.3c-.034.64-.067,1.314-.067,1.989A.7.7,0,0,0,30.3,66.026Z" fill="#fff"/><path d="M63.763,84.328a11.369,11.369,0,0,0-1.412-.135,9.934,9.934,0,0,0-1.413.135.337.337,0,0,0-.2.27c-.034.5-.034,2.427,0,2.9a.667.667,0,0,0,.639.741,23.756,23.756,0,0,0,2.69-.135.8.8,0,0,0,.5-.438,4.5,4.5,0,0,0,.134-2.494A.923.923,0,0,0,63.763,84.328Z" fill="#fff"/><path d="M63.492,75.43h-.807a7.529,7.529,0,0,0-.875-.034c-.1,0-.168.034-.269.034-.672.1-.807.236-.807.944V78.6c0,.539.1.674.6.775a6.473,6.473,0,0,0,2.792-.135c.168-.033.336-.269.437-.438a3.782,3.782,0,0,0,.135-2.36C64.568,75.632,64.3,75.464,63.492,75.43Z" fill="#fff"/><path d="M46.207,101.887c-.807-.033-1.614.034-2.422,0a.55.55,0,0,0-.672.573,24.818,24.818,0,0,0,.2,2.731.751.751,0,0,0,.672.674c.4.068.774.1,1.177.135a2.692,2.692,0,0,1,.5-.034c.908,0,1.345-.371,1.412-1.281A13.965,13.965,0,0,0,47.149,103C47.182,102.224,46.947,101.955,46.207,101.887Z" fill="#fff"/><path d="M37.566,101.892c-.74,0-1.48,0-2.186.033-.3.034-.673,0-.807.371a3.9,3.9,0,0,0-.236,1.045c0,.472.034.978.068,1.45a1.08,1.08,0,0,0,1.177,1.18,11.574,11.574,0,0,0,1.513,0,1.138,1.138,0,0,0,1.143-1.045c.068-.439.068-.877.1-1.315,0,0-.033,0,0-.034a8.125,8.125,0,0,0,0-.91A.762.762,0,0,0,37.566,101.892Z" fill="#fff"/><path d="M59.289,97.645a16.453,16.453,0,0,0-1.816-.067c-.673.033-.975.2-1.009.876a14.637,14.637,0,0,0,.135,2.427c0,.169.3.439.47.472a11.024,11.024,0,0,0,2.355.135c.706-.067.941-.472.975-1.18V99.6a5.919,5.919,0,0,0-.034-.775A1.13,1.13,0,0,0,59.289,97.645Z" fill="#fff"/><path d="M62.051,70.44h.773a6.061,6.061,0,0,0,1.11-.034.791.791,0,0,0,.74-.64,5.366,5.366,0,0,0,0-2.529.74.74,0,0,0-.774-.674c-.639-.033-1.311-.033-1.95-.033a.847.847,0,0,0-.875.707,10.781,10.781,0,0,0-.067,2.326C61.042,70.2,61.412,70.406,62.051,70.44Z" fill="#fff"/><path d="M23.843,97.673a13.323,13.323,0,0,0-1.648,0,1.123,1.123,0,0,0-1.143,1.18c0,.472-.034.978,0,1.45a1.116,1.116,0,0,0,1.177,1.247,12.262,12.262,0,0,0,1.581,0c.672-.034.908-.236,1.076-.91.067-.371.067-.708.1-1.079a4.454,4.454,0,0,1,0-.674A1.134,1.134,0,0,0,23.843,97.673Z" fill="#fff"/><path d="M22.294,66.06h1.412a1.176,1.176,0,0,0,1.245-1.214,6.067,6.067,0,0,0,0-.775,4.117,4.117,0,0,0,0-.64A1.168,1.168,0,0,0,23.74,62.15a10.747,10.747,0,0,0-1.48,0,1.15,1.15,0,0,0-1.177,1.179,12.162,12.162,0,0,0,0,1.551A1.141,1.141,0,0,0,22.294,66.06Z" fill="#fff"/><path d="M54.818,102.1a15.165,15.165,0,0,0-2.152.067.59.59,0,0,0-.438.4,13.445,13.445,0,0,0-.134,2.326,1.043,1.043,0,0,0,1.143,1.078h1.446a1.184,1.184,0,0,0,1.278-1.281v-1.382C55.928,102.533,55.591,102.128,54.818,102.1Z" fill="#fff"/><path d="M19.435,84.4a13.084,13.084,0,0,0-1.984.033c-.37,0-.5.27-.5.641v1.18a3.547,3.547,0,0,1-.033.573V87.4c0,.64.168.843.807.876.706.034,1.446,0,2.152-.033.336-.034.538-.169.572-.506q.1-1.062.1-2.124C20.545,84.566,20.478,84.465,19.435,84.4Z" fill="#fff"/><path d="M44.022,61.607c.74.034,1.447.034,2.153,0,.5-.034.807-.2.841-.573a16.91,16.91,0,0,0,.1-2.259c-.033-.606-.3-.775-.908-.775h-2.32c-.3,0-.471.1-.538.371a6.582,6.582,0,0,0-.068,2.562A.64.64,0,0,0,44.022,61.607Z" fill="#fff"/><path d="M20.143,75.663a4.691,4.691,0,0,0-2.724-.169c-.337.034-.471.27-.471.607v1.281c0,.371,0,.742.033,1.112,0,.641.2.877.841.877s1.278,0,1.917-.034c.538-.034.774-.236.807-.809.034-.809-.033-1.618-.067-2.427A.635.635,0,0,0,20.143,75.663Z" fill="#fff"/><path d="M34.975,61.54a19.385,19.385,0,0,0,2.421.067c.3,0,.707-.1.74-.506.034-.842.067-1.685.034-2.528,0-.438-.236-.573-.673-.573H34.941c-.3,0-.5.1-.538.4a5.274,5.274,0,0,0,.135,2.8A.611.611,0,0,0,34.975,61.54Z" fill="#fff"/><path d="M20.04,93.465a4.189,4.189,0,0,0-2.724-.1c-.269.068-.37.236-.37.54v1.213c0,.438,0,.877-.033,1.349a.557.557,0,0,0,.437.606,4.509,4.509,0,0,0,2.589-.1.926.926,0,0,0,.471-.607,18.731,18.731,0,0,0,0-2.393A.65.65,0,0,0,20.04,93.465Z" fill="#fff"/><path d="M53,61.54a14.51,14.51,0,0,0,2.085,0,.706.706,0,0,0,.74-.641,12.642,12.642,0,0,0,.067-2.259c-.033-.573-.235-.64-.807-.64H54.01a10.356,10.356,0,0,0-1.043.034c-.639,0-.84.168-.874.809,0,.5-.034,1.011,0,1.517C52.093,61.1,52.4,61.506,53,61.54Z" fill="#fff"/><path d="M57.635,84.538c.751-.1,1.536-.136,2.288-.2a.586.586,0,0,0,.58-.513c.034-.411.069-.856.069-1.267,0-.719-.035-1.4-.069-2.122a.476.476,0,0,0-.478-.514c-.341-.034-.649-.034-.956-.068-.683-.069-1.332-.137-1.981-.24a.714.714,0,0,1-.683-.719c-.034-.924-.068-1.814-.034-2.738A.59.59,0,0,1,56.8,75.5c.04.007.069.027.112.031a20.885,20.885,0,0,0,2.527,0,.876.876,0,0,0,.922-.822c0-.035.005-.071.009-.107a.677.677,0,0,0,.031-.131l-.02-.011a15.378,15.378,0,0,0,.083-2.626c-.034-.719-.308-.822-.991-.822H58.141c-.444,0-.854,0-1.263.034-.786,0-1.025.206-1.059,1.027a18.685,18.685,0,0,0-.034,1.951,2.578,2.578,0,0,0,.106.663.705.705,0,0,1-.784.366,2.576,2.576,0,0,1-.512,0,9.148,9.148,0,0,1-1.673-.411,1.532,1.532,0,0,1-.581-.65,4.247,4.247,0,0,1-.273-2.157.843.843,0,0,1,.751-.821c.376-.034.717-.069,1.093-.1.478-.034.99-.034,1.468-.068.308-.035.615-.206.615-.548q0-1.335-.1-2.67c-.068-.753-.41-1.027-1.161-1.027-.171,0-.376-.034-.547-.034-.717,0-1.434.034-2.151.068-.1,0-.274.1-.274.2-.068.377-.1.719-.136,1.1-.069.65-.1,1.3-.205,1.917-.034.308-.137.65-.547.684a9.148,9.148,0,0,1-1.366.035,3.935,3.935,0,0,1-1.229-.377,1.81,1.81,0,0,1-.888-1.575c-.034-.718-.1-1.4-.171-2.088.115-.009.216-.019.321-.029.156.1,3.977-.11,4.011-.624a16.175,16.175,0,0,0,.1-2.875c-.034-.719-.307-.822-.99-.822H49.33c-.41,0-.854,0-1.264.034-.785,0-1.024.206-1.058,1.027a18.415,18.415,0,0,0-.035,1.951,2.656,2.656,0,0,0,.094.635c-.006.04-.015.082-.02.121a.36.36,0,0,1-.409.343c-.991,0-2.015.034-3.006-.035-.717-.034-.854-.239-.922-.958-.068-.787-.137-1.54-.2-2.328-.068-.616-.341-.89-.956-.89H39.192c-.546.034-.819.24-.888.788-.1.958-.2,1.916-.273,2.909-.034.343-.2.479-.478.479-.956.035-1.947.069-2.9.1-.922.069-1.059-.1-1.093,1.027a10.9,10.9,0,0,1-.239,2.123,1.166,1.166,0,0,1-1.024,1.061c-.444.034-.854.171-1.3.171a10.734,10.734,0,0,1-1.5-.137.47.47,0,0,1-.273-.342c0-.013,0-.026,0-.038a.86.86,0,0,0,.036-.137,16.187,16.187,0,0,0,.1-2.876c-.034-.719-.308-.821-.991-.821H27.033c-.444,0-.853,0-1.263.034-.786,0-1.025.2-1.059,1.027a18.68,18.68,0,0,0-.034,1.951c.034.924.375,1.438,1.127,1.506a17.739,17.739,0,0,0,2.1.013c.119.007.238.007.357.025.614.069.751.274.751.89-.034.651-.068,1.335-.137,1.986a1.457,1.457,0,0,1-1.263,1.335c-.82.1-1.639.2-2.459.239-.41,0-.478.172-.478.514-.034,1.061-.034,2.157-.1,3.218-.007.119-.014.433-.02.851a1.838,1.838,0,0,0-.6-.069H22.624c-.41,0-.854,0-1.264.034-.785,0-1.024.206-1.059,1.027a18.7,18.7,0,0,0-.034,1.952c.034.924.376,1.437,1.127,1.506a20.9,20.9,0,0,0,2.528,0,.967.967,0,0,0,.591-.2c0,.516-.006.891-.006.99.034,1.027.068,2.054.068,3.081,0,.548-.034.548-.546.582-.376.034-.786,0-1.2.034a10.676,10.676,0,0,0-1.5.171c-.615.1-.854.411-.888,1.062V91.83c0,.822.307,1.164,1.127,1.267a7.338,7.338,0,0,0,2.732,0,.436.436,0,0,0,.239-.309c.068-.616.1-1.2.137-1.814.034-.65.068-1.3.1-1.985.547,0,2.152.068,2.562.137a1.561,1.561,0,0,1,1.3,1.266,10.2,10.2,0,0,1,.137,2.054.693.693,0,0,1-.546.685,6.969,6.969,0,0,1-.888.137c-.615.034-1.264.068-1.879.137-.58.034-.683.239-.683.821.034.719.069,1.438.069,2.157,0,.821.273,1.164,1.092,1.232s1.64.069,2.459.1a.631.631,0,0,0,.718-.65v-.719c.068-.651.1-1.267.17-1.883a.778.778,0,0,1,.717-.753,4.159,4.159,0,0,1,1.947.137,1.357,1.357,0,0,1,1.093.821,5.187,5.187,0,0,1,.273,2.5,2.348,2.348,0,0,1-.282.619c-.052,0-.1,0-.162,0H31.542c-.444,0-.853,0-1.263.034-.786,0-1.025.206-1.059,1.027a18.7,18.7,0,0,0-.034,1.952c.034.924.376,1.437,1.127,1.506a20.885,20.885,0,0,0,2.527,0,.876.876,0,0,0,.922-.822,16.175,16.175,0,0,0,.1-2.875,2.039,2.039,0,0,0-.023-.228c.124-.293.354-.421.808-.421.786,0,1.605.068,2.391.136a1.135,1.135,0,0,1,.99,1.062c.069.856.137,1.745.2,2.6a.411.411,0,0,0,.376.411c.41.034.785.1,1.2.1.717,0,1.435-.034,2.152-.069.41,0,.58-.171.614-.582.069-.753.137-1.54.24-2.293a1.185,1.185,0,0,1,.922-1.13,20.7,20.7,0,0,1,2.527-.068.711.711,0,0,1,.683.442c-.005.053-.011.1-.013.162a18.41,18.41,0,0,0-.034,1.951c.034.924.375,1.438,1.127,1.506a20.683,20.683,0,0,0,2.527,0,.876.876,0,0,0,.922-.821,16.186,16.186,0,0,0,.1-2.876c-.034-.719-.307-.821-.99-.821H49.254c-.326,0-.669.01-1,.027a.656.656,0,0,1-.588-.529c-.239-1.232.068-2.807,1.878-3.115.786-.137,1.742.034,1.845,1.2l.1,1.951c.034.514.239.754.751.719.888-.034,1.811-.1,2.733-.1A1.208,1.208,0,0,0,56,96.931c.068-.48.068-.925.1-1.4,0-.513,0-1.061.034-1.575a.589.589,0,0,0-.649-.684h-.854a4.793,4.793,0,0,1-1.844-.377c-.273-.137-.41-.274-.41-.548a4.185,4.185,0,0,1,0-1.129,2.406,2.406,0,0,1,.478-1.164,3,3,0,0,1,2.459-.651.689.689,0,0,1,.581.582,6.349,6.349,0,0,1,.1,1.13V92.72c0,.308.273.685.513.685.853-.035,1.707-.069,2.561-.137s1.264-.308,1.3-.925a23.316,23.316,0,0,0,0-2.67c-.034-.513-.273-.684-.786-.719-.649-.068-1.3-.068-1.946-.1-.923-.069-1.162-.308-1.23-1.233a11.6,11.6,0,0,1,.034-1.882A1.191,1.191,0,0,1,57.635,84.538ZM47.117,93l-6.256-4.2L34.631,93V82.609A7.877,7.877,0,0,0,47.117,82.6Zm-6.246-9.735a6.36,6.36,0,0,1-4.512-1.869c-.014-.014-.027-.031-.041-.045a6.408,6.408,0,0,1-.614-.733c-.118-.164-.228-.332-.33-.506-.037-.063-.079-.122-.114-.186A6.385,6.385,0,0,1,37.3,71.591q.255-.172.527-.32a6.353,6.353,0,0,1,3.041-.77h0a6.366,6.366,0,0,1,4.512,1.869,6.539,6.539,0,0,1,1.868,4.512A6.38,6.38,0,0,1,40.871,83.262Z" fill="#fff"/></svg>