<svg xmlns="http://www.w3.org/2000/svg" viewBox="0 0 275 164"><title>FullSub_Described_white_v</title><rect width="275" height="164" fill="#282828"/><path d="M48.149,125.393a7.4,7.4,0,0,1-2.882-2.8,8.229,8.229,0,0,1,0-8.03,7.371,7.371,0,0,1,2.893-2.8,8.461,8.461,0,0,1,4.135-1.013,8.588,8.588,0,0,1,3.168.572,6.581,6.581,0,0,1,2.464,1.672l-1.033,1.034a6.137,6.137,0,0,0-4.555-1.826,6.706,6.706,0,0,0-3.321.836,6.121,6.121,0,0,0-2.344,2.288,6.689,6.689,0,0,0,0,6.512,6.1,6.1,0,0,0,2.344,2.288,6.685,6.685,0,0,0,3.321.836,6.048,6.048,0,0,0,4.555-1.848l1.033,1.035a6.655,6.655,0,0,1-2.474,1.682,8.51,8.51,0,0,1-3.179.583A8.4,8.4,0,0,1,48.149,125.393Z" fill="#fff"/><path d="M61.074,109.949h1.562v16.324H61.074Z" fill="#fff"/><path d="M77.067,120.972h-9.68a4.138,4.138,0,0,0,1.386,2.915A4.6,4.6,0,0,0,71.941,125a4.984,4.984,0,0,0,1.98-.385,4.316,4.316,0,0,0,1.562-1.133l.88,1.012a4.954,4.954,0,0,1-1.925,1.408,6.487,6.487,0,0,1-2.541.485,6.415,6.415,0,0,1-3.157-.76,5.466,5.466,0,0,1-2.145-2.1,5.99,5.99,0,0,1-.77-3.036,6.21,6.21,0,0,1,.737-3.036,5.341,5.341,0,0,1,2.024-2.09,5.659,5.659,0,0,1,2.893-.748,5.6,5.6,0,0,1,2.882.748,5.312,5.312,0,0,1,2,2.079,6.265,6.265,0,0,1,.726,3.047Zm-8.393-3.95a4.191,4.191,0,0,0-1.287,2.784h8.206a4.2,4.2,0,0,0-1.287-2.784,4.249,4.249,0,0,0-5.632,0Z" fill="#fff"/><path d="M87.473,115.746a4.379,4.379,0,0,1,1.21,3.355v7.172h-1.5v-1.8a3.58,3.58,0,0,1-1.551,1.407,5.421,5.421,0,0,1-2.431.507,4.76,4.76,0,0,1-3.08-.925,3.178,3.178,0,0,1-.077-4.817,5.216,5.216,0,0,1,3.4-.9h3.674v-.7a2.964,2.964,0,0,0-.836-2.276,3.452,3.452,0,0,0-2.442-.782,6.211,6.211,0,0,0-2.112.364,5.289,5.289,0,0,0-1.738,1l-.7-1.166A6.247,6.247,0,0,1,81.4,115.02a8.227,8.227,0,0,1,2.6-.407A4.9,4.9,0,0,1,87.473,115.746Zm-1.76,8.8a3.622,3.622,0,0,0,1.408-1.749v-1.893h-3.63q-2.97,0-2.97,2.069a1.891,1.891,0,0,0,.77,1.594,3.5,3.5,0,0,0,2.156.583A4.117,4.117,0,0,0,85.713,124.547Z" fill="#fff"/><path d="M96.065,115.207a5.567,5.567,0,0,1,2.694-.594v1.519l-.374-.023a3.691,3.691,0,0,0-2.859,1.122,4.463,4.463,0,0,0-1.034,3.146v5.9H92.929V114.7h1.5v2.267A3.783,3.783,0,0,1,96.065,115.207Z" fill="#fff"/><path d="M101.575,109.949h1.562v16.324h-1.562Z" fill="#fff"/><path d="M117.217,114.7l-5.786,12.958a5.547,5.547,0,0,1-1.628,2.311,3.642,3.642,0,0,1-2.222.681,4.557,4.557,0,0,1-1.562-.263,3.4,3.4,0,0,1-1.254-.792l.726-1.166a2.884,2.884,0,0,0,2.112.88,2.122,2.122,0,0,0,1.353-.441,3.983,3.983,0,0,0,1.044-1.5l.507-1.122-5.17-11.55h1.628l4.356,9.834,4.356-9.834Z" fill="#fff"/><path d="M119.307,110.873h6.732a9.662,9.662,0,0,1,4.378.957,7.089,7.089,0,0,1,2.97,2.706,8.245,8.245,0,0,1,0,8.074,7.077,7.077,0,0,1-2.97,2.706,9.662,9.662,0,0,1-4.378.957h-6.732Zm6.6,12.98a6.52,6.52,0,0,0,2.981-.649,4.635,4.635,0,0,0,1.98-1.848,5.935,5.935,0,0,0,0-5.566,4.647,4.647,0,0,0-1.98-1.848,6.545,6.545,0,0,0-2.981-.649h-3.74v10.56Z" fill="#fff"/><path d="M148.214,121.279H139a3.2,3.2,0,0,0,1.264,2.058,4.151,4.151,0,0,0,2.541.759,4.283,4.283,0,0,0,3.191-1.277l1.473,1.695a4.955,4.955,0,0,1-2,1.429,7.919,7.919,0,0,1-6.137-.286,5.538,5.538,0,0,1-2.278-2.144,6.061,6.061,0,0,1-.8-3.114,6.144,6.144,0,0,1,.781-3.09,5.54,5.54,0,0,1,2.167-2.146,6.325,6.325,0,0,1,3.124-.77,6.16,6.16,0,0,1,3.068.759,5.376,5.376,0,0,1,2.113,2.134,6.485,6.485,0,0,1,.758,3.18C148.258,120.656,148.244,120.928,148.214,121.279Zm-8.129-3.905a3.289,3.289,0,0,0-1.11,2.079h6.666a3.241,3.241,0,0,0-1.078-2.067,3.276,3.276,0,0,0-2.244-.792A3.318,3.318,0,0,0,140.085,117.374Z" fill="#fff"/><path d="M151.734,126.054a7.013,7.013,0,0,1-2.178-.947l1.056-2.089a6.807,6.807,0,0,0,1.9.846,7.9,7.9,0,0,0,2.19.32q2.461,0,2.463-1.3a.869.869,0,0,0-.626-.859,10.875,10.875,0,0,0-2.014-.462,16.31,16.31,0,0,1-2.364-.5,3.63,3.63,0,0,1-1.584-1,2.791,2.791,0,0,1-.671-1.992,3.13,3.13,0,0,1,1.4-2.673,6.365,6.365,0,0,1,3.774-1,10.922,10.922,0,0,1,2.42.275,6.823,6.823,0,0,1,1.979.737l-1.056,2.09a6.523,6.523,0,0,0-3.366-.88,3.733,3.733,0,0,0-1.837.363,1.084,1.084,0,0,0-.627.957.956.956,0,0,0,.671.935,10.656,10.656,0,0,0,2.079.518,16.067,16.067,0,0,1,2.31.5,3.638,3.638,0,0,1,1.552.968,2.709,2.709,0,0,1,.648,1.937,3.064,3.064,0,0,1-1.43,2.639,6.738,6.738,0,0,1-3.894.991A10.532,10.532,0,0,1,151.734,126.054Z" fill="#fff"/><path d="M164.34,125.657a5.647,5.647,0,0,1-2.265-2.144,5.992,5.992,0,0,1-.815-3.114,5.93,5.93,0,0,1,.815-3.1,5.7,5.7,0,0,1,2.255-2.135,6.869,6.869,0,0,1,3.289-.77,6.335,6.335,0,0,1,3.047.7,4.565,4.565,0,0,1,1.968,2.023l-2.112,1.232a3.344,3.344,0,0,0-1.265-1.22,3.45,3.45,0,0,0-1.661-.407,3.486,3.486,0,0,0-2.552,1,4.054,4.054,0,0,0-.01,5.346,3.707,3.707,0,0,0,4.223.594,3.347,3.347,0,0,0,1.265-1.221l2.112,1.233a4.762,4.762,0,0,1-1.991,2.035,6.214,6.214,0,0,1-3.024.715A6.882,6.882,0,0,1,164.34,125.657Z" fill="#fff"/><path d="M181.808,114.393v2.619a3.49,3.49,0,0,0-.638-.067,3.318,3.318,0,0,0-2.507.936,3.724,3.724,0,0,0-.9,2.694v5.7h-2.75V114.525h2.618v1.716Q178.816,114.395,181.808,114.393Z" fill="#fff"/><path d="M184.272,112.116a1.621,1.621,0,0,1,0-2.353,1.767,1.767,0,0,1,1.255-.474,1.821,1.821,0,0,1,1.254.451,1.456,1.456,0,0,1,.506,1.133,1.661,1.661,0,0,1-.5,1.222,1.715,1.715,0,0,1-1.265.5A1.767,1.767,0,0,1,184.272,112.116Zm-.132,2.409h2.75v11.748h-2.75Z" fill="#fff"/><path d="M200.079,115.142a5.4,5.4,0,0,1,2.123,2.112,6.291,6.291,0,0,1,.77,3.145,6.357,6.357,0,0,1-.77,3.158,5.379,5.379,0,0,1-2.123,2.123,6.243,6.243,0,0,1-3.069.748,5.693,5.693,0,0,1-2.211-.418,4.252,4.252,0,0,1-1.683-1.254v1.517H190.5V109.949h2.75v6.006a4.631,4.631,0,0,1,1.661-1.166,5.438,5.438,0,0,1,2.1-.4A6.233,6.233,0,0,1,200.079,115.142Zm-.88,7.919a4.109,4.109,0,0,0,0-5.324,3.328,3.328,0,0,0-2.5-1.011,3.54,3.54,0,0,0-1.783.451,3.255,3.255,0,0,0-1.253,1.287,4.285,4.285,0,0,0,0,3.871,3.255,3.255,0,0,0,1.253,1.287,3.54,3.54,0,0,0,1.783.451A3.325,3.325,0,0,0,199.2,123.061Z" fill="#fff"/><path d="M216.589,121.279h-9.217a3.2,3.2,0,0,0,1.264,2.058,4.151,4.151,0,0,0,2.541.759,4.283,4.283,0,0,0,3.191-1.277l1.473,1.695a4.955,4.955,0,0,1-2,1.429,7.919,7.919,0,0,1-6.137-.286,5.538,5.538,0,0,1-2.278-2.144,6.061,6.061,0,0,1-.8-3.114,6.144,6.144,0,0,1,.781-3.09,5.54,5.54,0,0,1,2.167-2.146,6.325,6.325,0,0,1,3.124-.77,6.16,6.16,0,0,1,3.068.759,5.376,5.376,0,0,1,2.113,2.134,6.485,6.485,0,0,1,.758,3.18C216.633,120.656,216.619,120.928,216.589,121.279Zm-8.129-3.905a3.289,3.289,0,0,0-1.11,2.079h6.666a3.241,3.241,0,0,0-1.078-2.067,3.276,3.276,0,0,0-2.244-.792A3.318,3.318,0,0,0,208.46,117.374Z" fill="#fff"/><path d="M230.779,109.949v16.324h-2.64v-1.517a4.262,4.262,0,0,1-1.682,1.254,5.7,5.7,0,0,1-2.211.418,6.2,6.2,0,0,1-3.048-.748,5.364,5.364,0,0,1-2.122-2.123,6.346,6.346,0,0,1-.771-3.158,6.281,6.281,0,0,1,.771-3.145,5.381,5.381,0,0,1,2.122-2.112,6.19,6.19,0,0,1,3.048-.749,5.583,5.583,0,0,1,2.133.4,4.293,4.293,0,0,1,1.65,1.188v-6.028Zm-4.422,13.673a3.251,3.251,0,0,0,1.254-1.287,4.285,4.285,0,0,0,0-3.871,3.251,3.251,0,0,0-1.254-1.287,3.746,3.746,0,0,0-3.564,0,3.242,3.242,0,0,0-1.253,1.287,4.285,4.285,0,0,0,0,3.871,3.242,3.242,0,0,0,1.253,1.287,3.746,3.746,0,0,0,3.564,0Z" fill="#fff"/><path d="M112.075,55.775a34.029,34.029,0,0,0,3.676.3,1.3,1.3,0,0,0,1.122-.688,34.843,34.843,0,0,0-.135-3.751c-.09-.674-.4-.989-1.076-.989-.852,0-1.749,0-2.646.045a1.534,1.534,0,0,0-1.659,1.663c0,.854.045,1.753.09,2.607A.822.822,0,0,0,112.075,55.775Z" fill="#fff"/><path d="M123.735,44.05a2.844,2.844,0,0,0,1.21.315c.948.034,1.871.068,2.787.082a1.1,1.1,0,0,0,.9-1.056,24.416,24.416,0,0,0-.321-3.88.821.821,0,0,0-.807-.63c-.538,0-1.076-.045-1.614-.089-.4.044-.762.044-1.076.089a1.474,1.474,0,0,0-1.57,1.529c-.045.854-.089,1.753-.089,2.652A.936.936,0,0,0,123.735,44.05Z" fill="#fff"/><path d="M168.354,68.453a15.244,15.244,0,0,0-1.883-.18,13.343,13.343,0,0,0-1.884.18.446.446,0,0,0-.269.359c-.045.674-.045,3.236,0,3.866a.889.889,0,0,0,.852.988,32.169,32.169,0,0,0,3.588-.179,1.071,1.071,0,0,0,.672-.585,6,6,0,0,0,.18-3.326A1.233,1.233,0,0,0,168.354,68.453Z" fill="#fff"/><path d="M167.992,56.589h-1.076a10.11,10.11,0,0,0-1.166-.045c-.135,0-.224.045-.359.045-.9.135-1.076.315-1.076,1.258v2.967c0,.719.134.9.807,1.034a8.664,8.664,0,0,0,3.722-.18c.224-.045.448-.36.583-.584a5.037,5.037,0,0,0,.179-3.147C169.427,56.859,169.068,56.634,167.992,56.589Z" fill="#fff"/><path d="M144.945,91.865c-1.076-.045-2.152.045-3.228,0a.734.734,0,0,0-.9.764,33.027,33.027,0,0,0,.269,3.641,1,1,0,0,0,.9.9c.538.09,1.031.135,1.569.18a3.612,3.612,0,0,1,.673-.045c1.211,0,1.794-.5,1.883-1.708a18.779,18.779,0,0,0,.09-2.248C146.246,92.315,145.932,91.955,144.945,91.865Z" fill="#fff"/><path d="M133.424,91.871c-.987,0-1.973,0-2.915.045-.4.045-.9,0-1.076.494a5.23,5.23,0,0,0-.314,1.394c0,.629.045,1.3.09,1.932a1.44,1.44,0,0,0,1.569,1.573,15.1,15.1,0,0,0,2.018,0,1.517,1.517,0,0,0,1.525-1.393c.089-.584.089-1.168.134-1.753,0,0-.045,0,0-.045a10.907,10.907,0,0,0,0-1.213A1.015,1.015,0,0,0,133.424,91.871Z" fill="#fff"/><path d="M162.388,86.209a21.77,21.77,0,0,0-2.421-.09c-.9.045-1.3.27-1.346,1.169a19.63,19.63,0,0,0,.18,3.236c0,.225.4.584.628.629a14.708,14.708,0,0,0,3.139.18c.941-.09,1.255-.629,1.3-1.573v-.944a7.951,7.951,0,0,0-.045-1.034A1.507,1.507,0,0,0,162.388,86.209Z" fill="#fff"/><path d="M166.07,49.935H167.1a8.13,8.13,0,0,0,1.479-.045,1.053,1.053,0,0,0,.987-.854,7.142,7.142,0,0,0,0-3.371.987.987,0,0,0-1.032-.9c-.852-.045-1.748-.045-2.6-.045a1.131,1.131,0,0,0-1.166.944,14.316,14.316,0,0,0-.09,3.1C164.725,49.621,165.218,49.89,166.07,49.935Z" fill="#fff"/><path d="M115.127,86.246a17.89,17.89,0,0,0-2.2,0,1.5,1.5,0,0,0-1.525,1.573c0,.63-.045,1.3,0,1.933a1.488,1.488,0,0,0,1.57,1.663,16.455,16.455,0,0,0,2.107,0c.9-.045,1.211-.314,1.435-1.213.09-.5.09-.944.135-1.439a5.987,5.987,0,0,1,0-.9A1.511,1.511,0,0,0,115.127,86.246Z" fill="#fff"/><path d="M113.061,44.1h1.884a1.567,1.567,0,0,0,1.659-1.618,7.9,7.9,0,0,0,0-1.033,5.376,5.376,0,0,0,0-.854,1.557,1.557,0,0,0-1.615-1.708,14.43,14.43,0,0,0-1.973,0,1.534,1.534,0,0,0-1.569,1.573,15.841,15.841,0,0,0,0,2.067A1.52,1.52,0,0,0,113.061,44.1Z" fill="#fff"/><path d="M156.427,92.142a20.331,20.331,0,0,0-2.87.089.788.788,0,0,0-.583.54,17.93,17.93,0,0,0-.179,3.1,1.39,1.39,0,0,0,1.524,1.438h1.928a1.58,1.58,0,0,0,1.7-1.708V93.76C157.907,92.726,157.458,92.187,156.427,92.142Z" fill="#fff"/><path d="M109.249,68.545a17.532,17.532,0,0,0-2.645.045c-.493,0-.673.36-.673.854v1.574a4.622,4.622,0,0,1-.045.764v.764c0,.854.225,1.123,1.077,1.168.941.045,1.928,0,2.869-.045.449-.045.718-.224.763-.674q.133-1.416.134-2.831C110.729,68.77,110.64,68.635,109.249,68.545Z" fill="#fff"/><path d="M142.033,38.158c.986.045,1.928.045,2.869,0,.673-.045,1.077-.27,1.121-.764a22.493,22.493,0,0,0,.135-3.012c-.045-.809-.4-1.033-1.211-1.033h-3.094c-.4,0-.628.134-.717.494a8.775,8.775,0,0,0-.09,3.416A.854.854,0,0,0,142.033,38.158Z" fill="#fff"/><path d="M110.193,56.9a6.262,6.262,0,0,0-3.632-.225c-.448.045-.628.36-.628.809v1.708c0,.495,0,.989.045,1.484,0,.853.269,1.168,1.121,1.168s1.7,0,2.556-.045c.718-.045,1.031-.314,1.076-1.079.045-1.078-.045-2.157-.089-3.236A.848.848,0,0,0,110.193,56.9Z" fill="#fff"/><path d="M129.969,38.068a25.8,25.8,0,0,0,3.229.09c.4,0,.942-.135.986-.674.045-1.124.09-2.248.045-3.371,0-.585-.314-.764-.9-.764h-3.408c-.4,0-.672.134-.717.539a7.033,7.033,0,0,0,.179,3.731A.819.819,0,0,0,129.969,38.068Z" fill="#fff"/><path d="M110.057,80.636a5.584,5.584,0,0,0-3.633-.135c-.358.09-.493.315-.493.719v1.618c0,.584,0,1.169-.045,1.8a.744.744,0,0,0,.583.809,6.013,6.013,0,0,0,3.453-.135,1.237,1.237,0,0,0,.628-.809,25.164,25.164,0,0,0,0-3.191A.863.863,0,0,0,110.057,80.636Z" fill="#fff"/><path d="M154,38.068a19.108,19.108,0,0,0,2.78,0,.941.941,0,0,0,.987-.854,16.942,16.942,0,0,0,.09-3.011c-.045-.764-.314-.854-1.077-.854h-1.435a13.9,13.9,0,0,0-1.39.045c-.852,0-1.121.224-1.165,1.078,0,.675-.045,1.349,0,2.023C152.794,37.484,153.2,38.023,154,38.068Z" fill="#fff"/><path d="M160.182,68.733c1-.137,2.049-.182,3.051-.274a.782.782,0,0,0,.774-.684c.046-.548.091-1.141.091-1.689,0-.958-.045-1.871-.091-2.83a.633.633,0,0,0-.637-.684c-.456-.046-.866-.046-1.275-.092-.911-.091-1.776-.182-2.641-.319a.954.954,0,0,1-.911-.959c-.046-1.232-.091-2.419-.046-3.651a.786.786,0,0,1,.573-.865,1.536,1.536,0,0,0,.149.041,27.639,27.639,0,0,0,3.369,0,1.169,1.169,0,0,0,1.23-1.095c0-.048.006-.095.011-.143a.878.878,0,0,0,.042-.175l-.027-.015a20.4,20.4,0,0,0,.11-3.5c-.045-.958-.41-1.095-1.32-1.095h-1.776c-.592,0-1.139,0-1.685.046-1.047,0-1.366.274-1.412,1.369a24.823,24.823,0,0,0-.045,2.6,3.5,3.5,0,0,0,.141.883.938.938,0,0,1-1.044.488,3.4,3.4,0,0,1-.684,0,12.343,12.343,0,0,1-2.231-.547,2.053,2.053,0,0,1-.774-.868,5.663,5.663,0,0,1-.364-2.875,1.126,1.126,0,0,1,1-1.1c.5-.045.956-.091,1.457-.137.637-.045,1.32-.045,1.958-.091.41-.045.82-.274.82-.73q0-1.781-.137-3.56c-.091-1-.547-1.37-1.548-1.37-.228,0-.5-.045-.729-.045-.956,0-1.912.045-2.869.091-.136,0-.364.137-.364.274-.091.5-.137.958-.182,1.46-.091.868-.137,1.735-.273,2.557-.046.41-.183.867-.729.912a12.189,12.189,0,0,1-1.821.046,5.238,5.238,0,0,1-1.64-.5,2.417,2.417,0,0,1-1.184-2.1c-.045-.958-.136-1.871-.227-2.784l.428-.038c.207.135,5.3-.148,5.347-.833a21.574,21.574,0,0,0,.137-3.834c-.046-.958-.41-1.1-1.321-1.1h-1.776c-.546,0-1.138,0-1.685.045-1.047,0-1.366.274-1.411,1.37a24.81,24.81,0,0,0-.046,2.6,3.568,3.568,0,0,0,.125.846c-.008.054-.02.11-.026.162a.481.481,0,0,1-.546.457c-1.321,0-2.687.045-4.008-.046-.956-.046-1.138-.32-1.229-1.278-.091-1.05-.182-2.054-.273-3.1-.091-.821-.456-1.186-1.275-1.186h-3.142c-.729.045-1.093.319-1.184,1.049-.137,1.278-.273,2.556-.365,3.88-.045.456-.273.639-.637.639l-3.871.137c-1.229.091-1.411-.137-1.457,1.369a14.492,14.492,0,0,1-.319,2.83,1.553,1.553,0,0,1-1.366,1.415c-.592.046-1.138.228-1.73.228a14.268,14.268,0,0,1-2-.182.629.629,0,0,1-.364-.457c0-.016,0-.034,0-.05a1.092,1.092,0,0,0,.048-.183,21.574,21.574,0,0,0,.137-3.834c-.045-.959-.41-1.1-1.321-1.1h-1.775c-.592,0-1.139,0-1.685.045-1.048,0-1.366.274-1.412,1.369a24.833,24.833,0,0,0-.045,2.6c.045,1.232.5,1.917,1.5,2.008a23.39,23.39,0,0,0,2.805.017c.158.01.317.01.475.034.82.091,1,.365,1,1.187-.046.867-.091,1.78-.182,2.647a1.943,1.943,0,0,1-1.685,1.78c-1.093.137-2.186.274-3.279.32-.546,0-.637.228-.637.684-.046,1.415-.046,2.876-.137,4.291-.009.158-.018.577-.027,1.135a2.42,2.42,0,0,0-.8-.092H113.5c-.546,0-1.138,0-1.685.046-1.047,0-1.366.274-1.411,1.369a24.824,24.824,0,0,0-.046,2.6c.046,1.232.5,1.917,1.5,2.008a27.858,27.858,0,0,0,3.37,0,1.291,1.291,0,0,0,.787-.263c0,.687-.007,1.187-.007,1.319.046,1.369.091,2.739.091,4.108,0,.73-.045.73-.728.776-.5.046-1.048,0-1.594.046a14.068,14.068,0,0,0-2,.228c-.819.137-1.138.548-1.184,1.415v2.236c0,1.1.41,1.552,1.5,1.689a9.765,9.765,0,0,0,3.643,0,.581.581,0,0,0,.319-.411c.091-.821.136-1.6.182-2.419.045-.867.091-1.734.136-2.647.729,0,2.869.091,3.416.183a2.081,2.081,0,0,1,1.73,1.688,13.641,13.641,0,0,1,.182,2.739.923.923,0,0,1-.728.913,9.177,9.177,0,0,1-1.184.182c-.82.046-1.685.092-2.5.183-.774.046-.911.319-.911,1.095.046.959.091,1.917.091,2.876,0,1.095.365,1.552,1.458,1.643s2.185.091,3.278.137a.841.841,0,0,0,.957-.867V84.48c.091-.867.136-1.689.227-2.51a1.037,1.037,0,0,1,.956-1,5.541,5.541,0,0,1,2.6.182,1.808,1.808,0,0,1,1.457,1.1,6.915,6.915,0,0,1,.364,3.332,3.132,3.132,0,0,1-.376.825c-.069,0-.138,0-.215,0h-1.776c-.592,0-1.139,0-1.685.045-1.047,0-1.366.274-1.412,1.369a24.833,24.833,0,0,0-.045,2.6c.045,1.233.5,1.917,1.5,2.008a27.455,27.455,0,0,0,3.37,0,1.168,1.168,0,0,0,1.23-1.095,21.668,21.668,0,0,0,.136-3.834,2.773,2.773,0,0,0-.03-.3c.166-.392.471-.563,1.077-.563,1.048,0,2.141.092,3.188.183a1.512,1.512,0,0,1,1.32,1.415c.092,1.141.183,2.328.274,3.469a.546.546,0,0,0,.5.547c.546.046,1.047.137,1.593.137.957,0,1.913-.045,2.869-.091.547,0,.774-.228.82-.776.091-1,.182-2.054.319-3.058a1.581,1.581,0,0,1,1.229-1.506,27.683,27.683,0,0,1,3.37-.091.951.951,0,0,1,.911.589c-.007.071-.015.137-.018.216a24.824,24.824,0,0,0-.046,2.6c.046,1.232.5,1.917,1.5,2.008a27.858,27.858,0,0,0,3.37,0,1.168,1.168,0,0,0,1.229-1.1,21.574,21.574,0,0,0,.137-3.834c-.046-.958-.41-1.095-1.321-1.095h-1.776c-.434,0-.892.013-1.338.036a.872.872,0,0,1-.784-.7c-.319-1.644.091-3.743,2.5-4.154,1.047-.182,2.322.046,2.459,1.6l.137,2.6c.045.685.318,1,1,.959,1.184-.046,2.414-.137,3.643-.137A1.612,1.612,0,0,0,158,85.256c.09-.639.09-1.232.136-1.871,0-.685,0-1.415.046-2.1a.786.786,0,0,0-.866-.913h-1.138a6.391,6.391,0,0,1-2.459-.5c-.364-.182-.546-.365-.546-.73a5.544,5.544,0,0,1,0-1.506,3.2,3.2,0,0,1,.637-1.552,3.99,3.99,0,0,1,3.279-.867.918.918,0,0,1,.774.776A8.428,8.428,0,0,1,158,77.5v2.145c0,.411.364.913.683.913,1.138-.046,2.276-.091,3.415-.183s1.685-.41,1.73-1.232a30.862,30.862,0,0,0,0-3.56c-.045-.685-.364-.913-1.047-.959-.865-.091-1.731-.091-2.6-.137-1.229-.091-1.548-.41-1.639-1.643a15.362,15.362,0,0,1,.045-2.51A1.587,1.587,0,0,1,160.182,68.733ZM141.367,48.761l7.6,7.6L137.978,67.35l-7.79-7.79Zm-15.725,28,2.94-15.19L140.8,73.786Zm16.952-4.8-3.079-3.078L150.5,57.9l3.269,3.269Z" fill="#fff"/></svg>