<svg xmlns="http://www.w3.org/2000/svg" viewBox="0 0 275 164"><title>FullSub_Secure_inverse_h</title><rect x="0.03" y="0.051" width="274.939" height="163.898" fill="#409ae1"/><path d="M86.217,90.751a8.087,8.087,0,0,1-3.145-3.06,8.986,8.986,0,0,1,0-8.761,8.074,8.074,0,0,1,3.156-3.059,9.227,9.227,0,0,1,4.512-1.1,9.347,9.347,0,0,1,3.456.624,7.191,7.191,0,0,1,2.689,1.824l-1.128,1.128a6.7,6.7,0,0,0-4.969-1.992,7.308,7.308,0,0,0-3.623.912,6.674,6.674,0,0,0-2.557,2.5,7.291,7.291,0,0,0,0,7.105,6.66,6.66,0,0,0,2.557,2.5,7.307,7.307,0,0,0,3.623.911,6.6,6.6,0,0,0,4.969-2.015l1.128,1.127a7.254,7.254,0,0,1-2.7,1.836,9.278,9.278,0,0,1-3.467.636A9.168,9.168,0,0,1,86.217,90.751Z" fill="#fff"/><path d="M100.316,73.9h1.7V91.711h-1.7Z" fill="#fff"/><path d="M117.764,85.926H107.2a4.519,4.519,0,0,0,1.513,3.181,5.017,5.017,0,0,0,3.456,1.212,5.462,5.462,0,0,0,2.159-.42,4.718,4.718,0,0,0,1.7-1.236l.96,1.1a5.4,5.4,0,0,1-2.1,1.536,7.552,7.552,0,0,1-6.215-.3,5.963,5.963,0,0,1-2.34-2.292A6.528,6.528,0,0,1,105.5,85.4a6.755,6.755,0,0,1,.805-3.312,5.818,5.818,0,0,1,2.208-2.281,6.169,6.169,0,0,1,3.156-.815,6.105,6.105,0,0,1,3.143.815A5.78,5.78,0,0,1,117,82.075a6.829,6.829,0,0,1,.792,3.324Zm-9.156-4.307a4.572,4.572,0,0,0-1.4,3.036h8.952a4.575,4.575,0,0,0-1.4-3.036,4.637,4.637,0,0,0-6.145,0Z" fill="#fff"/><path d="M129.116,80.226a4.778,4.778,0,0,1,1.32,3.66v7.825h-1.631V89.743a3.915,3.915,0,0,1-1.693,1.536,5.922,5.922,0,0,1-2.652.552,5.191,5.191,0,0,1-3.36-1.008,3.468,3.468,0,0,1-.084-5.256,5.7,5.7,0,0,1,3.708-.984h4.008v-.769a3.234,3.234,0,0,0-.912-2.483,3.766,3.766,0,0,0-2.664-.853,6.773,6.773,0,0,0-2.3.4,5.8,5.8,0,0,0-1.9,1.091l-.768-1.271a6.829,6.829,0,0,1,2.3-1.261,8.969,8.969,0,0,1,2.832-.443A5.348,5.348,0,0,1,129.116,80.226Zm-1.92,9.6a3.946,3.946,0,0,0,1.536-1.908V85.854h-3.96q-3.24,0-3.24,2.257a2.061,2.061,0,0,0,.84,1.739,3.815,3.815,0,0,0,2.352.637A4.491,4.491,0,0,0,127.2,89.827Z" fill="#fff"/><path d="M138.488,79.638a6.091,6.091,0,0,1,2.941-.647v1.655l-.409-.023a4.035,4.035,0,0,0-3.12,1.223,4.879,4.879,0,0,0-1.128,3.433v6.432h-1.7V79.087H136.7v2.471A4.139,4.139,0,0,1,138.488,79.638Z" fill="#fff"/><path d="M144.5,73.9h1.7V91.711h-1.7Z" fill="#fff"/><path d="M161.564,79.087l-6.312,14.135a6.031,6.031,0,0,1-1.776,2.521,3.975,3.975,0,0,1-2.424.744,4.968,4.968,0,0,1-1.7-.288,3.718,3.718,0,0,1-1.368-.864l.792-1.273a3.138,3.138,0,0,0,2.3.96,2.318,2.318,0,0,0,1.476-.479,4.373,4.373,0,0,0,1.14-1.632l.552-1.225-5.64-12.6h1.776l4.752,10.727,4.752-10.727Z" fill="#fff"/><path d="M165.3,91.4a7.824,7.824,0,0,1-2.868-1.465l1.08-2.424a8.473,8.473,0,0,0,2.532,1.332,9.182,9.182,0,0,0,3.012.517,5.2,5.2,0,0,0,2.8-.6,1.814,1.814,0,0,0,.923-1.584,1.534,1.534,0,0,0-.515-1.187,3.616,3.616,0,0,0-1.308-.732q-.792-.264-2.16-.6a25.179,25.179,0,0,1-3.108-.912,5.117,5.117,0,0,1-2.041-1.429,3.843,3.843,0,0,1-.851-2.628,4.48,4.48,0,0,1,.756-2.531,5.118,5.118,0,0,1,2.28-1.813,9.255,9.255,0,0,1,3.732-.671,12.053,12.053,0,0,1,3.024.383,8.354,8.354,0,0,1,2.567,1.105l-.983,2.424a9.752,9.752,0,0,0-2.3-.985,8.664,8.664,0,0,0-2.328-.336,4.863,4.863,0,0,0-2.748.624,1.924,1.924,0,0,0-.9,1.657,1.5,1.5,0,0,0,.515,1.175,3.726,3.726,0,0,0,1.309.72q.792.265,2.16.6a22.872,22.872,0,0,1,3.071.9,5.27,5.27,0,0,1,2.053,1.429,3.767,3.767,0,0,1,.852,2.592,4.423,4.423,0,0,1-.756,2.519,5.143,5.143,0,0,1-2.292,1.8,9.349,9.349,0,0,1-3.744.672A12.85,12.85,0,0,1,165.3,91.4Z" fill="#fff"/><path d="M190.651,86.262H180.6a3.475,3.475,0,0,0,1.379,2.244,4.527,4.527,0,0,0,2.773.829,4.671,4.671,0,0,0,3.479-1.392l1.609,1.848a5.41,5.41,0,0,1-2.185,1.559,8.645,8.645,0,0,1-6.7-.311,6.05,6.05,0,0,1-2.484-2.34,6.609,6.609,0,0,1-.876-3.4,6.716,6.716,0,0,1,.851-3.372,6.064,6.064,0,0,1,2.364-2.34,6.909,6.909,0,0,1,3.409-.839,6.718,6.718,0,0,1,3.347.828,5.86,5.86,0,0,1,2.305,2.328,7.059,7.059,0,0,1,.827,3.468Q190.7,85.687,190.651,86.262ZM181.783,82a3.589,3.589,0,0,0-1.212,2.267h7.273a3.541,3.541,0,0,0-1.176-2.256,3.577,3.577,0,0,0-2.448-.863A3.621,3.621,0,0,0,181.783,82Z" fill="#fff"/><path d="M195.884,91.039a6.164,6.164,0,0,1-2.473-2.34,6.54,6.54,0,0,1-.888-3.4,6.474,6.474,0,0,1,.888-3.383,6.216,6.216,0,0,1,2.46-2.329,7.506,7.506,0,0,1,3.588-.839,6.912,6.912,0,0,1,3.324.767,4.988,4.988,0,0,1,2.148,2.208l-2.3,1.345a3.652,3.652,0,0,0-1.38-1.332,4.029,4.029,0,0,0-4.6.647,4.421,4.421,0,0,0-.012,5.832,4.049,4.049,0,0,0,4.608.649,3.652,3.652,0,0,0,1.38-1.332l2.3,1.344A5.194,5.194,0,0,1,202.76,91.1a6.77,6.77,0,0,1-3.3.781A7.507,7.507,0,0,1,195.884,91.039Z" fill="#fff"/><path d="M219.931,78.894V91.711h-2.856V90.079a4.769,4.769,0,0,1-1.8,1.332,5.8,5.8,0,0,1-2.328.468,5.572,5.572,0,0,1-4.044-1.428,5.639,5.639,0,0,1-1.475-4.237v-7.32h3v6.912a3.7,3.7,0,0,0,.78,2.58,2.854,2.854,0,0,0,2.22.853,3.361,3.361,0,0,0,2.555-1,4,4,0,0,0,.948-2.868V78.894Z" fill="#fff"/><path d="M231.283,78.751v2.856a3.721,3.721,0,0,0-.695-.072,3.628,3.628,0,0,0-2.737,1.019,4.07,4.07,0,0,0-.984,2.941v6.216h-3V78.894h2.856v1.872Q228.02,78.75,231.283,78.751Z" fill="#fff"/><path d="M245.707,86.262H235.651a3.481,3.481,0,0,0,1.38,2.244,4.525,4.525,0,0,0,2.773.829,4.671,4.671,0,0,0,3.479-1.392l1.608,1.848a5.406,5.406,0,0,1-2.184,1.559,8.645,8.645,0,0,1-6.695-.311,6.046,6.046,0,0,1-2.485-2.34,6.609,6.609,0,0,1-.876-3.4,6.706,6.706,0,0,1,.852-3.372,6.057,6.057,0,0,1,2.364-2.34,6.908,6.908,0,0,1,3.408-.839,6.724,6.724,0,0,1,3.348.828,5.867,5.867,0,0,1,2.305,2.328,7.07,7.07,0,0,1,.827,3.468Q245.755,85.687,245.707,86.262ZM236.839,82a3.584,3.584,0,0,0-1.212,2.267H242.9a3.537,3.537,0,0,0-1.176-2.256,3.576,3.576,0,0,0-2.448-.863A3.619,3.619,0,0,0,236.839,82Z" fill="#fff"/><path d="M33.886,74.82a25.566,25.566,0,0,0,2.758.228.972.972,0,0,0,.841-.516,26.176,26.176,0,0,0-.1-2.813c-.067-.506-.3-.742-.807-.742-.639,0-1.312,0-1.984.034a1.15,1.15,0,0,0-1.245,1.247c0,.641.034,1.315.068,1.955A.616.616,0,0,0,33.886,74.82Z" fill="#fff"/><path d="M42.631,66.026a2.137,2.137,0,0,0,.908.236c.711.026,1.4.051,2.09.062a.822.822,0,0,0,.673-.793,18.312,18.312,0,0,0-.24-2.909.615.615,0,0,0-.606-.472c-.4,0-.807-.034-1.21-.068-.3.034-.572.034-.807.068A1.105,1.105,0,0,0,42.261,63.3c-.033.64-.067,1.314-.067,1.989A.7.7,0,0,0,42.631,66.026Z" fill="#fff"/><path d="M76.1,84.328a11.389,11.389,0,0,0-1.412-.135,9.934,9.934,0,0,0-1.413.135.336.336,0,0,0-.2.27c-.033.5-.033,2.427,0,2.9a.667.667,0,0,0,.639.741A23.773,23.773,0,0,0,76.4,88.1a.8.8,0,0,0,.5-.438,4.493,4.493,0,0,0,.135-2.494A.925.925,0,0,0,76.1,84.328Z" fill="#fff"/><path d="M75.824,75.43h-.807a7.5,7.5,0,0,0-.874-.034c-.1,0-.168.034-.269.034-.673.1-.807.236-.807.944V78.6c0,.539.1.674.605.775a6.468,6.468,0,0,0,2.791-.135c.169-.033.337-.269.438-.438a3.775,3.775,0,0,0,.134-2.36C76.9,75.632,76.632,75.464,75.824,75.43Z" fill="#fff"/><path d="M58.539,101.887c-.807-.033-1.614.034-2.421,0a.551.551,0,0,0-.673.573,24.818,24.818,0,0,0,.2,2.731.753.753,0,0,0,.673.674c.4.068.773.1,1.177.135a2.687,2.687,0,0,1,.5-.034c.908,0,1.346-.371,1.413-1.281A14.172,14.172,0,0,0,59.481,103C59.515,102.224,59.279,101.955,58.539,101.887Z" fill="#fff"/><path d="M49.9,101.892c-.739,0-1.479,0-2.186.033-.3.034-.672,0-.807.371a3.937,3.937,0,0,0-.235,1.045c0,.472.034.978.067,1.45a1.081,1.081,0,0,0,1.177,1.18,11.589,11.589,0,0,0,1.514,0,1.139,1.139,0,0,0,1.143-1.045c.067-.439.067-.877.1-1.315,0,0-.034,0,0-.034a8.125,8.125,0,0,0,0-.91A.762.762,0,0,0,49.9,101.892Z" fill="#fff"/><path d="M71.622,97.645a16.462,16.462,0,0,0-1.816-.067c-.673.033-.976.2-1.009.876a14.636,14.636,0,0,0,.134,2.427c0,.169.3.439.471.472a11.019,11.019,0,0,0,2.354.135c.706-.067.942-.472.975-1.18V99.6a6.1,6.1,0,0,0-.033-.775A1.131,1.131,0,0,0,71.622,97.645Z" fill="#fff"/><path d="M74.383,70.44h.774a6.047,6.047,0,0,0,1.109-.034.79.79,0,0,0,.74-.64,5.353,5.353,0,0,0,0-2.529.739.739,0,0,0-.773-.674c-.639-.033-1.312-.033-1.951-.033a.846.846,0,0,0-.874.707,10.718,10.718,0,0,0-.067,2.326C73.374,70.2,73.744,70.406,74.383,70.44Z" fill="#fff"/><path d="M36.176,97.673a13.323,13.323,0,0,0-1.648,0,1.125,1.125,0,0,0-1.144,1.18c0,.472-.033.978,0,1.45a1.116,1.116,0,0,0,1.177,1.247,12.263,12.263,0,0,0,1.581,0c.673-.034.908-.236,1.076-.91.068-.371.068-.708.1-1.079a4.588,4.588,0,0,1,0-.674A1.133,1.133,0,0,0,36.176,97.673Z" fill="#fff"/><path d="M34.626,66.06h1.413a1.175,1.175,0,0,0,1.244-1.214,5.888,5.888,0,0,0,0-.775,4,4,0,0,0,0-.64,1.167,1.167,0,0,0-1.21-1.281,10.747,10.747,0,0,0-1.48,0,1.15,1.15,0,0,0-1.177,1.179,11.8,11.8,0,0,0,0,1.551A1.14,1.14,0,0,0,34.626,66.06Z" fill="#fff"/><path d="M67.151,102.1a15.179,15.179,0,0,0-2.153.067.59.59,0,0,0-.437.4,13.546,13.546,0,0,0-.135,2.326,1.044,1.044,0,0,0,1.144,1.078h1.446a1.185,1.185,0,0,0,1.278-1.281v-1.382C68.26,102.533,67.924,102.128,67.151,102.1Z" fill="#fff"/><path d="M31.768,84.4a13.1,13.1,0,0,0-1.985.033c-.37,0-.5.27-.5.641v1.18a3.444,3.444,0,0,1-.034.573V87.4c0,.64.168.843.807.876.707.034,1.447,0,2.153-.033.336-.034.538-.169.572-.506q.1-1.062.1-2.124C32.877,84.566,32.81,84.465,31.768,84.4Z" fill="#fff"/><path d="M56.355,61.607c.74.034,1.446.034,2.152,0,.505-.034.807-.2.841-.573a16.911,16.911,0,0,0,.1-2.259c-.034-.606-.3-.775-.908-.775H56.22c-.3,0-.47.1-.538.371a6.581,6.581,0,0,0-.067,2.562A.64.64,0,0,0,56.355,61.607Z" fill="#fff"/><path d="M32.475,75.663a4.69,4.69,0,0,0-2.724-.169c-.336.034-.471.27-.471.607v1.281c0,.371,0,.742.034,1.112,0,.641.2.877.841.877s1.278,0,1.917-.034c.538-.034.773-.236.807-.809.034-.809-.034-1.618-.067-2.427A.633.633,0,0,0,32.475,75.663Z" fill="#fff"/><path d="M47.307,61.54a19.406,19.406,0,0,0,2.422.067c.3,0,.706-.1.74-.506.033-.842.067-1.685.033-2.528,0-.438-.235-.573-.672-.573H47.274c-.3,0-.505.1-.538.4a5.263,5.263,0,0,0,.134,2.8A.615.615,0,0,0,47.307,61.54Z" fill="#fff"/><path d="M32.373,93.465a4.189,4.189,0,0,0-2.724-.1c-.269.068-.37.236-.37.54v1.213c0,.438,0,.877-.034,1.349a.558.558,0,0,0,.437.606,4.513,4.513,0,0,0,2.59-.1.926.926,0,0,0,.471-.607,18.916,18.916,0,0,0,0-2.393A.65.65,0,0,0,32.373,93.465Z" fill="#fff"/><path d="M65.334,61.54a14.509,14.509,0,0,0,2.085,0,.706.706,0,0,0,.74-.641,12.736,12.736,0,0,0,.067-2.259c-.034-.573-.235-.64-.807-.64H66.343a10.346,10.346,0,0,0-1.043.034c-.639,0-.841.168-.874.809,0,.5-.034,1.011,0,1.517C64.426,61.1,64.728,61.506,65.334,61.54Z" fill="#fff"/><path d="M53.212,74.621V91.4a33.97,33.97,0,0,0,7.6-11.966Z" fill="#fff"/><path d="M69.967,84.538c.751-.1,1.537-.136,2.288-.2a.587.587,0,0,0,.581-.513c.034-.411.068-.856.068-1.267,0-.719-.034-1.4-.068-2.122a.476.476,0,0,0-.478-.514c-.342-.034-.649-.034-.957-.068-.683-.069-1.331-.137-1.98-.24a.714.714,0,0,1-.683-.719c-.034-.924-.069-1.814-.034-2.738a.589.589,0,0,1,.429-.649c.04.007.068.027.111.031a20.9,20.9,0,0,0,2.528,0,.876.876,0,0,0,.922-.822c0-.035,0-.071.008-.107a.611.611,0,0,0,.031-.131l-.019-.011a15.378,15.378,0,0,0,.082-2.626c-.034-.719-.307-.822-.99-.822H70.474c-.444,0-.854,0-1.264.034-.785,0-1.024.206-1.058,1.027a18.415,18.415,0,0,0-.035,1.951,2.575,2.575,0,0,0,.107.663.706.706,0,0,1-.784.366,2.576,2.576,0,0,1-.512,0,9.179,9.179,0,0,1-1.674-.411,1.53,1.53,0,0,1-.58-.65,4.248,4.248,0,0,1-.274-2.157.844.844,0,0,1,.752-.821c.375-.034.717-.069,1.093-.1.478-.034.99-.034,1.468-.068.308-.035.615-.206.615-.548q0-1.335-.1-2.67c-.068-.753-.409-1.027-1.161-1.027-.171,0-.375-.034-.546-.034-.717,0-1.435.034-2.152.068-.1,0-.273.1-.273.2-.068.377-.1.719-.137,1.1-.068.65-.1,1.3-.205,1.917-.034.308-.136.65-.546.684a9.148,9.148,0,0,1-1.366.035,3.94,3.94,0,0,1-1.23-.377,1.812,1.812,0,0,1-.887-1.575c-.035-.718-.1-1.4-.171-2.088.115-.009.215-.019.321-.029.155.1,3.976-.11,4.01-.624a16.175,16.175,0,0,0,.1-2.875c-.034-.719-.308-.822-.991-.822H61.662c-.409,0-.853,0-1.263.034-.786,0-1.025.206-1.059,1.027a18.685,18.685,0,0,0-.034,1.951,2.711,2.711,0,0,0,.093.635c-.006.04-.014.082-.019.121a.361.361,0,0,1-.41.343c-.99,0-2.015.034-3-.035-.717-.034-.854-.239-.922-.958-.069-.787-.137-1.54-.2-2.328-.069-.616-.342-.89-.957-.89H51.525c-.546.034-.82.24-.888.788-.1.958-.2,1.916-.273,2.909-.034.343-.2.479-.478.479-.957.035-1.947.069-2.9.1-.922.069-1.059-.1-1.093,1.027a10.975,10.975,0,0,1-.239,2.123,1.167,1.167,0,0,1-1.025,1.061c-.444.034-.853.171-1.3.171a10.72,10.72,0,0,1-1.5-.137.468.468,0,0,1-.273-.342l0-.038a.862.862,0,0,0,.037-.137,16.186,16.186,0,0,0,.1-2.876c-.034-.719-.307-.821-.99-.821H39.366c-.444,0-.854,0-1.264.034-.785,0-1.024.2-1.058,1.027a18.41,18.41,0,0,0-.035,1.951c.035.924.376,1.438,1.127,1.506a17.758,17.758,0,0,0,2.1.013c.119.007.237.007.356.025.615.069.752.274.752.89-.034.651-.069,1.335-.137,1.986a1.458,1.458,0,0,1-1.263,1.335c-.82.1-1.64.2-2.459.239-.41,0-.479.172-.479.514-.034,1.061-.034,2.157-.1,3.218-.007.119-.014.433-.021.851a1.831,1.831,0,0,0-.6-.069H34.956c-.409,0-.853,0-1.263.034-.786,0-1.025.206-1.059,1.027a18.7,18.7,0,0,0-.034,1.952c.034.924.376,1.437,1.127,1.506a20.885,20.885,0,0,0,2.527,0,.962.962,0,0,0,.591-.2c0,.516,0,.891,0,.99.034,1.027.068,2.054.068,3.081,0,.548-.034.548-.546.582-.376.034-.786,0-1.2.034a10.71,10.71,0,0,0-1.5.171c-.614.1-.853.411-.887,1.062V91.83c0,.822.307,1.164,1.127,1.267a7.359,7.359,0,0,0,2.732,0,.439.439,0,0,0,.239-.309c.068-.616.1-1.2.136-1.814.034-.65.069-1.3.1-1.985.546,0,2.151.068,2.561.137a1.563,1.563,0,0,1,1.3,1.266,10.191,10.191,0,0,1,.137,2.054.693.693,0,0,1-.547.685,7.094,7.094,0,0,1-.888.137c-.614.034-1.263.068-1.878.137-.581.034-.683.239-.683.821.034.719.068,1.438.068,2.157,0,.821.273,1.164,1.093,1.232s1.639.069,2.459.1a.629.629,0,0,0,.717-.65v-.719c.068-.651.1-1.267.171-1.883a.777.777,0,0,1,.717-.753,4.159,4.159,0,0,1,1.947.137,1.357,1.357,0,0,1,1.093.821,5.211,5.211,0,0,1,.273,2.5,2.381,2.381,0,0,1-.282.619c-.053,0-.1,0-.162,0H43.875c-.444,0-.854,0-1.264.034-.785,0-1.024.206-1.058,1.027a18.429,18.429,0,0,0-.034,1.952c.034.924.375,1.437,1.127,1.506a20.885,20.885,0,0,0,2.527,0,.876.876,0,0,0,.922-.822,16.175,16.175,0,0,0,.1-2.875,2.039,2.039,0,0,0-.023-.228c.125-.293.354-.421.809-.421.785,0,1.605.068,2.39.136a1.135,1.135,0,0,1,.991,1.062c.068.855.136,1.745.205,2.6a.41.41,0,0,0,.375.411c.41.034.786.1,1.2.1.717,0,1.434-.034,2.151-.069.41,0,.581-.171.615-.582.068-.753.137-1.54.239-2.293a1.186,1.186,0,0,1,.922-1.13,20.713,20.713,0,0,1,2.527-.068.712.712,0,0,1,.684.442c0,.053-.011.1-.014.162a18.68,18.68,0,0,0-.034,1.951c.034.924.376,1.438,1.127,1.506a20.683,20.683,0,0,0,2.527,0,.877.877,0,0,0,.923-.821,16.281,16.281,0,0,0,.1-2.876c-.034-.719-.307-.822-.99-.822H61.587c-.326,0-.67.011-1,.028A.656.656,0,0,1,60,97.17c-.239-1.232.068-2.807,1.878-3.115.786-.137,1.742.034,1.844,1.2q.051.977.1,1.951c.034.514.239.754.751.719.888-.034,1.81-.1,2.732-.1a1.209,1.209,0,0,0,1.025-.89c.068-.48.068-.925.1-1.4,0-.513,0-1.061.034-1.575a.588.588,0,0,0-.648-.684h-.854a4.8,4.8,0,0,1-1.845-.377c-.273-.137-.409-.274-.409-.548a4.144,4.144,0,0,1,0-1.129,2.4,2.4,0,0,1,.478-1.164,3,3,0,0,1,2.459-.651.689.689,0,0,1,.58.582,6.258,6.258,0,0,1,.1,1.13V92.72c0,.308.273.685.512.685.854-.035,1.708-.069,2.561-.137s1.264-.308,1.3-.925a23.09,23.09,0,0,0,0-2.67c-.034-.513-.273-.684-.785-.719-.649-.068-1.3-.068-1.947-.1-.922-.069-1.161-.308-1.229-1.233a11.6,11.6,0,0,1,.034-1.882A1.189,1.189,0,0,1,69.967,84.538ZM53.2,93.931A26.542,26.542,0,0,1,42.765,78.408L53.1,71.431l10.545,7.084A27.751,27.751,0,0,1,53.2,93.931Z" fill="#fff"/></svg>