<?xml version="1.0" encoding="UTF-8" standalone="no"?>
<svg
   xmlns:dc="http://purl.org/dc/elements/1.1/"
   xmlns:cc="http://creativecommons.org/ns#"
   xmlns:rdf="http://www.w3.org/1999/02/22-rdf-syntax-ns#"
   xmlns:svg="http://www.w3.org/2000/svg"
   xmlns="http://www.w3.org/2000/svg"
   xmlns:sodipodi="http://sodipodi.sourceforge.net/DTD/sodipodi-0.dtd"
   xmlns:inkscape="http://www.inkscape.org/namespaces/inkscape"
   viewBox="0 0 275 164"
   version="1.1"
   id="svg5088"
   sodipodi:docname="ClearlyDefined_Full_Sticker.svg"
   inkscape:version="0.92.2 (5c3e80d, 2017-08-06)">
  <metadata
     id="metadata5094">
    <rdf:RDF>
      <cc:Work
         rdf:about="">
        <dc:format>image/svg+xml</dc:format>
        <dc:type
           rdf:resource="http://purl.org/dc/dcmitype/StillImage" />
        <dc:title>FullLogo_color_h</dc:title>
      </cc:Work>
    </rdf:RDF>
  </metadata>
  <defs
     id="defs5092" />
  <sodipodi:namedview
     pagecolor="#ffffff"
     bordercolor="#666666"
     borderopacity="1"
     objecttolerance="10"
     gridtolerance="10"
     guidetolerance="10"
     inkscape:pageopacity="0"
     inkscape:pageshadow="2"
     inkscape:window-width="2560"
     inkscape:window-height="1387"
     id="namedview5090"
     showgrid="false"
     inkscape:zoom="7.4268293"
     inkscape:cx="139.96329"
     inkscape:cy="82"
     inkscape:window-x="-8"
     inkscape:window-y="0"
     inkscape:window-maximized="1"
     inkscape:current-layer="svg5088" />
  <title
     id="title4934">FullLogo_color_h</title>
  <text
     xml:space="preserve"
     style="font-style:normal;font-weight:normal;font-size:40px;line-height:1.25;font-family:sans-serif;letter-spacing:0px;word-spacing:0px;fill:#0064b5;fill-opacity:1;stroke:none"
     x="71.632179"
     y="91.021347"
     id="text5098"><tspan
       sodipodi:role="line"
       id="tspan5096"
       x="71.632179"
       y="91.021347"
       style="font-size:24px;fill:#0064b5;fill-opacity:1"><tspan
         style="font-style:normal;font-variant:normal;font-weight:normal;font-stretch:normal;font-size:24px;font-family:Montserrat;-inkscape-font-specification:Montserrat;fill:#0064b5;fill-opacity:1"
         id="tspan5100">clearly</tspan><tspan
         id="tspan5135"
         style="font-style:normal;font-variant:normal;font-weight:600;font-stretch:normal;font-size:24px;font-family:Montserrat;-inkscape-font-specification:'Montserrat Semi-Bold';fill:#0064b5;fill-opacity:1">defined<tspan
   style="-inkscape-font-specification:Montserrat;font-family:Montserrat;font-weight:normal;font-style:normal;font-stretch:normal;font-variant:normal"
   id="tspan5137">.io</tspan></tspan></tspan></text>
  <path
     d="M 42.5625 62.085938 C 42.0245 62.119937 41.7555 62.321328 41.6875 62.861328 C 41.5865 63.804328 41.486922 64.748563 41.419922 65.726562 C 41.386922 66.063563 41.216266 66.199219 40.947266 66.199219 L 38.089844 66.298828 C 37.181844 66.365828 37.047672 66.198547 37.013672 67.310547 A 10.713 10.713 0 0 1 36.777344 69.400391 A 1.147 1.147 0 0 1 35.771484 70.445312 C 35.334484 70.479312 34.929187 70.613281 34.492188 70.613281 A 10.571 10.571 0 0 1 33.013672 70.478516 A 0.463 0.463 0 0 1 32.744141 70.142578 C 32.677141 69.602578 32.676375 69.029234 32.609375 68.490234 C 32.575375 67.984234 32.508406 67.512016 32.441406 67.041016 A 0.558 0.558 0 0 0 31.835938 66.535156 C 31.095937 66.535156 30.322828 66.500359 29.548828 66.568359 C 28.842828 66.635359 28.574813 66.905281 28.507812 67.613281 C 28.440812 68.422281 28.472656 69.197656 28.472656 69.972656 A 0.506 0.506 0 0 0 28.943359 70.546875 C 29.447359 70.611875 29.990234 70.712094 30.490234 70.746094 C 30.927234 70.779094 31.365734 70.7455 31.802734 70.8125 C 32.407734 70.8795 32.542969 71.082453 32.542969 71.689453 C 32.507969 72.329453 32.475203 73.003531 32.408203 73.644531 A 1.435 1.435 0 0 1 31.164062 74.958984 C 30.357063 75.060984 29.549187 75.162312 28.742188 75.195312 C 28.339187 75.195312 28.271484 75.364172 28.271484 75.701172 C 28.238484 76.746172 28.238875 77.824141 28.171875 78.869141 C 28.137875 79.442141 28.103516 84.469141 28.103516 84.869141 C 28.137516 85.880141 28.171875 86.893297 28.171875 87.904297 C 28.171875 88.443297 28.137812 88.442562 27.632812 88.476562 C 27.262812 88.510562 26.855078 88.477719 26.455078 88.511719 A 10.5 10.5 0 0 0 24.976562 88.679688 C 24.370562 88.781687 24.135562 89.084609 24.101562 89.724609 L 24.101562 91.375 C 24.101562 92.184 24.403938 92.521094 25.210938 92.621094 A 7.2 7.2 0 0 0 27.900391 92.621094 A 0.427 0.427 0 0 0 28.136719 92.322266 C 28.203719 91.715266 28.238484 91.142156 28.271484 90.535156 C 28.304484 89.895156 28.338094 89.254078 28.371094 88.580078 C 28.909094 88.580078 30.494531 88.647844 30.894531 88.714844 A 1.54 1.54 0 0 1 32.171875 89.962891 A 10.108 10.108 0 0 1 32.306641 91.984375 A 0.682 0.682 0 0 1 31.767578 92.658203 A 6.751 6.751 0 0 1 30.894531 92.794922 C 30.288531 92.829922 29.649922 92.861688 29.044922 92.929688 C 28.471922 92.963687 28.371094 93.165281 28.371094 93.738281 C 28.405094 94.446281 28.439453 95.153328 28.439453 95.861328 C 28.439453 96.674328 28.708625 97.007219 29.515625 97.074219 C 30.322625 97.141219 31.128547 97.142781 31.935547 97.175781 A 0.62 0.62 0 0 0 32.642578 96.535156 L 32.642578 95.826172 C 32.711578 95.185172 32.742547 94.579656 32.810547 93.972656 A 0.766 0.766 0 0 1 33.517578 93.230469 A 4.1 4.1 0 0 1 35.433594 93.365234 A 1.335 1.335 0 0 1 36.509766 94.175781 A 5.129 5.129 0 0 1 36.779297 96.636719 C 36.745297 96.836719 36.406281 97.501156 36.238281 97.535156 C 35.297281 97.636156 34.779891 97.735531 33.837891 97.769531 C 33.400891 97.769531 33.369141 97.506313 33.369141 97.945312 C 33.402141 98.787312 33.042172 99.419516 33.076172 100.22852 C 33.141172 100.90252 33.138344 101.09902 33.777344 101.16602 A 14.048 14.048 0 0 0 35.826172 101.22461 C 36.027172 101.18961 36.312109 101.19023 36.412109 100.99023 A 2.255 2.255 0 0 0 36.646484 100.05469 C 36.714484 99.447688 37.113641 98.892156 37.181641 98.285156 C 37.248641 97.644156 37.450844 97.408203 38.089844 97.408203 C 38.862844 97.408203 39.669359 97.477922 40.443359 97.544922 A 1.117 1.117 0 0 1 41.419922 98.589844 C 41.484922 99.432844 41.552141 100.30739 41.619141 101.15039 A 0.406 0.406 0 0 0 41.988281 101.55664 C 42.391281 101.58864 42.766016 101.65625 43.166016 101.65625 C 43.872016 101.65625 44.578156 101.62189 45.285156 101.58789 C 45.690156 101.58789 45.857625 101.42063 45.890625 101.01562 C 45.957625 100.27462 46.026953 99.498812 46.126953 98.757812 A 1.169 1.169 0 0 1 47.033203 97.644531 A 20.465 20.465 0 0 1 49.521484 97.576172 C 50.026484 97.610172 50.229875 97.880719 50.296875 98.386719 C 50.363875 99.161719 52.54975 97.239078 51.84375 97.205078 C 51.47375 97.171078 51.000391 97.138813 50.900391 96.632812 C 50.665391 95.418812 50.968953 93.864453 52.751953 93.564453 C 53.524953 93.430453 54.466406 93.598141 54.566406 94.744141 C 54.599073 95.384807 54.633969 96.027302 54.667969 96.667969 C 54.700969 97.175969 54.90625 97.408 55.40625 97.375 C 56.28025 97.343 57.189656 97.275391 58.097656 97.275391 A 1.188 1.188 0 0 0 59.105469 96.398438 C 59.171469 95.926437 59.171078 95.489578 59.205078 95.017578 C 59.205078 94.511578 59.206234 93.972797 59.240234 93.466797 A 0.58 0.58 0 0 0 58.601562 92.792969 L 57.759766 92.792969 A 4.727 4.727 0 0 1 55.943359 92.421875 C 55.678359 92.282875 55.544922 92.152812 55.544922 91.882812 A 4.148 4.148 0 0 1 55.544922 90.769531 A 2.368 2.368 0 0 1 56.015625 89.623047 A 2.949 2.949 0 0 1 58.4375 88.982422 A 0.676 0.676 0 0 1 59.007812 89.556641 A 6.149 6.149 0 0 1 59.107422 90.667969 L 59.107422 92.246094 C 59.107422 92.549094 59.371422 92.921875 59.607422 92.921875 C 60.447422 92.886875 61.289859 92.852156 62.130859 92.785156 C 62.971859 92.718156 63.374203 92.483953 63.408203 91.876953 A 22.847 22.847 0 0 0 63.408203 89.246094 C 63.374203 88.739094 63.139766 88.572063 62.634766 88.539062 C 61.995766 88.473063 61.355797 88.473453 60.716797 88.439453 C 59.806797 88.372453 59.574813 88.136562 59.507812 87.226562 A 11.369 11.369 0 0 1 59.539062 85.371094 A 1.172 1.172 0 0 1 60.716797 84.191406 C 61.456797 84.091406 62.230703 84.059187 62.970703 83.992188 A 0.578 0.578 0 0 0 63.542969 83.486328 C 63.576969 83.082328 63.609375 82.638281 63.609375 82.238281 C 63.609375 81.530281 63.576969 80.856437 63.542969 80.148438 A 0.468 0.468 0 0 0 63.072266 79.642578 C 62.730266 79.608578 62.430859 79.609172 62.130859 79.576172 C 61.457859 79.508172 60.818688 79.439844 60.179688 79.339844 A 0.7 0.7 0 0 1 59.507812 78.632812 C 59.473813 77.719812 59.438656 76.841641 59.472656 75.931641 C 59.472656 75.423641 59.741297 75.258609 60.279297 75.224609 C 60.985297 75.191609 61.693234 75.223047 62.365234 75.123047 C 63.004234 75.022047 63.441406 74.78725 63.441406 74.28125 L 59.242188 71.820312 C 59.207187 72.596313 59.174422 73.337281 59.107422 74.113281 C 59.040422 74.686281 58.770422 74.887516 58.232422 74.853516 A 2.507 2.507 0 0 1 57.728516 74.853516 A 9.078 9.078 0 0 1 56.080078 74.453125 A 1.517 1.517 0 0 1 55.509766 73.8125 A 4.171 4.171 0 0 1 55.240234 71.689453 A 0.831 0.831 0 0 1 55.978516 70.880859 C 56.348516 70.848859 56.686641 70.813297 57.056641 70.779297 C 57.527641 70.746297 58.030953 70.746891 58.501953 70.712891 C 58.806953 70.673891 59.107422 70.510828 59.107422 70.173828 C 59.107422 69.297161 59.074479 68.421589 59.007812 67.544922 C 58.940812 66.803922 58.603281 66.533203 57.863281 66.533203 C 57.695281 66.533203 57.494172 66.498047 57.326172 66.498047 C 56.619172 66.498047 55.913031 66.532406 55.207031 66.566406 C 55.106031 66.566406 54.9375 66.667578 54.9375 66.767578 C 54.8705 67.138578 54.836734 67.474703 54.802734 67.845703 C 54.736734 68.485703 54.703516 69.126422 54.603516 69.732422 C 54.569516 70.036422 54.464453 70.374203 54.064453 70.408203 A 9.127 9.127 0 0 1 52.71875 70.441406 A 3.84 3.84 0 0 1 51.509766 70.070312 A 1.784 1.784 0 0 1 50.634766 68.519531 C 50.600766 67.811531 50.533797 67.137891 50.466797 66.462891 C 50.869797 66.430891 51.206969 66.397281 51.542969 66.363281 L 50.425781 65.052734 C 50.391781 65.321734 50.325969 65.625531 50.292969 65.894531 A 0.356 0.356 0 0 1 49.892578 66.232422 C 48.917578 66.232422 47.908594 66.266219 46.933594 66.199219 C 46.225594 66.165219 46.092391 65.963859 46.025391 65.255859 C 45.959391 64.480859 45.891219 63.737891 45.824219 62.962891 C 45.757219 62.355891 45.488813 62.085938 44.882812 62.085938 L 42.5625 62.085938 z M 44.304688 70.869141 L 53.261719 76.162109 L 53.230469 86.65625 L 44.208984 91.886719 L 35.251953 86.591797 L 35.283203 76.070312 L 44.304688 70.869141 z "
     id="path4962"
     style="fill:#0064b5;fill-opacity:1" />
  <g
     opacity="0.8"
     id="g4966">
    <path
       d="M28.2,74.532a.972.972,0,0,1-.841.516A25.532,25.532,0,0,1,24.6,74.82a.617.617,0,0,1-.471-.607c-.034-.64-.067-1.314-.067-1.955A1.15,1.15,0,0,1,25.3,71.011c.673-.034,1.345-.034,1.984-.034.5,0,.74.236.808.742A26.436,26.436,0,0,1,28.2,74.532Z"
       fill="#38a038"
       id="path4964" />
  </g>
  <g
     opacity="0.8"
     id="g4970">
    <path
       d="M34.957,62.082c.4.034.807.068,1.211.068a.614.614,0,0,1,.605.472,18.3,18.3,0,0,1,.241,2.909.822.822,0,0,1-.673.793c-.687-.011-1.379-.036-2.09-.062a2.134,2.134,0,0,1-.908-.236.7.7,0,0,1-.437-.741c0-.675.033-1.349.067-1.989A1.1,1.1,0,0,1,34.15,62.15c.235-.034.505-.034.807-.068Z"
       fill="#38a038"
       id="path4968" />
  </g>
  <g
     opacity="0.8"
     id="g4974">
    <path
       d="M63.781,84.6a.336.336,0,0,1,.2-.27,10.054,10.054,0,0,1,1.412-.135,11.409,11.409,0,0,1,1.413.135.923.923,0,0,1,.941.843,4.493,4.493,0,0,1-.134,2.494.8.8,0,0,1-.5.438,23.756,23.756,0,0,1-2.69.135.667.667,0,0,1-.639-.741C63.747,87.025,63.747,85.1,63.781,84.6Z"
       fill="#38a038"
       id="path4972" />
  </g>
  <g
     opacity="0.8"
     id="g4978">
    <path
       d="M65.729,75.43h.807c.807.034,1.076.2,1.211,1.012a3.779,3.779,0,0,1-.135,2.359c-.1.169-.269.405-.437.438a6.473,6.473,0,0,1-2.792.135c-.5-.1-.6-.236-.6-.775V76.374c0-.708.135-.843.807-.944.1,0,.168-.033.269-.033a7.756,7.756,0,0,1,.875.033Z"
       fill="#38a038"
       id="path4976" />
  </g>
  <g
     opacity="0.8"
     id="g4982">
    <path
       d="M48.208,106c-.4-.034-.773-.067-1.177-.135a.751.751,0,0,1-.672-.674,24.818,24.818,0,0,1-.2-2.731.551.551,0,0,1,.673-.573c.807.034,1.614-.033,2.421,0,.74.068.975.337.942,1.113a13.965,13.965,0,0,1-.068,1.685c-.067.91-.5,1.281-1.412,1.281A2.7,2.7,0,0,0,48.208,106Z"
       fill="#38a038"
       id="path4980" />
  </g>
  <g
     opacity="0.8"
     id="g4986">
    <path
       d="M41.383,103.611c-.033.438-.033.876-.1,1.315a1.14,1.14,0,0,1-1.144,1.045,11.574,11.574,0,0,1-1.513,0,1.08,1.08,0,0,1-1.177-1.18c-.034-.472-.068-.978-.068-1.45a3.9,3.9,0,0,1,.236-1.045c.134-.371.5-.337.807-.371.706-.033,1.446-.033,2.186-.033a.762.762,0,0,1,.773.775,8.125,8.125,0,0,1,0,.91C41.35,103.611,41.383,103.611,41.383,103.611Z"
       fill="#38a038"
       id="path4984" />
  </g>
  <g
     opacity="0.8"
     id="g4990">
    <path
       d="M63.443,99.6v.708c-.034.708-.269,1.113-.975,1.18a11.024,11.024,0,0,1-2.355-.135c-.168-.033-.47-.3-.47-.472a14.637,14.637,0,0,1-.135-2.427c.034-.674.336-.843,1.009-.876a16.453,16.453,0,0,1,1.816.067,1.13,1.13,0,0,1,1.076,1.18A5.919,5.919,0,0,1,63.443,99.6Z"
       fill="#38a038"
       id="path4988" />
  </g>
  <g
     opacity="0.8"
     id="g4994">
    <path
       d="M65.868,70.44H65.1c-.639-.034-1.009-.236-1.043-.877a10.781,10.781,0,0,1,.067-2.326.848.848,0,0,1,.875-.707c.639,0,1.311,0,1.95.033a.74.74,0,0,1,.774.674,5.366,5.366,0,0,1,0,2.529.789.789,0,0,1-.74.64,6.061,6.061,0,0,1-1.11.034Z"
       fill="#38a038"
       id="path4992" />
  </g>
  <g
     opacity="0.8"
     id="g4998">
    <path
       d="M28.031,99.561c-.034.371-.034.708-.1,1.079-.168.674-.4.876-1.076.91a12.262,12.262,0,0,1-1.581,0A1.116,1.116,0,0,1,24.1,100.3c-.034-.472,0-.978,0-1.45a1.124,1.124,0,0,1,1.143-1.18,13.726,13.726,0,0,1,1.648,0,1.133,1.133,0,0,1,1.144,1.214A4.454,4.454,0,0,0,28.031,99.561Z"
       fill="#38a038"
       id="path4996" />
  </g>
  <g
     opacity="0.8"
     id="g5002">
    <path
       d="M28,64.071a6.067,6.067,0,0,1,0,.775,1.175,1.175,0,0,1-1.244,1.214H25.338a1.141,1.141,0,0,1-1.211-1.18,12.146,12.146,0,0,1,0-1.55A1.151,1.151,0,0,1,25.3,62.15a10.747,10.747,0,0,1,1.48,0A1.168,1.168,0,0,1,28,63.431,4.117,4.117,0,0,1,28,64.071Z"
       fill="#38a038"
       id="path5000" />
  </g>
  <g
     opacity="0.8"
     id="g5006">
    <path
       d="M57.021,105.971h-.74a1.043,1.043,0,0,1-1.143-1.078,13.545,13.545,0,0,1,.134-2.326.592.592,0,0,1,.438-.4,15.165,15.165,0,0,1,2.152-.067c.774.033,1.11.438,1.144,1.213v1.382a1.185,1.185,0,0,1-1.278,1.281Z"
       fill="#38a038"
       id="path5004" />
  </g>
  <g
     opacity="0.8"
     id="g5010">
    <path
       d="M19.99,86.252v-1.18c0-.371.135-.641.505-.641a13.084,13.084,0,0,1,1.984-.033c1.043.067,1.11.168,1.11,1.213q0,1.062-.1,2.124c-.034.337-.235.472-.572.506-.706.033-1.446.067-2.152.033-.639-.033-.807-.236-.807-.876v-.573A3.547,3.547,0,0,0,19.99,86.252Z"
       fill="#38a038"
       id="path5008" />
  </g>
  <g
     opacity="0.8"
     id="g5014">
    <path
       d="M48.176,58h1.076c.606,0,.875.169.909.775a17.08,17.08,0,0,1-.1,2.259c-.034.371-.337.539-.841.573-.706.034-1.413.034-2.153,0a.639.639,0,0,1-.739-.674,6.562,6.562,0,0,1,.067-2.562c.067-.27.235-.371.538-.371Z"
       fill="#38a038"
       id="path5012" />
  </g>
  <g
     opacity="0.8"
     id="g5018">
    <path
       d="M19.992,77.382V76.1c0-.337.134-.573.471-.607a4.691,4.691,0,0,1,2.724.169.635.635,0,0,1,.336.438c.034.809.1,1.618.067,2.427-.033.573-.269.775-.807.809-.639.034-1.278.034-1.917.034s-.84-.236-.84-.877C19.992,78.124,19.992,77.753,19.992,77.382Z"
       fill="#38a038"
       id="path5016" />
  </g>
  <g
     opacity="0.8"
     id="g5022">
    <path
       d="M39.331,58h1.21c.438,0,.673.135.673.573.034.843,0,1.686-.034,2.528-.033.405-.437.506-.74.506a19.385,19.385,0,0,1-2.421-.067.611.611,0,0,1-.437-.338,5.27,5.27,0,0,1-.135-2.8c.034-.3.236-.405.538-.405Z"
       fill="#38a038"
       id="path5020" />
  </g>
  <g
     opacity="0.8"
     id="g5026">
    <path
       d="M19.99,95.117V93.9c0-.3.1-.472.37-.54a4.2,4.2,0,0,1,2.724.1.648.648,0,0,1,.37.506,18.731,18.731,0,0,1,0,2.393.928.928,0,0,1-.47.607,4.513,4.513,0,0,1-2.59.1.557.557,0,0,1-.437-.606C19.99,95.994,19.99,95.555,19.99,95.117Z"
       fill="#38a038"
       id="path5024" />
  </g>
  <g
     opacity="0.8"
     id="g5030">
    <path
       d="M57.054,58H58.13c.572,0,.774.067.807.64A12.642,12.642,0,0,1,58.87,60.9a.705.705,0,0,1-.74.641,14.509,14.509,0,0,1-2.085,0c-.605-.034-.908-.439-.908-1.18-.034-.506,0-1.012,0-1.517.034-.641.236-.809.875-.809A10.326,10.326,0,0,1,57.054,58Z"
       fill="#38a038"
       id="path5028" />
  </g>
  <g
     opacity="0.7"
     id="g5072">
    <g
       opacity="0.7"
       id="g5034">
      <path
         d="M45.754,64.942h1.009c.505,0,.706.067.74.573a11,11,0,0,1-.067,2.09.672.672,0,0,1-.707.607,12.256,12.256,0,0,1-1.916,0c-.572-.034-.841-.405-.841-1.113V65.683c.033-.607.2-.741.807-.741Z"
         fill="#00b294"
         id="path5032" />
    </g>
    <g
       opacity="0.7"
       id="g5038">
      <path
         d="M37.681,68.216H38.69c.505,0,.706.067.74.573a11,11,0,0,1-.067,2.09.671.671,0,0,1-.706.607,12.268,12.268,0,0,1-1.917,0c-.572-.034-.841-.405-.841-1.113V68.958c.033-.607.2-.742.807-.742Z"
         fill="#00b294"
         id="path5036" />
    </g>
    <g
       opacity="0.7"
       id="g5042">
      <path
         d="M30.668,76.942h1.009c.5,0,.706.068.74.573a10.915,10.915,0,0,1-.068,2.09.671.671,0,0,1-.706.607,12.147,12.147,0,0,1-1.917,0c-.572-.034-.841-.4-.841-1.112V77.684c.034-.607.2-.742.808-.742Z"
         fill="#00b294"
         id="path5040" />
    </g>
    <g
       opacity="0.7"
       id="g5046">
      <path
         d="M30.97,84.286h1.009c.505,0,.706.067.74.573a11,11,0,0,1-.067,2.09.672.672,0,0,1-.707.607,12.268,12.268,0,0,1-1.917,0c-.571-.034-.84-.405-.84-1.113V85.027c.033-.606.2-.741.807-.741Z"
         fill="#00b294"
         id="path5044" />
    </g>
    <g
       opacity="0.7"
       id="g5050">
      <path
         d="M37.681,90.432H38.69c.505,0,.706.068.74.573a11,11,0,0,1-.067,2.09.671.671,0,0,1-.706.607,12.147,12.147,0,0,1-1.917,0c-.572-.034-.841-.4-.841-1.112V91.174c.033-.607.2-.742.807-.742Z"
         fill="#00b294"
         id="path5048" />
    </g>
    <g
       opacity="0.7"
       id="g5054">
      <path
         d="M42.087,93.9H43.1c.5,0,.706.068.739.573a10.913,10.913,0,0,1-.067,2.09.671.671,0,0,1-.706.607,12.147,12.147,0,0,1-1.917,0c-.572-.034-.841-.4-.841-1.112V94.645c.034-.607.2-.742.807-.742Z"
         fill="#00b294"
         id="path5052" />
    </g>
    <g
       opacity="0.7"
       id="g5058">
      <path
         d="M51,90.193h1.009c.5,0,.706.068.739.573a10.921,10.921,0,0,1-.067,2.091.671.671,0,0,1-.706.606,12.029,12.029,0,0,1-1.917,0c-.572-.033-.841-.4-.841-1.112V90.935c.034-.607.2-.742.807-.742Z"
         fill="#00b294"
         id="path5056" />
    </g>
    <g
       opacity="0.7"
       id="g5062">
      <path
         d="M56.884,79.373h1.008c.5,0,.707.068.74.573a10.913,10.913,0,0,1-.067,2.09.671.671,0,0,1-.706.607,12.147,12.147,0,0,1-1.917,0c-.572-.034-.841-.4-.841-1.112V80.115c.034-.607.2-.742.807-.742Z"
         fill="#00b294"
         id="path5060" />
    </g>
    <g
       opacity="0.7"
       id="g5066">
      <path
         d="M53.926,69.059h1.008c.505,0,.707.067.74.573a10.913,10.913,0,0,1-.067,2.09.671.671,0,0,1-.706.607,12.147,12.147,0,0,1-1.917,0c-.572-.034-.841-.4-.841-1.113V69.8c.034-.607.2-.742.807-.742Z"
         fill="#00b294"
         id="path5064" />
    </g>
    <g
       opacity="0.7"
       id="g5070">
      <path
         d="M58.029,85.373h1.009c.5,0,.706.068.739.574a10.913,10.913,0,0,1-.067,2.09.671.671,0,0,1-.706.606,12.029,12.029,0,0,1-1.917,0c-.572-.033-.841-.4-.841-1.112V86.115c.034-.607.2-.742.807-.742Z"
         fill="#00b294"
         id="path5068" />
    </g>
  </g>
  <path
     d="M30.589,66.326H31.9c.672,0,.941.1.975.809a15.975,15.975,0,0,1-.1,2.832.863.863,0,0,1-.908.809,20.667,20.667,0,0,1-2.489,0c-.74-.068-1.076-.573-1.11-1.484a18.381,18.381,0,0,1,.034-1.921c.034-.809.269-1.011,1.043-1.011C29.748,66.326,30.152,66.326,30.589,66.326Z"
     fill="#5ecff1"
     id="path5074" />
  <path
     d="M52.545,62.18h1.312c.673,0,.942.1.975.81a15.873,15.873,0,0,1-.1,2.831.862.862,0,0,1-.908.809,20.246,20.246,0,0,1-2.488,0c-.74-.067-1.076-.573-1.11-1.483a18.129,18.129,0,0,1,.034-1.922c.033-.809.269-1.011,1.042-1.011C51.705,62.18,52.142,62.18,52.545,62.18Z"
     fill="#5ecff1"
     id="path5076" />
  <path
     d="M52.471,97.129h1.311c.673,0,.942.1.976.809a15.964,15.964,0,0,1-.1,2.831.863.863,0,0,1-.908.809,20.262,20.262,0,0,1-2.489,0c-.74-.067-1.076-.573-1.11-1.483a18.381,18.381,0,0,1,.034-1.921c.034-.809.269-1.012,1.042-1.012C51.63,97.129,52.067,97.129,52.471,97.129Z"
     fill="#5ecff1"
     id="path5078" />
  <path
     d="M35.029,97.241h1.312c.673,0,.942.1.975.809a15.873,15.873,0,0,1-.1,2.831.862.862,0,0,1-.908.809,20.246,20.246,0,0,1-2.488,0c-.74-.067-1.077-.573-1.11-1.483a18.38,18.38,0,0,1,.033-1.921c.034-.809.27-1.012,1.043-1.012C34.189,97.241,34.592,97.241,35.029,97.241Z"
     fill="#5ecff1"
     id="path5080" />
  <path
     d="M26.247,79.64h1.311c.673,0,.942.1.976.809a15.975,15.975,0,0,1-.1,2.832.863.863,0,0,1-.908.809,20.463,20.463,0,0,1-2.489,0c-.74-.067-1.076-.573-1.11-1.483a18.4,18.4,0,0,1,.034-1.922c.034-.809.269-1.011,1.042-1.011C25.406,79.64,25.843,79.64,26.247,79.64Z"
     fill="#5ecff1"
     id="path5082" />
  <path
     d="M61.223,70.879h1.311c.673,0,.942.1.975.809a15.96,15.96,0,0,1-.1,2.831.864.864,0,0,1-.909.81,20.651,20.651,0,0,1-2.488,0c-.74-.068-1.076-.574-1.11-1.484a18.111,18.111,0,0,1,.034-1.921c.033-.809.269-1.011,1.042-1.011C60.382,70.879,60.785,70.879,61.223,70.879Z"
     fill="#5ecff1"
     id="path5086" />
  <text
     id="text5147"
     y="91.021347"
     x="71.632179"
     style="font-style:normal;font-weight:normal;font-size:40px;line-height:1.25;font-family:sans-serif;letter-spacing:0px;word-spacing:0px;fill:#0064b5;fill-opacity:1;stroke:none"
     xml:space="preserve"><tspan
       style="font-size:24px;fill:#0064b5;fill-opacity:1"
       y="91.021347"
       x="71.632179"
       id="tspan5145"
       sodipodi:role="line"><tspan
         id="tspan5139"
         style="font-style:normal;font-variant:normal;font-weight:normal;font-stretch:normal;font-size:24px;font-family:Montserrat;-inkscape-font-specification:Montserrat;fill:#0064b5;fill-opacity:1">clearly</tspan><tspan
         style="font-style:normal;font-variant:normal;font-weight:600;font-stretch:normal;font-size:24px;font-family:Montserrat;-inkscape-font-specification:'Montserrat Semi-Bold';fill:#0064b5;fill-opacity:1"
         id="tspan5143">defined<tspan
   id="tspan5141"
   style="-inkscape-font-specification:Montserrat;font-family:Montserrat;font-weight:normal;font-style:normal;font-stretch:normal;font-variant:normal">.io</tspan></tspan></tspan></text>
  <path
     style="fill:#0064b5;fill-opacity:1"
     id="path5149"
     d="M 42.5625 62.085938 C 42.0245 62.119937 41.7555 62.321328 41.6875 62.861328 C 41.5865 63.804328 41.486922 64.748563 41.419922 65.726562 C 41.386922 66.063563 41.216266 66.199219 40.947266 66.199219 L 38.089844 66.298828 C 37.181844 66.365828 37.047672 66.198547 37.013672 67.310547 A 10.713 10.713 0 0 1 36.777344 69.400391 A 1.147 1.147 0 0 1 35.771484 70.445312 C 35.334484 70.479312 34.929187 70.613281 34.492188 70.613281 A 10.571 10.571 0 0 1 33.013672 70.478516 A 0.463 0.463 0 0 1 32.744141 70.142578 C 32.677141 69.602578 32.676375 69.029234 32.609375 68.490234 C 32.575375 67.984234 32.508406 67.512016 32.441406 67.041016 A 0.558 0.558 0 0 0 31.835938 66.535156 C 31.095937 66.535156 30.322828 66.500359 29.548828 66.568359 C 28.842828 66.635359 28.574813 66.905281 28.507812 67.613281 C 28.440812 68.422281 28.472656 69.197656 28.472656 69.972656 A 0.506 0.506 0 0 0 28.943359 70.546875 C 29.447359 70.611875 29.990234 70.712094 30.490234 70.746094 C 30.927234 70.779094 31.365734 70.7455 31.802734 70.8125 C 32.407734 70.8795 32.542969 71.082453 32.542969 71.689453 C 32.507969 72.329453 32.475203 73.003531 32.408203 73.644531 A 1.435 1.435 0 0 1 31.164062 74.958984 C 30.357063 75.060984 29.549187 75.162312 28.742188 75.195312 C 28.339187 75.195312 28.271484 75.364172 28.271484 75.701172 C 28.238484 76.746172 28.238875 77.824141 28.171875 78.869141 C 28.137875 79.442141 28.103516 84.469141 28.103516 84.869141 C 28.137516 85.880141 28.171875 86.893297 28.171875 87.904297 C 28.171875 88.443297 28.137812 88.442562 27.632812 88.476562 C 27.262812 88.510562 26.855078 88.477719 26.455078 88.511719 A 10.5 10.5 0 0 0 24.976562 88.679688 C 24.370562 88.781687 24.135562 89.084609 24.101562 89.724609 L 24.101562 91.375 C 24.101562 92.184 24.403938 92.521094 25.210938 92.621094 A 7.2 7.2 0 0 0 27.900391 92.621094 A 0.427 0.427 0 0 0 28.136719 92.322266 C 28.203719 91.715266 28.238484 91.142156 28.271484 90.535156 C 28.304484 89.895156 28.338094 89.254078 28.371094 88.580078 C 28.909094 88.580078 30.494531 88.647844 30.894531 88.714844 A 1.54 1.54 0 0 1 32.171875 89.962891 A 10.108 10.108 0 0 1 32.306641 91.984375 A 0.682 0.682 0 0 1 31.767578 92.658203 A 6.751 6.751 0 0 1 30.894531 92.794922 C 30.288531 92.829922 29.649922 92.861688 29.044922 92.929688 C 28.471922 92.963687 28.371094 93.165281 28.371094 93.738281 C 28.405094 94.446281 28.439453 95.153328 28.439453 95.861328 C 28.439453 96.674328 28.708625 97.007219 29.515625 97.074219 C 30.322625 97.141219 31.128547 97.142781 31.935547 97.175781 A 0.62 0.62 0 0 0 32.642578 96.535156 L 32.642578 95.826172 C 32.711578 95.185172 32.742547 94.579656 32.810547 93.972656 A 0.766 0.766 0 0 1 33.517578 93.230469 A 4.1 4.1 0 0 1 35.433594 93.365234 A 1.335 1.335 0 0 1 36.509766 94.175781 A 5.129 5.129 0 0 1 36.779297 96.636719 C 36.745297 96.836719 36.406281 97.501156 36.238281 97.535156 C 35.297281 97.636156 34.779891 97.735531 33.837891 97.769531 C 33.400891 97.769531 33.369141 97.506313 33.369141 97.945312 C 33.402141 98.787312 33.042172 99.419516 33.076172 100.22852 C 33.141172 100.90252 33.138344 101.09902 33.777344 101.16602 A 14.048 14.048 0 0 0 35.826172 101.22461 C 36.027172 101.18961 36.312109 101.19023 36.412109 100.99023 A 2.255 2.255 0 0 0 36.646484 100.05469 C 36.714484 99.447688 37.113641 98.892156 37.181641 98.285156 C 37.248641 97.644156 37.450844 97.408203 38.089844 97.408203 C 38.862844 97.408203 39.669359 97.477922 40.443359 97.544922 A 1.117 1.117 0 0 1 41.419922 98.589844 C 41.484922 99.432844 41.552141 100.30739 41.619141 101.15039 A 0.406 0.406 0 0 0 41.988281 101.55664 C 42.391281 101.58864 42.766016 101.65625 43.166016 101.65625 C 43.872016 101.65625 44.578156 101.62189 45.285156 101.58789 C 45.690156 101.58789 45.857625 101.42063 45.890625 101.01562 C 45.957625 100.27462 46.026953 99.498812 46.126953 98.757812 A 1.169 1.169 0 0 1 47.033203 97.644531 A 20.465 20.465 0 0 1 49.521484 97.576172 C 50.026484 97.610172 50.229875 97.880719 50.296875 98.386719 C 50.363875 99.161719 52.54975 97.239078 51.84375 97.205078 C 51.47375 97.171078 51.000391 97.138813 50.900391 96.632812 C 50.665391 95.418812 50.968953 93.864453 52.751953 93.564453 C 53.524953 93.430453 54.466406 93.598141 54.566406 94.744141 C 54.599073 95.384807 54.633969 96.027302 54.667969 96.667969 C 54.700969 97.175969 54.90625 97.408 55.40625 97.375 C 56.28025 97.343 57.189656 97.275391 58.097656 97.275391 A 1.188 1.188 0 0 0 59.105469 96.398438 C 59.171469 95.926437 59.171078 95.489578 59.205078 95.017578 C 59.205078 94.511578 59.206234 93.972797 59.240234 93.466797 A 0.58 0.58 0 0 0 58.601562 92.792969 L 57.759766 92.792969 A 4.727 4.727 0 0 1 55.943359 92.421875 C 55.678359 92.282875 55.544922 92.152812 55.544922 91.882812 A 4.148 4.148 0 0 1 55.544922 90.769531 A 2.368 2.368 0 0 1 56.015625 89.623047 A 2.949 2.949 0 0 1 58.4375 88.982422 A 0.676 0.676 0 0 1 59.007812 89.556641 A 6.149 6.149 0 0 1 59.107422 90.667969 L 59.107422 92.246094 C 59.107422 92.549094 59.371422 92.921875 59.607422 92.921875 C 60.447422 92.886875 61.289859 92.852156 62.130859 92.785156 C 62.971859 92.718156 63.374203 92.483953 63.408203 91.876953 A 22.847 22.847 0 0 0 63.408203 89.246094 C 63.374203 88.739094 63.139766 88.572063 62.634766 88.539062 C 61.995766 88.473063 61.355797 88.473453 60.716797 88.439453 C 59.806797 88.372453 59.574813 88.136562 59.507812 87.226562 A 11.369 11.369 0 0 1 59.539062 85.371094 A 1.172 1.172 0 0 1 60.716797 84.191406 C 61.456797 84.091406 62.230703 84.059187 62.970703 83.992188 A 0.578 0.578 0 0 0 63.542969 83.486328 C 63.576969 83.082328 63.609375 82.638281 63.609375 82.238281 C 63.609375 81.530281 63.576969 80.856437 63.542969 80.148438 A 0.468 0.468 0 0 0 63.072266 79.642578 C 62.730266 79.608578 62.430859 79.609172 62.130859 79.576172 C 61.457859 79.508172 60.818688 79.439844 60.179688 79.339844 A 0.7 0.7 0 0 1 59.507812 78.632812 C 59.473813 77.719812 59.438656 76.841641 59.472656 75.931641 C 59.472656 75.423641 59.741297 75.258609 60.279297 75.224609 C 60.985297 75.191609 61.693234 75.223047 62.365234 75.123047 C 63.004234 75.022047 63.441406 74.78725 63.441406 74.28125 L 59.242188 71.820312 C 59.207187 72.596313 59.174422 73.337281 59.107422 74.113281 C 59.040422 74.686281 58.770422 74.887516 58.232422 74.853516 A 2.507 2.507 0 0 1 57.728516 74.853516 A 9.078 9.078 0 0 1 56.080078 74.453125 A 1.517 1.517 0 0 1 55.509766 73.8125 A 4.171 4.171 0 0 1 55.240234 71.689453 A 0.831 0.831 0 0 1 55.978516 70.880859 C 56.348516 70.848859 56.686641 70.813297 57.056641 70.779297 C 57.527641 70.746297 58.030953 70.746891 58.501953 70.712891 C 58.806953 70.673891 59.107422 70.510828 59.107422 70.173828 C 59.107422 69.297161 59.074479 68.421589 59.007812 67.544922 C 58.940812 66.803922 58.603281 66.533203 57.863281 66.533203 C 57.695281 66.533203 57.494172 66.498047 57.326172 66.498047 C 56.619172 66.498047 55.913031 66.532406 55.207031 66.566406 C 55.106031 66.566406 54.9375 66.667578 54.9375 66.767578 C 54.8705 67.138578 54.836734 67.474703 54.802734 67.845703 C 54.736734 68.485703 54.703516 69.126422 54.603516 69.732422 C 54.569516 70.036422 54.464453 70.374203 54.064453 70.408203 A 9.127 9.127 0 0 1 52.71875 70.441406 A 3.84 3.84 0 0 1 51.509766 70.070312 A 1.784 1.784 0 0 1 50.634766 68.519531 C 50.600766 67.811531 50.533797 67.137891 50.466797 66.462891 C 50.869797 66.430891 51.206969 66.397281 51.542969 66.363281 L 50.425781 65.052734 C 50.391781 65.321734 50.325969 65.625531 50.292969 65.894531 A 0.356 0.356 0 0 1 49.892578 66.232422 C 48.917578 66.232422 47.908594 66.266219 46.933594 66.199219 C 46.225594 66.165219 46.092391 65.963859 46.025391 65.255859 C 45.959391 64.480859 45.891219 63.737891 45.824219 62.962891 C 45.757219 62.355891 45.488813 62.085938 44.882812 62.085938 L 42.5625 62.085938 z M 44.304688 70.869141 L 53.261719 76.162109 L 53.230469 86.65625 L 44.208984 91.886719 L 35.251953 86.591797 L 35.283203 76.070312 L 44.304688 70.869141 z " />
  <g
     id="g5153"
     opacity="0.8">
    <path
       id="path5151"
       d="M28.2,74.532a.972.972,0,0,1-.841.516A25.532,25.532,0,0,1,24.6,74.82a.617.617,0,0,1-.471-.607c-.034-.64-.067-1.314-.067-1.955A1.15,1.15,0,0,1,25.3,71.011c.673-.034,1.345-.034,1.984-.034.5,0,.74.236.808.742A26.436,26.436,0,0,1,28.2,74.532Z"
       fill="#38a038" />
  </g>
  <g
     id="g5157"
     opacity="0.8">
    <path
       id="path5155"
       d="M34.957,62.082c.4.034.807.068,1.211.068a.614.614,0,0,1,.605.472,18.3,18.3,0,0,1,.241,2.909.822.822,0,0,1-.673.793c-.687-.011-1.379-.036-2.09-.062a2.134,2.134,0,0,1-.908-.236.7.7,0,0,1-.437-.741c0-.675.033-1.349.067-1.989A1.1,1.1,0,0,1,34.15,62.15c.235-.034.505-.034.807-.068Z"
       fill="#38a038" />
  </g>
  <g
     id="g5161"
     opacity="0.8">
    <path
       id="path5159"
       d="M63.781,84.6a.336.336,0,0,1,.2-.27,10.054,10.054,0,0,1,1.412-.135,11.409,11.409,0,0,1,1.413.135.923.923,0,0,1,.941.843,4.493,4.493,0,0,1-.134,2.494.8.8,0,0,1-.5.438,23.756,23.756,0,0,1-2.69.135.667.667,0,0,1-.639-.741C63.747,87.025,63.747,85.1,63.781,84.6Z"
       fill="#38a038" />
  </g>
  <g
     id="g5165"
     opacity="0.8">
    <path
       id="path5163"
       d="M65.729,75.43h.807c.807.034,1.076.2,1.211,1.012a3.779,3.779,0,0,1-.135,2.359c-.1.169-.269.405-.437.438a6.473,6.473,0,0,1-2.792.135c-.5-.1-.6-.236-.6-.775V76.374c0-.708.135-.843.807-.944.1,0,.168-.033.269-.033a7.756,7.756,0,0,1,.875.033Z"
       fill="#38a038" />
  </g>
  <g
     id="g5169"
     opacity="0.8">
    <path
       id="path5167"
       d="M48.208,106c-.4-.034-.773-.067-1.177-.135a.751.751,0,0,1-.672-.674,24.818,24.818,0,0,1-.2-2.731.551.551,0,0,1,.673-.573c.807.034,1.614-.033,2.421,0,.74.068.975.337.942,1.113a13.965,13.965,0,0,1-.068,1.685c-.067.91-.5,1.281-1.412,1.281A2.7,2.7,0,0,0,48.208,106Z"
       fill="#38a038" />
  </g>
  <g
     id="g5173"
     opacity="0.8">
    <path
       id="path5171"
       d="M41.383,103.611c-.033.438-.033.876-.1,1.315a1.14,1.14,0,0,1-1.144,1.045,11.574,11.574,0,0,1-1.513,0,1.08,1.08,0,0,1-1.177-1.18c-.034-.472-.068-.978-.068-1.45a3.9,3.9,0,0,1,.236-1.045c.134-.371.5-.337.807-.371.706-.033,1.446-.033,2.186-.033a.762.762,0,0,1,.773.775,8.125,8.125,0,0,1,0,.91C41.35,103.611,41.383,103.611,41.383,103.611Z"
       fill="#38a038" />
  </g>
  <g
     id="g5177"
     opacity="0.8">
    <path
       id="path5175"
       d="M63.443,99.6v.708c-.034.708-.269,1.113-.975,1.18a11.024,11.024,0,0,1-2.355-.135c-.168-.033-.47-.3-.47-.472a14.637,14.637,0,0,1-.135-2.427c.034-.674.336-.843,1.009-.876a16.453,16.453,0,0,1,1.816.067,1.13,1.13,0,0,1,1.076,1.18A5.919,5.919,0,0,1,63.443,99.6Z"
       fill="#38a038" />
  </g>
  <g
     id="g5181"
     opacity="0.8">
    <path
       id="path5179"
       d="M65.868,70.44H65.1c-.639-.034-1.009-.236-1.043-.877a10.781,10.781,0,0,1,.067-2.326.848.848,0,0,1,.875-.707c.639,0,1.311,0,1.95.033a.74.74,0,0,1,.774.674,5.366,5.366,0,0,1,0,2.529.789.789,0,0,1-.74.64,6.061,6.061,0,0,1-1.11.034Z"
       fill="#38a038" />
  </g>
  <g
     id="g5185"
     opacity="0.8">
    <path
       id="path5183"
       d="M28.031,99.561c-.034.371-.034.708-.1,1.079-.168.674-.4.876-1.076.91a12.262,12.262,0,0,1-1.581,0A1.116,1.116,0,0,1,24.1,100.3c-.034-.472,0-.978,0-1.45a1.124,1.124,0,0,1,1.143-1.18,13.726,13.726,0,0,1,1.648,0,1.133,1.133,0,0,1,1.144,1.214A4.454,4.454,0,0,0,28.031,99.561Z"
       fill="#38a038" />
  </g>
  <g
     id="g5189"
     opacity="0.8">
    <path
       id="path5187"
       d="M28,64.071a6.067,6.067,0,0,1,0,.775,1.175,1.175,0,0,1-1.244,1.214H25.338a1.141,1.141,0,0,1-1.211-1.18,12.146,12.146,0,0,1,0-1.55A1.151,1.151,0,0,1,25.3,62.15a10.747,10.747,0,0,1,1.48,0A1.168,1.168,0,0,1,28,63.431,4.117,4.117,0,0,1,28,64.071Z"
       fill="#38a038" />
  </g>
  <g
     id="g5193"
     opacity="0.8">
    <path
       id="path5191"
       d="M57.021,105.971h-.74a1.043,1.043,0,0,1-1.143-1.078,13.545,13.545,0,0,1,.134-2.326.592.592,0,0,1,.438-.4,15.165,15.165,0,0,1,2.152-.067c.774.033,1.11.438,1.144,1.213v1.382a1.185,1.185,0,0,1-1.278,1.281Z"
       fill="#38a038" />
  </g>
  <g
     id="g5197"
     opacity="0.8">
    <path
       id="path5195"
       d="M19.99,86.252v-1.18c0-.371.135-.641.505-.641a13.084,13.084,0,0,1,1.984-.033c1.043.067,1.11.168,1.11,1.213q0,1.062-.1,2.124c-.034.337-.235.472-.572.506-.706.033-1.446.067-2.152.033-.639-.033-.807-.236-.807-.876v-.573A3.547,3.547,0,0,0,19.99,86.252Z"
       fill="#38a038" />
  </g>
  <g
     id="g5201"
     opacity="0.8">
    <path
       id="path5199"
       d="M48.176,58h1.076c.606,0,.875.169.909.775a17.08,17.08,0,0,1-.1,2.259c-.034.371-.337.539-.841.573-.706.034-1.413.034-2.153,0a.639.639,0,0,1-.739-.674,6.562,6.562,0,0,1,.067-2.562c.067-.27.235-.371.538-.371Z"
       fill="#38a038" />
  </g>
  <g
     id="g5205"
     opacity="0.8">
    <path
       id="path5203"
       d="M19.992,77.382V76.1c0-.337.134-.573.471-.607a4.691,4.691,0,0,1,2.724.169.635.635,0,0,1,.336.438c.034.809.1,1.618.067,2.427-.033.573-.269.775-.807.809-.639.034-1.278.034-1.917.034s-.84-.236-.84-.877C19.992,78.124,19.992,77.753,19.992,77.382Z"
       fill="#38a038" />
  </g>
  <g
     id="g5209"
     opacity="0.8">
    <path
       id="path5207"
       d="M39.331,58h1.21c.438,0,.673.135.673.573.034.843,0,1.686-.034,2.528-.033.405-.437.506-.74.506a19.385,19.385,0,0,1-2.421-.067.611.611,0,0,1-.437-.338,5.27,5.27,0,0,1-.135-2.8c.034-.3.236-.405.538-.405Z"
       fill="#38a038" />
  </g>
  <g
     id="g5213"
     opacity="0.8">
    <path
       id="path5211"
       d="M19.99,95.117V93.9c0-.3.1-.472.37-.54a4.2,4.2,0,0,1,2.724.1.648.648,0,0,1,.37.506,18.731,18.731,0,0,1,0,2.393.928.928,0,0,1-.47.607,4.513,4.513,0,0,1-2.59.1.557.557,0,0,1-.437-.606C19.99,95.994,19.99,95.555,19.99,95.117Z"
       fill="#38a038" />
  </g>
  <g
     id="g5217"
     opacity="0.8">
    <path
       id="path5215"
       d="M57.054,58H58.13c.572,0,.774.067.807.64A12.642,12.642,0,0,1,58.87,60.9a.705.705,0,0,1-.74.641,14.509,14.509,0,0,1-2.085,0c-.605-.034-.908-.439-.908-1.18-.034-.506,0-1.012,0-1.517.034-.641.236-.809.875-.809A10.326,10.326,0,0,1,57.054,58Z"
       fill="#38a038" />
  </g>
  <g
     id="g5259"
     opacity="0.7">
    <g
       id="g5221"
       opacity="0.7">
      <path
         id="path5219"
         d="M45.754,64.942h1.009c.505,0,.706.067.74.573a11,11,0,0,1-.067,2.09.672.672,0,0,1-.707.607,12.256,12.256,0,0,1-1.916,0c-.572-.034-.841-.405-.841-1.113V65.683c.033-.607.2-.741.807-.741Z"
         fill="#00b294" />
    </g>
    <g
       id="g5225"
       opacity="0.7">
      <path
         id="path5223"
         d="M37.681,68.216H38.69c.505,0,.706.067.74.573a11,11,0,0,1-.067,2.09.671.671,0,0,1-.706.607,12.268,12.268,0,0,1-1.917,0c-.572-.034-.841-.405-.841-1.113V68.958c.033-.607.2-.742.807-.742Z"
         fill="#00b294" />
    </g>
    <g
       id="g5229"
       opacity="0.7">
      <path
         id="path5227"
         d="M30.668,76.942h1.009c.5,0,.706.068.74.573a10.915,10.915,0,0,1-.068,2.09.671.671,0,0,1-.706.607,12.147,12.147,0,0,1-1.917,0c-.572-.034-.841-.4-.841-1.112V77.684c.034-.607.2-.742.808-.742Z"
         fill="#00b294" />
    </g>
    <g
       id="g5233"
       opacity="0.7">
      <path
         id="path5231"
         d="M30.97,84.286h1.009c.505,0,.706.067.74.573a11,11,0,0,1-.067,2.09.672.672,0,0,1-.707.607,12.268,12.268,0,0,1-1.917,0c-.571-.034-.84-.405-.84-1.113V85.027c.033-.606.2-.741.807-.741Z"
         fill="#00b294" />
    </g>
    <g
       id="g5237"
       opacity="0.7">
      <path
         id="path5235"
         d="M37.681,90.432H38.69c.505,0,.706.068.74.573a11,11,0,0,1-.067,2.09.671.671,0,0,1-.706.607,12.147,12.147,0,0,1-1.917,0c-.572-.034-.841-.4-.841-1.112V91.174c.033-.607.2-.742.807-.742Z"
         fill="#00b294" />
    </g>
    <g
       id="g5241"
       opacity="0.7">
      <path
         id="path5239"
         d="M42.087,93.9H43.1c.5,0,.706.068.739.573a10.913,10.913,0,0,1-.067,2.09.671.671,0,0,1-.706.607,12.147,12.147,0,0,1-1.917,0c-.572-.034-.841-.4-.841-1.112V94.645c.034-.607.2-.742.807-.742Z"
         fill="#00b294" />
    </g>
    <g
       id="g5245"
       opacity="0.7">
      <path
         id="path5243"
         d="M51,90.193h1.009c.5,0,.706.068.739.573a10.921,10.921,0,0,1-.067,2.091.671.671,0,0,1-.706.606,12.029,12.029,0,0,1-1.917,0c-.572-.033-.841-.4-.841-1.112V90.935c.034-.607.2-.742.807-.742Z"
         fill="#00b294" />
    </g>
    <g
       id="g5249"
       opacity="0.7">
      <path
         id="path5247"
         d="M56.884,79.373h1.008c.5,0,.707.068.74.573a10.913,10.913,0,0,1-.067,2.09.671.671,0,0,1-.706.607,12.147,12.147,0,0,1-1.917,0c-.572-.034-.841-.4-.841-1.112V80.115c.034-.607.2-.742.807-.742Z"
         fill="#00b294" />
    </g>
    <g
       id="g5253"
       opacity="0.7">
      <path
         id="path5251"
         d="M53.926,69.059h1.008c.505,0,.707.067.74.573a10.913,10.913,0,0,1-.067,2.09.671.671,0,0,1-.706.607,12.147,12.147,0,0,1-1.917,0c-.572-.034-.841-.4-.841-1.113V69.8c.034-.607.2-.742.807-.742Z"
         fill="#00b294" />
    </g>
    <g
       id="g5257"
       opacity="0.7">
      <path
         id="path5255"
         d="M58.029,85.373h1.009c.5,0,.706.068.739.574a10.913,10.913,0,0,1-.067,2.09.671.671,0,0,1-.706.606,12.029,12.029,0,0,1-1.917,0c-.572-.033-.841-.4-.841-1.112V86.115c.034-.607.2-.742.807-.742Z"
         fill="#00b294" />
    </g>
  </g>
  <path
     id="path5261"
     d="M30.589,66.326H31.9c.672,0,.941.1.975.809a15.975,15.975,0,0,1-.1,2.832.863.863,0,0,1-.908.809,20.667,20.667,0,0,1-2.489,0c-.74-.068-1.076-.573-1.11-1.484a18.381,18.381,0,0,1,.034-1.921c.034-.809.269-1.011,1.043-1.011C29.748,66.326,30.152,66.326,30.589,66.326Z"
     fill="#5ecff1" />
  <path
     id="path5263"
     d="M52.545,62.18h1.312c.673,0,.942.1.975.81a15.873,15.873,0,0,1-.1,2.831.862.862,0,0,1-.908.809,20.246,20.246,0,0,1-2.488,0c-.74-.067-1.076-.573-1.11-1.483a18.129,18.129,0,0,1,.034-1.922c.033-.809.269-1.011,1.042-1.011C51.705,62.18,52.142,62.18,52.545,62.18Z"
     fill="#5ecff1" />
  <path
     id="path5265"
     d="M52.471,97.129h1.311c.673,0,.942.1.976.809a15.964,15.964,0,0,1-.1,2.831.863.863,0,0,1-.908.809,20.262,20.262,0,0,1-2.489,0c-.74-.067-1.076-.573-1.11-1.483a18.381,18.381,0,0,1,.034-1.921c.034-.809.269-1.012,1.042-1.012C51.63,97.129,52.067,97.129,52.471,97.129Z"
     fill="#5ecff1" />
  <path
     id="path5267"
     d="M35.029,97.241h1.312c.673,0,.942.1.975.809a15.873,15.873,0,0,1-.1,2.831.862.862,0,0,1-.908.809,20.246,20.246,0,0,1-2.488,0c-.74-.067-1.077-.573-1.11-1.483a18.38,18.38,0,0,1,.033-1.921c.034-.809.27-1.012,1.043-1.012C34.189,97.241,34.592,97.241,35.029,97.241Z"
     fill="#5ecff1" />
  <path
     id="path5269"
     d="M26.247,79.64h1.311c.673,0,.942.1.976.809a15.975,15.975,0,0,1-.1,2.832.863.863,0,0,1-.908.809,20.463,20.463,0,0,1-2.489,0c-.74-.067-1.076-.573-1.11-1.483a18.4,18.4,0,0,1,.034-1.922c.034-.809.269-1.011,1.042-1.011C25.406,79.64,25.843,79.64,26.247,79.64Z"
     fill="#5ecff1" />
  <path
     id="path5271"
     d="M61.223,70.879h1.311c.673,0,.942.1.975.809a15.96,15.96,0,0,1-.1,2.831.864.864,0,0,1-.909.81,20.651,20.651,0,0,1-2.488,0c-.74-.068-1.076-.574-1.11-1.484a18.111,18.111,0,0,1,.034-1.921c.033-.809.269-1.011,1.042-1.011C60.382,70.879,60.785,70.879,61.223,70.879Z"
     fill="#5ecff1" />
</svg>
