<?xml version="1.0" encoding="UTF-8" standalone="no"?>
<svg
   xmlns:dc="http://purl.org/dc/elements/1.1/"
   xmlns:cc="http://creativecommons.org/ns#"
   xmlns:rdf="http://www.w3.org/1999/02/22-rdf-syntax-ns#"
   xmlns:svg="http://www.w3.org/2000/svg"
   xmlns="http://www.w3.org/2000/svg"
   xmlns:sodipodi="http://sodipodi.sourceforge.net/DTD/sodipodi-0.dtd"
   xmlns:inkscape="http://www.inkscape.org/namespaces/inkscape"
   viewBox="0 0 275 164"
   version="1.1"
   id="svg5088"
   sodipodi:docname="ClearlyDefined_Full_Sticker.svg"
   inkscape:version="0.92.2 (5c3e80d, 2017-08-06)">
  <metadata
     id="metadata5094">
    <rdf:RDF>
      <cc:Work
         rdf:about="">
        <dc:format>image/svg+xml</dc:format>
        <dc:type
           rdf:resource="http://purl.org/dc/dcmitype/StillImage" />
        <dc:title>FullLogo_color_h</dc:title>
      </cc:Work>
    </rdf:RDF>
  </metadata>
  <defs
     id="defs5092" />
  <sodipodi:namedview
     pagecolor="#ffffff"
     bordercolor="#666666"
     borderopacity="1"
     objecttolerance="10"
     gridtolerance="10"
     guidetolerance="10"
     inkscape:pageopacity="0"
     inkscape:pageshadow="2"
     inkscape:window-width="1278"
     inkscape:window-height="1378"
     id="namedview5090"
     showgrid="false"
     inkscape:zoom="10.503123"
     inkscape:cx="33.82678"
     inkscape:cy="75.616782"
     inkscape:window-x="2553"
     inkscape:window-y="0"
     inkscape:window-maximized="0"
     inkscape:current-layer="svg5088" />
  <title
     id="title4934">FullLogo_color_h</title>
  <path
     inkscape:connector-curvature="0"
     d="m 42.5625,62.085938 c -0.538,0.034 -0.807,0.23539 -0.875,0.77539 -0.101,0.943 -0.200578,1.887235 -0.267578,2.865234 -0.033,0.337001 -0.203656,0.472657 -0.472656,0.472657 l -2.857422,0.09961 c -0.908,0.067 -1.042172,-0.100281 -1.076172,1.011719 a 10.713,10.713 0 0 1 -0.236328,2.089844 1.147,1.147 0 0 1 -1.00586,1.044921 c -0.437,0.034 -0.842297,0.167969 -1.279296,0.167969 a 10.571,10.571 0 0 1 -1.478516,-0.134765 0.463,0.463 0 0 1 -0.269531,-0.335938 c -0.067,-0.54 -0.06777,-1.113344 -0.134766,-1.652344 -0.034,-0.506 -0.100969,-0.978218 -0.167969,-1.449218 a 0.558,0.558 0 0 0 -0.605468,-0.50586 c -0.740001,0 -1.51311,-0.0348 -2.28711,0.0332 -0.706,0.067 -0.974015,0.336922 -1.041016,1.044922 -0.067,0.809 -0.03516,1.584375 -0.03516,2.359375 a 0.506,0.506 0 0 0 0.470703,0.574219 c 0.504,0.065 1.046875,0.165219 1.546875,0.199219 0.437,0.033 0.8755,-5.94e-4 1.3125,0.06641 0.605,0.067 0.740235,0.269953 0.740235,0.876953 -0.035,0.64 -0.06777,1.314078 -0.134766,1.955078 a 1.435,1.435 0 0 1 -1.244141,1.314453 c -0.806999,0.102 -1.614875,0.203328 -2.421874,0.236328 -0.403001,0 -0.470704,0.16886 -0.470704,0.50586 -0.033,1.045 -0.03261,2.122969 -0.09961,3.167969 -0.034,0.573 -0.06836,5.6 -0.06836,6 0.034,1.011 0.06836,2.024156 0.06836,3.035156 0,0.539 -0.03406,0.538265 -0.539063,0.572265 -0.37,0.034 -0.777734,0.0012 -1.177734,0.03516 a 10.5,10.5 0 0 0 -1.478516,0.167969 c -0.606,0.101999 -0.841,0.404921 -0.875,1.044921 V 91.375 c 0,0.809 0.302376,1.146094 1.109376,1.246094 a 7.2,7.2 0 0 0 2.689453,0 0.427,0.427 0 0 0 0.236328,-0.298828 c 0.067,-0.607 0.101765,-1.18011 0.134765,-1.78711 0.033,-0.64 0.06661,-1.281078 0.09961,-1.955078 0.538,0 2.123437,0.06777 2.523437,0.134766 a 1.54,1.54 0 0 1 1.277344,1.248047 10.108,10.108 0 0 1 0.134766,2.021484 0.682,0.682 0 0 1 -0.539063,0.673828 6.751,6.751 0 0 1 -0.873047,0.136719 c -0.606,0.035 -1.244609,0.06677 -1.849609,0.134766 -0.573,0.034 -0.673828,0.235593 -0.673828,0.808593 0.034,0.708 0.06836,1.415047 0.06836,2.123047 0,0.813 0.269172,1.145891 1.076172,1.212891 0.807,0.067 1.612922,0.06856 2.419922,0.101562 a 0.62,0.62 0 0 0 0.707031,-0.640625 v -0.708984 c 0.069,-0.641 0.09997,-1.246516 0.167969,-1.853516 a 0.766,0.766 0 0 1 0.707031,-0.742187 4.1,4.1 0 0 1 1.916016,0.134765 1.335,1.335 0 0 1 1.076172,0.810547 5.129,5.129 0 0 1 0.269531,2.460938 c -0.034,0.2 -0.373016,0.864437 -0.541016,0.898437 -0.941,0.101 -1.45839,0.200375 -2.40039,0.234375 -0.437,0 -0.46875,-0.263218 -0.46875,0.175781 0.033,0.842 -0.326969,1.474204 -0.292969,2.283208 0.065,0.674 0.06217,0.8705 0.701172,0.9375 a 14.048,14.048 0 0 0 2.048828,0.0586 c 0.201,-0.035 0.485937,-0.0344 0.585937,-0.23438 a 2.255,2.255 0 0 0 0.234375,-0.93554 c 0.068,-0.607002 0.467157,-1.162534 0.535157,-1.769534 0.067,-0.641 0.269203,-0.876953 0.908203,-0.876953 0.773,0 1.579515,0.06972 2.353515,0.136719 a 1.117,1.117 0 0 1 0.976563,1.044922 c 0.065,0.843 0.132219,1.717546 0.199219,2.560546 a 0.406,0.406 0 0 0 0.36914,0.40625 c 0.403,0.032 0.777735,0.0996 1.177735,0.0996 0.706,0 1.41214,-0.0344 2.11914,-0.0684 0.405,0 0.572469,-0.16726 0.605469,-0.57227 0.067,-0.741 0.136328,-1.516808 0.236328,-2.257808 a 1.169,1.169 0 0 1 0.90625,-1.113281 20.465,20.465 0 0 1 2.488281,-0.06836 c 0.505,0.034 0.708391,0.304547 0.775391,0.810547 0.067,0.775 2.252875,-1.147641 1.546875,-1.181641 -0.37,-0.034 -0.843359,-0.06627 -0.943359,-0.572266 -0.235,-1.214 0.06856,-2.768359 1.851562,-3.068359 0.773,-0.134 1.714453,0.03369 1.814453,1.179688 0.03267,0.640666 0.06756,1.283161 0.101563,1.923828 0.033,0.508 0.238281,0.740031 0.738281,0.707031 0.874,-0.032 1.783406,-0.09961 2.691406,-0.09961 a 1.188,1.188 0 0 0 1.007813,-0.876953 c 0.066,-0.472001 0.06561,-0.90886 0.09961,-1.38086 0,-0.506 0.0012,-1.044781 0.03516,-1.550781 A 0.58,0.58 0 0 0 58.601563,92.792927 H 57.759767 A 4.727,4.727 0 0 1 55.94336,92.421833 c -0.265,-0.139 -0.398437,-0.269063 -0.398437,-0.539063 a 4.148,4.148 0 0 1 0,-1.113281 2.368,2.368 0 0 1 0.470703,-1.146484 2.949,2.949 0 0 1 2.421875,-0.640625 0.676,0.676 0 0 1 0.570312,0.574219 6.149,6.149 0 0 1 0.09961,1.111328 v 1.578125 c 0,0.303 0.264,0.675781 0.5,0.675781 0.84,-0.035 1.682437,-0.06972 2.523437,-0.136719 0.841,-0.067 1.243344,-0.301203 1.277344,-0.908203 a 22.847,22.847 0 0 0 0,-2.630859 c -0.034,-0.507 -0.268437,-0.674031 -0.773437,-0.707032 -0.639,-0.066 -1.278969,-0.06561 -1.917969,-0.09961 -0.91,-0.067 -1.141984,-0.302891 -1.208985,-1.212891 a 11.369,11.369 0 0 1 0.03125,-1.855468 1.172,1.172 0 0 1 1.177735,-1.179688 c 0.74,-0.1 1.513906,-0.132219 2.253906,-0.199218 a 0.578,0.578 0 0 0 0.572266,-0.50586 c 0.034,-0.404 0.06641,-0.848047 0.06641,-1.248047 0,-0.708 -0.03241,-1.381844 -0.06641,-2.089843 a 0.468,0.468 0 0 0 -0.470703,-0.50586 c -0.342,-0.034 -0.641407,-0.03341 -0.941407,-0.06641 -0.673,-0.068 -1.312171,-0.136328 -1.951171,-0.236328 a 0.7,0.7 0 0 1 -0.671876,-0.707032 c -0.034,-0.913 -0.06916,-1.791171 -0.03516,-2.701171 0,-0.508 0.268641,-0.673032 0.806641,-0.707032 0.706,-0.033 1.413937,-0.0016 2.085937,-0.101562 0.639,-0.101 1.076172,-0.335797 1.076172,-0.841797 l -4.199218,-2.460938 c -0.035,0.776001 -0.06777,1.516969 -0.134766,2.292969 -0.067,0.573 -0.337,0.774235 -0.875,0.740235 a 2.507,2.507 0 0 1 -0.503906,0 9.078,9.078 0 0 1 -1.648438,-0.400391 1.517,1.517 0 0 1 -0.570312,-0.640625 4.171,4.171 0 0 1 -0.269532,-2.123047 0.831,0.831 0 0 1 0.738282,-0.808594 c 0.37,-0.032 0.708125,-0.06756 1.078125,-0.101562 0.471,-0.033 0.974312,-0.03241 1.445312,-0.06641 0.305,-0.039 0.605469,-0.202063 0.605469,-0.539063 0,-0.876667 -0.03294,-1.752239 -0.09961,-2.628906 -0.067,-0.741 -0.404531,-1.011719 -1.144531,-1.011719 -0.168,0 -0.369109,-0.03516 -0.537109,-0.03516 -0.707,0 -1.413141,0.03436 -2.119141,0.06836 -0.101,0 -0.269531,0.101172 -0.269531,0.201172 -0.067,0.371 -0.100766,0.707125 -0.134766,1.078125 -0.066,0.64 -0.09922,1.280719 -0.199218,1.886719 -0.034,0.304 -0.139063,0.641781 -0.539063,0.675781 a 9.127,9.127 0 0 1 -1.345703,0.0332 3.84,3.84 0 0 1 -1.208984,-0.371094 1.784,1.784 0 0 1 -0.875,-1.550781 c -0.034,-0.708 -0.100969,-1.38164 -0.167969,-2.05664 0.403,-0.032 0.740172,-0.06561 1.076172,-0.09961 l -1.117188,-1.310547 c -0.034,0.269 -0.09981,0.572797 -0.132812,0.841797 a 0.356,0.356 0 0 1 -0.400391,0.337891 c -0.975,0 -1.983984,0.0338 -2.958984,-0.0332 -0.708,-0.034 -0.841203,-0.23536 -0.908203,-0.94336 -0.066,-0.775 -0.134172,-1.517968 -0.201172,-2.292968 -0.067,-0.607 -0.335406,-0.876953 -0.941407,-0.876953 z m 1.742188,8.783203 8.957031,5.292968 -0.03125,10.494141 -9.021485,5.230469 -8.957031,-5.294922 0.03125,-10.521485 z"
     id="path4962"
     style="fill:#0064b5;fill-opacity:1" />
  <g
     style="opacity:0.7"
     id="g5259">
    <g
       style="opacity:0.7"
       id="g5221">
      <path
         style="fill:#00b294"
         inkscape:connector-curvature="0"
         id="path5219"
         d="m 45.754,64.942 h 1.009 c 0.505,0 0.706,0.067 0.74,0.573 a 11,11 0 0 1 -0.067,2.09 0.672,0.672 0 0 1 -0.707,0.607 12.256,12.256 0 0 1 -1.916,0 c -0.572,-0.034 -0.841,-0.405 -0.841,-1.113 v -1.416 c 0.033,-0.607 0.2,-0.741 0.807,-0.741 z" />
    </g>
    <g
       style="opacity:0.7"
       id="g5225">
      <path
         style="fill:#00b294"
         inkscape:connector-curvature="0"
         id="path5223"
         d="m 37.681,68.216 h 1.009 c 0.505,0 0.706,0.067 0.74,0.573 a 11,11 0 0 1 -0.067,2.09 0.671,0.671 0 0 1 -0.706,0.607 12.268,12.268 0 0 1 -1.917,0 c -0.572,-0.034 -0.841,-0.405 -0.841,-1.113 v -1.415 c 0.033,-0.607 0.2,-0.742 0.807,-0.742 z" />
    </g>
    <g
       style="opacity:0.7"
       id="g5229">
      <path
         style="fill:#00b294"
         inkscape:connector-curvature="0"
         id="path5227"
         d="m 30.668,76.942 h 1.009 c 0.5,0 0.706,0.068 0.74,0.573 a 10.915,10.915 0 0 1 -0.068,2.09 0.671,0.671 0 0 1 -0.706,0.607 12.147,12.147 0 0 1 -1.917,0 c -0.572,-0.034 -0.841,-0.4 -0.841,-1.112 v -1.416 c 0.034,-0.607 0.2,-0.742 0.808,-0.742 z" />
    </g>
    <g
       style="opacity:0.7"
       id="g5233">
      <path
         style="fill:#00b294"
         inkscape:connector-curvature="0"
         id="path5231"
         d="m 30.97,84.286 h 1.009 c 0.505,0 0.706,0.067 0.74,0.573 a 11,11 0 0 1 -0.067,2.09 0.672,0.672 0 0 1 -0.707,0.607 12.268,12.268 0 0 1 -1.917,0 c -0.571,-0.034 -0.84,-0.405 -0.84,-1.113 v -1.416 c 0.033,-0.606 0.2,-0.741 0.807,-0.741 z" />
    </g>
    <g
       style="opacity:0.7"
       id="g5237">
      <path
         style="fill:#00b294"
         inkscape:connector-curvature="0"
         id="path5235"
         d="m 37.681,90.432 h 1.009 c 0.505,0 0.706,0.068 0.74,0.573 a 11,11 0 0 1 -0.067,2.09 0.671,0.671 0 0 1 -0.706,0.607 12.147,12.147 0 0 1 -1.917,0 c -0.572,-0.034 -0.841,-0.4 -0.841,-1.112 v -1.416 c 0.033,-0.607 0.2,-0.742 0.807,-0.742 z" />
    </g>
    <g
       style="opacity:0.7"
       id="g5241">
      <path
         style="fill:#00b294"
         inkscape:connector-curvature="0"
         id="path5239"
         d="M 42.087,93.9 H 43.1 c 0.5,0 0.706,0.068 0.739,0.573 a 10.913,10.913 0 0 1 -0.067,2.09 0.671,0.671 0 0 1 -0.706,0.607 12.147,12.147 0 0 1 -1.917,0 c -0.572,-0.034 -0.841,-0.4 -0.841,-1.112 v -1.413 c 0.034,-0.607 0.2,-0.742 0.807,-0.742 z" />
    </g>
    <g
       style="opacity:0.7"
       id="g5245">
      <path
         style="fill:#00b294"
         inkscape:connector-curvature="0"
         id="path5243"
         d="m 51,90.193 h 1.009 c 0.5,0 0.706,0.068 0.739,0.573 a 10.921,10.921 0 0 1 -0.067,2.091 0.671,0.671 0 0 1 -0.706,0.606 12.029,12.029 0 0 1 -1.917,0 c -0.572,-0.033 -0.841,-0.4 -0.841,-1.112 v -1.416 c 0.034,-0.607 0.2,-0.742 0.807,-0.742 z" />
    </g>
    <g
       style="opacity:0.7"
       id="g5249">
      <path
         style="fill:#00b294"
         inkscape:connector-curvature="0"
         id="path5247"
         d="m 56.884,79.373 h 1.008 c 0.5,0 0.707,0.068 0.74,0.573 a 10.913,10.913 0 0 1 -0.067,2.09 0.671,0.671 0 0 1 -0.706,0.607 12.147,12.147 0 0 1 -1.917,0 c -0.572,-0.034 -0.841,-0.4 -0.841,-1.112 v -1.416 c 0.034,-0.607 0.2,-0.742 0.807,-0.742 z" />
    </g>
    <g
       style="opacity:0.7"
       id="g5253">
      <path
         style="fill:#00b294"
         inkscape:connector-curvature="0"
         id="path5251"
         d="m 53.926,69.059 h 1.008 c 0.505,0 0.707,0.067 0.74,0.573 a 10.913,10.913 0 0 1 -0.067,2.09 0.671,0.671 0 0 1 -0.706,0.607 12.147,12.147 0 0 1 -1.917,0 c -0.572,-0.034 -0.841,-0.4 -0.841,-1.113 V 69.8 c 0.034,-0.607 0.2,-0.742 0.807,-0.742 z" />
    </g>
    <g
       style="opacity:0.7"
       id="g5257">
      <path
         style="fill:#00b294"
         inkscape:connector-curvature="0"
         id="path5255"
         d="m 58.029,85.373 h 1.009 c 0.5,0 0.706,0.068 0.739,0.574 a 10.913,10.913 0 0 1 -0.067,2.09 0.671,0.671 0 0 1 -0.706,0.606 12.029,12.029 0 0 1 -1.917,0 c -0.572,-0.033 -0.841,-0.4 -0.841,-1.112 v -1.416 c 0.034,-0.607 0.2,-0.742 0.807,-0.742 z" />
    </g>
  </g>
  <path
     inkscape:connector-curvature="0"
     id="path1026"
     style="font-style:normal;font-variant:normal;font-weight:600;font-stretch:normal;font-size:24px;line-height:1.25;font-family:Montserrat;-inkscape-font-specification:'Montserrat Semi-Bold';letter-spacing:0px;word-spacing:0px;fill:#0064b5;fill-opacity:1;stroke:none"
     d="m 163.12093,73.213347 v 17.808 h -2.88 v -1.656 q -0.744,0.912 -1.848,1.368 -1.08,0.456 -2.4,0.456 -1.848,0 -3.336,-0.816 -1.464,-0.816 -2.304,-2.304 -0.84,-1.512 -0.84,-3.456 0,-1.944 0.84,-3.432 0.84,-1.488 2.304,-2.304 1.488,-0.816 3.336,-0.816 1.272,0 2.328,0.432 1.056,0.432 1.8,1.296 v -6.576 z m -6.768,15.408 q 1.08,0 1.944,-0.48 0.864,-0.504 1.368,-1.416 0.504,-0.912 0.504,-2.112 0,-1.2 -0.504,-2.112 -0.504,-0.912 -1.368,-1.392 -0.864,-0.504 -1.944,-0.504 -1.08,0 -1.944,0.504 -0.864,0.48 -1.368,1.392 -0.504,0.912 -0.504,2.112 0,1.2 0.504,2.112 0.504,0.912 1.368,1.416 0.864,0.48 1.944,0.48 z" />
  <g
     style="opacity:0.8"
     id="g4966">
    <path
       style="fill:#38a038"
       inkscape:connector-curvature="0"
       d="M 28.2,74.532 A 0.972,0.972 0 0 1 27.359,75.048 25.532,25.532 0 0 1 24.6,74.82 0.617,0.617 0 0 1 24.129,74.213 c -0.034,-0.64 -0.067,-1.314 -0.067,-1.955 A 1.15,1.15 0 0 1 25.3,71.011 c 0.673,-0.034 1.345,-0.034 1.984,-0.034 0.5,0 0.74,0.236 0.808,0.742 a 26.436,26.436 0 0 1 0.108,2.813 z"
       id="path4964" />
  </g>
  <g
     style="opacity:0.8"
     id="g4970">
    <path
       style="fill:#38a038"
       inkscape:connector-curvature="0"
       d="m 34.957,62.082 c 0.4,0.034 0.807,0.068 1.211,0.068 a 0.614,0.614 0 0 1 0.605,0.472 18.3,18.3 0 0 1 0.241,2.909 0.822,0.822 0 0 1 -0.673,0.793 c -0.687,-0.011 -1.379,-0.036 -2.09,-0.062 a 2.134,2.134 0 0 1 -0.908,-0.236 0.7,0.7 0 0 1 -0.437,-0.741 c 0,-0.675 0.033,-1.349 0.067,-1.989 A 1.1,1.1 0 0 1 34.15,62.15 c 0.235,-0.034 0.505,-0.034 0.807,-0.068 z"
       id="path4968" />
  </g>
  <g
     style="opacity:0.8"
     id="g4974">
    <path
       style="fill:#38a038"
       inkscape:connector-curvature="0"
       d="m 63.781,84.6 a 0.336,0.336 0 0 1 0.2,-0.27 10.054,10.054 0 0 1 1.412,-0.135 11.409,11.409 0 0 1 1.413,0.135 0.923,0.923 0 0 1 0.941,0.843 4.493,4.493 0 0 1 -0.134,2.494 0.8,0.8 0 0 1 -0.5,0.438 23.756,23.756 0 0 1 -2.69,0.135 0.667,0.667 0 0 1 -0.639,-0.741 C 63.747,87.025 63.747,85.1 63.781,84.6 Z"
       id="path4972" />
  </g>
  <g
     style="opacity:0.8"
     id="g4978">
    <path
       style="fill:#38a038"
       inkscape:connector-curvature="0"
       d="m 65.729,75.43 h 0.807 c 0.807,0.034 1.076,0.2 1.211,1.012 a 3.779,3.779 0 0 1 -0.135,2.359 c -0.1,0.169 -0.269,0.405 -0.437,0.438 a 6.473,6.473 0 0 1 -2.792,0.135 c -0.5,-0.1 -0.6,-0.236 -0.6,-0.775 v -2.225 c 0,-0.708 0.135,-0.843 0.807,-0.944 0.1,0 0.168,-0.033 0.269,-0.033 a 7.756,7.756 0 0 1 0.875,0.033 z"
       id="path4976" />
  </g>
  <g
     style="opacity:0.8"
     id="g4982">
    <path
       style="fill:#38a038"
       inkscape:connector-curvature="0"
       d="m 48.208,106 c -0.4,-0.034 -0.773,-0.067 -1.177,-0.135 a 0.751,0.751 0 0 1 -0.672,-0.674 24.818,24.818 0 0 1 -0.2,-2.731 0.551,0.551 0 0 1 0.673,-0.573 c 0.807,0.034 1.614,-0.033 2.421,0 0.74,0.068 0.975,0.337 0.942,1.113 a 13.965,13.965 0 0 1 -0.068,1.685 c -0.067,0.91 -0.5,1.281 -1.412,1.281 A 2.7,2.7 0 0 0 48.208,106 Z"
       id="path4980" />
  </g>
  <g
     style="opacity:0.8"
     id="g4986">
    <path
       style="fill:#38a038"
       inkscape:connector-curvature="0"
       d="m 41.383,103.611 c -0.033,0.438 -0.033,0.876 -0.1,1.315 a 1.14,1.14 0 0 1 -1.144,1.045 11.574,11.574 0 0 1 -1.513,0 1.08,1.08 0 0 1 -1.177,-1.18 c -0.034,-0.472 -0.068,-0.978 -0.068,-1.45 a 3.9,3.9 0 0 1 0.236,-1.045 c 0.134,-0.371 0.5,-0.337 0.807,-0.371 0.706,-0.033 1.446,-0.033 2.186,-0.033 a 0.762,0.762 0 0 1 0.773,0.775 8.125,8.125 0 0 1 0,0.91 c -0.033,0.034 0,0.034 0,0.034 z"
       id="path4984" />
  </g>
  <g
     style="opacity:0.8"
     id="g4990">
    <path
       style="fill:#38a038"
       inkscape:connector-curvature="0"
       d="m 63.443,99.6 v 0.708 c -0.034,0.708 -0.269,1.113 -0.975,1.18 a 11.024,11.024 0 0 1 -2.355,-0.135 c -0.168,-0.033 -0.47,-0.3 -0.47,-0.472 a 14.637,14.637 0 0 1 -0.135,-2.427 c 0.034,-0.674 0.336,-0.843 1.009,-0.876 a 16.453,16.453 0 0 1 1.816,0.067 1.13,1.13 0 0 1 1.076,1.18 5.919,5.919 0 0 1 0.034,0.775 z"
       id="path4988" />
  </g>
  <g
     style="opacity:0.8"
     id="g4994">
    <path
       style="fill:#38a038"
       inkscape:connector-curvature="0"
       d="M 65.868,70.44 H 65.1 c -0.639,-0.034 -1.009,-0.236 -1.043,-0.877 a 10.781,10.781 0 0 1 0.067,-2.326 0.848,0.848 0 0 1 0.875,-0.707 c 0.639,0 1.311,0 1.95,0.033 a 0.74,0.74 0 0 1 0.774,0.674 5.366,5.366 0 0 1 0,2.529 0.789,0.789 0 0 1 -0.74,0.64 6.061,6.061 0 0 1 -1.11,0.034 z"
       id="path4992" />
  </g>
  <g
     style="opacity:0.8"
     id="g4998">
    <path
       style="fill:#38a038"
       inkscape:connector-curvature="0"
       d="m 28.031,99.561 c -0.034,0.371 -0.034,0.708 -0.1,1.079 -0.168,0.674 -0.4,0.876 -1.076,0.91 a 12.262,12.262 0 0 1 -1.581,0 1.116,1.116 0 0 1 -1.174,-1.25 c -0.034,-0.472 0,-0.978 0,-1.45 a 1.124,1.124 0 0 1 1.143,-1.18 13.726,13.726 0 0 1 1.648,0 1.133,1.133 0 0 1 1.144,1.214 4.454,4.454 0 0 0 -0.004,0.677 z"
       id="path4996" />
  </g>
  <g
     style="opacity:0.8"
     id="g5002">
    <path
       style="fill:#38a038"
       inkscape:connector-curvature="0"
       d="m 28,64.071 a 6.067,6.067 0 0 1 0,0.775 1.175,1.175 0 0 1 -1.244,1.214 h -1.418 a 1.141,1.141 0 0 1 -1.211,-1.18 12.146,12.146 0 0 1 0,-1.55 1.151,1.151 0 0 1 1.173,-1.18 10.747,10.747 0 0 1 1.48,0 1.168,1.168 0 0 1 1.22,1.281 4.117,4.117 0 0 1 0,0.64 z"
       id="path5000" />
  </g>
  <g
     style="opacity:0.8"
     id="g5006">
    <path
       style="fill:#38a038"
       inkscape:connector-curvature="0"
       d="m 57.021,105.971 h -0.74 a 1.043,1.043 0 0 1 -1.143,-1.078 13.545,13.545 0 0 1 0.134,-2.326 0.592,0.592 0 0 1 0.438,-0.4 15.165,15.165 0 0 1 2.152,-0.067 c 0.774,0.033 1.11,0.438 1.144,1.213 v 1.382 a 1.185,1.185 0 0 1 -1.278,1.281 z"
       id="path5004" />
  </g>
  <g
     style="opacity:0.8"
     id="g5010">
    <path
       style="fill:#38a038"
       inkscape:connector-curvature="0"
       d="m 19.99,86.252 v -1.18 c 0,-0.371 0.135,-0.641 0.505,-0.641 a 13.084,13.084 0 0 1 1.984,-0.033 c 1.043,0.067 1.11,0.168 1.11,1.213 q 0,1.062 -0.1,2.124 c -0.034,0.337 -0.235,0.472 -0.572,0.506 -0.706,0.033 -1.446,0.067 -2.152,0.033 -0.639,-0.033 -0.807,-0.236 -0.807,-0.876 v -0.573 a 3.547,3.547 0 0 0 0.032,-0.573 z"
       id="path5008" />
  </g>
  <g
     style="opacity:0.8"
     id="g5014">
    <path
       style="fill:#38a038"
       inkscape:connector-curvature="0"
       d="m 48.176,58 h 1.076 c 0.606,0 0.875,0.169 0.909,0.775 a 17.08,17.08 0 0 1 -0.1,2.259 c -0.034,0.371 -0.337,0.539 -0.841,0.573 -0.706,0.034 -1.413,0.034 -2.153,0 a 0.639,0.639 0 0 1 -0.739,-0.674 6.562,6.562 0 0 1 0.067,-2.562 C 46.462,58.101 46.63,58 46.933,58 Z"
       id="path5012" />
  </g>
  <g
     style="opacity:0.8"
     id="g5018">
    <path
       style="fill:#38a038"
       inkscape:connector-curvature="0"
       d="M 19.992,77.382 V 76.1 c 0,-0.337 0.134,-0.573 0.471,-0.607 a 4.691,4.691 0 0 1 2.724,0.169 0.635,0.635 0 0 1 0.336,0.438 c 0.034,0.809 0.1,1.618 0.067,2.427 -0.033,0.573 -0.269,0.775 -0.807,0.809 -0.639,0.034 -1.278,0.034 -1.917,0.034 -0.639,0 -0.84,-0.236 -0.84,-0.877 -0.034,-0.369 -0.034,-0.74 -0.034,-1.111 z"
       id="path5016" />
  </g>
  <g
     style="opacity:0.8"
     id="g5022">
    <path
       style="fill:#38a038"
       inkscape:connector-curvature="0"
       d="m 39.331,58 h 1.21 c 0.438,0 0.673,0.135 0.673,0.573 0.034,0.843 0,1.686 -0.034,2.528 -0.033,0.405 -0.437,0.506 -0.74,0.506 a 19.385,19.385 0 0 1 -2.421,-0.067 0.611,0.611 0 0 1 -0.437,-0.338 5.27,5.27 0 0 1 -0.135,-2.8 c 0.034,-0.3 0.236,-0.405 0.538,-0.405 z"
       id="path5020" />
  </g>
  <g
     style="opacity:0.8"
     id="g5026">
    <path
       style="fill:#38a038"
       inkscape:connector-curvature="0"
       d="M 19.99,95.117 V 93.9 c 0,-0.3 0.1,-0.472 0.37,-0.54 a 4.2,4.2 0 0 1 2.724,0.1 0.648,0.648 0 0 1 0.37,0.506 18.731,18.731 0 0 1 0,2.393 0.928,0.928 0 0 1 -0.47,0.607 4.513,4.513 0 0 1 -2.59,0.1 0.557,0.557 0 0 1 -0.437,-0.606 c 0.033,-0.466 0.033,-0.905 0.033,-1.343 z"
       id="path5024" />
  </g>
  <g
     style="opacity:0.8"
     id="g5030">
    <path
       style="fill:#38a038"
       inkscape:connector-curvature="0"
       d="m 57.054,58 h 1.076 c 0.572,0 0.774,0.067 0.807,0.64 a 12.642,12.642 0 0 1 -0.067,2.26 0.705,0.705 0 0 1 -0.74,0.641 14.509,14.509 0 0 1 -2.085,0 c -0.605,-0.034 -0.908,-0.439 -0.908,-1.18 -0.034,-0.506 0,-1.012 0,-1.517 0.034,-0.641 0.236,-0.809 0.875,-0.809 A 10.326,10.326 0 0 1 57.054,58 Z"
       id="path5028" />
  </g>
  <path
     style="fill:#5ecff1"
     inkscape:connector-curvature="0"
     d="M 30.589,66.326 H 31.9 c 0.672,0 0.941,0.1 0.975,0.809 a 15.975,15.975 0 0 1 -0.1,2.832 0.863,0.863 0 0 1 -0.908,0.809 20.667,20.667 0 0 1 -2.489,0 c -0.74,-0.068 -1.076,-0.573 -1.11,-1.484 a 18.381,18.381 0 0 1 0.034,-1.921 c 0.034,-0.809 0.269,-1.011 1.043,-1.011 0.403,-0.034 0.807,-0.034 1.244,-0.034 z"
     id="path5074" />
  <path
     style="fill:#5ecff1"
     inkscape:connector-curvature="0"
     d="m 52.545,62.18 h 1.312 c 0.673,0 0.942,0.1 0.975,0.81 a 15.873,15.873 0 0 1 -0.1,2.831 0.862,0.862 0 0 1 -0.908,0.809 20.246,20.246 0 0 1 -2.488,0 c -0.74,-0.067 -1.076,-0.573 -1.11,-1.483 a 18.129,18.129 0 0 1 0.034,-1.922 c 0.033,-0.809 0.269,-1.011 1.042,-1.011 0.403,-0.034 0.84,-0.034 1.243,-0.034 z"
     id="path5076" />
  <path
     style="fill:#5ecff1"
     inkscape:connector-curvature="0"
     d="m 52.471,97.129 h 1.311 c 0.673,0 0.942,0.1 0.976,0.809 a 15.964,15.964 0 0 1 -0.1,2.831 0.863,0.863 0 0 1 -0.908,0.809 20.262,20.262 0 0 1 -2.489,0 c -0.74,-0.067 -1.076,-0.573 -1.11,-1.483 a 18.381,18.381 0 0 1 0.034,-1.921 c 0.034,-0.809 0.269,-1.012 1.042,-1.012 0.403,-0.033 0.84,-0.033 1.244,-0.033 z"
     id="path5078" />
  <path
     style="fill:#5ecff1"
     inkscape:connector-curvature="0"
     d="m 35.029,97.241 h 1.312 c 0.673,0 0.942,0.1 0.975,0.809 a 15.873,15.873 0 0 1 -0.1,2.831 0.862,0.862 0 0 1 -0.908,0.809 20.246,20.246 0 0 1 -2.488,0 c -0.74,-0.067 -1.077,-0.573 -1.11,-1.483 a 18.38,18.38 0 0 1 0.033,-1.921 c 0.034,-0.809 0.27,-1.012 1.043,-1.012 0.403,-0.033 0.806,-0.033 1.243,-0.033 z"
     id="path5080" />
  <path
     style="fill:#5ecff1"
     inkscape:connector-curvature="0"
     d="m 26.247,79.64 h 1.311 c 0.673,0 0.942,0.1 0.976,0.809 a 15.975,15.975 0 0 1 -0.1,2.832 0.863,0.863 0 0 1 -0.908,0.809 20.463,20.463 0 0 1 -2.489,0 c -0.74,-0.067 -1.076,-0.573 -1.11,-1.483 a 18.4,18.4 0 0 1 0.034,-1.922 c 0.034,-0.809 0.269,-1.011 1.042,-1.011 0.403,-0.034 0.84,-0.034 1.244,-0.034 z"
     id="path5082" />
  <path
     style="fill:#5ecff1"
     inkscape:connector-curvature="0"
     d="m 61.223,70.879 h 1.311 c 0.673,0 0.942,0.1 0.975,0.809 a 15.96,15.96 0 0 1 -0.1,2.831 0.864,0.864 0 0 1 -0.909,0.81 20.651,20.651 0 0 1 -2.488,0 c -0.74,-0.068 -1.076,-0.574 -1.11,-1.484 a 18.111,18.111 0 0 1 0.034,-1.921 c 0.033,-0.809 0.269,-1.011 1.042,-1.011 0.404,-0.034 0.807,-0.034 1.245,-0.034 z"
     id="path5086" />
  <path
     inkscape:connector-curvature="0"
     id="path1012"
     style="font-style:normal;font-variant:normal;font-weight:normal;font-stretch:normal;font-size:24px;line-height:1.25;font-family:Montserrat;-inkscape-font-specification:Montserrat;letter-spacing:0px;word-spacing:0px;fill:#0064b5;fill-opacity:1;stroke:none"
     d="m 79.240179,91.141347 q -1.872,0 -3.36,-0.816 -1.464,-0.816 -2.304,-2.28 -0.84,-1.488 -0.84,-3.336 0,-1.848 0.84,-3.312 0.84,-1.464 2.304,-2.28 1.488,-0.816 3.36,-0.816 1.632,0 2.904,0.648 1.296,0.624 2.04,1.848 l -1.272,0.864 q -0.624,-0.936 -1.584,-1.392 -0.96,-0.48 -2.088,-0.48 -1.368,0 -2.472,0.624 -1.08,0.6 -1.704,1.728 -0.6,1.128 -0.6,2.568 0,1.464 0.6,2.592 0.624,1.104 1.704,1.728 1.104,0.6 2.472,0.6 1.128,0 2.088,-0.456 0.96,-0.456 1.584,-1.392 l 1.272,0.864 q -0.744,1.224 -2.04,1.872 -1.296,0.624 -2.904,0.624 z" />
  <path
     inkscape:connector-curvature="0"
     id="path1014"
     style="font-style:normal;font-variant:normal;font-weight:normal;font-stretch:normal;font-size:24px;line-height:1.25;font-family:Montserrat;-inkscape-font-specification:Montserrat;letter-spacing:0px;word-spacing:0px;fill:#0064b5;fill-opacity:1;stroke:none"
     d="m 87.320679,73.213347 h 1.704 v 17.808 h -1.704 z" />
  <path
     inkscape:connector-curvature="0"
     id="path1016"
     style="font-style:normal;font-variant:normal;font-weight:normal;font-stretch:normal;font-size:24px;line-height:1.25;font-family:Montserrat;-inkscape-font-specification:Montserrat;letter-spacing:0px;word-spacing:0px;fill:#0064b5;fill-opacity:1;stroke:none"
     d="M 104.78143,85.237347 H 94.221429 q 0.144,1.968 1.512,3.192 1.368,1.2 3.456,1.2 1.176001,0 2.160001,-0.408 0.984,-0.432 1.704,-1.248 l 0.96,1.104 q -0.84,1.008 -2.112,1.536 -1.248,0.528 -2.760001,0.528 -1.944,0 -3.456,-0.816 -1.488,-0.84 -2.328,-2.304 -0.84,-1.464 -0.84,-3.312 0,-1.848 0.792,-3.312 0.816,-1.464 2.208,-2.28 1.416,-0.816 3.168,-0.816 1.752001,0 3.144001,0.816 1.392,0.816 2.184,2.28 0.792,1.44 0.792,3.312 z m -6.096001,-5.472 q -1.824,0 -3.072,1.176 -1.224,1.152 -1.392,3.024 h 8.952001 q -0.168,-1.872 -1.416,-3.024 -1.224,-1.176 -3.072001,-1.176 z" />
  <path
     inkscape:connector-curvature="0"
     id="path1018"
     style="font-style:normal;font-variant:normal;font-weight:normal;font-stretch:normal;font-size:24px;line-height:1.25;font-family:Montserrat;-inkscape-font-specification:Montserrat;letter-spacing:0px;word-spacing:0px;fill:#0064b5;fill-opacity:1;stroke:none"
     d="m 112.3148,78.301347 q 2.472,0 3.792,1.248 1.32,1.224 1.32,3.648 v 7.824 h -1.632 v -1.968 q -0.576,0.984 -1.704,1.536 -1.104,0.552 -2.64,0.552 -2.112,0 -3.36,-1.008 -1.248,-1.008 -1.248,-2.664 0,-1.608 1.152,-2.592 1.176,-0.984 3.72,-0.984 h 4.008 v -0.768 q 0,-1.632 -0.912,-2.472 -0.912,-0.864 -2.664,-0.864 -1.2,0 -2.304,0.408 -1.104,0.384 -1.896,1.08 l -0.768,-1.272 q 0.96,-0.816 2.304,-1.248 1.344,-0.456 2.832,-0.456 z m -0.6,11.496 q 1.44,0 2.472,-0.648 1.032,-0.672 1.536,-1.92 v -2.064 h -3.96 q -3.24,0 -3.24,2.256 0,1.104 0.84,1.752 0.84,0.624 2.352,0.624 z" />
  <path
     inkscape:connector-curvature="0"
     id="path1020"
     style="font-style:normal;font-variant:normal;font-weight:normal;font-stretch:normal;font-size:24px;line-height:1.25;font-family:Montserrat;-inkscape-font-specification:Montserrat;letter-spacing:0px;word-spacing:0px;fill:#0064b5;fill-opacity:1;stroke:none"
     d="m 123.68705,80.869347 q 0.6,-1.272 1.776,-1.92 1.2,-0.648 2.952,-0.648 v 1.656 l -0.408,-0.024 q -1.992,0 -3.12,1.224 -1.128,1.224 -1.128,3.432 v 6.432 h -1.704 v -12.624 h 1.632 z" />
  <path
     inkscape:connector-curvature="0"
     id="path1022"
     style="font-style:normal;font-variant:normal;font-weight:normal;font-stretch:normal;font-size:24px;line-height:1.25;font-family:Montserrat;-inkscape-font-specification:Montserrat;letter-spacing:0px;word-spacing:0px;fill:#0064b5;fill-opacity:1;stroke:none"
     d="m 131.47693,73.213347 h 1.704 v 17.808 h -1.704 z" />
  <path
     inkscape:connector-curvature="0"
     id="path1024"
     style="font-style:normal;font-variant:normal;font-weight:normal;font-stretch:normal;font-size:24px;line-height:1.25;font-family:Montserrat;-inkscape-font-specification:Montserrat;letter-spacing:0px;word-spacing:0px;fill:#0064b5;fill-opacity:1;stroke:none"
     d="m 148.55368,78.397347 -6.312,14.136 q -0.768,1.776 -1.776,2.52 -1.008,0.744 -2.424,0.744 -0.912,0 -1.704,-0.288 -0.792,-0.288 -1.368,-0.864 l 0.792,-1.272 q 0.96,0.96 2.304,0.96 0.864,0 1.464,-0.48 0.624,-0.48 1.152,-1.632 l 0.552,-1.224 -5.64,-12.6 h 1.776 l 4.752,10.728 4.752,-10.728 z" />
  <path
     inkscape:connector-curvature="0"
     id="path1028"
     style="font-style:normal;font-variant:normal;font-weight:600;font-stretch:normal;font-size:24px;line-height:1.25;font-family:Montserrat;-inkscape-font-specification:'Montserrat Semi-Bold';letter-spacing:0px;word-spacing:0px;fill:#0064b5;fill-opacity:1;stroke:none"
     d="m 179.11693,84.685347 q 0,0.312 -0.048,0.888 h -10.056 q 0.264,1.416 1.368,2.256 1.128,0.816 2.784,0.816 2.112,0 3.48,-1.392 l 1.608,1.848 q -0.864,1.032 -2.184,1.56 -1.32,0.528 -2.976,0.528 -2.112,0 -3.72,-0.84 -1.608,-0.84 -2.496,-2.328 -0.864,-1.512 -0.864,-3.408 0,-1.872 0.84,-3.36 0.864,-1.512 2.376,-2.352 1.512,-0.84 3.408,-0.84 1.872,0 3.336,0.84 1.488,0.816 2.304,2.328 0.84,1.488 0.84,3.456 z m -6.48,-4.224 q -1.44,0 -2.448,0.864 -0.984,0.84 -1.2,2.256 h 7.272 q -0.192,-1.392 -1.176,-2.256 -0.984,-0.864 -2.448,-0.864 z" />
  <path
     inkscape:connector-curvature="0"
     id="path1030"
     style="font-style:normal;font-variant:normal;font-weight:600;font-stretch:normal;font-size:24px;line-height:1.25;font-family:Montserrat;-inkscape-font-specification:'Montserrat Semi-Bold';letter-spacing:0px;word-spacing:0px;fill:#0064b5;fill-opacity:1;stroke:none"
     d="m 187.18318,75.469347 q -1.896,0 -1.896,2.064 v 0.768 h 3.528 v 2.4 h -3.432 v 10.32 h -3 v -10.32 h -2.112 v -2.4 h 2.112 v -0.816 q 0,-2.064 1.2,-3.24 1.2,-1.2 3.384,-1.2 1.728,0 2.712,0.696 l -0.84,2.256 q -0.768,-0.528 -1.656,-0.528 z m 5.568,2.736 h 3 v 12.816 h -3 z m 1.512,-2.112 q -0.816,0 -1.368,-0.504 -0.552,-0.528 -0.552,-1.296 0,-0.768 0.552,-1.272 0.552,-0.528 1.368,-0.528 0.816,0 1.368,0.504 0.552,0.48 0.552,1.224 0,0.792 -0.552,1.344 -0.528,0.528 -1.368,0.528 z" />
  <path
     inkscape:connector-curvature="0"
     id="path1032"
     style="font-style:normal;font-variant:normal;font-weight:600;font-stretch:normal;font-size:24px;line-height:1.25;font-family:Montserrat;-inkscape-font-specification:'Montserrat Semi-Bold';letter-spacing:0px;word-spacing:0px;fill:#0064b5;fill-opacity:1;stroke:none"
     d="m 206.96593,78.061347 q 2.424,0 3.888,1.416 1.464,1.416 1.464,4.2 v 7.344 h -3 v -6.96 q 0,-1.68 -0.792,-2.52 -0.792,-0.864 -2.256,-0.864 -1.656,0 -2.616,1.008 -0.96,0.984 -0.96,2.856 v 6.48 h -3 v -12.816 h 2.856 v 1.656 q 0.744,-0.888 1.872,-1.344 1.128,-0.456 2.544,-0.456 z" />
  <path
     inkscape:connector-curvature="0"
     id="path1034"
     style="font-style:normal;font-variant:normal;font-weight:600;font-stretch:normal;font-size:24px;line-height:1.25;font-family:Montserrat;-inkscape-font-specification:'Montserrat Semi-Bold';letter-spacing:0px;word-spacing:0px;fill:#0064b5;fill-opacity:1;stroke:none"
     d="m 228.33568,84.685347 q 0,0.312 -0.048,0.888 h -10.056 q 0.264,1.416 1.368,2.256 1.128,0.816 2.784,0.816 2.112,0 3.48,-1.392 l 1.608,1.848 q -0.864,1.032 -2.184,1.56 -1.32,0.528 -2.976,0.528 -2.112,0 -3.72,-0.84 -1.608,-0.84 -2.496,-2.328 -0.864,-1.512 -0.864,-3.408 0,-1.872 0.84,-3.36 0.864,-1.512 2.376,-2.352 1.512,-0.84 3.408,-0.84 1.872,0 3.336,0.84 1.488,0.816 2.304,2.328 0.84,1.488 0.84,3.456 z m -6.48,-4.224 q -1.44,0 -2.448,0.864 -0.984,0.84 -1.2,2.256 h 7.272 q -0.192,-1.392 -1.176,-2.256 -0.984,-0.864 -2.448,-0.864 z" />
  <path
     inkscape:connector-curvature="0"
     id="path1036"
     style="font-style:normal;font-variant:normal;font-weight:600;font-stretch:normal;font-size:24px;line-height:1.25;font-family:Montserrat;-inkscape-font-specification:'Montserrat Semi-Bold';letter-spacing:0px;word-spacing:0px;fill:#0064b5;fill-opacity:1;stroke:none"
     d="m 243.74593,73.213347 v 17.808 h -2.88 v -1.656 q -0.744,0.912 -1.848,1.368 -1.08,0.456 -2.4,0.456 -1.848,0 -3.336,-0.816 -1.464,-0.816 -2.304,-2.304 -0.84,-1.512 -0.84,-3.456 0,-1.944 0.84,-3.432 0.84,-1.488 2.304,-2.304 1.488,-0.816 3.336,-0.816 1.272,0 2.328,0.432 1.056,0.432 1.8,1.296 v -6.576 z m -6.768,15.408 q 1.08,0 1.944,-0.48 0.864,-0.504 1.368,-1.416 0.504,-0.912 0.504,-2.112 0,-1.2 -0.504,-2.112 -0.504,-0.912 -1.368,-1.392 -0.864,-0.504 -1.944,-0.504 -1.08,0 -1.944,0.504 -0.864,0.48 -1.368,1.392 -0.504,0.912 -0.504,2.112 0,1.2 0.504,2.112 0.504,0.912 1.368,1.416 0.864,0.48 1.944,0.48 z" />
  <path
     inkscape:connector-curvature="0"
     id="path1038"
     style="font-style:normal;font-variant:normal;font-weight:normal;font-stretch:normal;font-size:medium;line-height:1.25;font-family:Montserrat;-inkscape-font-specification:Montserrat;letter-spacing:0px;word-spacing:0px;fill:#0064b5;fill-opacity:1;stroke:none"
     d="m 248.26993,91.141347 q -0.528,0 -0.912,-0.384 -0.36,-0.384 -0.36,-0.936 0,-0.552 0.36,-0.912 0.384,-0.384 0.912,-0.384 0.528,0 0.912,0.384 0.384,0.36 0.384,0.912 0,0.552 -0.384,0.936 -0.384,0.384 -0.912,0.384 z" />
  <path
     inkscape:connector-curvature="0"
     id="path1040"
     style="font-style:normal;font-variant:normal;font-weight:normal;font-stretch:normal;font-size:medium;line-height:1.25;font-family:Montserrat;-inkscape-font-specification:Montserrat;letter-spacing:0px;word-spacing:0px;fill:#0064b5;fill-opacity:1;stroke:none"
     d="m 253.2113,78.397347 h 1.704 v 12.624 h -1.704 z m 0.864,-2.76 q -0.528,0 -0.888,-0.36 -0.36,-0.36 -0.36,-0.864 0,-0.48 0.36,-0.84 0.36,-0.36 0.888,-0.36 0.528,0 0.888,0.36 0.36,0.336 0.36,0.816 0,0.528 -0.36,0.888 -0.36,0.36 -0.888,0.36 z" />
  <path
     inkscape:connector-curvature="0"
     id="path1042"
     style="font-style:normal;font-variant:normal;font-weight:normal;font-stretch:normal;font-size:medium;line-height:1.25;font-family:Montserrat;-inkscape-font-specification:Montserrat;letter-spacing:0px;word-spacing:0px;fill:#0064b5;fill-opacity:1;stroke:none"
     d="m 264.84005,91.141347 q -1.824,0 -3.288,-0.816 -1.464,-0.84 -2.304,-2.304 -0.84,-1.464 -0.84,-3.312 0,-1.848 0.84,-3.312 0.84,-1.464 2.304,-2.28 1.464,-0.816 3.288,-0.816 1.824,0 3.288,0.816 1.464,0.816 2.28,2.28 0.84,1.464 0.84,3.312 0,1.848 -0.84,3.312 -0.816,1.464 -2.28,2.304 -1.464,0.816 -3.288,0.816 z m 0,-1.512 q 1.344,0 2.4,-0.6 1.08,-0.624 1.68,-1.752 0.6,-1.128 0.6,-2.568 0,-1.44 -0.6,-2.568 -0.6,-1.128 -1.68,-1.728 -1.056,-0.624 -2.4,-0.624 -1.344,0 -2.424,0.624 -1.056,0.6 -1.68,1.728 -0.6,1.128 -0.6,2.568 0,1.44 0.6,2.568 0.624,1.128 1.68,1.752 1.08,0.6 2.424,0.6 z" />
  <flowRoot
     xml:space="preserve"
     id="flowRoot1203"
     style="fill:black;fill-opacity:1;stroke:none;font-family:sans-serif;font-style:normal;font-weight:normal;font-size:40px;line-height:1.25;letter-spacing:0px;word-spacing:0px"><flowRegion
       id="flowRegion1205"><rect
         id="rect1207"
         width="153.85901"
         height="42.082722"
         x="42.844402"
         y="13.187709" /></flowRegion><flowPara
       id="flowPara1209"></flowPara></flowRoot></svg>
