<svg xmlns="http://www.w3.org/2000/svg" viewBox="0 0 275 164"><title>FullLogo_color_v_dark</title><rect width="275" height="164" fill="#282828"/><path d="M55.748,122.876a7.888,7.888,0,0,1-3.024-2.954,8.2,8.2,0,0,1-1.086-4.236,8.3,8.3,0,0,1,1.086-4.236,7.888,7.888,0,0,1,3.024-2.954,8.978,8.978,0,0,1,4.342-1.049,8.488,8.488,0,0,1,3.335.622,6.676,6.676,0,0,1,2.6,1.749l-1.085,1.088a6.508,6.508,0,0,0-4.808-1.943,7.063,7.063,0,0,0-3.489.894,6.725,6.725,0,0,0-2.482,2.409,6.819,6.819,0,0,0-.891,3.42,6.712,6.712,0,0,0,.891,3.42,6.188,6.188,0,0,0,2.482,2.409,7.063,7.063,0,0,0,3.489.894,6.508,6.508,0,0,0,4.808-1.943l1.085,1.088a7.218,7.218,0,0,1-2.6,1.788,8.506,8.506,0,0,1-3.335.622A9.34,9.34,0,0,1,55.748,122.876Z" fill="#fff"/><path d="M69.321,106.6h1.667v17.216H69.359V106.6Z" fill="#fff"/><path d="M86.143,118.212h-10.2a4.229,4.229,0,0,0,1.473,3.07,4.843,4.843,0,0,0,3.334,1.166,5.42,5.42,0,0,0,2.094-.388,4.156,4.156,0,0,0,1.628-1.2l.931,1.049a5.142,5.142,0,0,1-2.016,1.477,7.273,7.273,0,0,1-6.01-.311,5.873,5.873,0,0,1-2.249-2.215,6.3,6.3,0,0,1-.814-3.187,6.57,6.57,0,0,1,.776-3.187,5.846,5.846,0,0,1,2.132-2.215,5.665,5.665,0,0,1,3.024-.777,6.036,6.036,0,0,1,3.024.777,5.64,5.64,0,0,1,2.094,2.177,6.718,6.718,0,0,1,.775,3.225ZM77.3,114.054a4.488,4.488,0,0,0-1.357,2.954h8.646a4.488,4.488,0,0,0-1.357-2.954,4.192,4.192,0,0,0-2.986-1.127A4.059,4.059,0,0,0,77.3,114.054Z" fill="#fff"/><path d="M97.077,112.7a4.588,4.588,0,0,1,1.279,3.536v7.578H96.767v-1.9a4.009,4.009,0,0,1-1.629,1.477,5.661,5.661,0,0,1-2.559.544,5,5,0,0,1-3.256-.972,3.13,3.13,0,0,1-1.2-2.565,3.087,3.087,0,0,1,1.124-2.487,5.527,5.527,0,0,1,3.567-.933h3.877v-.738a3.168,3.168,0,0,0-.892-2.409,3.61,3.61,0,0,0-2.559-.817,6.021,6.021,0,0,0-2.21.389,6.425,6.425,0,0,0-1.822,1.049L88.47,113.2a6.091,6.091,0,0,1,2.21-1.2,9.007,9.007,0,0,1,2.714-.427A4.734,4.734,0,0,1,97.077,112.7Zm-1.822,9.288a3.832,3.832,0,0,0,1.473-1.827v-1.982h-3.8c-2.093,0-3.14.739-3.14,2.176a1.963,1.963,0,0,0,.814,1.672,3.523,3.523,0,0,0,2.249.621A4.712,4.712,0,0,0,95.255,121.987Z" fill="#fff"/><path d="M106.109,112.111a5.751,5.751,0,0,1,2.831-.622v1.593l-.388-.038a3.968,3.968,0,0,0-3.024,1.165,4.652,4.652,0,0,0-1.086,3.3v6.218h-1.628v-12.2h1.59v2.37A4.44,4.44,0,0,1,106.109,112.111Z" fill="#fff"/><path d="M111.926,106.6h1.629v17.216h-1.629Z" fill="#fff"/><path d="M128.37,111.61l-6.087,13.68a6.17,6.17,0,0,1-1.706,2.448,3.918,3.918,0,0,1-2.326.7,4.489,4.489,0,0,1-1.629-.272,4.171,4.171,0,0,1-1.318-.816l.776-1.244a3.015,3.015,0,0,0,2.21.933,2.276,2.276,0,0,0,1.434-.466,3.791,3.791,0,0,0,1.086-1.594l.543-1.166-5.428-12.164h1.706l4.575,10.377,4.575-10.377h1.589Z" fill="#fff"/><path d="M130.581,107.569h7.095a10.328,10.328,0,0,1,4.614,1.01,7.581,7.581,0,0,1,4.265,7.112,8.272,8.272,0,0,1-1.125,4.275,7.2,7.2,0,0,1-3.14,2.837,10.341,10.341,0,0,1-4.614,1.01h-7.095Zm6.94,13.679a6.686,6.686,0,0,0,3.14-.7,5.063,5.063,0,0,0,2.094-1.943,5.621,5.621,0,0,0,.737-2.915,5.525,5.525,0,0,0-.737-2.915,4.833,4.833,0,0,0-2.094-1.943,6.686,6.686,0,0,0-3.14-.7H133.6v11.115Z" fill="#fff"/><path d="M160.977,118.523h-9.693A3.463,3.463,0,0,0,152.6,120.7a4.3,4.3,0,0,0,2.675.817,4.583,4.583,0,0,0,3.373-1.361l1.551,1.788a5.216,5.216,0,0,1-2.094,1.516,7.559,7.559,0,0,1-2.869.5,7.709,7.709,0,0,1-3.606-.816,5.867,5.867,0,0,1-2.4-2.254,6.227,6.227,0,0,1-.853-3.265,6.572,6.572,0,0,1,.815-3.264,5.8,5.8,0,0,1,2.287-2.254,6.582,6.582,0,0,1,3.3-.816,6.292,6.292,0,0,1,3.218.816,5.614,5.614,0,0,1,2.21,2.254,6.765,6.765,0,0,1,.814,3.342A7.265,7.265,0,0,1,160.977,118.523Zm-8.53-4.119a3.276,3.276,0,0,0-1.163,2.176H158.3a3.4,3.4,0,0,0-1.124-2.176,3.5,3.5,0,0,0-2.365-.816A3.436,3.436,0,0,0,152.447,114.4Z" fill="#fff"/><path d="M166.985,110.748v.739H170.4v2.331h-3.3v9.988h-2.908v-9.988h-2.055v-2.331h2.055v-.778a4.263,4.263,0,0,1,1.163-3.148,4.4,4.4,0,0,1,3.257-1.165,4.5,4.5,0,0,1,2.6.66l-.814,2.176a2.67,2.67,0,0,0-1.59-.5C167.605,108.766,166.985,109.427,166.985,110.748Zm7.366-1.9a1.7,1.7,0,0,1,0-2.487,1.752,1.752,0,0,1,1.319-.506,1.887,1.887,0,0,1,1.318.467,1.536,1.536,0,0,1,.543,1.2,1.729,1.729,0,0,1-.5,1.282,1.751,1.751,0,0,1-1.319.5A1.628,1.628,0,0,1,174.351,108.844Zm-.155,2.565H177.1v12.4H174.2Z" fill="#fff"/><path d="M191.642,112.614a5.378,5.378,0,0,1,1.4,4.042v7.112H190.13v-6.723a3.5,3.5,0,0,0-.775-2.449,2.833,2.833,0,0,0-2.171-.816,3.3,3.3,0,0,0-2.521.972,3.83,3.83,0,0,0-.93,2.759v6.257h-2.908v-12.4h2.753v1.593a4.1,4.1,0,0,1,1.822-1.282,6.213,6.213,0,0,1,2.443-.428A5.221,5.221,0,0,1,191.642,112.614Z" fill="#fff"/><path d="M208.427,118.523h-9.693a3.462,3.462,0,0,0,1.318,2.176,4.3,4.3,0,0,0,2.676.817,4.583,4.583,0,0,0,3.373-1.361l1.551,1.788a5.216,5.216,0,0,1-2.094,1.516,7.559,7.559,0,0,1-2.869.5,7.709,7.709,0,0,1-3.606-.816,5.867,5.867,0,0,1-2.4-2.254,6.227,6.227,0,0,1-.853-3.265,6.582,6.582,0,0,1,.814-3.264,5.807,5.807,0,0,1,2.288-2.254,6.582,6.582,0,0,1,3.3-.816,6.292,6.292,0,0,1,3.218.816,5.614,5.614,0,0,1,2.21,2.254,6.776,6.776,0,0,1,.814,3.342A7.265,7.265,0,0,1,208.427,118.523Zm-8.568-4.119a3.273,3.273,0,0,0-1.164,2.176h7.018a3.4,3.4,0,0,0-1.124-2.176,3.5,3.5,0,0,0-2.365-.816A3.571,3.571,0,0,0,199.859,114.4Z" fill="#fff"/><path d="M223.362,106.6v17.216H220.57v-1.632a4.661,4.661,0,0,1-1.783,1.321,5.646,5.646,0,0,1-2.327.428,6.789,6.789,0,0,1-3.218-.778,5.963,5.963,0,0,1-2.248-2.254,6.662,6.662,0,0,1-.815-3.342,6.518,6.518,0,0,1,.815-3.3,5.369,5.369,0,0,1,2.248-2.215,6.275,6.275,0,0,1,3.218-.778,6.1,6.1,0,0,1,2.249.428,4.634,4.634,0,0,1,1.745,1.244v-6.374h2.908Zm-4.653,14.418a3.419,3.419,0,0,0,1.318-1.36,4.364,4.364,0,0,0,.5-2.06,4.057,4.057,0,0,0-.5-2.06,3.419,3.419,0,0,0-1.318-1.36,3.949,3.949,0,0,0-3.722,0,3.419,3.419,0,0,0-1.318,1.36,4.376,4.376,0,0,0-.5,2.06,4.057,4.057,0,0,0,.5,2.06,3.419,3.419,0,0,0,1.318,1.36,3.676,3.676,0,0,0,1.861.466A3.886,3.886,0,0,0,218.709,121.013Z" fill="#fff"/><path d="M147.59,46.707c-.448.044-.9.089-1.434.134.09.9.179,1.8.224,2.74a2.38,2.38,0,0,0,1.165,2.067,5.186,5.186,0,0,0,1.614.494,12.068,12.068,0,0,0,1.792-.045c.538-.045.673-.494.717-.9.135-.809.18-1.662.269-2.516.045-.494.09-.943.18-1.437,0-.135.224-.27.358-.27.941-.045,1.882-.09,2.823-.09.225,0,.493.045.717.045.986,0,1.435.359,1.524,1.348q.135,1.752.135,3.5c0,.449-.4.673-.807.718-.627.045-1.3.045-1.927.09-.493.045-.941.09-1.434.135a1.107,1.107,0,0,0-.986,1.078,5.576,5.576,0,0,0,.358,2.83,2.03,2.03,0,0,0,.762.853,11.961,11.961,0,0,0,2.2.539,3.363,3.363,0,0,0,.673,0c.716.045,1.075-.224,1.165-.988.089-1.033.134-2.021.179-3.054l5.6,3.279c0,.674-.583.988-1.434,1.123-.9.135-1.838.09-2.779.135-.717.044-1.075.269-1.075.943-.045,1.213,0,2.381.044,3.593a.938.938,0,0,0,.9.944c.851.135,1.7.224,2.6.314.4.045.807.045,1.255.09a.625.625,0,0,1,.627.674c.045.943.09,1.842.09,2.785,0,.539-.045,1.123-.09,1.662a.771.771,0,0,1-.762.674c-.986.09-2.016.135-3,.269a1.562,1.562,0,0,0-1.569,1.573,15.323,15.323,0,0,0-.045,2.47c.09,1.213.4,1.527,1.614,1.617.851.045,1.7.045,2.554.135.672.045.986.269,1.031.943a30.341,30.341,0,0,1,0,3.5c-.045.809-.583,1.123-1.7,1.213s-2.241.135-3.361.18c-.314,0-.672-.5-.672-.9V79.094a8.253,8.253,0,0,0-.135-1.482.9.9,0,0,0-.762-.764,3.927,3.927,0,0,0-3.226.853,3.158,3.158,0,0,0-.628,1.528,5.489,5.489,0,0,0,0,1.482c0,.359.18.539.538.719a6.309,6.309,0,0,0,2.42.494H157a.773.773,0,0,1,.852.9c-.045.674-.045,1.393-.045,2.067-.045.629-.045,1.213-.134,1.841a1.585,1.585,0,0,1-1.345,1.168c-1.21,0-2.42.09-3.585.135-.672.045-.941-.269-.986-.943q-.068-1.281-.134-2.561c-.135-1.527-1.39-1.752-2.42-1.572-2.376.4-2.779,2.471-2.465,4.088.134.674.762.719,1.255.764.941.044-1.972,2.605-2.062,1.572-.089-.674-.358-1.033-1.031-1.078a27.408,27.408,0,0,0-3.316.089,1.558,1.558,0,0,0-1.21,1.483c-.134.988-.224,2.021-.314,3.009-.044.539-.269.764-.806.764-.941.045-1.883.09-2.824.09-.537,0-1.03-.09-1.568-.135a.538.538,0,0,1-.493-.539c-.09-1.123-.179-2.291-.269-3.414a1.488,1.488,0,0,0-1.3-1.392c-1.03-.09-2.106-.18-3.137-.18-.851,0-1.12.314-1.21,1.168-.089.808-.623,1.547-.713,2.356a3.023,3.023,0,0,1-.312,1.248c-.135.269-.511.267-.78.312a18.46,18.46,0,0,1-2.731-.078c-.852-.09-.847-.35-.936-1.248-.045-1.078.435-1.92.39-3.043,0-.584.041-.234.624-.234,1.255-.045,1.944-.178,3.2-.312.224-.045.677-.933.721-1.2a6.821,6.821,0,0,0-.358-3.279,1.78,1.78,0,0,0-1.434-1.078,5.447,5.447,0,0,0-2.555-.18,1.021,1.021,0,0,0-.941.988c-.089.809-.134,1.617-.224,2.471v.943a.827.827,0,0,1-.941.854c-1.075-.045-2.151-.045-3.227-.135s-1.434-.539-1.434-1.617c0-.944-.044-1.887-.089-2.83,0-.764.134-1.033.9-1.078.807-.09,1.658-.135,2.465-.18a9.026,9.026,0,0,0,1.165-.18.908.908,0,0,0,.717-.9,13.419,13.419,0,0,0-.179-2.7,2.048,2.048,0,0,0-1.7-1.662c-.538-.09-2.644-.18-3.361-.18-.045.9-.09,1.752-.135,2.605-.045.809-.089,1.573-.179,2.381a.57.57,0,0,1-.314.4,9.6,9.6,0,0,1-3.585,0c-1.075-.134-1.479-.584-1.479-1.662v-2.2c.045-.853.359-1.258,1.165-1.392a13.925,13.925,0,0,1,1.972-.225c.538-.045,1.076,0,1.569-.045.672-.045.717-.045.717-.763,0-1.348-.045-2.7-.09-4.043,0-.539.045-7.232.09-8,.089-1.393.089-2.83.134-4.223,0-.449.09-.673.628-.673,1.075-.045,2.151-.18,3.226-.315a1.913,1.913,0,0,0,1.659-1.752c.089-.853.134-1.752.179-2.6,0-.809-.179-1.078-.986-1.168-.583-.09-1.165-.045-1.748-.09-.672-.045-1.389-.18-2.061-.269a.675.675,0,0,1-.628-.764c0-1.033-.045-2.066.045-3.144.09-.944.448-1.3,1.389-1.393,1.031-.09,2.062-.045,3.048-.045a.742.742,0,0,1,.806.674c.09.629.18,1.258.224,1.932.09.718.09,1.482.18,2.2a.619.619,0,0,0,.358.449,13.977,13.977,0,0,0,1.972.179c.583,0,1.12-.179,1.7-.224a1.529,1.529,0,0,0,1.344-1.393,14.262,14.262,0,0,0,.314-2.785c.045-1.482.224-1.257,1.434-1.347l3.81-.135c.358,0,.582-.18.627-.629.09-1.3.224-2.56.358-3.818.09-.719.449-.988,1.166-1.033h3.092c.807,0,1.165.359,1.255,1.168.089,1.033.179,2.021.269,3.054.089.943.269,1.213,1.21,1.258,1.3.09,2.644.045,3.943.045a.473.473,0,0,0,.538-.449c.045-.36.135-.764.179-1.123" fill="#0064b5"/><g opacity="0.8"><path d="M116.481,57.592a1.3,1.3,0,0,1-1.121.687,34.018,34.018,0,0,1-3.674-.3.82.82,0,0,1-.627-.808c-.045-.854-.09-1.752-.09-2.605a1.533,1.533,0,0,1,1.658-1.663c.9-.044,1.793-.044,2.644-.044.672,0,.986.314,1.076.988A35.055,35.055,0,0,1,116.481,57.592Z" fill="#38a038"/></g><g opacity="0.8"><path d="M125.49,41c.538.045,1.076.09,1.613.09a.82.82,0,0,1,.807.628,24.517,24.517,0,0,1,.321,3.878,1.1,1.1,0,0,1-.9,1.056c-.916-.014-1.838-.048-2.785-.082a2.844,2.844,0,0,1-1.21-.315.937.937,0,0,1-.583-.988c0-.9.045-1.8.09-2.65a1.472,1.472,0,0,1,1.569-1.527c.313-.045.672-.045,1.075-.09Z" fill="#38a038"/></g><g opacity="0.8"><path d="M163.9,71.005a.446.446,0,0,1,.269-.36,13.3,13.3,0,0,1,1.882-.179,15.257,15.257,0,0,1,1.882.179,1.232,1.232,0,0,1,1.255,1.123,6,6,0,0,1-.179,3.324,1.074,1.074,0,0,1-.673.584,31.879,31.879,0,0,1-3.585.18.888.888,0,0,1-.851-.988C163.854,74.239,163.854,71.678,163.9,71.005Z" fill="#38a038"/></g><g opacity="0.8"><path d="M166.5,58.789h1.075c1.076.044,1.434.269,1.613,1.347A5.031,5.031,0,0,1,169,63.281c-.134.224-.358.539-.582.584a8.655,8.655,0,0,1-3.72.179c-.672-.135-.807-.314-.807-1.033V60.046c0-.943.18-1.123,1.076-1.257.134,0,.224-.045.358-.045a10.1,10.1,0,0,1,1.166.045Z" fill="#38a038"/></g><g opacity="0.8"><path d="M143.148,99.524c-.538-.045-1.031-.09-1.569-.18a1,1,0,0,1-.9-.9,33.237,33.237,0,0,1-.269-3.638.733.733,0,0,1,.9-.764c1.075.045,2.151-.045,3.226,0,.986.09,1.3.449,1.255,1.482a18.737,18.737,0,0,1-.09,2.246c-.089,1.213-.672,1.707-1.882,1.707A3.607,3.607,0,0,0,143.148,99.524Z" fill="#38a038"/></g><g opacity="0.8"><path d="M134.053,96.341c-.044.584-.044,1.168-.134,1.751a1.517,1.517,0,0,1-1.524,1.393,15.07,15.07,0,0,1-2.016,0,1.44,1.44,0,0,1-1.569-1.572c-.045-.629-.09-1.3-.09-1.932a5.216,5.216,0,0,1,.314-1.392c.179-.494.672-.449,1.076-.494.941-.045,1.927-.045,2.913-.045a1.015,1.015,0,0,1,1.03,1.033,10.907,10.907,0,0,1,0,1.213C134.009,96.341,134.053,96.341,134.053,96.341Z" fill="#38a038"/></g><g opacity="0.8"><path d="M163.449,91v.944c-.045.943-.359,1.482-1.3,1.572a14.693,14.693,0,0,1-3.137-.18c-.224-.045-.627-.4-.627-.629a19.492,19.492,0,0,1-.18-3.234c.045-.9.448-1.123,1.345-1.168a21.761,21.761,0,0,1,2.42.09,1.506,1.506,0,0,1,1.434,1.572A7.943,7.943,0,0,1,163.449,91Z" fill="#38a038"/></g><g opacity="0.8"><path d="M166.68,52.139h-1.03c-.852-.045-1.345-.315-1.39-1.168a14.425,14.425,0,0,1,.09-3.1,1.13,1.13,0,0,1,1.165-.943c.852,0,1.748,0,2.6.045a.985.985,0,0,1,1.031.9,7.133,7.133,0,0,1,0,3.369,1.052,1.052,0,0,1-.986.854,8.13,8.13,0,0,1-1.479.045Z" fill="#38a038"/></g><g opacity="0.8"><path d="M116.26,90.944c-.045.494-.045.943-.134,1.437-.224.9-.538,1.168-1.434,1.213a16.455,16.455,0,0,1-2.107,0,1.487,1.487,0,0,1-1.568-1.662c-.045-.629,0-1.3,0-1.931a1.5,1.5,0,0,1,1.524-1.573,17.873,17.873,0,0,1,2.2,0,1.509,1.509,0,0,1,1.523,1.617A5.987,5.987,0,0,0,116.26,90.944Z" fill="#38a038"/></g><g opacity="0.8"><path d="M116.212,43.652a7.9,7.9,0,0,1,0,1.033,1.566,1.566,0,0,1-1.658,1.617h-1.882a1.519,1.519,0,0,1-1.613-1.572,15.826,15.826,0,0,1,0-2.066,1.532,1.532,0,0,1,1.568-1.572,14.416,14.416,0,0,1,1.972,0,1.555,1.555,0,0,1,1.613,1.707A5.364,5.364,0,0,1,116.212,43.652Z" fill="#38a038"/></g><g opacity="0.8"><path d="M154.891,99.486h-.985a1.391,1.391,0,0,1-1.524-1.438,18.007,18.007,0,0,1,.179-3.1.786.786,0,0,1,.583-.539,20.152,20.152,0,0,1,2.868-.09c1.031.045,1.479.584,1.524,1.617v1.842a1.58,1.58,0,0,1-1.7,1.707Z" fill="#38a038"/></g><g opacity="0.8"><path d="M105.546,73.209V71.636c0-.494.179-.853.672-.853a17.391,17.391,0,0,1,2.644-.045c1.39.09,1.479.225,1.479,1.617q0,1.414-.134,2.83c-.045.449-.314.629-.762.674-.941.045-1.927.09-2.868.045-.852-.045-1.076-.315-1.076-1.168v-.764A4.6,4.6,0,0,0,105.546,73.209Z" fill="#38a038"/></g><g opacity="0.8"><path d="M143.1,35.562h1.434c.807,0,1.165.225,1.21,1.033a22.63,22.63,0,0,1-.134,3.01c-.045.494-.448.719-1.121.763-.941.045-1.882.045-2.868,0a.853.853,0,0,1-.986-.9,8.765,8.765,0,0,1,.09-3.414c.09-.359.314-.494.717-.494Z" fill="#38a038"/></g><g opacity="0.8"><path d="M105.548,61.389V59.682c0-.449.179-.763.628-.808a6.256,6.256,0,0,1,3.63.224.85.85,0,0,1,.448.584c.045,1.078.134,2.157.089,3.235-.044.763-.358,1.033-1.075,1.078-.852.045-1.7.045-2.555.045s-1.12-.315-1.12-1.168C105.548,62.378,105.548,61.883,105.548,61.389Z" fill="#38a038"/></g><g opacity="0.8"><path d="M131.318,35.562h1.613c.583,0,.9.18.9.764.045,1.123,0,2.246-.044,3.369-.045.539-.583.673-.986.673a25.959,25.959,0,0,1-3.227-.089.818.818,0,0,1-.583-.45,7.021,7.021,0,0,1-.179-3.728c.045-.4.314-.539.717-.539Z" fill="#38a038"/></g><g opacity="0.8"><path d="M105.546,85.022V83.405c0-.4.135-.629.493-.719a5.588,5.588,0,0,1,3.63.135.863.863,0,0,1,.493.674,25.133,25.133,0,0,1,0,3.189,1.236,1.236,0,0,1-.627.809,6.023,6.023,0,0,1-3.451.135.745.745,0,0,1-.583-.809C105.546,86.19,105.546,85.606,105.546,85.022Z" fill="#38a038"/></g><g opacity="0.8"><path d="M154.935,35.562h1.434c.762,0,1.031.09,1.076.853a16.925,16.925,0,0,1-.09,3.01.941.941,0,0,1-.986.854,19.222,19.222,0,0,1-2.778,0c-.807-.045-1.21-.584-1.21-1.573-.045-.673,0-1.347,0-2.021.045-.853.313-1.078,1.165-1.078A13.866,13.866,0,0,1,154.935,35.562Z" fill="#38a038"/></g><g opacity="0.7"><g opacity="0.7"><path d="M139.878,44.812h1.344c.672,0,.941.09.986.764a14.536,14.536,0,0,1-.09,2.785.894.894,0,0,1-.941.808,16.131,16.131,0,0,1-2.554,0c-.762-.045-1.121-.539-1.121-1.482V45.8c.045-.808.269-.988,1.076-.988Z" fill="#00b294"/></g><g opacity="0.7"><path d="M129.12,49.175h1.344c.673,0,.942.09.986.764a14.613,14.613,0,0,1-.089,2.785.894.894,0,0,1-.941.808,16.144,16.144,0,0,1-2.555,0c-.762-.045-1.12-.539-1.12-1.482V50.163c.045-.808.269-.988,1.075-.988Z" fill="#00b294"/></g><g opacity="0.7"><path d="M119.774,60.8h1.345c.672,0,.941.09.986.764a14.615,14.615,0,0,1-.09,2.785.9.9,0,0,1-.941.809,16.251,16.251,0,0,1-2.554,0c-.762-.045-1.121-.539-1.121-1.483V61.792c.045-.809.269-.989,1.076-.989Z" fill="#00b294"/></g><g opacity="0.7"><path d="M120.177,70.589h1.345c.672,0,.941.09.986.764a14.618,14.618,0,0,1-.09,2.785.894.894,0,0,1-.941.808,16.144,16.144,0,0,1-2.555,0c-.762-.045-1.12-.539-1.12-1.482V71.577c.045-.808.269-.988,1.076-.988Z" fill="#00b294"/></g><g opacity="0.7"><path d="M129.12,78.779h1.344c.673,0,.942.09.986.764a14.613,14.613,0,0,1-.089,2.785.9.9,0,0,1-.941.809,16.264,16.264,0,0,1-2.555,0c-.762-.045-1.12-.539-1.12-1.483V79.768c.045-.809.269-.989,1.075-.989Z" fill="#00b294"/></g><g opacity="0.7"><path d="M134.99,83.405h1.345c.672,0,.941.089.986.763a14.613,14.613,0,0,1-.09,2.785.9.9,0,0,1-.941.809,16.131,16.131,0,0,1-2.554,0c-.762-.045-1.121-.539-1.121-1.483V84.393c.045-.809.269-.988,1.076-.988Z" fill="#00b294"/></g><g opacity="0.7"><path d="M146.871,78.461h1.345c.672,0,.941.09.986.764a14.615,14.615,0,0,1-.09,2.785.894.894,0,0,1-.941.808,16.131,16.131,0,0,1-2.554,0c-.762-.045-1.121-.539-1.121-1.482V79.449c.045-.808.269-.988,1.076-.988Z" fill="#00b294"/></g><g opacity="0.7"><path d="M154.708,64.043h1.344c.673,0,.941.09.986.763a14.611,14.611,0,0,1-.089,2.785.9.9,0,0,1-.941.809,16.144,16.144,0,0,1-2.555,0c-.762-.045-1.12-.539-1.12-1.482V65.031c.045-.809.269-.988,1.075-.988Z" fill="#00b294"/></g><g opacity="0.7"><path d="M150.766,50.3h1.345c.672,0,.941.089.986.763a14.613,14.613,0,0,1-.09,2.785.9.9,0,0,1-.941.809,16.144,16.144,0,0,1-2.555,0c-.761-.045-1.12-.539-1.12-1.483V51.287c.045-.809.269-.988,1.076-.988Z" fill="#00b294"/></g><g opacity="0.7"><path d="M156.234,72.038h1.344c.673,0,.941.09.986.764a14.613,14.613,0,0,1-.089,2.785.9.9,0,0,1-.941.809,16.264,16.264,0,0,1-2.555,0c-.762-.045-1.12-.539-1.12-1.483V73.027c.044-.809.269-.989,1.075-.989Z" fill="#00b294"/></g></g><path d="M119.669,46.657h1.748c.9,0,1.255.134,1.3,1.078a21.266,21.266,0,0,1-.135,3.773,1.149,1.149,0,0,1-1.21,1.078,27.173,27.173,0,0,1-3.316,0c-.986-.09-1.434-.764-1.479-1.976a24.32,24.32,0,0,1,.045-2.561c.045-1.078.358-1.347,1.389-1.347C118.549,46.657,119.087,46.657,119.669,46.657Z" fill="#5ecff1"/><path d="M148.927,41.133h1.748c.9,0,1.255.134,1.3,1.078a21.27,21.27,0,0,1-.135,3.773,1.149,1.149,0,0,1-1.21,1.078,27.173,27.173,0,0,1-3.316,0c-.986-.09-1.434-.764-1.479-1.976a24.32,24.32,0,0,1,.045-2.561c.045-1.078.358-1.347,1.389-1.347C147.807,41.133,148.389,41.133,148.927,41.133Z" fill="#5ecff1"/><path d="M148.828,87.7h1.748c.9,0,1.254.134,1.3,1.078a21.269,21.269,0,0,1-.134,3.773,1.15,1.15,0,0,1-1.21,1.078,27.189,27.189,0,0,1-3.317,0c-.986-.09-1.434-.764-1.478-1.976a24.592,24.592,0,0,1,.044-2.561c.045-1.078.359-1.347,1.39-1.347C147.707,87.7,148.29,87.7,148.828,87.7Z" fill="#5ecff1"/><path d="M125.586,87.852h1.748c.9,0,1.255.135,1.3,1.078A21.266,21.266,0,0,1,128.5,92.7a1.149,1.149,0,0,1-1.21,1.078,27.173,27.173,0,0,1-3.316,0c-.986-.09-1.434-.763-1.479-1.976a24.32,24.32,0,0,1,.045-2.561c.045-1.078.358-1.347,1.389-1.347C124.466,87.852,125,87.852,125.586,87.852Z" fill="#5ecff1"/><path d="M113.883,64.4h1.748c.9,0,1.255.134,1.3,1.078a21.27,21.27,0,0,1-.135,3.773,1.15,1.15,0,0,1-1.21,1.078,27.173,27.173,0,0,1-3.316,0c-.986-.09-1.434-.764-1.479-1.976a24.32,24.32,0,0,1,.045-2.561c.044-1.078.358-1.347,1.389-1.347C112.763,64.4,113.345,64.4,113.883,64.4Z" fill="#5ecff1"/><path d="M149.84,73.749l-12.022,6.968-11.936-7.055.043-14.021,12.022-6.924,11.935,7.054Z" fill="#fff"/><path d="M160.49,52.724h1.748c.9,0,1.254.134,1.3,1.078a21.269,21.269,0,0,1-.134,3.773,1.15,1.15,0,0,1-1.21,1.078,27.189,27.189,0,0,1-3.317,0c-.985-.09-1.434-.764-1.478-1.976a24.592,24.592,0,0,1,.044-2.561c.045-1.078.359-1.348,1.39-1.348C159.369,52.724,159.907,52.724,160.49,52.724Z" fill="#5ecff1"/></svg>