<svg xmlns="http://www.w3.org/2000/svg" viewBox="0 0 275 164"><title>FullLogo_mono_v</title><path d="M55.748,117.162a7.888,7.888,0,0,1-3.024-2.954,8.2,8.2,0,0,1-1.086-4.236,8.3,8.3,0,0,1,1.086-4.236,7.885,7.885,0,0,1,3.024-2.953,8.968,8.968,0,0,1,4.342-1.05,8.506,8.506,0,0,1,3.335.622,6.687,6.687,0,0,1,2.6,1.749l-1.085,1.088a6.512,6.512,0,0,0-4.808-1.943,7.063,7.063,0,0,0-3.489.894,6.725,6.725,0,0,0-2.482,2.409,6.822,6.822,0,0,0-.891,3.42,6.712,6.712,0,0,0,.891,3.42,6.184,6.184,0,0,0,2.482,2.41,7.063,7.063,0,0,0,3.489.894,6.509,6.509,0,0,0,4.808-1.944l1.085,1.089a7.215,7.215,0,0,1-2.6,1.787,8.488,8.488,0,0,1-3.335.622A9.34,9.34,0,0,1,55.748,117.162Z" fill="#282828"/><path d="M69.321,100.883h1.667V118.1H69.359V100.883Z" fill="#282828"/><path d="M86.143,112.5h-10.2a4.231,4.231,0,0,0,1.473,3.07,4.848,4.848,0,0,0,3.334,1.166,5.42,5.42,0,0,0,2.094-.389,4.156,4.156,0,0,0,1.628-1.2l.931,1.05a5.139,5.139,0,0,1-2.016,1.476,7.263,7.263,0,0,1-6.01-.311,5.873,5.873,0,0,1-2.249-2.215,6.292,6.292,0,0,1-.814-3.187,6.566,6.566,0,0,1,.776-3.186,5.838,5.838,0,0,1,2.132-2.215,5.657,5.657,0,0,1,3.024-.778,6.026,6.026,0,0,1,3.024.778,5.637,5.637,0,0,1,2.094,2.176,6.724,6.724,0,0,1,.775,3.225ZM77.3,108.34a4.491,4.491,0,0,0-1.357,2.954h8.646a4.49,4.49,0,0,0-1.357-2.954,4.192,4.192,0,0,0-2.986-1.127A4.059,4.059,0,0,0,77.3,108.34Z" fill="#282828"/><path d="M97.077,106.985a4.588,4.588,0,0,1,1.279,3.536V118.1H96.767V116.2a4.009,4.009,0,0,1-1.629,1.477,5.661,5.661,0,0,1-2.559.544,5.009,5.009,0,0,1-3.256-.971,3.132,3.132,0,0,1-1.2-2.565,3.088,3.088,0,0,1,1.124-2.488,5.533,5.533,0,0,1,3.567-.932h3.877v-.739a3.168,3.168,0,0,0-.892-2.409,3.614,3.614,0,0,0-2.559-.816,6.02,6.02,0,0,0-2.21.388,6.4,6.4,0,0,0-1.822,1.05l-.736-1.244a6.091,6.091,0,0,1,2.21-1.2,9.007,9.007,0,0,1,2.714-.427A4.738,4.738,0,0,1,97.077,106.985Zm-1.822,9.288a3.823,3.823,0,0,0,1.473-1.827v-1.982h-3.8c-2.093,0-3.14.739-3.14,2.177a1.962,1.962,0,0,0,.814,1.671,3.523,3.523,0,0,0,2.249.622A4.713,4.713,0,0,0,95.255,116.273Z" fill="#282828"/><path d="M106.109,106.4a5.762,5.762,0,0,1,2.831-.622v1.594l-.388-.039a3.965,3.965,0,0,0-3.024,1.166,4.648,4.648,0,0,0-1.086,3.3v6.218h-1.628v-12.2h1.59v2.371A4.443,4.443,0,0,1,106.109,106.4Z" fill="#282828"/><path d="M111.926,100.883h1.629V118.1h-1.629Z" fill="#282828"/><path d="M128.37,105.9l-6.087,13.679a6.175,6.175,0,0,1-1.706,2.449,3.924,3.924,0,0,1-2.326.7,4.468,4.468,0,0,1-1.629-.272,4.171,4.171,0,0,1-1.318-.816l.776-1.244a3.015,3.015,0,0,0,2.21.933,2.27,2.27,0,0,0,1.434-.466,3.786,3.786,0,0,0,1.086-1.593l.543-1.166-5.428-12.164h1.706l4.575,10.376,4.575-10.376h1.589Z" fill="#282828"/><path d="M130.581,101.855h7.095a10.341,10.341,0,0,1,4.614,1.01,7.581,7.581,0,0,1,4.265,7.112,8.269,8.269,0,0,1-1.125,4.275,7.19,7.19,0,0,1-3.14,2.837,10.328,10.328,0,0,1-4.614,1.01h-7.095Zm6.94,13.68a6.686,6.686,0,0,0,3.14-.7,5.057,5.057,0,0,0,2.094-1.943,5.621,5.621,0,0,0,.737-2.915,5.527,5.527,0,0,0-.737-2.915,4.839,4.839,0,0,0-2.094-1.943,6.686,6.686,0,0,0-3.14-.7H133.6v11.115Z" fill="#282828"/><path d="M160.977,112.809h-9.693a3.465,3.465,0,0,0,1.319,2.177,4.3,4.3,0,0,0,2.675.816,4.586,4.586,0,0,0,3.373-1.36l1.551,1.787a5.216,5.216,0,0,1-2.094,1.516,7.54,7.54,0,0,1-2.869.5,7.709,7.709,0,0,1-3.606-.816,5.861,5.861,0,0,1-2.4-2.254,6.226,6.226,0,0,1-.853-3.264,6.578,6.578,0,0,1,.815-3.265,5.8,5.8,0,0,1,2.287-2.254,6.582,6.582,0,0,1,3.3-.816,6.292,6.292,0,0,1,3.218.816,5.62,5.62,0,0,1,2.21,2.254,6.771,6.771,0,0,1,.814,3.342A7.247,7.247,0,0,1,160.977,112.809Zm-8.53-4.119a3.276,3.276,0,0,0-1.163,2.176H158.3a3.4,3.4,0,0,0-1.124-2.176,3.5,3.5,0,0,0-2.365-.816A3.436,3.436,0,0,0,152.447,108.69Z" fill="#282828"/><path d="M166.985,105.034v.739H170.4v2.332h-3.3v9.987h-2.908v-9.987h-2.055v-2.332h2.055V105a4.26,4.26,0,0,1,1.163-3.148,4.395,4.395,0,0,1,3.257-1.166,4.5,4.5,0,0,1,2.6.66l-.814,2.177a2.664,2.664,0,0,0-1.59-.505C167.605,103.052,166.985,103.713,166.985,105.034Zm7.366-1.9a1.7,1.7,0,0,1,0-2.487,1.751,1.751,0,0,1,1.319-.5,1.886,1.886,0,0,1,1.318.466,1.538,1.538,0,0,1,.543,1.2,1.728,1.728,0,0,1-.5,1.282,1.752,1.752,0,0,1-1.319.506A1.632,1.632,0,0,1,174.351,103.13ZM174.2,105.7H177.1v12.4H174.2Z" fill="#282828"/><path d="M191.642,106.9a5.376,5.376,0,0,1,1.4,4.041v7.112H190.13v-6.723a3.494,3.494,0,0,0-.775-2.448,2.83,2.83,0,0,0-2.171-.817,3.3,3.3,0,0,0-2.521.972,3.833,3.833,0,0,0-.93,2.759v6.257h-2.908v-12.4h2.753v1.593a4.1,4.1,0,0,1,1.822-1.282,6.213,6.213,0,0,1,2.443-.428A5.222,5.222,0,0,1,191.642,106.9Z" fill="#282828"/><path d="M208.427,112.809h-9.693a3.464,3.464,0,0,0,1.318,2.177,4.3,4.3,0,0,0,2.676.816,4.586,4.586,0,0,0,3.373-1.36l1.551,1.787a5.216,5.216,0,0,1-2.094,1.516,7.54,7.54,0,0,1-2.869.5,7.709,7.709,0,0,1-3.606-.816,5.861,5.861,0,0,1-2.4-2.254,6.226,6.226,0,0,1-.853-3.264,6.588,6.588,0,0,1,.814-3.265,5.814,5.814,0,0,1,2.288-2.254,6.582,6.582,0,0,1,3.3-.816,6.292,6.292,0,0,1,3.218.816,5.62,5.62,0,0,1,2.21,2.254,6.781,6.781,0,0,1,.814,3.342A7.247,7.247,0,0,1,208.427,112.809Zm-8.568-4.119a3.273,3.273,0,0,0-1.164,2.176h7.018a3.4,3.4,0,0,0-1.124-2.176,3.5,3.5,0,0,0-2.365-.816A3.571,3.571,0,0,0,199.859,108.69Z" fill="#282828"/><path d="M223.362,100.881V118.1H220.57v-1.632a4.651,4.651,0,0,1-1.783,1.321,5.646,5.646,0,0,1-2.327.428,6.8,6.8,0,0,1-3.218-.777,5.97,5.97,0,0,1-2.248-2.254,6.667,6.667,0,0,1-.815-3.342,6.52,6.52,0,0,1,.815-3.3,5.374,5.374,0,0,1,2.248-2.215,6.274,6.274,0,0,1,3.218-.777,6.1,6.1,0,0,1,2.249.427,4.645,4.645,0,0,1,1.745,1.244v-6.374h2.908ZM218.709,115.3a3.419,3.419,0,0,0,1.318-1.36,4.361,4.361,0,0,0,.5-2.06,4.051,4.051,0,0,0-.5-2.059,3.422,3.422,0,0,0-1.318-1.361,3.949,3.949,0,0,0-3.722,0,3.422,3.422,0,0,0-1.318,1.361,4.372,4.372,0,0,0-.5,2.059,4.055,4.055,0,0,0,.5,2.06,3.419,3.419,0,0,0,1.318,1.36,3.677,3.677,0,0,0,1.861.467A3.887,3.887,0,0,0,218.709,115.3Z" fill="#282828"/><path d="M111.059,51.453c-.045-.853-.09-1.752-.09-2.605a1.533,1.533,0,0,1,1.658-1.662c.9-.045,1.793-.045,2.644-.045.672,0,.986.314,1.076.988a35.055,35.055,0,0,1,.134,3.749,1.293,1.293,0,0,1-1.121.687,34.234,34.234,0,0,1-3.674-.3A.822.822,0,0,1,111.059,51.453Zm12.28-10.909a2.861,2.861,0,0,0,1.21.314c.947.034,1.869.068,2.785.082a1.1,1.1,0,0,0,.9-1.056,24.5,24.5,0,0,0-.321-3.877.821.821,0,0,0-.807-.629c-.537,0-1.075-.045-1.613-.09-.4.045-.762.045-1.075.09a1.473,1.473,0,0,0-1.569,1.527c-.045.854-.09,1.752-.09,2.65A.938.938,0,0,0,123.339,40.544Zm44.593,24.387a15.457,15.457,0,0,0-1.882-.179,13.448,13.448,0,0,0-1.882.179.446.446,0,0,0-.269.36c-.045.674-.045,3.234,0,3.863a.888.888,0,0,0,.851.988,32.115,32.115,0,0,0,3.585-.179,1.077,1.077,0,0,0,.673-.584,6,6,0,0,0,.179-3.325A1.233,1.233,0,0,0,167.932,64.931Zm-.362-11.856H166.5a10.1,10.1,0,0,0-1.166-.045c-.134,0-.224.045-.358.045-.9.135-1.076.314-1.076,1.258V57.3c0,.719.135.9.807,1.033a8.655,8.655,0,0,0,3.72-.179c.224-.045.448-.36.582-.584a5.03,5.03,0,0,0,.179-3.145C169,53.344,168.646,53.12,167.57,53.075ZM144.537,88.33c-1.075-.045-2.151.045-3.226,0a.734.734,0,0,0-.9.764,33.2,33.2,0,0,0,.269,3.638,1,1,0,0,0,.9.9c.538.09,1.031.135,1.569.179a3.688,3.688,0,0,1,.672-.044c1.21,0,1.793-.5,1.882-1.707a18.754,18.754,0,0,0,.09-2.246C145.837,88.779,145.523,88.42,144.537,88.33Zm-11.514.006c-.986,0-1.972,0-2.913.045-.4.045-.9,0-1.076.494a5.214,5.214,0,0,0-.314,1.393c0,.628.045,1.3.09,1.931a1.44,1.44,0,0,0,1.569,1.572,15.07,15.07,0,0,0,2.016,0,1.517,1.517,0,0,0,1.524-1.392c.09-.584.09-1.168.134-1.752,0,0-.044,0,0-.045a10.907,10.907,0,0,0,0-1.213A1.015,1.015,0,0,0,133.023,88.336Zm28.947-5.659a21.761,21.761,0,0,0-2.42-.09c-.9.045-1.3.27-1.345,1.168a19.612,19.612,0,0,0,.18,3.235c0,.224.4.584.627.629a14.757,14.757,0,0,0,3.137.179c.941-.09,1.255-.629,1.3-1.572v-.943a7.928,7.928,0,0,0-.045-1.033A1.507,1.507,0,0,0,161.97,82.677Zm3.68-36.252h1.03a8.13,8.13,0,0,0,1.479-.045,1.051,1.051,0,0,0,.986-.853,7.133,7.133,0,0,0,0-3.369.986.986,0,0,0-1.031-.9c-.851-.045-1.747-.045-2.6-.045a1.131,1.131,0,0,0-1.165.944,14.415,14.415,0,0,0-.09,3.1C164.305,46.111,164.8,46.38,165.65,46.425Zm-50.913,36.29a17.873,17.873,0,0,0-2.2,0,1.5,1.5,0,0,0-1.524,1.572c0,.629-.045,1.3,0,1.931a1.486,1.486,0,0,0,1.568,1.662,16.455,16.455,0,0,0,2.107,0c.9-.044,1.21-.314,1.434-1.212.089-.5.089-.944.134-1.438a5.973,5.973,0,0,1,0-.9A1.509,1.509,0,0,0,114.737,82.715Zm-2.065-42.126h1.882a1.566,1.566,0,0,0,1.658-1.618,7.9,7.9,0,0,0,0-1.033,5.364,5.364,0,0,0,0-.853,1.556,1.556,0,0,0-1.613-1.707,14.416,14.416,0,0,0-1.972,0,1.533,1.533,0,0,0-1.568,1.572,15.826,15.826,0,0,0,0,2.066A1.519,1.519,0,0,0,112.672,40.589Zm43.34,48.017a20.152,20.152,0,0,0-2.868.09.788.788,0,0,0-.583.539,18.019,18.019,0,0,0-.179,3.1,1.39,1.39,0,0,0,1.524,1.437h1.927a1.58,1.58,0,0,0,1.7-1.707V90.224C157.491,89.19,157.043,88.651,156.012,88.606Zm-47.15-23.582a17.391,17.391,0,0,0-2.644.045c-.493,0-.672.36-.672.854V67.5a4.622,4.622,0,0,1-.045.764v.763c0,.854.224,1.123,1.076,1.168.941.045,1.927,0,2.868-.045.448-.045.717-.224.762-.674q.135-1.415.134-2.83C110.341,65.249,110.252,65.114,108.862,65.024Zm32.764-30.369c.986.045,1.927.045,2.868,0,.673-.045,1.076-.27,1.121-.764a22.622,22.622,0,0,0,.134-3.01c-.045-.808-.4-1.033-1.21-1.033h-3.092c-.4,0-.627.135-.717.494a8.765,8.765,0,0,0-.09,3.414A.853.853,0,0,0,141.626,34.655Zm-31.82,18.73a6.256,6.256,0,0,0-3.63-.225c-.449.045-.628.359-.628.809v1.707c0,.494,0,.988.045,1.482,0,.853.269,1.168,1.12,1.168s1.7,0,2.555-.045c.717-.045,1.031-.315,1.075-1.078.045-1.078-.044-2.156-.089-3.234A.845.845,0,0,0,109.806,53.385Zm19.764-18.82a25.768,25.768,0,0,0,3.227.09c.4,0,.941-.135.986-.674.045-1.123.089-2.246.045-3.369,0-.584-.314-.764-.9-.764h-3.406c-.4,0-.672.135-.717.539a7.035,7.035,0,0,0,.179,3.729A.819.819,0,0,0,129.57,34.565Zm-19.9,42.542a5.581,5.581,0,0,0-3.63-.134c-.358.09-.493.314-.493.718v1.617c0,.584,0,1.168-.045,1.8a.744.744,0,0,0,.583.809,6.023,6.023,0,0,0,3.451-.135,1.236,1.236,0,0,0,.627-.808,25.149,25.149,0,0,0,0-3.19A.865.865,0,0,0,109.669,77.107Zm43.922-42.542a19.08,19.08,0,0,0,2.778,0,.941.941,0,0,0,.986-.854,16.917,16.917,0,0,0,.09-3.009c-.045-.764-.314-.854-1.076-.854h-1.434a13.866,13.866,0,0,0-1.389.045c-.852,0-1.12.225-1.165,1.078,0,.674-.045,1.348,0,2.022C152.381,33.981,152.784,34.52,153.591,34.565Zm10,24.8c.045.943.09,1.842.09,2.785,0,.539-.045,1.123-.09,1.662a.77.77,0,0,1-.762.674c-.986.09-2.016.135-3,.27a1.56,1.56,0,0,0-1.569,1.572,15.323,15.323,0,0,0-.045,2.47c.09,1.213.4,1.528,1.614,1.617.851.045,1.7.045,2.554.135.672.045.986.27,1.031.944a30.324,30.324,0,0,1,0,3.5c-.045.809-.583,1.123-1.7,1.213s-2.241.135-3.361.18c-.314,0-.672-.494-.672-.9V73.38a8.253,8.253,0,0,0-.135-1.482.9.9,0,0,0-.762-.764,3.928,3.928,0,0,0-3.226.854,3.15,3.15,0,0,0-.628,1.527,5.489,5.489,0,0,0,0,1.482c0,.36.18.539.538.719a6.29,6.29,0,0,0,2.42.494H157a.773.773,0,0,1,.852.9c-.045.673-.045,1.392-.045,2.066-.045.629-.045,1.213-.134,1.842a1.585,1.585,0,0,1-1.345,1.168c-1.21,0-2.42.089-3.585.134-.672.045-.941-.269-.986-.943q-.068-1.28-.134-2.56c-.135-1.528-1.39-1.752-2.42-1.573-2.376.405-2.779,2.471-2.465,4.088a.847.847,0,0,0,.72.689c.455-.025.925-.031,1.369-.031h1.748c.9,0,1.254.135,1.3,1.078a21.262,21.262,0,0,1-.134,3.773,1.15,1.15,0,0,1-1.21,1.078,27.189,27.189,0,0,1-3.317,0c-.985-.089-1.434-.763-1.478-1.976a24.592,24.592,0,0,1,.044-2.561c0-.077.012-.142.018-.212a.937.937,0,0,0-.9-.58,27.206,27.206,0,0,0-3.316.09,1.557,1.557,0,0,0-1.21,1.482c-.134.988-.224,2.021-.314,3.01-.044.539-.269.763-.806.763-.941.045-1.883.09-2.824.09-.537,0-1.03-.09-1.568-.135a.538.538,0,0,1-.493-.539c-.09-1.123-.179-2.29-.269-3.414a1.489,1.489,0,0,0-1.3-1.392c-1.03-.09-2.106-.18-3.137-.18-.6,0-.9.168-1.06.554a2.936,2.936,0,0,1,.03.3,21.263,21.263,0,0,1-.135,3.773,1.15,1.15,0,0,1-1.21,1.079,27.581,27.581,0,0,1-3.316,0c-.986-.09-1.434-.764-1.479-1.977a24.3,24.3,0,0,1,.045-2.56c.045-1.078.358-1.348,1.389-1.348.538-.045,1.076-.045,1.658-.045h1.748c.076,0,.144,0,.212,0a3.131,3.131,0,0,0,.371-.812,6.834,6.834,0,0,0-.359-3.279,1.782,1.782,0,0,0-1.434-1.078,5.46,5.46,0,0,0-2.555-.18,1.022,1.022,0,0,0-.941.988c-.089.809-.134,1.618-.224,2.471V81.2a.827.827,0,0,1-.941.854c-1.075-.045-2.151-.045-3.227-.135S116.8,81.376,116.8,80.3c0-.943-.044-1.887-.089-2.83,0-.764.134-1.033.9-1.078.807-.09,1.658-.135,2.465-.18a9.206,9.206,0,0,0,1.165-.179.909.909,0,0,0,.717-.9,13.424,13.424,0,0,0-.179-2.7,2.05,2.05,0,0,0-1.7-1.662c-.538-.09-2.644-.18-3.361-.18-.045.9-.09,1.752-.135,2.606-.044.808-.089,1.572-.179,2.38a.571.571,0,0,1-.314.405,9.646,9.646,0,0,1-3.585,0c-1.075-.135-1.479-.584-1.479-1.662v-2.2c.045-.853.359-1.257,1.165-1.392a13.925,13.925,0,0,1,1.972-.225c.538-.045,1.076,0,1.569-.045.672-.045.717-.045.717-.763,0-1.348-.045-2.7-.09-4.043,0-.13,0-.623.007-1.3a1.268,1.268,0,0,1-.775.259,27.173,27.173,0,0,1-3.316,0c-.986-.089-1.434-.763-1.479-1.976a24.32,24.32,0,0,1,.045-2.561c.044-1.078.358-1.347,1.389-1.347.538-.045,1.12-.045,1.658-.045h1.748a2.407,2.407,0,0,1,.786.09c.009-.549.018-.961.027-1.117.09-1.392.09-2.83.134-4.222,0-.449.09-.674.628-.674,1.075-.045,2.151-.18,3.226-.314a1.914,1.914,0,0,0,1.659-1.752c.089-.854.134-1.752.179-2.606,0-.808-.179-1.078-.986-1.168-.156-.024-.312-.024-.468-.033a23.056,23.056,0,0,1-2.76-.017c-.986-.089-1.434-.763-1.479-1.976a24.32,24.32,0,0,1,.045-2.561c.045-1.078.358-1.347,1.389-1.347.538-.045,1.076-.045,1.658-.045h1.748c.9,0,1.255.135,1.3,1.078a21.263,21.263,0,0,1-.135,3.773,1.033,1.033,0,0,1-.047.18c0,.016,0,.034,0,.05a.619.619,0,0,0,.358.449,13.975,13.975,0,0,0,1.972.18c.583,0,1.121-.18,1.7-.225a1.53,1.53,0,0,0,1.345-1.392,14.356,14.356,0,0,0,.313-2.785c.045-1.483.224-1.258,1.434-1.348l3.81-.135c.358,0,.582-.179.627-.629.09-1.3.224-2.56.358-3.818.09-.719.449-.988,1.166-1.033h3.092c.807,0,1.165.359,1.255,1.168.089,1.033.179,2.021.269,3.054.089.944.269,1.213,1.21,1.258,1.3.09,2.644.045,3.943.045a.473.473,0,0,0,.538-.449c.006-.051.018-.107.026-.16a3.5,3.5,0,0,1-.123-.832,24.32,24.32,0,0,1,.045-2.561c.045-1.078.358-1.347,1.389-1.347.538-.045,1.12-.045,1.658-.045h1.748c.9,0,1.255.135,1.3,1.078a21.263,21.263,0,0,1-.135,3.773,1.149,1.149,0,0,1-1.21,1.078,27.173,27.173,0,0,1-3.316,0,1.559,1.559,0,0,1-.736-.258l-.422.038c.09.9.179,1.8.224,2.74a2.379,2.379,0,0,0,1.165,2.066,5.186,5.186,0,0,0,1.614.494,12.068,12.068,0,0,0,1.792-.045c.538-.045.673-.494.717-.9.135-.809.18-1.662.269-2.516.045-.494.09-.943.18-1.437,0-.135.224-.27.358-.27.941-.045,1.882-.09,2.824-.09.224,0,.492.045.717.045.985,0,1.434.36,1.523,1.348q.135,1.752.135,3.5c0,.449-.4.674-.807.718-.627.045-1.3.045-1.927.09-.493.045-.941.09-1.434.135a1.107,1.107,0,0,0-.986,1.078,5.574,5.574,0,0,0,.358,2.83,2.033,2.033,0,0,0,.762.854,12.125,12.125,0,0,0,2.2.539,3.363,3.363,0,0,0,.673,0,.925.925,0,0,0,1.028-.481,3.385,3.385,0,0,1-.139-.869,24.592,24.592,0,0,1,.044-2.561c.045-1.078.359-1.347,1.39-1.347.537-.045,1.075-.045,1.658-.045h1.748c.9,0,1.254.135,1.3,1.078a20.192,20.192,0,0,1-.1,3.449l.021.012a.857.857,0,0,1-.037.157c-.006.052-.01.1-.015.155a1.15,1.15,0,0,1-1.21,1.078,27.189,27.189,0,0,1-3.317,0c-.056-.005-.093-.031-.146-.04a.773.773,0,0,0-.563.851c-.045,1.213,0,2.381.044,3.594a.938.938,0,0,0,.9.943c.851.135,1.7.225,2.6.315.4.044.807.044,1.255.089A.625.625,0,0,1,163.589,59.365Zm-13.707-5.308L137.947,47l-12.022,6.924-.043,14.022L137.818,75l12.022-6.968Z" fill="#282828"/></svg>