<svg xmlns="http://www.w3.org/2000/svg" viewBox="0 0 275 164"><title>FullLogo_white_v</title><rect width="275" height="164" fill="#282828"/><path d="M55.748,122.876a7.888,7.888,0,0,1-3.024-2.954,8.2,8.2,0,0,1-1.086-4.236,8.3,8.3,0,0,1,1.086-4.236,7.888,7.888,0,0,1,3.024-2.954,8.978,8.978,0,0,1,4.342-1.049,8.488,8.488,0,0,1,3.335.622,6.676,6.676,0,0,1,2.6,1.749l-1.085,1.088a6.508,6.508,0,0,0-4.808-1.943,7.063,7.063,0,0,0-3.489.894,6.725,6.725,0,0,0-2.482,2.409,6.819,6.819,0,0,0-.891,3.42,6.712,6.712,0,0,0,.891,3.42,6.188,6.188,0,0,0,2.482,2.409,7.063,7.063,0,0,0,3.489.894,6.508,6.508,0,0,0,4.808-1.943l1.085,1.088a7.218,7.218,0,0,1-2.6,1.788,8.506,8.506,0,0,1-3.335.622A9.34,9.34,0,0,1,55.748,122.876Z" fill="#fff"/><path d="M69.321,106.6h1.667v17.216H69.359V106.6Z" fill="#fff"/><path d="M86.143,118.212h-10.2a4.229,4.229,0,0,0,1.473,3.07,4.843,4.843,0,0,0,3.334,1.166,5.42,5.42,0,0,0,2.094-.388,4.156,4.156,0,0,0,1.628-1.2l.931,1.049a5.142,5.142,0,0,1-2.016,1.477,7.273,7.273,0,0,1-6.01-.311,5.873,5.873,0,0,1-2.249-2.215,6.3,6.3,0,0,1-.814-3.187,6.57,6.57,0,0,1,.776-3.187,5.846,5.846,0,0,1,2.132-2.215,5.665,5.665,0,0,1,3.024-.777,6.036,6.036,0,0,1,3.024.777,5.64,5.64,0,0,1,2.094,2.177,6.718,6.718,0,0,1,.775,3.225ZM77.3,114.054a4.488,4.488,0,0,0-1.357,2.954h8.646a4.488,4.488,0,0,0-1.357-2.954,4.192,4.192,0,0,0-2.986-1.127A4.059,4.059,0,0,0,77.3,114.054Z" fill="#fff"/><path d="M97.077,112.7a4.588,4.588,0,0,1,1.279,3.536v7.578H96.767v-1.9a4.009,4.009,0,0,1-1.629,1.477,5.661,5.661,0,0,1-2.559.544,5,5,0,0,1-3.256-.972,3.13,3.13,0,0,1-1.2-2.565,3.087,3.087,0,0,1,1.124-2.487,5.527,5.527,0,0,1,3.567-.933h3.877v-.738a3.168,3.168,0,0,0-.892-2.409,3.61,3.61,0,0,0-2.559-.817,6.021,6.021,0,0,0-2.21.389,6.425,6.425,0,0,0-1.822,1.049L88.47,113.2a6.091,6.091,0,0,1,2.21-1.2,9.007,9.007,0,0,1,2.714-.427A4.734,4.734,0,0,1,97.077,112.7Zm-1.822,9.288a3.832,3.832,0,0,0,1.473-1.827v-1.982h-3.8c-2.093,0-3.14.739-3.14,2.176a1.963,1.963,0,0,0,.814,1.672,3.523,3.523,0,0,0,2.249.621A4.712,4.712,0,0,0,95.255,121.987Z" fill="#fff"/><path d="M106.109,112.111a5.751,5.751,0,0,1,2.831-.622v1.593l-.388-.038a3.968,3.968,0,0,0-3.024,1.165,4.652,4.652,0,0,0-1.086,3.3v6.218h-1.628v-12.2h1.59v2.37A4.44,4.44,0,0,1,106.109,112.111Z" fill="#fff"/><path d="M111.926,106.6h1.629v17.216h-1.629Z" fill="#fff"/><path d="M128.37,111.61l-6.087,13.68a6.17,6.17,0,0,1-1.706,2.448,3.918,3.918,0,0,1-2.326.7,4.489,4.489,0,0,1-1.629-.272,4.171,4.171,0,0,1-1.318-.816l.776-1.244a3.015,3.015,0,0,0,2.21.933,2.276,2.276,0,0,0,1.434-.466,3.791,3.791,0,0,0,1.086-1.594l.543-1.166-5.428-12.164h1.706l4.575,10.377,4.575-10.377h1.589Z" fill="#fff"/><path d="M130.581,107.569h7.095a10.328,10.328,0,0,1,4.614,1.01,7.581,7.581,0,0,1,4.265,7.112,8.272,8.272,0,0,1-1.125,4.275,7.2,7.2,0,0,1-3.14,2.837,10.341,10.341,0,0,1-4.614,1.01h-7.095Zm6.94,13.679a6.686,6.686,0,0,0,3.14-.7,5.063,5.063,0,0,0,2.094-1.943,5.621,5.621,0,0,0,.737-2.915,5.525,5.525,0,0,0-.737-2.915,4.833,4.833,0,0,0-2.094-1.943,6.686,6.686,0,0,0-3.14-.7H133.6v11.115Z" fill="#fff"/><path d="M160.977,118.523h-9.693A3.463,3.463,0,0,0,152.6,120.7a4.3,4.3,0,0,0,2.675.817,4.583,4.583,0,0,0,3.373-1.361l1.551,1.788a5.216,5.216,0,0,1-2.094,1.516,7.559,7.559,0,0,1-2.869.5,7.709,7.709,0,0,1-3.606-.816,5.867,5.867,0,0,1-2.4-2.254,6.227,6.227,0,0,1-.853-3.265,6.572,6.572,0,0,1,.815-3.264,5.8,5.8,0,0,1,2.287-2.254,6.582,6.582,0,0,1,3.3-.816,6.292,6.292,0,0,1,3.218.816,5.614,5.614,0,0,1,2.21,2.254,6.765,6.765,0,0,1,.814,3.342A7.265,7.265,0,0,1,160.977,118.523Zm-8.53-4.119a3.276,3.276,0,0,0-1.163,2.176H158.3a3.4,3.4,0,0,0-1.124-2.176,3.5,3.5,0,0,0-2.365-.816A3.436,3.436,0,0,0,152.447,114.4Z" fill="#fff"/><path d="M166.985,110.748v.739H170.4v2.331h-3.3v9.988h-2.908v-9.988h-2.055v-2.331h2.055v-.778a4.263,4.263,0,0,1,1.163-3.148,4.4,4.4,0,0,1,3.257-1.165,4.5,4.5,0,0,1,2.6.66l-.814,2.176a2.67,2.67,0,0,0-1.59-.5C167.605,108.766,166.985,109.427,166.985,110.748Zm7.366-1.9a1.7,1.7,0,0,1,0-2.487,1.752,1.752,0,0,1,1.319-.506,1.887,1.887,0,0,1,1.318.467,1.536,1.536,0,0,1,.543,1.2,1.729,1.729,0,0,1-.5,1.282,1.751,1.751,0,0,1-1.319.5A1.628,1.628,0,0,1,174.351,108.844Zm-.155,2.565H177.1v12.4H174.2Z" fill="#fff"/><path d="M191.642,112.614a5.378,5.378,0,0,1,1.4,4.042v7.112H190.13v-6.723a3.5,3.5,0,0,0-.775-2.449,2.833,2.833,0,0,0-2.171-.816,3.3,3.3,0,0,0-2.521.972,3.83,3.83,0,0,0-.93,2.759v6.257h-2.908v-12.4h2.753v1.593a4.1,4.1,0,0,1,1.822-1.282,6.213,6.213,0,0,1,2.443-.428A5.221,5.221,0,0,1,191.642,112.614Z" fill="#fff"/><path d="M208.427,118.523h-9.693a3.462,3.462,0,0,0,1.318,2.176,4.3,4.3,0,0,0,2.676.817,4.583,4.583,0,0,0,3.373-1.361l1.551,1.788a5.216,5.216,0,0,1-2.094,1.516,7.559,7.559,0,0,1-2.869.5,7.709,7.709,0,0,1-3.606-.816,5.867,5.867,0,0,1-2.4-2.254,6.227,6.227,0,0,1-.853-3.265,6.582,6.582,0,0,1,.814-3.264,5.807,5.807,0,0,1,2.288-2.254,6.582,6.582,0,0,1,3.3-.816,6.292,6.292,0,0,1,3.218.816,5.614,5.614,0,0,1,2.21,2.254,6.776,6.776,0,0,1,.814,3.342A7.265,7.265,0,0,1,208.427,118.523Zm-8.568-4.119a3.273,3.273,0,0,0-1.164,2.176h7.018a3.4,3.4,0,0,0-1.124-2.176,3.5,3.5,0,0,0-2.365-.816A3.571,3.571,0,0,0,199.859,114.4Z" fill="#fff"/><path d="M223.362,106.6v17.216H220.57v-1.632a4.661,4.661,0,0,1-1.783,1.321,5.646,5.646,0,0,1-2.327.428,6.789,6.789,0,0,1-3.218-.778,5.963,5.963,0,0,1-2.248-2.254,6.662,6.662,0,0,1-.815-3.342,6.518,6.518,0,0,1,.815-3.3,5.369,5.369,0,0,1,2.248-2.215,6.275,6.275,0,0,1,3.218-.778,6.1,6.1,0,0,1,2.249.428,4.634,4.634,0,0,1,1.745,1.244v-6.374h2.908Zm-4.653,14.418a3.419,3.419,0,0,0,1.318-1.36,4.364,4.364,0,0,0,.5-2.06,4.057,4.057,0,0,0-.5-2.06,3.419,3.419,0,0,0-1.318-1.36,3.949,3.949,0,0,0-3.722,0,3.419,3.419,0,0,0-1.318,1.36,4.376,4.376,0,0,0-.5,2.06,4.057,4.057,0,0,0,.5,2.06,3.419,3.419,0,0,0,1.318,1.36,3.676,3.676,0,0,0,1.861.466A3.886,3.886,0,0,0,218.709,121.013Z" fill="#fff"/><path d="M162.962,64.405c-.448-.045-.852-.045-1.255-.09-.9-.09-1.748-.179-2.6-.314a.938.938,0,0,1-.9-.944c-.044-1.212-.089-2.38-.044-3.593a.773.773,0,0,1,.563-.851c.053.009.09.035.146.04a27.189,27.189,0,0,0,3.317,0,1.15,1.15,0,0,0,1.21-1.078c0-.052.009-.1.015-.155a.877.877,0,0,0,.037-.157l-.021-.012a20.2,20.2,0,0,0,.1-3.449c-.045-.944-.4-1.078-1.3-1.078H160.49c-.583,0-1.121,0-1.658.044-1.031,0-1.345.27-1.39,1.348a24.592,24.592,0,0,0-.044,2.561,3.349,3.349,0,0,0,.139.869.926.926,0,0,1-1.028.48,3.363,3.363,0,0,1-.673,0,11.961,11.961,0,0,1-2.2-.539,2.03,2.03,0,0,1-.762-.853,5.576,5.576,0,0,1-.358-2.83,1.107,1.107,0,0,1,.986-1.078c.493-.045.941-.09,1.434-.135.627-.045,1.3-.045,1.927-.09.4-.045.807-.269.807-.718q0-1.752-.135-3.5c-.089-.988-.538-1.348-1.524-1.348-.224,0-.492-.045-.716-.045-.942,0-1.883.045-2.824.09-.134,0-.358.135-.358.27-.09.494-.135.943-.18,1.437-.089.853-.134,1.707-.269,2.516-.044.4-.179.853-.717.9a12.068,12.068,0,0,1-1.792.045,5.186,5.186,0,0,1-1.614-.494,2.38,2.38,0,0,1-1.165-2.067c-.045-.943-.134-1.841-.224-2.74.151-.012.283-.025.422-.038a1.559,1.559,0,0,0,.736.259,27.173,27.173,0,0,0,3.316,0,1.149,1.149,0,0,0,1.21-1.078,21.27,21.27,0,0,0,.135-3.773c-.045-.944-.4-1.078-1.3-1.078h-1.748c-.538,0-1.12,0-1.658.045-1.031,0-1.344.269-1.389,1.347a24.32,24.32,0,0,0-.045,2.561,3.517,3.517,0,0,0,.123.832c-.008.053-.02.109-.026.16a.473.473,0,0,1-.538.449c-1.3,0-2.644.045-3.943-.045-.941-.045-1.121-.315-1.21-1.258-.09-1.033-.18-2.021-.269-3.054-.09-.809-.448-1.168-1.255-1.168h-3.092c-.717.045-1.076.314-1.166,1.033-.134,1.258-.268,2.515-.358,3.818-.045.449-.269.629-.627.629l-3.81.135c-1.21.09-1.389-.135-1.434,1.347a14.262,14.262,0,0,1-.314,2.785,1.529,1.529,0,0,1-1.344,1.393c-.583.045-1.12.224-1.7.224a13.977,13.977,0,0,1-1.972-.179.619.619,0,0,1-.358-.449c0-.017,0-.034,0-.05a1.057,1.057,0,0,0,.047-.18,21.266,21.266,0,0,0,.135-3.773c-.045-.944-.4-1.078-1.3-1.078h-1.748c-.582,0-1.12,0-1.658.045-1.031,0-1.344.269-1.389,1.347a24.32,24.32,0,0,0-.045,2.561c.045,1.212.493,1.886,1.479,1.976a23.266,23.266,0,0,0,2.76.017c.156.009.312.009.468.033.807.09.986.359.986,1.168-.045.853-.09,1.752-.179,2.6a1.913,1.913,0,0,1-1.659,1.752c-1.075.135-2.151.27-3.226.315-.538,0-.628.224-.628.673-.045,1.393-.045,2.83-.134,4.223-.009.156-.018.568-.027,1.117a2.407,2.407,0,0,0-.786-.09h-1.748c-.538,0-1.12,0-1.658.045-1.031,0-1.345.269-1.389,1.347a24.32,24.32,0,0,0-.045,2.561c.045,1.212.493,1.886,1.479,1.976a27.173,27.173,0,0,0,3.316,0,1.268,1.268,0,0,0,.775-.259c0,.676-.007,1.169-.007,1.3.045,1.347.09,2.7.09,4.043,0,.718-.045.718-.717.763-.493.045-1.031,0-1.569.045a13.925,13.925,0,0,0-1.972.225c-.806.134-1.12.539-1.165,1.392v2.2c0,1.078.4,1.528,1.479,1.662a9.6,9.6,0,0,0,3.585,0,.57.57,0,0,0,.314-.4c.09-.808.134-1.572.179-2.381.045-.853.09-1.707.135-2.605.717,0,2.823.09,3.361.18a2.048,2.048,0,0,1,1.7,1.662,13.419,13.419,0,0,1,.179,2.7.908.908,0,0,1-.717.9,9.026,9.026,0,0,1-1.165.18c-.807.045-1.658.09-2.465.18-.762.045-.9.314-.9,1.078.045.943.089,1.886.089,2.83,0,1.078.359,1.527,1.434,1.617s2.152.09,3.227.135a.827.827,0,0,0,.941-.854v-.943c.09-.854.135-1.662.224-2.471a1.021,1.021,0,0,1,.941-.988,5.447,5.447,0,0,1,2.555.18,1.78,1.78,0,0,1,1.434,1.078,6.821,6.821,0,0,1,.358,3.279,3.1,3.1,0,0,1-.37.812c-.068,0-.136,0-.212,0h-1.748c-.582,0-1.12,0-1.658.045-1.031,0-1.344.269-1.389,1.347a24.32,24.32,0,0,0-.045,2.561c.045,1.213.493,1.886,1.479,1.976a27.173,27.173,0,0,0,3.316,0A1.149,1.149,0,0,0,128.5,92.7a21.266,21.266,0,0,0,.135-3.773,2.936,2.936,0,0,0-.03-.3c.163-.386.464-.554,1.06-.554,1.031,0,2.107.09,3.137.18a1.488,1.488,0,0,1,1.3,1.392c.09,1.123.179,2.291.269,3.414a.538.538,0,0,0,.493.539c.538.045,1.031.135,1.568.135.941,0,1.883-.045,2.824-.09.537,0,.762-.225.806-.764.09-.988.18-2.021.314-3.009a1.558,1.558,0,0,1,1.21-1.483A27.408,27.408,0,0,1,144.9,88.3a.935.935,0,0,1,.9.58c-.006.07-.014.134-.018.212a24.592,24.592,0,0,0-.044,2.561c.044,1.212.493,1.886,1.478,1.976a27.189,27.189,0,0,0,3.317,0,1.15,1.15,0,0,0,1.21-1.078,21.269,21.269,0,0,0,.134-3.773c-.045-.944-.4-1.078-1.3-1.078h-1.748c-.444,0-.915.006-1.369.031a.847.847,0,0,1-.72-.689c-.314-1.617.089-3.684,2.465-4.088,1.03-.18,2.285.045,2.42,1.572q.066,1.281.134,2.561c.045.674.314.988.986.943,1.165-.045,2.375-.135,3.585-.135a1.585,1.585,0,0,0,1.345-1.168c.089-.628.089-1.212.134-1.841,0-.674,0-1.393.045-2.067a.773.773,0,0,0-.852-.9h-1.12a6.309,6.309,0,0,1-2.42-.494c-.358-.18-.538-.36-.538-.719a5.489,5.489,0,0,1,0-1.482,3.158,3.158,0,0,1,.628-1.528,3.927,3.927,0,0,1,3.226-.853.9.9,0,0,1,.762.764,8.253,8.253,0,0,1,.135,1.482v2.111c0,.4.358.9.672.9,1.12-.045,2.241-.09,3.361-.18s1.658-.4,1.7-1.213a30.341,30.341,0,0,0,0-3.5c-.045-.674-.359-.9-1.031-.943-.851-.09-1.7-.09-2.554-.135-1.21-.09-1.524-.4-1.614-1.617a15.323,15.323,0,0,1,.045-2.47,1.562,1.562,0,0,1,1.569-1.573c.986-.134,2.016-.179,3-.269a.771.771,0,0,0,.762-.674c.045-.539.09-1.123.09-1.662,0-.943-.045-1.842-.09-2.785A.625.625,0,0,0,162.962,64.405ZM149.84,73.749l-12.022,6.968-11.936-7.055.043-14.021,12.022-6.924,11.935,7.054Z" fill="#fff"/><path d="M111.686,57.975a34.018,34.018,0,0,0,3.674.3,1.3,1.3,0,0,0,1.121-.687,35.055,35.055,0,0,0-.134-3.749c-.09-.674-.4-.988-1.076-.988-.851,0-1.748,0-2.644.044a1.532,1.532,0,0,0-1.658,1.662c0,.854.045,1.752.09,2.606A.82.82,0,0,0,111.686,57.975Z" fill="#fff"/><path d="M123.339,46.257a2.844,2.844,0,0,0,1.21.315c.947.034,1.869.068,2.785.082a1.1,1.1,0,0,0,.9-1.056,24.517,24.517,0,0,0-.321-3.878.822.822,0,0,0-.807-.629c-.537,0-1.075-.044-1.613-.089-.4.045-.762.045-1.075.089a1.473,1.473,0,0,0-1.569,1.528c-.045.853-.09,1.752-.09,2.65A.937.937,0,0,0,123.339,46.257Z" fill="#fff"/><path d="M167.932,70.645a15.224,15.224,0,0,0-1.882-.18,13.3,13.3,0,0,0-1.882.18.446.446,0,0,0-.269.36c-.045.673-.045,3.234,0,3.863a.888.888,0,0,0,.851.988,31.879,31.879,0,0,0,3.585-.18,1.074,1.074,0,0,0,.673-.584,6,6,0,0,0,.179-3.324A1.232,1.232,0,0,0,167.932,70.645Z" fill="#fff"/><path d="M167.57,58.789H166.5a10.1,10.1,0,0,0-1.166-.045c-.134,0-.224.045-.358.045-.9.134-1.076.314-1.076,1.257v2.965c0,.719.135.9.807,1.033a8.639,8.639,0,0,0,3.72-.18c.224-.044.448-.359.582-.583a5.031,5.031,0,0,0,.179-3.145C169,59.058,168.646,58.833,167.57,58.789Z" fill="#fff"/><path d="M144.537,94.044c-1.075-.045-2.151.045-3.226,0a.733.733,0,0,0-.9.764,33.237,33.237,0,0,0,.269,3.638,1,1,0,0,0,.9.9c.538.09,1.031.135,1.569.18a3.607,3.607,0,0,1,.672-.045c1.21,0,1.793-.494,1.882-1.707a18.737,18.737,0,0,0,.09-2.246C145.837,94.493,145.523,94.134,144.537,94.044Z" fill="#fff"/><path d="M133.023,94.05c-.986,0-1.972,0-2.913.045-.4.044-.9,0-1.076.494a5.216,5.216,0,0,0-.314,1.392c0,.629.045,1.3.09,1.932a1.44,1.44,0,0,0,1.569,1.572,15.07,15.07,0,0,0,2.016,0,1.517,1.517,0,0,0,1.524-1.392c.09-.584.09-1.168.134-1.752,0,0-.044,0,0-.045a10.907,10.907,0,0,0,0-1.213A1.015,1.015,0,0,0,133.023,94.05Z" fill="#fff"/><path d="M161.97,88.391a21.761,21.761,0,0,0-2.42-.09c-.9.045-1.3.27-1.345,1.168a19.6,19.6,0,0,0,.18,3.234c0,.225.4.584.627.629a14.693,14.693,0,0,0,3.137.18c.941-.09,1.255-.629,1.3-1.572V91a7.943,7.943,0,0,0-.045-1.033A1.506,1.506,0,0,0,161.97,88.391Z" fill="#fff"/><path d="M165.65,52.139h1.03a8.13,8.13,0,0,0,1.479-.045,1.052,1.052,0,0,0,.986-.854,7.133,7.133,0,0,0,0-3.369.985.985,0,0,0-1.031-.9c-.851-.045-1.747-.045-2.6-.045a1.13,1.13,0,0,0-1.165.943,14.361,14.361,0,0,0-.09,3.1C164.305,51.824,164.8,52.094,165.65,52.139Z" fill="#fff"/><path d="M114.737,88.428a17.873,17.873,0,0,0-2.2,0A1.5,1.5,0,0,0,111.017,90c0,.628-.045,1.3,0,1.931a1.487,1.487,0,0,0,1.568,1.662,16.455,16.455,0,0,0,2.107,0c.9-.045,1.21-.314,1.434-1.213.089-.494.089-.943.134-1.437a5.973,5.973,0,0,1,0-.9A1.51,1.51,0,0,0,114.737,88.428Z" fill="#fff"/><path d="M112.672,46.3h1.882a1.566,1.566,0,0,0,1.658-1.617,7.9,7.9,0,0,0,0-1.033,5.364,5.364,0,0,0,0-.853,1.555,1.555,0,0,0-1.613-1.707,14.416,14.416,0,0,0-1.972,0,1.532,1.532,0,0,0-1.568,1.572,15.826,15.826,0,0,0,0,2.066A1.519,1.519,0,0,0,112.672,46.3Z" fill="#fff"/><path d="M156.012,94.32a20.152,20.152,0,0,0-2.868.09.786.786,0,0,0-.583.539,18.007,18.007,0,0,0-.179,3.1,1.391,1.391,0,0,0,1.524,1.438h1.927a1.58,1.58,0,0,0,1.7-1.707V95.937C157.491,94.9,157.043,94.365,156.012,94.32Z" fill="#fff"/><path d="M108.862,70.738a17.391,17.391,0,0,0-2.644.045c-.493,0-.672.359-.672.853v1.573a4.6,4.6,0,0,1-.045.763v.764c0,.853.224,1.123,1.076,1.168.941.045,1.927,0,2.868-.045.448-.045.717-.225.762-.674q.134-1.415.134-2.83C110.341,70.963,110.252,70.828,108.862,70.738Z" fill="#fff"/><path d="M141.626,40.368c.986.045,1.927.045,2.868,0,.673-.044,1.076-.269,1.121-.763a22.63,22.63,0,0,0,.134-3.01c-.045-.808-.4-1.033-1.21-1.033h-3.092c-.4,0-.627.135-.717.494a8.765,8.765,0,0,0-.09,3.414A.853.853,0,0,0,141.626,40.368Z" fill="#fff"/><path d="M109.806,59.1a6.256,6.256,0,0,0-3.63-.224c-.449.045-.628.359-.628.808v1.707c0,.494,0,.989.045,1.483,0,.853.269,1.168,1.12,1.168s1.7,0,2.555-.045c.717-.045,1.031-.315,1.075-1.078.045-1.078-.044-2.157-.089-3.235A.85.85,0,0,0,109.806,59.1Z" fill="#fff"/><path d="M129.57,40.279a25.959,25.959,0,0,0,3.227.089c.4,0,.941-.134.986-.673.044-1.123.089-2.246.044-3.369,0-.584-.313-.764-.9-.764h-3.406c-.4,0-.672.135-.717.539a7.021,7.021,0,0,0,.179,3.728A.818.818,0,0,0,129.57,40.279Z" fill="#fff"/><path d="M109.669,82.821a5.588,5.588,0,0,0-3.63-.135c-.358.09-.493.315-.493.719v1.617c0,.584,0,1.168-.045,1.8a.745.745,0,0,0,.583.809,6.023,6.023,0,0,0,3.451-.135,1.236,1.236,0,0,0,.627-.809,25.133,25.133,0,0,0,0-3.189A.863.863,0,0,0,109.669,82.821Z" fill="#fff"/><path d="M153.591,40.279a19.222,19.222,0,0,0,2.778,0,.941.941,0,0,0,.986-.854,16.925,16.925,0,0,0,.09-3.01c-.045-.763-.314-.853-1.076-.853h-1.434a13.866,13.866,0,0,0-1.389.045c-.852,0-1.12.225-1.165,1.078,0,.674-.045,1.348,0,2.021C152.381,39.7,152.784,40.234,153.591,40.279Z" fill="#fff"/></svg>